<svg width="192" height="80" viewBox="0 0 192 80" fill="none" xmlns="http://www.w3.org/2000/svg">
<rect width="80" height="80" rx="40" fill="#F8FAFC"/>
<g clip-path="url(#clip0_710_15130)">
<path fill-rule="evenodd" clip-rule="evenodd" d="M44.128 21.4939L54.0627 27.1854C54.3424 26.8914 54.6692 26.6318 55.0399 26.4181C57.1003 25.2429 59.7283 25.9407 60.925 27.9852C62.1095 30.0296 61.4062 32.6372 59.3458 33.8247C58.9779 34.0345 58.5916 34.1846 58.1984 34.2781V45.6655C58.5874 45.7591 58.9695 45.9083 59.3335 46.1159C61.4062 47.3034 62.1095 49.911 60.9127 51.9555C59.7283 53.9999 57.088 54.6977 55.0275 53.5225C54.6173 53.2885 54.2609 52.9972 53.9625 52.6647L44.0884 58.3215C44.2295 58.7447 44.3059 59.1974 44.3059 59.6681C44.3059 62.0186 42.3812 63.9406 40 63.9406C37.6188 63.9406 35.6941 62.0308 35.6941 59.6681C35.6941 59.2481 35.7549 58.8424 35.8683 58.4592L25.9362 52.7692C25.6595 53.0575 25.3372 53.3122 24.9725 53.5225C22.8997 54.6977 20.2717 53.9999 19.0873 51.9555C17.9029 49.911 18.6061 47.3034 20.6665 46.1159C21.0308 45.9081 21.4129 45.7589 21.8016 45.6653V34.2781C21.4084 34.1846 21.0221 34.0345 20.6542 33.8247C18.5938 32.6494 17.8905 30.0296 19.075 27.9852C20.2594 25.9407 22.8997 25.2429 24.9601 26.4181C25.3288 26.6306 25.654 26.8886 25.9327 27.1806L35.8701 21.4876C35.7555 21.1026 35.6941 20.6948 35.6941 20.2725C35.6941 17.9098 37.6188 16 40 16C42.3812 16 44.3059 17.9098 44.3059 20.2725C44.3059 20.6971 44.2438 21.107 44.128 21.4939ZM43.0929 23.2475L53.0513 28.9525C52.7434 30.0253 52.8564 31.2148 53.4606 32.2577C54.0668 33.304 55.0543 33.9976 56.1503 34.2679V45.6696C56.0944 45.6832 56.0389 45.6979 55.9836 45.7137L42.9773 23.3614C43.0166 23.3242 43.0551 23.2862 43.0929 23.2475ZM37.0254 23.364L24.0193 45.7159C23.9631 45.6997 23.9066 45.6847 23.8497 45.6707V34.2679C24.9457 33.9976 25.9332 33.304 26.5394 32.2577C27.1448 31.2127 27.257 30.0206 26.9469 28.9462L36.9024 23.2427C36.9426 23.284 36.9836 23.3244 37.0254 23.364ZM41.2031 24.3766L54.2063 46.7235C53.9152 46.9988 53.6588 47.3196 53.4483 47.6829C53.239 48.0441 53.0887 48.4232 52.9944 48.8092H27.0059C26.9115 48.4235 26.7611 48.0444 26.5517 47.6829C26.3404 47.3219 26.0844 47.0029 25.7949 46.7288L38.8005 24.3777C39.1811 24.4867 39.5836 24.5451 40 24.5451C40.4177 24.5451 40.8214 24.4863 41.2031 24.3766ZM43.1844 56.7897L53.0781 51.1217C53.0484 51.0292 53.0219 50.9357 52.9985 50.8414H27.0004C26.9866 50.8968 26.9717 50.9519 26.9557 51.0067L36.8979 56.7025C37.6807 55.8964 38.7805 55.3955 40 55.3955C41.2629 55.3955 42.3973 55.9327 43.1844 56.7897Z" fill="#E535AB"/>
</g>
<path d="M103.96 35.34C102.947 35.34 102.08 35.5733 101.36 36.04C100.653 36.4933 100.107 37.1333 99.72 37.96C99.3467 38.7733 99.16 39.7267 99.16 40.82C99.16 41.9533 99.36 42.9133 99.76 43.7C100.173 44.4867 100.74 45.0867 101.46 45.5C102.193 45.9133 103.027 46.12 103.96 46.12C104.6 46.12 105.173 46.04 105.68 45.88C106.2 45.7067 106.647 45.4533 107.02 45.12C107.407 44.7867 107.7 44.3733 107.9 43.88C108.113 43.3733 108.22 42.7933 108.22 42.14V40.84L109.3 41.92H103.6V39.92H110.34V48H108.44L108.22 45.48L108.5 45.8C108.287 46.2667 107.947 46.6867 107.48 47.06C107.027 47.42 106.48 47.7067 105.84 47.92C105.2 48.12 104.5 48.22 103.74 48.22C102.38 48.22 101.173 47.9133 100.12 47.3C99.08 46.6867 98.2667 45.82 97.68 44.7C97.0933 43.58 96.8 42.2733 96.8 40.78C96.8 39.3 97.1 37.9933 97.7 36.86C98.3 35.7267 99.14 34.84 100.22 34.2C101.3 33.5467 102.56 33.22 104 33.22C105.093 33.22 106.08 33.42 106.96 33.82C107.84 34.2067 108.567 34.76 109.14 35.48C109.713 36.1867 110.073 37.02 110.22 37.98H107.84C107.587 37.0867 107.107 36.4267 106.4 36C105.693 35.56 104.88 35.34 103.96 35.34ZM118.669 38.12V40.1H117.809C116.915 40.1 116.209 40.3467 115.689 40.84C115.182 41.3333 114.929 42.06 114.929 43.02V48H112.789V38.18H114.809L114.989 40.2H114.789C114.922 39.5467 115.235 39.0133 115.729 38.6C116.222 38.1867 116.862 37.98 117.649 37.98C117.809 37.98 117.969 37.9933 118.129 38.02C118.302 38.0333 118.482 38.0667 118.669 38.12ZM122.876 48.26C121.836 48.26 121.016 47.98 120.416 47.42C119.829 46.86 119.536 46.1333 119.536 45.24C119.536 44.3333 119.849 43.6133 120.476 43.08C121.116 42.5333 122.016 42.2133 123.176 42.12L126.196 41.88V41.64C126.196 41.1333 126.102 40.7333 125.916 40.44C125.729 40.1333 125.476 39.9133 125.156 39.78C124.836 39.6467 124.462 39.58 124.036 39.58C123.276 39.58 122.689 39.7333 122.276 40.04C121.862 40.3467 121.656 40.78 121.656 41.34H119.816C119.816 40.6333 119.989 40.0267 120.336 39.52C120.696 39 121.202 38.6 121.856 38.32C122.509 38.0267 123.269 37.88 124.136 37.88C124.989 37.88 125.722 38.0333 126.336 38.34C126.962 38.6333 127.442 39.08 127.776 39.68C128.122 40.28 128.296 41.0333 128.296 41.94V48H126.436L126.236 46.48C126.009 47.0133 125.589 47.4467 124.976 47.78C124.362 48.1 123.662 48.26 122.876 48.26ZM123.556 46.6C124.369 46.6 125.016 46.36 125.496 45.88C125.976 45.3867 126.216 44.7267 126.216 43.9V43.36L123.936 43.56C123.136 43.6267 122.562 43.8 122.216 44.08C121.882 44.36 121.716 44.7133 121.716 45.14C121.716 45.6333 121.876 46 122.196 46.24C122.516 46.48 122.969 46.6 123.556 46.6ZM130.816 52.48V38.18H132.776L132.936 39.8C133.243 39.1733 133.703 38.7 134.316 38.38C134.943 38.0467 135.636 37.88 136.396 37.88C137.329 37.88 138.136 38.0933 138.816 38.52C139.509 38.9467 140.043 39.5467 140.416 40.32C140.803 41.08 140.996 41.9733 140.996 43C140.996 44 140.816 44.9 140.456 45.7C140.096 46.4867 139.576 47.1133 138.896 47.58C138.216 48.0333 137.389 48.26 136.416 48.26C135.643 48.26 134.949 48.1133 134.336 47.82C133.736 47.5133 133.276 47.0867 132.956 46.54V52.48H130.816ZM132.976 43.08C132.976 43.7067 133.096 44.2667 133.336 44.76C133.576 45.2533 133.916 45.64 134.356 45.92C134.796 46.1867 135.316 46.32 135.916 46.32C136.529 46.32 137.049 46.18 137.476 45.9C137.903 45.62 138.229 45.24 138.456 44.76C138.696 44.2667 138.816 43.7067 138.816 43.08C138.816 42.4533 138.696 41.9 138.456 41.42C138.229 40.9267 137.903 40.5467 137.476 40.28C137.049 40 136.529 39.86 135.916 39.86C135.316 39.86 134.796 40 134.356 40.28C133.916 40.5467 133.576 40.92 133.336 41.4C133.096 41.88 132.976 42.44 132.976 43.08ZM145.144 48H143.004V33.2H145.164V39.56C145.47 39.0533 145.904 38.6467 146.464 38.34C147.024 38.0333 147.677 37.88 148.424 37.88C149.65 37.88 150.57 38.2467 151.184 38.98C151.81 39.7133 152.124 40.7067 152.124 41.96V48H149.984V42.46C149.984 41.86 149.89 41.3667 149.704 40.98C149.517 40.5933 149.257 40.3067 148.924 40.12C148.604 39.9333 148.224 39.84 147.784 39.84C147.224 39.84 146.744 39.9667 146.344 40.22C145.957 40.46 145.657 40.7933 145.444 41.22C145.244 41.6333 145.144 42.1067 145.144 42.64V48ZM168.164 40.72C168.164 42.2 167.864 43.5067 167.264 44.64C166.664 45.76 165.838 46.64 164.784 47.28C163.731 47.92 162.511 48.24 161.124 48.24C159.751 48.24 158.531 47.92 157.464 47.28C156.411 46.64 155.591 45.76 155.004 44.64C154.418 43.5067 154.124 42.2 154.124 40.72C154.124 39.2533 154.418 37.9533 155.004 36.82C155.604 35.6867 156.431 34.8 157.484 34.16C158.538 33.52 159.751 33.2 161.124 33.2C162.511 33.2 163.731 33.52 164.784 34.16C165.838 34.8 166.664 35.6867 167.264 36.82C167.864 37.94 168.164 39.24 168.164 40.72ZM165.784 40.72C165.784 39.64 165.591 38.7 165.204 37.9C164.818 37.1 164.278 36.48 163.584 36.04C162.904 35.6 162.091 35.38 161.144 35.38C160.211 35.38 159.391 35.6 158.684 36.04C157.991 36.48 157.451 37.1 157.064 37.9C156.678 38.7 156.484 39.64 156.484 40.72C156.484 41.8 156.678 42.74 157.064 43.54C157.451 44.34 157.991 44.96 158.684 45.4C159.391 45.84 160.211 46.06 161.144 46.06C162.091 46.06 162.904 45.84 163.584 45.4C164.278 44.96 164.818 44.34 165.204 43.54C165.591 42.7267 165.784 41.7867 165.784 40.72ZM166.404 49.04L161.404 43.38L162.864 42.08L167.864 47.72L166.404 49.04ZM172.889 33.46V48H170.629V33.46H172.889ZM171.009 48V45.92H179.109V48H171.009Z" fill="#0F172A"/>
<defs>
<clipPath id="clip0_710_15130">
<rect width="43" height="48" fill="white" transform="translate(18.5 16)"/>
</clipPath>
</defs>
</svg>
