<svg width="192" height="80" viewBox="0 0 192 80" fill="none" xmlns="http://www.w3.org/2000/svg">
<rect width="80" height="80" rx="40" fill="#F8FAFC"/>
<g clip-path="url(#clip0_709_15021)">
<g clip-path="url(#clip1_709_15021)">
<path d="M38.4282 16.0129C38.3249 16.0223 37.9965 16.0551 37.7009 16.0786C30.8833 16.6932 24.4974 20.3712 20.4528 26.0243C18.2006 29.1676 16.7601 32.733 16.2158 36.5096C16.0235 37.8279 16 38.2173 16 40.0047C16 41.7921 16.0235 42.1815 16.2158 43.4998C17.5202 52.512 23.9343 60.0839 32.6334 62.8893C34.1912 63.3913 35.8334 63.7338 37.7009 63.9402C38.4282 64.0199 41.5718 64.0199 42.2991 63.9402C45.5226 63.5836 48.2534 62.7861 50.9466 61.4115C51.3595 61.2004 51.4393 61.1441 51.383 61.0972C51.3455 61.0691 49.5859 58.7093 47.4745 55.8569L43.6364 50.6729L38.827 43.5561C36.1806 39.6435 34.0035 36.4439 33.9848 36.4439C33.966 36.4392 33.9472 39.6012 33.9378 43.4623C33.9238 50.2226 33.9191 50.4947 33.8346 50.6542C33.7126 50.884 33.6188 50.9779 33.4217 51.0811C33.2716 51.1561 33.1402 51.1702 32.4317 51.1702H31.6199L31.4041 51.0342C31.2633 50.945 31.1601 50.8277 31.0897 50.6917L30.9912 50.4806L31.0006 41.0743L31.0147 31.6634L31.1601 31.4804C31.2352 31.3819 31.3947 31.2553 31.5073 31.1943C31.6997 31.1004 31.7748 31.0911 32.5865 31.0911C33.5437 31.0911 33.7032 31.1286 33.9519 31.4007C34.0223 31.4757 36.6264 35.3978 39.7419 40.122C42.8575 44.8462 47.1179 51.2969 49.2106 54.4636L53.0111 60.2199L53.2035 60.0932C54.9067 58.9861 56.7085 57.4098 58.1349 55.7678C61.1707 52.2821 63.1273 48.0317 63.7842 43.4998C63.9765 42.1815 64 41.7921 64 40.0047C64 38.2173 63.9765 37.8279 63.7842 36.5096C62.4798 27.4974 56.0657 19.9255 47.3666 17.1201C45.8323 16.6228 44.1994 16.2803 42.3695 16.0739C41.9191 16.027 38.8176 15.9754 38.4282 16.0129ZM48.2534 30.5281C48.4786 30.6407 48.6616 30.8565 48.7273 31.0817C48.7648 31.2036 48.7742 33.8121 48.7648 39.6904L48.7507 48.1255L47.2633 45.8455L45.7713 43.5655V37.4338C45.7713 33.4696 45.79 31.2412 45.8182 31.1333C45.8933 30.8706 46.0575 30.6641 46.2827 30.5422C46.4751 30.4436 46.5455 30.4343 47.2821 30.4343C47.9765 30.4343 48.0985 30.4436 48.2534 30.5281Z" fill="black"/>
</g>
</g>
<path d="M99.88 48H97.66V33.46H99.9L107.68 45.22H107.04V33.46H109.26V48H107.04L99.24 36.26H99.88V48ZM116.562 48.26C115.589 48.26 114.729 48.04 113.982 47.6C113.249 47.16 112.669 46.5533 112.242 45.78C111.829 44.9933 111.622 44.0933 111.622 43.08C111.622 42.0533 111.822 41.1533 112.222 40.38C112.635 39.6067 113.209 39 113.942 38.56C114.675 38.1067 115.522 37.88 116.482 37.88C117.442 37.88 118.269 38.0867 118.962 38.5C119.669 38.9 120.215 39.4733 120.602 40.22C121.002 40.9533 121.202 41.82 121.202 42.82V43.54L112.762 43.56L112.802 42.16H119.042C119.042 41.4 118.809 40.8 118.342 40.36C117.889 39.9067 117.269 39.68 116.482 39.68C115.882 39.68 115.369 39.8067 114.942 40.06C114.529 40.3133 114.209 40.6933 113.982 41.2C113.769 41.6933 113.662 42.3 113.662 43.02C113.662 44.14 113.909 44.9933 114.402 45.58C114.909 46.1667 115.642 46.46 116.602 46.46C117.295 46.46 117.869 46.3267 118.322 46.06C118.775 45.7933 119.069 45.4 119.202 44.88H121.222C120.995 45.9333 120.469 46.76 119.642 47.36C118.829 47.96 117.802 48.26 116.562 48.26ZM124.168 48H121.688L125.108 43.16L121.688 38.18H124.208L126.528 41.68L128.808 38.18H131.228L127.848 43.14L131.168 48H128.668L126.388 44.58L124.168 48ZM132.12 38.18H138.1V39.98H132.12V38.18ZM136.18 48H134.04V35.1H136.18V48ZM140.637 48.24C140.21 48.24 139.844 48.0933 139.537 47.8C139.244 47.5067 139.097 47.16 139.097 46.76C139.097 46.3333 139.244 45.9733 139.537 45.68C139.844 45.3867 140.21 45.24 140.637 45.24C141.05 45.24 141.404 45.3867 141.697 45.68C142.004 45.9733 142.157 46.3333 142.157 46.76C142.157 47.16 142.004 47.5067 141.697 47.8C141.404 48.0933 141.05 48.24 140.637 48.24ZM142.341 52.54L142.721 50.6C142.894 50.6533 143.048 50.6867 143.181 50.7C143.301 50.7267 143.434 50.74 143.581 50.74C144.021 50.74 144.328 50.6133 144.501 50.36C144.688 50.1067 144.781 49.72 144.781 49.2V38.18H146.921V49.42C146.921 50.4333 146.648 51.24 146.101 51.84C145.554 52.44 144.774 52.74 143.761 52.74C143.534 52.74 143.321 52.7267 143.121 52.7C142.908 52.6733 142.648 52.62 142.341 52.54ZM145.861 36.02C145.474 36.02 145.148 35.8867 144.881 35.62C144.614 35.3533 144.481 35.0333 144.481 34.66C144.481 34.2867 144.614 33.9667 144.881 33.7C145.148 33.4333 145.474 33.3 145.861 33.3C146.221 33.3 146.534 33.4333 146.801 33.7C147.068 33.9667 147.201 34.2867 147.201 34.66C147.201 35.0333 147.068 35.3533 146.801 35.62C146.534 35.8867 146.221 36.02 145.861 36.02ZM148.786 45.08H150.826C150.839 45.5467 151.013 45.9133 151.346 46.18C151.679 46.4467 152.139 46.58 152.726 46.58C153.339 46.58 153.813 46.46 154.146 46.22C154.479 45.98 154.646 45.6667 154.646 45.28C154.646 44.9867 154.559 44.7467 154.386 44.56C154.213 44.36 153.886 44.2 153.406 44.08L151.646 43.68C150.779 43.4667 150.126 43.14 149.686 42.7C149.259 42.26 149.046 41.66 149.046 40.9C149.046 40.2733 149.206 39.74 149.526 39.3C149.859 38.8467 150.313 38.5 150.886 38.26C151.459 38.0067 152.113 37.88 152.846 37.88C153.579 37.88 154.219 38.0133 154.766 38.28C155.313 38.5333 155.739 38.8933 156.046 39.36C156.353 39.8267 156.506 40.38 156.506 41.02H154.466C154.453 40.5533 154.299 40.1867 154.006 39.92C153.713 39.6533 153.299 39.52 152.766 39.52C152.246 39.52 151.839 39.64 151.546 39.88C151.253 40.1067 151.106 40.42 151.106 40.82C151.106 41.42 151.553 41.8333 152.446 42.06L154.206 42.46C155.033 42.6467 155.653 42.9533 156.066 43.38C156.479 43.7933 156.686 44.3733 156.686 45.12C156.686 45.7467 156.513 46.3 156.166 46.78C155.833 47.26 155.366 47.6267 154.766 47.88C154.166 48.1333 153.466 48.26 152.666 48.26C151.479 48.26 150.533 47.9667 149.826 47.38C149.133 46.7933 148.786 46.0267 148.786 45.08Z" fill="#0F172A"/>
<defs>
<clipPath id="clip0_709_15021">
<rect width="48" height="48" fill="white" transform="translate(16 16)"/>
</clipPath>
<clipPath id="clip1_709_15021">
<rect width="48" height="48" fill="white" transform="translate(16 16)"/>
</clipPath>
</defs>
</svg>
