<svg width="87" height="28" viewBox="0 0 87 28" fill="none" xmlns="http://www.w3.org/2000/svg">
<g clip-path="url(#clip0_693_3775)">
<path d="M29.5868 14.2355C29.5868 12.9642 29.5868 11.6929 29.5868 10.4214C29.5879 10.2809 29.5993 10.1406 29.6209 10.0018C29.6415 9.8727 29.7043 9.75399 29.7994 9.66402C29.8946 9.57405 30.0168 9.51781 30.1472 9.50404C30.2819 9.49087 30.4178 9.48068 30.5533 9.48025C31.8182 9.47855 33.0825 9.47855 34.3462 9.48025C34.9217 9.4662 35.4954 9.55141 36.0419 9.7321C36.5373 9.9104 36.97 10.2286 37.2871 10.6478C37.6042 11.067 37.7919 11.5692 37.8275 12.0929C37.8722 12.6604 37.8051 13.2312 37.6297 13.773C37.4963 14.1639 37.2735 14.5185 36.9788 14.8088C36.6841 15.0991 36.3257 15.317 35.9319 15.4454C35.3063 15.6628 34.6506 15.7822 33.9882 15.7992C33.4905 15.8242 32.9914 15.8463 32.4967 15.9019C32.3037 15.9099 32.1202 15.9876 31.9804 16.1204C31.8406 16.2532 31.754 16.4322 31.7368 16.6239C31.7052 16.8431 31.6909 17.0645 31.6942 17.286C31.6869 17.5833 31.6916 17.8806 31.6908 18.1778C31.7048 18.2943 31.6927 18.4124 31.6553 18.5236C31.6179 18.6348 31.5562 18.7363 31.4747 18.8209C31.3931 18.9055 31.2937 18.9709 31.1837 19.0125C31.0737 19.0542 30.9558 19.0709 30.8384 19.0616C30.5842 19.0616 30.3308 19.0331 30.0829 18.9767C29.9587 18.9525 29.846 18.8882 29.7621 18.7938C29.6782 18.6994 29.6278 18.5801 29.6188 18.4543C29.5987 18.3152 29.5884 18.1748 29.5877 18.0343C29.5857 16.7676 29.5854 15.5013 29.5868 14.2355ZM33.3635 10.8902C33.1576 10.8902 32.9497 10.8732 32.7455 10.8936C32.5148 10.8883 32.2895 10.9641 32.1091 11.1077C31.9288 11.2512 31.8048 11.4534 31.759 11.6789C31.6177 12.3025 31.6042 12.9482 31.7193 13.5772C31.7497 13.7577 31.8358 13.9243 31.9657 14.0537C32.0955 14.1831 32.2627 14.2689 32.4438 14.2992C33.2221 14.4966 34.0434 14.4408 34.7877 14.1399C35.0581 14.0373 35.2919 13.857 35.4593 13.6218C35.5966 13.4196 35.6894 13.1906 35.7313 12.9501C35.7732 12.7095 35.7635 12.4628 35.7026 12.2263C35.6542 11.9569 35.5334 11.7057 35.3532 11.4993C35.173 11.2928 34.94 11.1388 34.679 11.0537C34.2537 10.9212 33.808 10.8658 33.363 10.8902H33.3635Z" fill="#277C12"/>
<path d="M71.6909 14.2495C71.6909 15.51 71.6909 16.77 71.6909 18.0292C71.6969 18.1913 71.6816 18.3535 71.6453 18.5117C71.5863 18.7035 71.4573 18.8663 71.2838 18.968C71.1102 19.0696 70.9047 19.1027 70.7078 19.0608C70.4705 19.0443 70.2354 19.0044 70.0059 18.9419C69.5771 18.8093 69.1149 18.8345 68.7031 19.0128C68.3457 19.1665 67.9604 19.2455 67.5711 19.2448C67.1817 19.2442 66.7967 19.1639 66.4398 19.009C66.087 18.8652 65.7677 18.6503 65.5021 18.3779C65.2364 18.1054 65.03 17.7813 64.8958 17.4257C64.5828 16.6318 64.4733 15.7727 64.5771 14.926C64.6173 14.2819 64.804 13.6552 65.123 13.0935C65.326 12.75 65.6031 12.4559 65.9342 12.2323C66.2654 12.0087 66.6423 11.8613 67.0377 11.8008C67.6254 11.7274 68.2217 11.7663 68.7948 11.9154C68.8212 11.921 68.8472 11.9303 68.8736 11.9345C69.4242 12.0246 69.6833 11.952 69.7775 11.1778C69.8201 10.8189 69.8201 10.4558 69.8478 10.0931C69.844 9.97352 69.8714 9.85499 69.9274 9.74914C69.9833 9.64328 70.0659 9.55371 70.167 9.4892C70.2064 9.46139 70.2515 9.44268 70.2991 9.43442C70.5733 9.40822 70.849 9.40098 71.1242 9.41276C71.4319 9.44037 71.6262 9.71598 71.6645 10.1114C71.6811 10.2834 71.6897 10.4571 71.6901 10.6299C71.6921 11.8366 71.6924 13.0431 71.6909 14.2495ZM69.7898 15.3839L69.8325 15.3775C69.7728 15.0063 69.7378 14.6288 69.6475 14.2648C69.6014 14.035 69.5013 13.8195 69.3552 13.6358C69.2092 13.4522 69.0215 13.3058 68.8075 13.2086C68.6081 13.1173 68.3916 13.0688 68.1722 13.066C67.9527 13.0633 67.7351 13.1065 67.5334 13.1928C67.3317 13.2791 67.1504 13.4065 67.0013 13.567C66.8521 13.7274 66.7384 13.9173 66.6674 14.1242C66.4536 14.7163 66.3865 15.3511 66.4717 15.9746C66.5074 16.3957 66.6361 16.8038 66.8485 17.1697C66.9927 17.4394 67.2276 17.6499 67.512 17.7642C67.6948 17.8421 67.8913 17.883 68.09 17.8847C68.2888 17.8863 68.4859 17.8486 68.6699 17.7738C68.8539 17.699 69.0213 17.5885 69.1622 17.4488C69.3031 17.3091 69.4147 17.1429 69.4907 16.9599C69.7115 16.4645 69.814 15.9249 69.7903 15.3834L69.7898 15.3839Z" fill="#277C12"/>
<path d="M44.5619 16.1368C44.5619 16.8075 44.5619 17.4783 44.5619 18.149C44.5636 18.2031 44.5623 18.2572 44.5581 18.3112C44.5031 18.8094 44.2994 19.0034 43.791 18.9907C43.5366 18.9897 43.284 18.9483 43.0427 18.868C42.6243 18.7231 42.1672 18.7366 41.7582 18.9058C41.3709 19.063 40.9612 19.1585 40.5441 19.1886C39.8837 19.2456 39.2251 19.0605 38.692 18.668C38.4858 18.4992 38.317 18.2897 38.1962 18.0526C38.0754 17.8156 38.0052 17.5561 37.9901 17.2907C37.8542 16.0094 38.7661 15.2654 39.6615 14.9057C40.1697 14.7164 40.6976 14.5847 41.2353 14.5128C41.4865 14.4751 41.7336 14.4141 41.9734 14.3306C42.1184 14.2985 42.249 14.2204 42.3456 14.108C42.4423 13.9955 42.4996 13.8549 42.5091 13.7072C42.5199 13.5348 42.4765 13.3634 42.3848 13.2168C42.2931 13.0702 42.1578 12.9559 41.9977 12.8897C41.7866 12.7864 41.5496 12.7474 41.3164 12.7776C41.0831 12.8078 40.864 12.9059 40.6864 13.0595C40.5326 13.1793 40.3881 13.3093 40.2279 13.4222C40.0448 13.5544 39.8346 13.6443 39.6123 13.6854C39.3901 13.7266 39.1615 13.7179 38.943 13.66C38.8696 13.6503 38.7992 13.6245 38.7369 13.5845C38.6747 13.5444 38.6221 13.4912 38.5829 13.4285C38.5437 13.3658 38.5189 13.2953 38.5103 13.222C38.5017 13.1486 38.5094 13.0743 38.533 13.0043C38.5883 12.7802 38.6937 12.5715 38.8412 12.3937C38.9888 12.2159 39.1748 12.0736 39.3853 11.9774C39.8605 11.7357 40.3834 11.6017 40.9165 11.585C41.652 11.5243 42.3926 11.5883 43.1066 11.7744C43.4519 11.8594 43.7645 12.0438 44.0052 12.3048C44.2459 12.5658 44.4042 12.8917 44.4601 13.2417C44.521 13.5653 44.5527 13.8936 44.5547 14.2228C44.5721 14.8598 44.5619 15.4985 44.5619 16.1368ZM41.0418 17.7638C41.4092 17.7473 41.7595 17.6047 42.0334 17.3601C42.3072 17.1154 42.4876 16.7839 42.544 16.4218C42.563 16.3292 42.5607 16.2336 42.5373 16.1421C42.5139 16.0505 42.47 15.9655 42.4089 15.8932C42.3478 15.821 42.2711 15.7635 42.1846 15.725C42.098 15.6865 42.0038 15.668 41.9091 15.6709C41.5969 15.6531 41.2846 15.7041 40.9944 15.8203C40.7043 15.9365 40.4434 16.115 40.2304 16.3432C40.1507 16.4291 40.0929 16.5329 40.062 16.6458C40.0311 16.7587 40.0281 16.8774 40.0531 16.9917C40.1001 17.2159 40.2251 17.4164 40.406 17.5576C40.5869 17.6989 40.8121 17.7719 41.0418 17.7638Z" fill="#277C12"/>
<path d="M58.9738 16.0434V18.0555C58.9738 18.098 58.9738 18.1405 58.9738 18.1855C58.9713 18.78 58.7458 19.0115 58.1539 18.9894C57.9102 18.9841 57.6688 18.9411 57.4384 18.862C57.0359 18.7233 56.5965 18.7355 56.2025 18.8964C55.8053 19.0577 55.3853 19.1564 54.9577 19.189C54.325 19.2397 53.6941 19.0724 53.1704 18.7151C52.9458 18.5473 52.7611 18.3323 52.6295 18.0853C52.4978 17.8382 52.4225 17.5653 52.4088 17.286C52.3083 16.254 52.8299 15.5694 53.6873 15.0921C54.2741 14.7952 54.9089 14.604 55.5624 14.5272C55.8356 14.4892 56.1046 14.4263 56.3662 14.3391C56.8008 14.1832 56.953 13.948 56.9201 13.5747C56.8947 13.3917 56.8139 13.2208 56.6885 13.0848C56.5631 12.9487 56.399 12.854 56.2183 12.8132C56.0207 12.7616 55.8134 12.7592 55.6146 12.8062C55.4158 12.8531 55.2317 12.948 55.0783 13.0824C54.9419 13.198 54.803 13.3109 54.6585 13.4158C54.4809 13.546 54.2771 13.6362 54.061 13.6802C53.845 13.7242 53.622 13.7209 53.4073 13.6706C53.3248 13.665 53.2449 13.6397 53.1742 13.597C53.1034 13.5544 53.0439 13.4955 53.0006 13.4253C52.9573 13.3551 52.9314 13.2756 52.9251 13.1935C52.9189 13.1113 52.9324 13.0288 52.9645 12.9529C53.0271 12.7392 53.1351 12.5415 53.281 12.373C53.427 12.2044 53.6075 12.0691 53.8104 11.9761C54.286 11.7353 54.8089 11.6019 55.3421 11.5854C56.0668 11.5283 56.7961 11.5897 57.501 11.7672C57.9017 11.8619 58.2593 12.0868 58.5175 12.4065C58.7756 12.7261 58.9197 13.1223 58.9269 13.5326C58.9891 14.3671 58.976 15.2067 58.996 16.0446L58.9738 16.0434ZM56.953 16.3457C56.964 16.2604 56.9564 16.1737 56.9306 16.0915C56.9049 16.0093 56.8617 15.9337 56.8039 15.8697C56.7461 15.8058 56.6751 15.755 56.5958 15.7209C56.5165 15.6868 56.4308 15.6702 56.3444 15.6722C56.0488 15.6533 55.7525 15.6957 55.4741 15.7966C55.1958 15.8976 54.9414 16.0549 54.7271 16.2587C54.6346 16.341 54.562 16.4432 54.5147 16.5575C54.4675 16.6718 54.4468 16.7953 54.4543 16.9187C54.4617 17.0421 54.4971 17.1622 54.5578 17.27C54.6185 17.3778 54.7029 17.4706 54.8047 17.5412C54.9429 17.6467 55.1043 17.7178 55.2755 17.7488C55.4468 17.7797 55.623 17.7696 55.7896 17.7192C56.1044 17.6424 56.3867 17.4681 56.5957 17.2213C56.8048 16.9745 56.9299 16.6679 56.953 16.3457Z" fill="#277C12"/>
<path d="M78.9158 16.0349V18.0798C78.9158 18.1286 78.9158 18.177 78.9158 18.2258C78.9039 18.7699 78.6784 19.0043 78.135 18.9903C77.8806 18.9868 77.6283 18.9438 77.3871 18.8629C76.9788 18.7234 76.5336 18.7359 76.1338 18.8981C75.7417 19.0574 75.327 19.1548 74.9048 19.1869C74.2557 19.2421 73.6081 19.0657 73.0774 18.6892C72.8651 18.5236 72.6906 18.315 72.5653 18.0771C72.4401 17.8392 72.3669 17.5775 72.3508 17.3094C72.2396 16.2634 72.762 15.5682 73.6331 15.0878C74.2203 14.7925 74.855 14.602 75.5082 14.5251C75.7811 14.4859 76.05 14.4225 76.3115 14.3357C76.7079 14.196 76.8919 13.9425 76.8655 13.646C76.8544 13.4505 76.7802 13.2637 76.654 13.1135C76.5277 12.9634 76.3562 12.8579 76.1649 12.8128C75.9675 12.7601 75.7602 12.7565 75.5611 12.8023C75.362 12.8481 75.1771 12.9418 75.0228 13.0753C74.8818 13.1937 74.7394 13.3109 74.5898 13.4184C74.4093 13.5493 74.2022 13.6391 73.9831 13.6815C73.7639 13.7239 73.5381 13.7179 73.3216 13.6639C73.2449 13.6563 73.1709 13.6315 73.1052 13.5913C73.0396 13.5511 72.984 13.4965 72.9426 13.4317C72.9013 13.3668 72.8753 13.2935 72.8666 13.2172C72.8579 13.1409 72.8667 13.0636 72.8924 12.9912C72.9493 12.7701 73.055 12.5644 73.2017 12.3891C73.3484 12.2138 73.5324 12.0733 73.7405 11.9779C74.2154 11.7359 74.7381 11.6014 75.2713 11.5838C75.9907 11.5254 76.7148 11.5841 77.4153 11.7575C77.8181 11.8454 78.1796 12.0655 78.4419 12.3826C78.7042 12.6998 78.852 13.0955 78.8617 13.5063C78.932 14.3451 78.9166 15.191 78.9384 16.034L78.9158 16.0349ZM76.8924 16.3585C76.9054 16.2705 76.8987 16.1807 76.8727 16.0955C76.8467 16.0104 76.8021 15.9321 76.742 15.8662C76.682 15.8004 76.608 15.7486 76.5255 15.7147C76.4429 15.6808 76.3538 15.6655 76.2647 15.6701C75.9716 15.6542 75.6783 15.6983 75.403 15.7998C75.1277 15.9013 74.8762 16.0579 74.664 16.26C74.5729 16.3419 74.5013 16.4432 74.4545 16.5562C74.4077 16.6693 74.3869 16.7914 74.3936 16.9135C74.4002 17.0357 74.4342 17.1548 74.493 17.2621C74.5518 17.3695 74.634 17.4624 74.7335 17.534C74.87 17.641 75.0301 17.7138 75.2006 17.7466C75.3711 17.7794 75.547 17.7712 75.7136 17.7226C76.0298 17.6487 76.3143 17.4766 76.5262 17.2313C76.738 16.9859 76.8662 16.6799 76.8924 16.3572V16.3585Z" fill="#277C12"/>
<path d="M86.294 15.9559C86.294 16.7022 86.294 17.4487 86.294 18.1953C86.3077 18.3091 86.2956 18.4245 86.2585 18.533C86.2213 18.6415 86.1602 18.7403 86.0796 18.8221C85.999 18.9038 85.901 18.9665 85.7928 19.0054C85.6846 19.0443 85.569 19.0584 85.4545 19.0468C85.3352 19.0493 85.2159 19.0493 85.0966 19.0468C84.9917 19.0555 84.8861 19.0413 84.7873 19.0052C84.6885 18.9691 84.5987 18.912 84.5242 18.8378C84.4498 18.7636 84.3925 18.6742 84.3563 18.5757C84.3201 18.4772 84.3058 18.372 84.3145 18.2675C84.3077 17.8186 84.3145 17.3697 84.3124 16.9208C84.3124 16.2502 84.3201 15.5792 84.303 14.9086C84.311 14.4672 84.1841 14.0338 83.9391 13.666C83.7689 13.4607 83.531 13.3224 83.268 13.2758C83.0049 13.2291 82.7338 13.2771 82.5029 13.4112C82.3237 13.5351 82.1763 13.6993 82.0726 13.8905C81.9689 14.0818 81.9119 14.2947 81.9063 14.512C81.8526 15.0216 81.8484 15.5363 81.8411 16.0489C81.8313 16.7518 81.8279 17.4555 81.8411 18.1583C81.8568 18.2774 81.845 18.3984 81.8066 18.5122C81.7683 18.626 81.7044 18.7296 81.6198 18.8151C81.5352 18.9006 81.4322 18.9657 81.3186 19.0056C81.205 19.0455 81.0837 19.059 80.9641 19.0451C80.8448 19.0485 80.725 19.0451 80.6061 19.0451C80.5136 19.0493 80.4212 19.0352 80.3341 19.0037C80.2471 18.9722 80.1672 18.9238 80.0991 18.8613C80.0309 18.7989 79.9758 18.7236 79.9369 18.6398C79.8981 18.556 79.8762 18.4655 79.8727 18.3732C79.8631 18.2818 79.8587 18.19 79.8595 18.098C79.8595 16.286 79.8595 14.474 79.8595 12.6621C79.8595 12.0675 80.1275 11.7796 80.7263 11.7732C81.0188 11.7699 81.3106 11.8012 81.5956 11.8666C82.0665 11.9836 82.5619 11.9568 83.0173 11.7898C83.6055 11.5704 84.2453 11.5279 84.8575 11.6674C85.1858 11.7279 85.4883 11.8853 85.7259 12.1191C85.9634 12.3529 86.1249 12.6524 86.1896 12.9789C86.2536 13.2468 86.2873 13.521 86.2902 13.7964C86.3038 14.5154 86.2949 15.2352 86.2949 15.9547L86.294 15.9559Z" fill="#277C12"/>
<path d="M48.5964 19.0429C47.8365 19.0429 47.0767 19.0429 46.3168 19.0429C46.2025 19.0444 46.0882 19.0343 45.9759 19.0128C45.8134 18.987 45.6649 18.9061 45.5554 18.7838C45.4459 18.6614 45.3822 18.5051 45.375 18.3414C45.332 18.0705 45.3537 17.7934 45.4385 17.5325C45.5233 17.2716 45.6688 17.0344 45.863 16.8401C46.6531 16.0448 47.4409 15.2471 48.2264 14.447C48.3513 14.3272 48.4596 14.1913 48.5486 14.0431C48.6 13.9762 48.632 13.8966 48.6412 13.8129C48.6504 13.7292 48.6364 13.6445 48.6007 13.5682C48.5651 13.4918 48.5091 13.4266 48.439 13.3797C48.3688 13.3328 48.287 13.3059 48.2026 13.302C48.011 13.2669 47.8169 13.2472 47.6222 13.243C47.2271 13.226 46.8282 13.2498 46.4379 13.2005C46.3405 13.1945 46.2456 13.1678 46.1595 13.1223C46.0733 13.0767 45.9979 13.0134 45.9383 12.9365C45.8787 12.8596 45.8362 12.7709 45.8137 12.6763C45.7913 12.5817 45.7893 12.4835 45.808 12.3881C45.8243 12.2057 45.9085 12.0359 46.0441 11.9122C46.1796 11.7885 46.3567 11.7198 46.5406 11.7197C46.6002 11.7158 46.6599 11.7163 46.7195 11.7163H50.9688C51.034 11.7163 51.0992 11.7163 51.164 11.7205C51.2732 11.718 51.3817 11.7385 51.4824 11.7808C51.5831 11.8232 51.6736 11.8863 51.748 11.966C51.8224 12.0458 51.8789 12.1403 51.9139 12.2435C51.9489 12.3466 51.9616 12.456 51.9511 12.5644C51.9582 12.8592 51.9009 13.1521 51.7832 13.4227C51.6655 13.6933 51.4901 13.9351 51.2692 14.1314C50.5341 14.8436 49.8203 15.5788 49.1039 16.3088C48.9955 16.4226 48.8988 16.5469 48.8154 16.68C48.7666 16.7457 48.7349 16.8224 48.7232 16.9033C48.7115 16.9843 48.7201 17.0668 48.7483 17.1436C48.7766 17.2203 48.8235 17.2889 48.8849 17.3431C48.9463 17.3973 49.0202 17.4355 49.1001 17.4542C49.2295 17.4935 49.3637 17.5148 49.499 17.5175C50.0035 17.5247 50.5085 17.5175 51.0131 17.523C51.1485 17.5225 51.2833 17.5407 51.4137 17.5769C51.5695 17.6219 51.7051 17.7186 51.7982 17.851C51.8912 17.9834 51.936 18.1436 51.9251 18.3048C51.9381 18.4611 51.892 18.6166 51.7959 18.7407C51.6998 18.8649 51.5606 18.9487 51.4056 18.9758C51.227 19.0199 51.0437 19.0419 50.8597 19.0412C50.105 19.0476 49.3507 19.0429 48.5964 19.0429Z" fill="#277C12"/>
<path d="M59.8838 15.2815C59.8838 14.4271 59.8817 13.573 59.8838 12.7185C59.8832 12.5618 59.8975 12.4054 59.9264 12.2514C59.949 12.0463 60.0486 11.8573 60.2051 11.7223C60.3617 11.5872 60.5637 11.5162 60.7707 11.5235C61.1723 11.4876 61.5767 11.5448 61.9524 11.6908C62.3056 11.8327 62.6973 11.8478 63.0604 11.7333C63.2378 11.6856 63.4215 11.6653 63.6051 11.673C63.7433 11.6745 63.8761 11.7266 63.9782 11.8194C64.0804 11.9122 64.1447 12.0392 64.159 12.1762C64.1858 12.4115 64.1823 12.6493 64.1484 12.8837C64.1195 13.0444 64.0457 13.1937 63.9357 13.3146C63.8257 13.4354 63.6838 13.5231 63.5262 13.5675C63.2317 13.673 62.9484 13.8076 62.6807 13.9692C62.5132 14.0826 62.3773 14.2365 62.2858 14.4165C62.1943 14.5964 62.1501 14.7966 62.1574 14.9983C62.1514 15.9283 62.1574 16.8584 62.1531 17.7884C62.152 17.9559 62.1408 18.1231 62.1194 18.2892C62.1108 18.4922 62.023 18.6839 61.8748 18.8235C61.7265 18.9631 61.5295 19.0395 61.3255 19.0366C61.1088 19.0483 60.8916 19.0483 60.6748 19.0366C60.5155 19.0351 60.3611 18.9814 60.2355 18.8837C60.1099 18.7859 60.0202 18.6497 59.9802 18.496C59.9215 18.2773 59.89 18.0522 59.8864 17.8258C59.8757 16.9794 59.8838 16.1305 59.8838 15.2815Z" fill="#277C12"/>
<path d="M7.91589 20.6462C7.88807 20.4784 7.802 20.3256 7.67272 20.2146C7.54344 20.1035 7.37912 20.0412 7.20845 20.0385H6.49123V19.7323C7.10298 19.6874 7.67972 19.4308 8.12172 19.0069C8.15078 18.98 8.17097 18.9449 8.17964 18.9062C8.18831 18.8676 8.18506 18.8273 8.1703 18.7905C8.15555 18.7538 8.13002 18.7223 8.09701 18.7003C8.064 18.6783 8.02506 18.6668 7.98534 18.6672H4.60335C4.56363 18.6668 4.52472 18.6783 4.49171 18.7003C4.4587 18.7223 4.43313 18.7538 4.41838 18.7905C4.40363 18.8273 4.40037 18.8676 4.40905 18.9062C4.41772 18.9449 4.43791 18.98 4.46697 19.0069C4.90897 19.4308 5.48571 19.6874 6.09746 19.7323V20.0385H5.38024C5.20963 20.0412 5.04537 20.1034 4.9161 20.2144C4.78682 20.3254 4.70074 20.4781 4.67282 20.6458L4.4478 22.1437C4.43358 22.2264 4.43789 22.3112 4.46042 22.3921C4.48295 22.4729 4.52313 22.5478 4.57812 22.6114C4.6331 22.6749 4.70152 22.7256 4.77845 22.7597C4.85538 22.7938 4.93892 22.8106 5.02311 22.8087H7.56558C7.64977 22.8106 7.73333 22.7938 7.81026 22.7597C7.88719 22.7256 7.95559 22.6749 8.01057 22.6114C8.06555 22.5478 8.10574 22.4729 8.12827 22.3921C8.1508 22.3112 8.15513 22.2264 8.14091 22.1437L7.91589 20.6462ZM7.39256 19.0613C7.05707 19.2491 6.67873 19.3478 6.29391 19.3478C5.9091 19.3478 5.53076 19.2491 5.19527 19.0613H7.39256ZM7.71218 22.356C7.69361 22.3762 7.67083 22.3922 7.64543 22.4028C7.62004 22.4133 7.59266 22.4182 7.56516 22.4172H5.02269C4.99513 22.4191 4.96748 22.4145 4.94198 22.4039C4.91648 22.3933 4.89382 22.377 4.87578 22.3561C4.85775 22.3352 4.84482 22.3105 4.83807 22.2838C4.83132 22.2571 4.83091 22.2292 4.83687 22.2023L5.06189 20.704C5.07681 20.6297 5.11619 20.5626 5.17379 20.5132C5.23139 20.4638 5.30392 20.435 5.37982 20.4313H7.20845C7.28442 20.435 7.35698 20.4639 7.41459 20.5133C7.47219 20.5628 7.51155 20.6301 7.52638 20.7044L7.7514 22.2023C7.75634 22.2291 7.75539 22.2567 7.74862 22.2832C7.74185 22.3097 7.72942 22.3344 7.71218 22.3556V22.356Z" fill="#277C12"/>
<path d="M6.29424 22.2231C6.13561 22.2231 5.98054 22.1762 5.84865 22.0884C5.71676 22.0006 5.61395 21.8757 5.55325 21.7297C5.49254 21.5836 5.47665 21.4229 5.5076 21.2679C5.53854 21.1129 5.61493 20.9704 5.7271 20.8587C5.83927 20.7469 5.98218 20.6708 6.13776 20.6399C6.29334 20.6091 6.45461 20.6249 6.60117 20.6854C6.74772 20.7459 6.87297 20.8484 6.9611 20.9798C7.04923 21.1112 7.09626 21.2657 7.09626 21.4238C7.09603 21.6357 7.01145 21.8389 6.86109 21.9887C6.71073 22.1386 6.50688 22.2229 6.29424 22.2231ZM6.29424 21.017C6.21349 21.017 6.13454 21.0408 6.0674 21.0855C6.00026 21.1303 5.94793 21.1938 5.91703 21.2681C5.88613 21.3425 5.87805 21.4243 5.8938 21.5032C5.90956 21.5821 5.94845 21.6546 6.00555 21.7115C6.06264 21.7684 6.13537 21.8072 6.21457 21.8229C6.29376 21.8386 6.37586 21.8305 6.45046 21.7997C6.52506 21.7689 6.58882 21.7168 6.63368 21.6499C6.67854 21.583 6.70248 21.5043 6.70248 21.4238C6.70237 21.316 6.65932 21.2125 6.58278 21.1363C6.50624 21.06 6.40248 21.0171 6.29424 21.017Z" fill="#277C12"/>
<path d="M17.3003 18.7712C17.3566 18.7092 17.3996 18.6363 17.4265 18.557C17.4534 18.4777 17.4637 18.3938 17.4567 18.3104C17.3731 18.3046 17.2892 18.3154 17.2098 18.3422C17.1304 18.3689 17.0572 18.4111 16.9943 18.4663C16.8238 18.6362 16.8664 18.7712 16.8379 18.9271C16.9751 18.888 17.1294 18.9415 17.3003 18.7712Z" fill="#277C12"/>
<path d="M15.567 22.8626C15.4108 22.8626 15.2581 22.8163 15.1282 22.7297C14.9983 22.6432 14.8971 22.5202 14.8374 22.3763C14.7776 22.2324 14.762 22.0741 14.7926 21.9214C14.8231 21.7687 14.8984 21.6284 15.0089 21.5184C15.1194 21.4083 15.2602 21.3333 15.4135 21.303C15.5667 21.2727 15.7256 21.2883 15.8699 21.3479C16.0143 21.4075 16.1376 21.5084 16.2244 21.6379C16.3112 21.7674 16.3575 21.9196 16.3575 22.0753C16.3572 22.2841 16.2738 22.4842 16.1256 22.6318C15.9774 22.7794 15.7765 22.8624 15.567 22.8626ZM15.567 21.6812C15.4889 21.6812 15.4125 21.7043 15.3475 21.7475C15.2826 21.7908 15.2319 21.8523 15.202 21.9242C15.1721 21.9961 15.1643 22.0753 15.1796 22.1516C15.1948 22.228 15.2324 22.2982 15.2877 22.3532C15.3429 22.4083 15.4133 22.4458 15.49 22.461C15.5666 22.4762 15.646 22.4684 15.7182 22.4386C15.7904 22.4088 15.8521 22.3583 15.8955 22.2936C15.9389 22.2288 15.9621 22.1527 15.9621 22.0748C15.962 21.9705 15.9203 21.8704 15.8462 21.7966C15.7722 21.7228 15.6718 21.6813 15.567 21.6812Z" fill="#277C12"/>
<path d="M16.7526 22.8626C16.5963 22.8626 16.4436 22.8163 16.3137 22.7297C16.1839 22.6432 16.0826 22.5202 16.0229 22.3763C15.9632 22.2324 15.9476 22.0741 15.9781 21.9214C16.0087 21.7687 16.0839 21.6284 16.1945 21.5184C16.305 21.4083 16.4457 21.3333 16.599 21.303C16.7523 21.2727 16.9111 21.2883 17.0555 21.3479C17.1998 21.4075 17.3232 21.5084 17.41 21.6379C17.4968 21.7674 17.5431 21.9196 17.5431 22.0753C17.5427 22.2841 17.4593 22.4842 17.3111 22.6318C17.163 22.7794 16.9621 22.8624 16.7526 22.8626ZM16.7526 21.6812C16.6744 21.6812 16.5981 21.7043 16.5331 21.7475C16.4681 21.7908 16.4175 21.8523 16.3876 21.9242C16.3577 21.9961 16.3499 22.0753 16.3651 22.1516C16.3804 22.228 16.418 22.2982 16.4732 22.3532C16.5285 22.4083 16.5989 22.4458 16.6755 22.461C16.7521 22.4762 16.8316 22.4684 16.9037 22.4386C16.9759 22.4088 17.0376 22.3583 17.081 22.2936C17.1244 22.2288 17.1476 22.1527 17.1476 22.0748C17.1475 21.9705 17.1059 21.8704 17.0318 21.7966C16.9577 21.7228 16.8573 21.6813 16.7526 21.6812Z" fill="#277C12"/>
<path d="M17.9362 22.8626C17.7799 22.8626 17.6272 22.8163 17.4973 22.7297C17.3675 22.6432 17.2662 22.5202 17.2065 22.3763C17.1468 22.2324 17.1312 22.0741 17.1617 21.9214C17.1923 21.7687 17.2675 21.6284 17.378 21.5184C17.4886 21.4083 17.6293 21.3333 17.7826 21.303C17.9358 21.2727 18.0947 21.2883 18.2391 21.3479C18.3834 21.4075 18.5068 21.5084 18.5936 21.6379C18.6804 21.7674 18.7267 21.9196 18.7267 22.0753C18.7265 22.2841 18.6431 22.4843 18.4949 22.6319C18.3467 22.7796 18.1457 22.8625 17.9362 22.8626ZM17.9362 21.6812C17.858 21.6812 17.7816 21.7043 17.7167 21.7475C17.6517 21.7908 17.6011 21.8523 17.5712 21.9242C17.5413 21.9961 17.5335 22.0753 17.5487 22.1516C17.5639 22.228 17.6016 22.2982 17.6568 22.3532C17.7121 22.4083 17.7825 22.4458 17.8591 22.461C17.9357 22.4762 18.0152 22.4684 18.0873 22.4386C18.1595 22.4088 18.2212 22.3583 18.2646 22.2936C18.308 22.2288 18.3312 22.1527 18.3312 22.0748C18.3311 21.9705 18.2894 21.8704 18.2154 21.7966C18.1413 21.7228 18.0409 21.6813 17.9362 21.6812Z" fill="#277C12"/>
<path d="M16.1592 21.6812C16.003 21.6812 15.8502 21.635 15.7203 21.5485C15.5904 21.462 15.4891 21.3391 15.4293 21.1952C15.3695 21.0514 15.3538 20.8931 15.3843 20.7404C15.4147 20.5876 15.49 20.4473 15.6004 20.3372C15.7109 20.2271 15.8516 20.1521 16.0048 20.1216C16.1581 20.0912 16.3169 20.1067 16.4613 20.1663C16.6057 20.2258 16.7291 20.3266 16.816 20.4561C16.9028 20.5855 16.9493 20.7377 16.9493 20.8934C16.9492 21.1022 16.866 21.3025 16.7178 21.4502C16.5697 21.5979 16.3688 21.681 16.1592 21.6812ZM16.1592 20.4997C16.0811 20.4997 16.0047 20.5228 15.9398 20.5661C15.8748 20.6093 15.8242 20.6708 15.7943 20.7427C15.7644 20.8147 15.7565 20.8938 15.7718 20.9702C15.787 21.0466 15.8247 21.1167 15.8799 21.1718C15.9352 21.2268 16.0055 21.2643 16.0822 21.2795C16.1588 21.2947 16.2382 21.2869 16.3104 21.2571C16.3826 21.2273 16.4443 21.1769 16.4877 21.1121C16.5311 21.0474 16.5543 20.9713 16.5543 20.8934C16.5542 20.789 16.5125 20.6889 16.4385 20.6151C16.3644 20.5413 16.264 20.4998 16.1592 20.4997Z" fill="#277C12"/>
<path d="M17.3448 21.6812C17.1885 21.6812 17.0358 21.635 16.9059 21.5485C16.776 21.462 16.6747 21.3391 16.6149 21.1952C16.5551 21.0514 16.5394 20.8931 16.5698 20.7404C16.6003 20.5876 16.6755 20.4473 16.7859 20.3372C16.8964 20.2271 17.0371 20.1521 17.1904 20.1216C17.3436 20.0912 17.5025 20.1067 17.6468 20.1663C17.7912 20.2258 17.9147 20.3266 18.0015 20.4561C18.0884 20.5855 18.1348 20.7377 18.1349 20.8934C18.1347 21.1022 18.0514 21.3024 17.9033 21.45C17.7551 21.5977 17.5543 21.6808 17.3448 21.6812ZM17.3448 20.4997C17.2666 20.4997 17.1903 20.5228 17.1253 20.5661C17.0603 20.6093 17.0097 20.6708 16.9798 20.7427C16.9499 20.8147 16.9421 20.8938 16.9573 20.9702C16.9726 21.0466 17.0102 21.1167 17.0654 21.1718C17.1207 21.2268 17.1911 21.2643 17.2677 21.2795C17.3443 21.2947 17.4238 21.2869 17.496 21.2571C17.5681 21.2273 17.6299 21.1769 17.6733 21.1121C17.7167 21.0474 17.7398 20.9713 17.7398 20.8934C17.7397 20.789 17.6981 20.6889 17.624 20.6151C17.5499 20.5413 17.4495 20.4998 17.3448 20.4997Z" fill="#277C12"/>
<path d="M16.7534 20.6237C16.5971 20.6237 16.4442 20.5775 16.3142 20.4909C16.1842 20.4043 16.0829 20.2813 16.0231 20.1374C15.9632 19.9934 15.9476 19.835 15.9781 19.6822C16.0086 19.5294 16.0839 19.389 16.1944 19.2788C16.305 19.1687 16.4458 19.0936 16.5992 19.0632C16.7525 19.0328 16.9115 19.0484 17.0559 19.1081C17.2004 19.1677 17.3238 19.2687 17.4107 19.3982C17.4976 19.5278 17.5439 19.6801 17.5439 19.8359C17.5437 20.0448 17.4604 20.245 17.3121 20.3927C17.1639 20.5404 16.963 20.6235 16.7534 20.6237ZM16.7534 19.4422C16.6753 19.4422 16.5989 19.4653 16.5339 19.5086C16.469 19.5518 16.4183 19.6133 16.3884 19.6852C16.3585 19.7572 16.3507 19.8363 16.366 19.9127C16.3812 19.9891 16.4188 20.0592 16.4741 20.1143C16.5293 20.1693 16.5997 20.2068 16.6763 20.222C16.753 20.2372 16.8324 20.2294 16.9046 20.1996C16.9768 20.1698 17.0385 20.1194 17.0819 20.0546C17.1253 19.9899 17.1485 19.9138 17.1485 19.8359C17.1484 19.7315 17.1067 19.6314 17.0326 19.5576C16.9586 19.4838 16.8582 19.4423 16.7534 19.4422Z" fill="#277C12"/>
<path d="M14.5254 22.5756C14.5203 21.0217 14.2053 20.0882 12.7321 19.7909C12.7192 19.7871 12.7059 19.7845 12.6925 19.7833C12.3002 19.714 11.9023 19.6818 11.5039 19.6869C8.94993 19.6869 8.48242 20.6717 8.48242 22.6113C8.48242 22.6641 8.50349 22.7147 8.54097 22.7521C8.57845 22.7894 8.62928 22.8104 8.68229 22.8104H14.3281C14.3543 22.8104 14.3803 22.8053 14.4045 22.7953C14.4288 22.7853 14.4508 22.7706 14.4694 22.7521C14.488 22.7336 14.5027 22.7116 14.5127 22.6875C14.5228 22.6633 14.5279 22.6374 14.5279 22.6113C14.5281 22.5993 14.5272 22.5874 14.5254 22.5756ZM9.92924 21.4633H12.6741C12.7271 21.4633 12.778 21.4423 12.8155 21.405C12.853 21.3676 12.874 21.317 12.874 21.2641V20.2322C12.9459 20.2525 13.0139 20.2749 13.0781 20.2993V22.4121H9.92924V21.4633ZM12.4743 20.1468V21.0637H9.92924V20.2993C9.99345 20.2746 10.0615 20.2523 10.1334 20.2322V20.3596C10.1334 20.4124 10.1544 20.4631 10.1919 20.5004C10.2294 20.5378 10.2802 20.5587 10.3332 20.5587C10.3863 20.5587 10.4371 20.5378 10.4746 20.5004C10.512 20.4631 10.5331 20.4124 10.5331 20.3596V20.1472C11.1776 20.0639 11.8302 20.0639 12.4747 20.1472L12.4743 20.1468ZM9.52948 20.5141V22.4112H8.88387C8.90007 21.4999 9.03729 20.8823 9.52993 20.5137L9.52948 20.5141ZM13.4779 22.4112V20.5137C13.9705 20.8823 14.1077 21.4999 14.1235 22.4112H13.4779Z" fill="#277C12"/>
<path d="M11.5044 19.4567C10.9239 19.4567 10.439 18.9619 10.2037 18.1337C10.1942 18.108 10.1901 18.0805 10.1918 18.0531C10.1934 18.0257 10.2007 17.9989 10.2132 17.9745C10.2257 17.95 10.2432 17.9284 10.2645 17.9109C10.2858 17.8935 10.3105 17.8807 10.337 17.8732C10.3635 17.8657 10.3913 17.8638 10.4186 17.8676C10.4459 17.8713 10.4721 17.8807 10.4956 17.895C10.5191 17.9094 10.5394 17.9284 10.5552 17.9509C10.571 17.9734 10.5819 17.9989 10.5873 18.0259C10.7283 18.5249 11.0428 19.0583 11.5031 19.0583C11.9633 19.0583 12.2774 18.5249 12.4185 18.0259C12.4359 17.9788 12.4704 17.9401 12.5153 17.9173C12.5601 17.8945 12.6119 17.8894 12.6603 17.903C12.7087 17.9167 12.7502 17.948 12.7765 17.9907C12.8028 18.0335 12.8119 18.0846 12.802 18.1337C12.5706 18.9619 12.0844 19.4567 11.5044 19.4567Z" fill="#277C12"/>
<path d="M12.679 15.8316C12.7097 15.719 12.7249 15.6029 12.7242 15.4863C12.7241 15.4518 12.7151 15.4179 12.698 15.388C12.6809 15.358 12.6563 15.333 12.6266 15.3154C12.5969 15.2978 12.563 15.2881 12.5285 15.2874C12.4939 15.2867 12.4597 15.2949 12.4293 15.3113C12.1363 15.432 11.8196 15.4841 11.5032 15.4638C11.277 15.4435 11.049 15.4719 10.8347 15.5472C10.6204 15.6224 10.4249 15.7427 10.2614 15.8999C10.0991 16.1211 9.98514 16.3738 9.92707 16.6416C9.869 16.9095 9.86807 17.1865 9.92432 17.4547C9.92908 17.504 9.9521 17.5498 9.9889 17.5831C10.0257 17.6164 10.0736 17.6348 10.1233 17.6348C10.5981 17.6348 10.8197 17.1876 10.8972 16.8279C11.3013 16.8298 11.7002 16.7383 12.0628 16.5607C12.0882 16.8827 12.2119 17.1892 12.4173 17.439C12.4782 17.5015 12.5511 17.5511 12.6316 17.5849C12.7122 17.6187 12.7987 17.6359 12.8861 17.6356C12.9358 17.6356 12.9838 17.6172 13.0206 17.5839C13.0574 17.5506 13.0804 17.5049 13.0851 17.4556C13.1601 16.686 13.0272 16.1535 12.679 15.8316ZM10.8286 16.4295C10.7741 16.4295 10.7413 16.4295 10.7383 16.4295C10.6866 16.4263 10.6357 16.4433 10.5964 16.477C10.557 16.5106 10.5324 16.5582 10.5278 16.6096C10.5071 16.8108 10.43 17.0021 10.3053 17.1617C10.2583 16.8108 10.3488 16.4553 10.558 16.1692C10.6853 16.055 10.8353 15.9688 10.9982 15.9161C11.1612 15.8635 11.3334 15.8457 11.5037 15.8638C11.7613 15.8685 12.0187 15.844 12.2707 15.7908C12.0402 16.3781 11.1338 16.4312 10.8286 16.4312V16.4295ZM12.7037 17.16C12.5242 16.899 12.4309 16.5887 12.437 16.2724C12.4544 16.2524 12.4711 16.2325 12.4877 16.2117C12.668 16.493 12.7447 16.8281 12.7046 17.1596L12.7037 17.16Z" fill="#277C12"/>
<path d="M20.5124 12.293H19.1035V22.8091H20.5124V12.293Z" fill="#277C12"/>
<path d="M4.07685 12.293H2.66797V22.8091H4.07685V12.293Z" fill="#277C12"/>
<path d="M14.1097 9.80992V4.79309H9.07417V5.50997V9.80992C9.04465 10.408 9.18512 11.0023 9.47944 11.5244C9.70841 11.8777 10.0222 12.1686 10.3923 12.3708C10.7668 12.5532 11.1747 12.6574 11.5911 12.677C12.0262 12.6766 12.4537 12.5637 12.8319 12.3493C13.2101 12.1349 13.526 11.8264 13.7487 11.4539C13.9799 10.936 14.1027 10.3767 14.1097 9.80992ZM11.5928 11.9601C11.1785 11.9596 10.7772 11.8167 10.4563 11.5556C10.1355 11.2945 9.91478 10.9311 9.83144 10.5268H13.3541C13.2705 10.931 13.0496 11.2941 12.7287 11.5549C12.4078 11.8158 12.0065 11.9584 11.5923 11.9588L11.5928 11.9601ZM13.3907 9.80992H9.79524V5.50997H13.3907V9.80992Z" fill="#277C12"/>
<path d="M6.25219 4.79309H3.43611C3.22493 4.79287 3.01836 4.85451 2.84205 4.97034C2.66574 5.08616 2.52748 5.25107 2.44445 5.44456L0.473873 10.0269C0.454916 10.0712 0.445194 10.1189 0.445314 10.1671C0.445314 10.1777 0.445314 10.1879 0.445314 10.1985C0.452189 10.7442 0.637663 11.2727 0.973514 11.7037C1.30936 12.1348 1.77724 12.4448 2.30604 12.5866C2.83485 12.7284 3.39563 12.6943 3.90321 12.4895C4.41079 12.2847 4.83739 11.9203 5.11817 11.4518C5.31169 10.9193 5.4506 10.3686 5.53281 9.80821L5.89888 7.25246L6.25219 4.79309ZM2.9618 11.9588C2.54757 11.9583 2.14618 11.8154 1.82534 11.5543C1.5045 11.2932 1.28382 10.9299 1.20048 10.5255H4.72354C4.64019 10.9299 4.41943 11.2934 4.0985 11.5545C3.77757 11.8156 3.3761 11.9584 2.9618 11.9588ZM4.8075 9.80864H1.34963L3.10585 5.72571C3.13341 5.66119 3.17943 5.6062 3.23817 5.5676C3.29691 5.52901 3.36575 5.50851 3.43611 5.50869H5.42372L4.8075 9.80864Z" fill="#277C12"/>
<path d="M9.79065 5.50997V4.79309H5.52905L5.30829 6.27949L4.80244 9.80992C4.80244 9.80992 4.67459 10.9094 5.11438 11.4535C5.15939 11.509 5.19918 11.5686 5.23328 11.6314C5.47587 11.9693 5.79918 12.2416 6.17393 12.4237C6.54868 12.6057 6.96307 12.6918 7.37961 12.6742C7.79615 12.6565 8.20168 12.5356 8.55956 12.3225C8.91744 12.1094 9.21635 11.8107 9.42926 11.4535C9.68408 10.9438 9.80768 10.379 9.78893 9.80992L9.79065 5.50997ZM7.27374 11.9588C6.85952 11.9583 6.45815 11.8154 6.13731 11.5543C5.81646 11.2932 5.59576 10.9299 5.51243 10.5255H9.03548C8.95213 10.9299 8.73137 11.2934 8.41044 11.5545C8.08951 11.8156 7.68805 11.9584 7.27374 11.9588ZM9.07171 9.80864H5.53118L6.14782 5.50869H9.07213L9.07171 9.80864Z" fill="#277C12"/>
<path d="M17.2815 7.25417L17.6475 9.80993C17.7298 10.3703 17.8687 10.921 18.0622 11.4535C18.3429 11.922 18.7695 12.2864 19.2771 12.4912C19.7847 12.696 20.3455 12.7301 20.8743 12.5883C21.4031 12.4465 21.871 12.1365 22.2068 11.7055C22.5427 11.2744 22.7281 10.7459 22.735 10.2002C22.735 10.1896 22.735 10.1794 22.735 10.1688C22.735 10.1206 22.7253 10.073 22.7065 10.0286L20.7359 5.44627C20.6529 5.25277 20.5146 5.08787 20.3383 4.97205C20.162 4.85622 19.9554 4.79458 19.7442 4.7948H16.9277L17.2815 7.25417ZM18.4585 10.5264H21.9816C21.899 10.9312 21.6785 11.2952 21.3575 11.5567C21.0365 11.8181 20.6346 11.9609 20.22 11.9609C19.8054 11.9609 19.4036 11.8181 19.0826 11.5567C18.7615 11.2952 18.5411 10.9312 18.4585 10.5264ZM17.7583 5.50998H19.7459C19.8163 5.50981 19.8851 5.53029 19.9439 5.56889C20.0026 5.60748 20.0486 5.66248 20.0762 5.72699L21.8324 9.80993H18.3745L17.7583 5.50998Z" fill="#277C12"/>
<path d="M13.3905 9.80992C13.3718 10.379 13.4954 10.9438 13.7502 11.4535C13.9631 11.8107 14.262 12.1094 14.6199 12.3225C14.9778 12.5356 15.3833 12.6565 15.7998 12.6742C16.2164 12.6918 16.6308 12.6057 17.0055 12.4237C17.3803 12.2416 17.7036 11.9693 17.9462 11.6314C17.9803 11.5686 18.0201 11.5091 18.0651 11.4535C18.507 10.9094 18.377 9.80992 18.377 9.80992L17.8712 6.27949L17.6504 4.79309H13.3888V9.80992H13.3905ZM14.1461 10.5268H17.6692C17.5862 10.9313 17.3655 11.2949 17.0446 11.556C16.7236 11.817 16.322 11.9596 15.9076 11.9596C15.4933 11.9596 15.0917 11.817 14.7707 11.556C14.4497 11.2949 14.2291 10.9313 14.1461 10.5268ZM14.1099 5.51038H17.0342L17.6508 9.81033H14.1099V5.51038Z" fill="#277C12"/>
<path d="M17.2241 6.10352e-05H5.95384C5.06757 0.0146972 4.22343 0.379471 3.60697 1.01419C2.99051 1.6489 2.6522 2.5016 2.66645 3.38481V5.12901H20.5115V3.38481C20.5257 2.5016 20.1874 1.6489 19.571 1.01419C18.9545 0.379471 18.1103 0.0146972 17.2241 6.10352e-05ZM13.1129 2.68535H10.0646C9.99337 2.68535 9.9251 2.65717 9.87475 2.60699C9.8244 2.55682 9.7961 2.48877 9.7961 2.41781C9.7961 2.34685 9.8244 2.27879 9.87475 2.22862C9.9251 2.17844 9.99337 2.15026 10.0646 2.15026H13.1133C13.1845 2.15026 13.2528 2.17844 13.3032 2.22862C13.3535 2.27879 13.3818 2.34685 13.3818 2.41781C13.3818 2.48877 13.3535 2.55682 13.3032 2.60699C13.2528 2.65717 13.1841 2.68535 13.1129 2.68535Z" fill="#277C12"/>
<path d="M2.66797 22.765V24.9024C2.69238 25.7474 3.05227 26.5482 3.66863 27.1289C4.28498 27.7097 5.10742 28.023 5.95536 28.0001H17.226C18.074 28.023 18.8964 27.7097 19.5128 27.1289C20.1291 26.5482 20.489 25.7474 20.5134 24.9024V22.765H2.66797ZM13.1375 25.914H10.0431C9.82096 25.914 9.6079 25.826 9.45082 25.6695C9.29373 25.513 9.20548 25.3007 9.20548 25.0793C9.20548 24.8579 9.29373 24.6456 9.45082 24.489C9.6079 24.3325 9.82096 24.2446 10.0431 24.2446H13.1375C13.3596 24.2446 13.5727 24.3325 13.7297 24.489C13.8868 24.6456 13.9751 24.8579 13.9751 25.0793C13.9751 25.3007 13.8868 25.513 13.7297 25.6695C13.5727 25.826 13.3596 25.914 13.1375 25.914Z" fill="#277C12"/>
</g>
<defs>
<clipPath id="clip0_693_3775">
<rect width="85.8512" height="28" fill="white" transform="translate(0.445312)"/>
</clipPath>
</defs>
</svg>
