<svg width="87" height="28" viewBox="0 0 87 28" fill="none" xmlns="http://www.w3.org/2000/svg">
<g clip-path="url(#clip0_696_11124)">
<path d="M29.5878 14.2355C29.5878 12.9642 29.5878 11.6929 29.5878 10.4214C29.5889 10.2809 29.6002 10.1406 29.6219 10.0018C29.6425 9.8727 29.7053 9.75399 29.8004 9.66402C29.8955 9.57405 30.0178 9.51781 30.1482 9.50404C30.2829 9.49087 30.4188 9.48068 30.5543 9.48025C31.8192 9.47855 33.0834 9.47855 34.3472 9.48025C34.9227 9.4662 35.4964 9.55141 36.0428 9.7321C36.5383 9.9104 36.971 10.2286 37.2881 10.6478C37.6052 11.067 37.7929 11.5692 37.8285 12.0929C37.8732 12.6604 37.806 13.2312 37.6307 13.773C37.4973 14.1639 37.2745 14.5185 36.9798 14.8088C36.6851 15.0991 36.3267 15.317 35.9329 15.4454C35.3073 15.6628 34.6516 15.7822 33.9892 15.7992C33.4914 15.8242 32.9924 15.8463 32.4976 15.9019C32.3046 15.9099 32.1211 15.9876 31.9813 16.1204C31.8415 16.2532 31.755 16.4322 31.7378 16.6239C31.7061 16.8431 31.6919 17.0645 31.6951 17.286C31.6879 17.5833 31.6926 17.8806 31.6917 18.1778C31.7057 18.2943 31.6936 18.4124 31.6563 18.5236C31.6189 18.6348 31.5572 18.7363 31.4756 18.8209C31.3941 18.9055 31.2947 18.9709 31.1847 19.0125C31.0747 19.0542 30.9567 19.0709 30.8394 19.0616C30.5852 19.0616 30.3317 19.0331 30.0839 18.9767C29.9597 18.9525 29.8469 18.8882 29.7631 18.7938C29.6792 18.6994 29.6288 18.5801 29.6198 18.4543C29.5997 18.3152 29.5893 18.1748 29.5886 18.0343C29.5867 16.7676 29.5864 15.5013 29.5878 14.2355ZM33.3644 10.8902C33.1586 10.8902 32.9506 10.8732 32.7465 10.8936C32.5157 10.8883 32.2905 10.9641 32.1101 11.1077C31.9297 11.2512 31.8058 11.4534 31.7599 11.6789C31.6186 12.3025 31.6051 12.9482 31.7203 13.5772C31.7507 13.7577 31.8368 13.9243 31.9666 14.0537C32.0965 14.1831 32.2637 14.2689 32.4448 14.2992C33.2231 14.4966 34.0444 14.4408 34.7887 14.1399C35.0591 14.0373 35.2929 13.857 35.4603 13.6218C35.5976 13.4196 35.6903 13.1906 35.7323 12.9501C35.7742 12.7095 35.7644 12.4628 35.7036 12.2263C35.6551 11.9569 35.5344 11.7057 35.3542 11.4993C35.1739 11.2928 34.941 11.1388 34.68 11.0537C34.2547 10.9212 33.8089 10.8658 33.364 10.8902H33.3644Z" fill="#277C12"/>
<path d="M71.6924 14.2495C71.6924 15.5099 71.6924 16.77 71.6924 18.0292C71.6984 18.1913 71.683 18.3535 71.6468 18.5116C71.5878 18.7034 71.4588 18.8662 71.2852 18.9679C71.1117 19.0696 70.9061 19.1027 70.7093 19.0607C70.4719 19.0442 70.2368 19.0044 70.0074 18.9418C69.5786 18.8093 69.1163 18.8345 68.7046 19.0127C68.3472 19.1665 67.9618 19.2454 67.5725 19.2448C67.1832 19.2441 66.7982 19.1638 66.4413 19.0089C66.0884 18.8651 65.7692 18.6502 65.5035 18.3778C65.2378 18.1054 65.0314 17.7813 64.8973 17.4257C64.5843 16.6318 64.4748 15.7727 64.5785 14.926C64.6188 14.2818 64.8055 13.6552 65.1244 13.0935C65.3274 12.75 65.6045 12.4558 65.9357 12.2322C66.2669 12.0086 66.6438 11.8612 67.0391 11.8007C67.6268 11.7273 68.2232 11.7662 68.7962 11.9154C68.8226 11.9209 68.8487 11.9302 68.8751 11.9345C69.4257 12.0245 69.6848 11.9519 69.779 11.1777C69.8216 10.8188 69.8216 10.4557 69.8493 10.093C69.8455 9.97346 69.8729 9.85493 69.9288 9.74907C69.9848 9.64321 70.0673 9.55365 70.1684 9.48914C70.2078 9.46133 70.253 9.44262 70.3006 9.43436C70.5748 9.40816 70.8504 9.40092 71.1256 9.4127C71.4333 9.4403 71.6276 9.71592 71.666 10.1113C71.6826 10.2833 71.6912 10.457 71.6916 10.6298C71.6936 11.8365 71.6938 13.0431 71.6924 14.2495ZM69.7913 15.3838L69.8339 15.3774C69.7743 15.0063 69.7393 14.6287 69.649 14.2647C69.6029 14.035 69.5027 13.8194 69.3567 13.6358C69.2107 13.4522 69.023 13.3057 68.809 13.2085C68.6096 13.1173 68.3931 13.0687 68.1736 13.066C67.9542 13.0632 67.7365 13.1064 67.5349 13.1927C67.3332 13.279 67.1519 13.4065 67.0027 13.5669C66.8536 13.7274 66.7398 13.9172 66.6689 14.1242C66.4551 14.7163 66.3879 15.351 66.4732 15.9745C66.5089 16.3957 66.6376 16.8038 66.8499 17.1696C66.9942 17.4393 67.2291 17.6498 67.5135 17.7642C67.6962 17.842 67.8927 17.883 68.0915 17.8846C68.2902 17.8863 68.4873 17.8486 68.6714 17.7738C68.8554 17.6989 69.0228 17.5885 69.1636 17.4488C69.3045 17.309 69.4162 17.1428 69.4922 16.9598C69.7129 16.4645 69.8155 15.9249 69.7918 15.3834L69.7913 15.3838Z" fill="#277C12"/>
<path d="M44.5627 16.1368C44.5627 16.8075 44.5627 17.4782 44.5627 18.1489C44.5643 18.203 44.563 18.2572 44.5588 18.3111C44.5038 18.8093 44.3001 19.0034 43.7917 18.9906C43.5373 18.9896 43.2847 18.9482 43.0434 18.8679C42.6251 18.7231 42.1679 18.7365 41.7589 18.9057C41.3716 19.063 40.9619 19.1584 40.5448 19.1886C39.8844 19.2456 39.2258 19.0604 38.6927 18.6679C38.4866 18.4991 38.3178 18.2896 38.197 18.0525C38.0762 17.8155 38.006 17.5561 37.9908 17.2906C37.8549 16.0094 38.7669 15.2653 39.6622 14.9056C40.1704 14.7164 40.6983 14.5846 41.236 14.5128C41.4872 14.4751 41.7343 14.4141 41.9741 14.3306C42.1191 14.2985 42.2498 14.2204 42.3464 14.1079C42.443 13.9955 42.5003 13.8548 42.5098 13.7071C42.5207 13.5348 42.4772 13.3633 42.3855 13.2167C42.2938 13.0702 42.1585 12.9558 41.9984 12.8896C41.7873 12.7863 41.5503 12.7474 41.3171 12.7776C41.0839 12.8078 40.8648 12.9058 40.6872 13.0595C40.5333 13.1792 40.3888 13.3092 40.2286 13.4222C40.0455 13.5543 39.8353 13.6442 39.6131 13.6854C39.3908 13.7265 39.1622 13.7178 38.9437 13.66C38.8703 13.6502 38.7999 13.6244 38.7376 13.5844C38.6754 13.5444 38.6228 13.4911 38.5836 13.4284C38.5444 13.3658 38.5196 13.2953 38.511 13.2219C38.5024 13.1486 38.5102 13.0743 38.5338 13.0043C38.589 12.7802 38.6944 12.5714 38.842 12.3936C38.9896 12.2158 39.1756 12.0735 39.3861 11.9774C39.8612 11.7357 40.3841 11.6017 40.9173 11.585C41.6528 11.5242 42.3933 11.5882 43.1073 11.7744C43.4526 11.8593 43.7652 12.0438 44.0059 12.3047C44.2467 12.5657 44.4049 12.8916 44.4608 13.2417C44.5218 13.5652 44.5534 13.8935 44.5554 14.2227C44.5729 14.8597 44.5627 15.4985 44.5627 16.1368ZM41.0426 17.7637C41.4099 17.7473 41.7603 17.6046 42.0341 17.36C42.3079 17.1154 42.4884 16.7839 42.5448 16.4217C42.5637 16.3292 42.5614 16.2335 42.538 16.142C42.5146 16.0505 42.4707 15.9654 42.4096 15.8932C42.3486 15.8209 42.2719 15.7634 42.1853 15.7249C42.0987 15.6864 42.0045 15.6679 41.9098 15.6709C41.5976 15.653 41.2853 15.704 40.9951 15.8202C40.705 15.9364 40.4441 16.115 40.2312 16.3431C40.1514 16.429 40.0936 16.5328 40.0627 16.6457C40.0319 16.7587 40.0288 16.8773 40.0539 16.9916C40.1009 17.2159 40.2258 17.4163 40.4068 17.5576C40.5877 17.6989 40.8129 17.7719 41.0426 17.7637Z" fill="#277C12"/>
<path d="M58.9751 16.0433V18.0555C58.9751 18.0979 58.9751 18.1404 58.9751 18.1854C58.9725 18.78 58.747 19.0114 58.1551 18.9893C57.9114 18.9841 57.67 18.9411 57.4396 18.8619C57.0372 18.7232 56.5978 18.7354 56.2037 18.8963C55.8065 19.0576 55.3866 19.1564 54.9589 19.1889C54.3262 19.2397 53.6953 19.0724 53.1716 18.715C52.947 18.5473 52.7623 18.3322 52.6307 18.0852C52.499 17.8382 52.4237 17.5653 52.4101 17.2859C52.3095 16.2539 52.8311 15.5693 53.6885 15.092C54.2753 14.7951 54.9101 14.6039 55.5636 14.5272C55.8368 14.4892 56.1058 14.4262 56.3674 14.339C56.8021 14.1832 56.9542 13.9479 56.9214 13.5746C56.8959 13.3916 56.8151 13.2207 56.6897 13.0847C56.5643 12.9487 56.4003 12.8539 56.2195 12.8131C56.0219 12.7616 55.8146 12.7591 55.6158 12.8061C55.4171 12.853 55.2329 12.9479 55.0795 13.0824C54.9432 13.1979 54.8042 13.3109 54.6597 13.4158C54.4821 13.546 54.2783 13.6362 54.0623 13.6802C53.8462 13.7241 53.6232 13.7209 53.4086 13.6706C53.3261 13.6649 53.2461 13.6397 53.1754 13.597C53.1047 13.5543 53.0452 13.4954 53.0019 13.4252C52.9585 13.3551 52.9326 13.2756 52.9264 13.1934C52.9201 13.1112 52.9336 13.0288 52.9657 12.9529C53.0284 12.7392 53.1363 12.5414 53.2822 12.3729C53.4282 12.2044 53.6087 12.069 53.8117 11.9761C54.2872 11.7353 54.8101 11.6019 55.3433 11.5854C56.0681 11.5283 56.7973 11.5897 57.5022 11.7671C57.9029 11.8619 58.2605 12.0868 58.5187 12.4064C58.7769 12.7261 58.9209 13.1223 58.9281 13.5325C58.9904 14.3671 58.9772 15.2067 58.9972 16.0446L58.9751 16.0433ZM56.9542 16.3457C56.9652 16.2603 56.9576 16.1736 56.9319 16.0914C56.9061 16.0093 56.8629 15.9336 56.8051 15.8697C56.7473 15.8057 56.6763 15.7549 56.597 15.7208C56.5177 15.6868 56.432 15.6701 56.3456 15.6721C56.05 15.6532 55.7537 15.6956 55.4754 15.7965C55.197 15.8975 54.9426 16.0548 54.7283 16.2586C54.6358 16.341 54.5632 16.4431 54.5159 16.5574C54.4687 16.6717 54.448 16.7952 54.4555 16.9186C54.4629 17.042 54.4983 17.1621 54.559 17.27C54.6197 17.3778 54.7041 17.4705 54.8059 17.5412C54.9441 17.6466 55.1055 17.7178 55.2768 17.7487C55.448 17.7797 55.6242 17.7695 55.7908 17.7191C56.1056 17.6424 56.3879 17.468 56.597 17.2212C56.806 16.9744 56.9311 16.6678 56.9542 16.3457Z" fill="#277C12"/>
<path d="M78.917 16.0349V18.0798C78.917 18.1286 78.917 18.177 78.917 18.2258C78.9051 18.7699 78.6796 19.0043 78.1363 18.9903C77.8818 18.9868 77.6295 18.9438 77.3884 18.8629C76.98 18.7234 76.5349 18.7359 76.1351 18.8981C75.7429 19.0574 75.3282 19.1548 74.906 19.1869C74.2569 19.2421 73.6093 19.0657 73.0786 18.6892C72.8664 18.5236 72.6918 18.315 72.5665 18.0771C72.4413 17.8392 72.3681 17.5775 72.352 17.3094C72.2408 16.2634 72.7633 15.5682 73.6343 15.0878C74.2215 14.7925 74.8562 14.602 75.5094 14.5251C75.7823 14.4859 76.0512 14.4225 76.3128 14.3357C76.7091 14.196 76.8932 13.9425 76.8667 13.646C76.8557 13.4505 76.7815 13.2637 76.6552 13.1135C76.529 12.9634 76.3575 12.8579 76.1662 12.8128C75.9688 12.7601 75.7614 12.7565 75.5623 12.8023C75.3632 12.8481 75.1784 12.9418 75.024 13.0753C74.883 13.1937 74.7406 13.3109 74.5911 13.4184C74.4106 13.5493 74.2034 13.6391 73.9843 13.6815C73.7651 13.7239 73.5394 13.7179 73.3228 13.6639C73.2461 13.6563 73.1721 13.6315 73.1065 13.5913C73.0408 13.5511 72.9852 13.4965 72.9438 13.4317C72.9025 13.3668 72.8765 13.2935 72.8678 13.2172C72.8591 13.1409 72.8679 13.0636 72.8936 12.9912C72.9506 12.7701 73.0562 12.5644 73.2029 12.3891C73.3496 12.2138 73.5337 12.0733 73.7417 11.9779C74.2167 11.7359 74.7394 11.6014 75.2725 11.5838C75.9919 11.5254 76.716 11.5841 77.4165 11.7575C77.8193 11.8454 78.1809 12.0655 78.4431 12.3826C78.7054 12.6998 78.8533 13.0955 78.8629 13.5063C78.9332 14.3451 78.9179 15.191 78.9396 16.0341L78.917 16.0349ZM76.8936 16.3585C76.9066 16.2705 76.8999 16.1807 76.8739 16.0955C76.8479 16.0104 76.8033 15.9321 76.7432 15.8662C76.6832 15.8004 76.6092 15.7486 76.5267 15.7147C76.4441 15.6808 76.3551 15.6655 76.2659 15.6701C75.9728 15.6542 75.6795 15.6983 75.4042 15.7998C75.1289 15.9013 74.8774 16.0579 74.6652 16.26C74.5741 16.3419 74.5025 16.4432 74.4557 16.5562C74.409 16.6693 74.3881 16.7914 74.3948 16.9135C74.4014 17.0357 74.4354 17.1548 74.4942 17.2621C74.5531 17.3695 74.6352 17.4624 74.7347 17.534C74.8712 17.641 75.0314 17.7138 75.2018 17.7466C75.3723 17.7794 75.5482 17.7712 75.7148 17.7226C76.031 17.6487 76.3156 17.4766 76.5274 17.2313C76.7392 16.9859 76.8674 16.6799 76.8936 16.3572V16.3585Z" fill="#277C12"/>
<path d="M86.2948 15.9558C86.2948 16.7021 86.2948 17.4486 86.2948 18.1952C86.3085 18.309 86.2963 18.4244 86.2592 18.5329C86.2221 18.6414 86.161 18.7402 86.0803 18.8219C85.9997 18.9037 85.9017 18.9664 85.7935 19.0053C85.6853 19.0442 85.5697 19.0583 85.4553 19.0467C85.3359 19.0492 85.2166 19.0492 85.0973 19.0467C84.9924 19.0554 84.8869 19.0412 84.788 19.0051C84.6892 18.969 84.5994 18.9119 84.525 18.8377C84.4505 18.7635 84.3932 18.6741 84.357 18.5756C84.3208 18.4771 84.3065 18.3719 84.3153 18.2674C84.3084 17.8185 84.3153 17.3696 84.3131 16.9207C84.3131 16.2501 84.3208 15.5791 84.3038 14.9085C84.3118 14.4671 84.1848 14.0337 83.9398 13.6659C83.7696 13.4606 83.5317 13.3223 83.2687 13.2756C83.0056 13.229 82.7345 13.277 82.5037 13.4111C82.3244 13.5349 82.177 13.6992 82.0733 13.8904C81.9697 14.0817 81.9127 14.2946 81.907 14.5119C81.8533 15.0215 81.8491 15.5362 81.8418 16.0488C81.832 16.7517 81.8286 17.4554 81.8418 18.1582C81.8575 18.2773 81.8457 18.3983 81.8073 18.5121C81.769 18.6259 81.7051 18.7295 81.6205 18.815C81.536 18.9005 81.433 18.9656 81.3193 19.0055C81.2057 19.0453 81.0845 19.0588 80.9648 19.045C80.8455 19.0484 80.7257 19.045 80.6068 19.045C80.5143 19.0492 80.4219 19.0351 80.3349 19.0036C80.2479 18.972 80.168 18.9236 80.0998 18.8612C80.0316 18.7987 79.9765 18.7235 79.9376 18.6397C79.8988 18.5559 79.877 18.4653 79.8734 18.3731C79.8639 18.2817 79.8595 18.1898 79.8602 18.0979C79.8602 16.2859 79.8602 14.4739 79.8602 12.6619C79.8602 12.0674 80.1283 11.7794 80.727 11.7731C81.0195 11.7698 81.3113 11.8011 81.5963 11.8665C82.0673 11.9835 82.5626 11.9567 83.018 11.7896C83.6062 11.5703 84.246 11.5278 84.8582 11.6673C85.1865 11.7278 85.4891 11.8852 85.7266 12.119C85.9641 12.3528 86.1257 12.6523 86.1904 12.9787C86.2543 13.2467 86.288 13.5209 86.2909 13.7963C86.3046 14.5153 86.2957 15.2351 86.2957 15.9545L86.2948 15.9558Z" fill="#277C12"/>
<path d="M48.5978 19.0429C47.838 19.0429 47.0782 19.0429 46.3183 19.0429C46.2039 19.0444 46.0897 19.0343 45.9774 19.0127C45.8149 18.987 45.6664 18.906 45.5569 18.7837C45.4474 18.6614 45.3837 18.5051 45.3765 18.3413C45.3334 18.0704 45.3552 17.7933 45.44 17.5324C45.5248 17.2715 45.6702 17.0343 45.8644 16.84C46.6545 16.0447 47.4424 15.247 48.2279 14.4469C48.3528 14.3271 48.4611 14.1913 48.5501 14.043C48.6015 13.9762 48.6335 13.8966 48.6427 13.8128C48.6519 13.7291 48.6379 13.6445 48.6022 13.5681C48.5666 13.4918 48.5106 13.4266 48.4404 13.3797C48.3702 13.3327 48.2885 13.3059 48.2041 13.302C48.0125 13.2669 47.8184 13.2471 47.6236 13.2429C47.2286 13.226 46.8297 13.2497 46.4393 13.2005C46.342 13.1944 46.2471 13.1677 46.1609 13.1222C46.0748 13.0767 45.9994 13.0133 45.9397 12.9364C45.8801 12.8595 45.8377 12.7708 45.8152 12.6763C45.7927 12.5817 45.7908 12.4834 45.8095 12.3881C45.8257 12.2056 45.91 12.0358 46.0455 11.9121C46.1811 11.7884 46.3582 11.7197 46.542 11.7196C46.6017 11.7158 46.6613 11.7162 46.721 11.7162H50.9703C51.0355 11.7162 51.1007 11.7162 51.1654 11.7204C51.2747 11.7179 51.3832 11.7385 51.4839 11.7808C51.5845 11.8231 51.675 11.8862 51.7494 11.966C51.8238 12.0457 51.8804 12.1403 51.9154 12.2434C51.9504 12.3466 51.9631 12.4559 51.9525 12.5643C51.9597 12.8591 51.9024 13.152 51.7847 13.4226C51.6669 13.6932 51.4916 13.9351 51.2707 14.1314C50.5356 14.8436 49.8218 15.5787 49.1054 16.3088C48.997 16.4225 48.9003 16.5469 48.8169 16.6799C48.768 16.7456 48.7363 16.8224 48.7246 16.9033C48.7129 16.9842 48.7216 17.0667 48.7498 17.1435C48.778 17.2203 48.8249 17.2888 48.8863 17.343C48.9477 17.3973 49.0217 17.4354 49.1015 17.4541C49.2309 17.4935 49.3652 17.5148 49.5004 17.5174C50.005 17.5246 50.51 17.5174 51.0146 17.5229C51.15 17.5225 51.2848 17.5406 51.4152 17.5769C51.5709 17.6219 51.7066 17.7186 51.7996 17.851C51.8927 17.9834 51.9374 18.1435 51.9266 18.3048C51.9396 18.461 51.8935 18.6165 51.7974 18.7407C51.7013 18.8648 51.5621 18.9487 51.4071 18.9758C51.2285 19.0199 51.0451 19.0418 50.8612 19.0412C50.1064 19.0476 49.3521 19.0429 48.5978 19.0429Z" fill="#277C12"/>
<path d="M59.8838 15.2814C59.8838 14.4269 59.8817 13.5729 59.8838 12.7184C59.8832 12.5617 59.8975 12.4053 59.9264 12.2513C59.949 12.0462 60.0486 11.8571 60.2051 11.7221C60.3617 11.5871 60.5637 11.5161 60.7707 11.5234C61.1723 11.4874 61.5767 11.5447 61.9524 11.6907C62.3056 11.8326 62.6973 11.8476 63.0604 11.7331C63.2378 11.6855 63.4215 11.6652 63.6051 11.6728C63.7433 11.6744 63.8761 11.7265 63.9782 11.8193C64.0804 11.9121 64.1447 12.0391 64.159 12.1761C64.1858 12.4114 64.1823 12.6492 64.1484 12.8836C64.1195 13.0442 64.0457 13.1935 63.9357 13.3144C63.8257 13.4353 63.6838 13.523 63.5262 13.5674C63.2317 13.6729 62.9484 13.8075 62.6807 13.9691C62.5132 14.0825 62.3773 14.2364 62.2858 14.4163C62.1943 14.5963 62.1501 14.7965 62.1574 14.9981C62.1514 15.9282 62.1574 16.8583 62.1531 17.7883C62.152 17.9557 62.1408 18.123 62.1194 18.289C62.1108 18.4921 62.023 18.6838 61.8748 18.8234C61.7265 18.963 61.5295 19.0394 61.3255 19.0365C61.1088 19.0482 60.8916 19.0482 60.6748 19.0365C60.5155 19.035 60.3611 18.9813 60.2355 18.8835C60.1099 18.7858 60.0202 18.6495 59.9802 18.4959C59.9215 18.2771 59.89 18.0521 59.8864 17.8257C59.8757 16.9793 59.8838 16.1304 59.8838 15.2814Z" fill="#277C12"/>
<path d="M7.91663 20.6462C7.8888 20.4783 7.80273 20.3256 7.67345 20.2145C7.54417 20.1035 7.37985 20.0411 7.20919 20.0384H6.49196V19.7322C7.10371 19.6873 7.68045 19.4307 8.12245 19.0069C8.15151 18.9799 8.1717 18.9448 8.18037 18.9062C8.18905 18.8675 8.18579 18.8272 8.17104 18.7905C8.15629 18.7537 8.13075 18.7223 8.09774 18.7003C8.06473 18.6782 8.02579 18.6667 7.98607 18.6671H4.60408C4.56436 18.6667 4.52545 18.6782 4.49244 18.7003C4.45943 18.7223 4.43387 18.7537 4.41912 18.7905C4.40437 18.8272 4.40111 18.8675 4.40978 18.9062C4.41845 18.9448 4.43864 18.9799 4.4677 19.0069C4.9097 19.4307 5.48644 19.6873 6.09819 19.7322V20.0384H5.38097C5.21036 20.0411 5.04611 20.1034 4.91683 20.2144C4.78756 20.3253 4.70147 20.478 4.67355 20.6457L4.44853 22.1436C4.43431 22.2263 4.43862 22.3111 4.46115 22.392C4.48368 22.4729 4.52387 22.5477 4.57885 22.6113C4.63383 22.6749 4.70225 22.7255 4.77918 22.7596C4.85611 22.7938 4.93965 22.8105 5.02384 22.8087H7.56631C7.6505 22.8105 7.73406 22.7938 7.811 22.7596C7.88793 22.7255 7.95632 22.6749 8.0113 22.6113C8.06629 22.5477 8.10647 22.4729 8.129 22.392C8.15153 22.3111 8.15587 22.2263 8.14164 22.1436L7.91663 20.6462ZM7.39329 19.0612C7.0578 19.2491 6.67946 19.3477 6.29465 19.3477C5.90983 19.3477 5.53149 19.2491 5.19601 19.0612H7.39329ZM7.71291 22.356C7.69434 22.3762 7.67156 22.3921 7.64617 22.4027C7.62077 22.4133 7.59339 22.4182 7.5659 22.4171H5.02342C4.99586 22.419 4.96821 22.4145 4.94271 22.4039C4.91721 22.3933 4.89455 22.3769 4.87652 22.356C4.85848 22.3352 4.84555 22.3104 4.8388 22.2837C4.83205 22.257 4.83164 22.2291 4.8376 22.2022L5.06262 20.7039C5.07754 20.6297 5.11692 20.5625 5.17452 20.5131C5.23212 20.4637 5.30465 20.4349 5.38055 20.4313H7.20919C7.28515 20.4349 7.35771 20.4638 7.41532 20.5133C7.47293 20.5628 7.51228 20.63 7.52711 20.7043L7.75213 22.2022C7.75707 22.2291 7.75612 22.2567 7.74935 22.2831C7.74258 22.3096 7.73015 22.3343 7.71291 22.3555V22.356Z" fill="#277C12"/>
<path d="M6.29473 22.223C6.1361 22.223 5.98103 22.1761 5.84914 22.0883C5.71724 22.0005 5.61444 21.8757 5.55373 21.7296C5.49303 21.5836 5.47714 21.4229 5.50808 21.2678C5.53903 21.1128 5.61542 20.9704 5.72759 20.8586C5.83976 20.7468 5.98267 20.6707 6.13825 20.6399C6.29383 20.609 6.4551 20.6249 6.60165 20.6853C6.74821 20.7458 6.87346 20.8483 6.96159 20.9797C7.04972 21.1112 7.09674 21.2657 7.09674 21.4238C7.09652 21.6357 7.01194 21.8388 6.86158 21.9887C6.71122 22.1385 6.50737 22.2228 6.29473 22.223ZM6.29473 21.0169C6.21398 21.0169 6.13503 21.0408 6.06789 21.0855C6.00075 21.1302 5.94842 21.1937 5.91752 21.2681C5.88662 21.3424 5.87854 21.4242 5.89429 21.5031C5.91005 21.5821 5.94894 21.6546 6.00603 21.7115C6.06313 21.7684 6.13586 21.8071 6.21506 21.8228C6.29425 21.8385 6.37635 21.8304 6.45095 21.7996C6.52555 21.7689 6.58931 21.7167 6.63417 21.6498C6.67903 21.5829 6.70297 21.5042 6.70297 21.4238C6.70285 21.3159 6.6598 21.2125 6.58327 21.1362C6.50673 21.0599 6.40297 21.017 6.29473 21.0169Z" fill="#277C12"/>
<path d="M17.3012 18.7711C17.3576 18.7091 17.4006 18.6362 17.4275 18.5569C17.4544 18.4777 17.4646 18.3937 17.4576 18.3104C17.3741 18.3046 17.2901 18.3154 17.2108 18.3421C17.1314 18.3689 17.0582 18.4111 16.9953 18.4662C16.8248 18.6361 16.8674 18.7711 16.8389 18.927C16.9761 18.8879 17.1303 18.9414 17.3012 18.7711Z" fill="#277C12"/>
<path d="M15.568 22.8625C15.4117 22.8624 15.259 22.8161 15.1292 22.7296C14.9993 22.643 14.8981 22.52 14.8383 22.3761C14.7786 22.2322 14.763 22.0739 14.7936 21.9212C14.8241 21.7685 14.8994 21.6283 15.0099 21.5182C15.1204 21.4081 15.2612 21.3332 15.4144 21.3028C15.5677 21.2725 15.7265 21.2881 15.8709 21.3477C16.0152 21.4073 16.1386 21.5082 16.2254 21.6377C16.3122 21.7672 16.3585 21.9194 16.3585 22.0751C16.3582 22.2839 16.2748 22.484 16.1266 22.6316C15.9784 22.7792 15.7775 22.8622 15.568 22.8625ZM15.568 21.681C15.4899 21.681 15.4135 21.7041 15.3485 21.7473C15.2836 21.7906 15.2329 21.8521 15.203 21.924C15.1731 21.9959 15.1653 22.0751 15.1805 22.1515C15.1958 22.2278 15.2334 22.298 15.2887 22.353C15.3439 22.4081 15.4143 22.4456 15.4909 22.4608C15.5676 22.476 15.647 22.4682 15.7192 22.4384C15.7914 22.4086 15.8531 22.3581 15.8965 22.2934C15.9399 22.2286 15.963 22.1525 15.963 22.0747C15.9629 21.9703 15.9213 21.8702 15.8472 21.7964C15.7732 21.7226 15.6727 21.6811 15.568 21.681Z" fill="#277C12"/>
<path d="M16.7535 22.8625C16.5973 22.8624 16.4446 22.8161 16.3147 22.7296C16.1848 22.643 16.0836 22.52 16.0239 22.3761C15.9642 22.2322 15.9486 22.0739 15.9791 21.9212C16.0096 21.7685 16.0849 21.6283 16.1954 21.5182C16.3059 21.4081 16.4467 21.3332 16.6 21.3028C16.7532 21.2725 16.9121 21.2881 17.0564 21.3477C17.2008 21.4073 17.3241 21.5082 17.4109 21.6377C17.4977 21.7672 17.5441 21.9194 17.5441 22.0751C17.5437 22.2839 17.4603 22.484 17.3121 22.6316C17.1639 22.7792 16.9631 22.8622 16.7535 22.8625ZM16.7535 21.681C16.6754 21.681 16.599 21.7041 16.5341 21.7473C16.4691 21.7906 16.4185 21.8521 16.3886 21.924C16.3587 21.9959 16.3508 22.0751 16.3661 22.1515C16.3813 22.2278 16.419 22.298 16.4742 22.353C16.5295 22.4081 16.5998 22.4456 16.6765 22.4608C16.7531 22.476 16.8325 22.4682 16.9047 22.4384C16.9769 22.4086 17.0386 22.3581 17.082 22.2934C17.1254 22.2286 17.1486 22.1525 17.1486 22.0747C17.1485 21.9703 17.1068 21.8702 17.0328 21.7964C16.9587 21.7226 16.8583 21.6811 16.7535 21.681Z" fill="#277C12"/>
<path d="M17.9371 22.8625C17.7809 22.8624 17.6282 22.8161 17.4983 22.7296C17.3684 22.643 17.2672 22.52 17.2075 22.3761C17.1477 22.2322 17.1322 22.0739 17.1627 21.9212C17.1932 21.7685 17.2685 21.6283 17.379 21.5182C17.4895 21.4081 17.6303 21.3332 17.7836 21.3028C17.9368 21.2725 18.0957 21.2881 18.24 21.3477C18.3844 21.4073 18.5077 21.5082 18.5945 21.6377C18.6813 21.7672 18.7277 21.9194 18.7277 22.0751C18.7274 22.2839 18.6441 22.4841 18.4958 22.6318C18.3476 22.7794 18.1467 22.8623 17.9371 22.8625ZM17.9371 21.681C17.859 21.681 17.7826 21.7041 17.7177 21.7473C17.6527 21.7906 17.6021 21.8521 17.5722 21.924C17.5423 21.9959 17.5344 22.0751 17.5497 22.1515C17.5649 22.2278 17.6025 22.298 17.6578 22.353C17.713 22.4081 17.7834 22.4456 17.8601 22.4608C17.9367 22.476 18.0161 22.4682 18.0883 22.4384C18.1605 22.4086 18.2222 22.3581 18.2656 22.2934C18.309 22.2286 18.3322 22.1525 18.3322 22.0747C18.3321 21.9703 18.2904 21.8702 18.2164 21.7964C18.1423 21.7226 18.0419 21.6811 17.9371 21.681Z" fill="#277C12"/>
<path d="M16.1605 21.6811C16.0042 21.6811 15.8515 21.6349 15.7215 21.5484C15.5916 21.4619 15.4904 21.339 15.4305 21.1951C15.3707 21.0513 15.3551 20.893 15.3855 20.7402C15.416 20.5875 15.4912 20.4472 15.6016 20.3371C15.7121 20.227 15.8528 20.1519 16.0061 20.1215C16.1593 20.0911 16.3181 20.1066 16.4625 20.1661C16.6069 20.2257 16.7303 20.3265 16.8172 20.4559C16.9041 20.5854 16.9505 20.7376 16.9506 20.8933C16.9504 21.1021 16.8672 21.3023 16.7191 21.45C16.5709 21.5978 16.37 21.6808 16.1605 21.6811ZM16.1605 20.4996C16.0823 20.4996 16.0059 20.5227 15.941 20.5659C15.876 20.6092 15.8254 20.6707 15.7955 20.7426C15.7656 20.8145 15.7578 20.8937 15.773 20.9701C15.7882 21.0464 15.8259 21.1166 15.8811 21.1716C15.9364 21.2267 16.0068 21.2642 16.0834 21.2794C16.16 21.2946 16.2395 21.2868 16.3117 21.257C16.3838 21.2272 16.4455 21.1767 16.4889 21.112C16.5324 21.0472 16.5555 20.9711 16.5555 20.8933C16.5554 20.7889 16.5137 20.6888 16.4397 20.615C16.3656 20.5412 16.2652 20.4997 16.1605 20.4996Z" fill="#277C12"/>
<path d="M17.3462 21.6811C17.19 21.6811 17.0373 21.6349 16.9073 21.5484C16.7774 21.4619 16.6761 21.339 16.6163 21.1951C16.5565 21.0513 16.5409 20.893 16.5713 20.7402C16.6018 20.5875 16.6769 20.4472 16.7874 20.3371C16.8979 20.227 17.0386 20.1519 17.1918 20.1215C17.3451 20.0911 17.5039 20.1066 17.6483 20.1661C17.7927 20.2257 17.9161 20.3265 18.003 20.4559C18.0899 20.5854 18.1363 20.7376 18.1363 20.8933C18.1361 21.1021 18.0528 21.3022 17.9047 21.4499C17.7566 21.5976 17.5558 21.6807 17.3462 21.6811ZM17.3462 20.4996C17.2681 20.4996 17.1917 20.5227 17.1268 20.5659C17.0618 20.6092 17.0112 20.6707 16.9813 20.7426C16.9514 20.8145 16.9435 20.8937 16.9588 20.9701C16.974 21.0464 17.0117 21.1166 17.0669 21.1716C17.1222 21.2267 17.1925 21.2642 17.2692 21.2794C17.3458 21.2946 17.4252 21.2868 17.4974 21.257C17.5696 21.2272 17.6313 21.1767 17.6747 21.112C17.7181 21.0472 17.7413 20.9711 17.7413 20.8933C17.7412 20.7889 17.6995 20.6888 17.6255 20.615C17.5514 20.5412 17.451 20.4997 17.3462 20.4996Z" fill="#277C12"/>
<path d="M16.7537 20.6236C16.5973 20.6236 16.4445 20.5774 16.3145 20.4908C16.1845 20.4042 16.0831 20.2812 16.0233 20.1372C15.9635 19.9933 15.9478 19.8349 15.9783 19.6821C16.0088 19.5293 16.0841 19.3889 16.1947 19.2787C16.3052 19.1685 16.4461 19.0935 16.5994 19.0631C16.7528 19.0327 16.9117 19.0483 17.0562 19.1079C17.2006 19.1676 17.3241 19.2685 17.4109 19.3981C17.4978 19.5276 17.5442 19.68 17.5442 19.8358C17.5439 20.0446 17.4606 20.2449 17.3124 20.3926C17.1642 20.5403 16.9632 20.6233 16.7537 20.6236ZM16.7537 19.4421C16.6755 19.4421 16.5991 19.4652 16.5342 19.5084C16.4692 19.5517 16.4186 19.6132 16.3887 19.6851C16.3588 19.757 16.351 19.8362 16.3662 19.9126C16.3814 19.9889 16.4191 20.0591 16.4743 20.1141C16.5296 20.1692 16.6 20.2067 16.6766 20.2219C16.7532 20.2371 16.8326 20.2293 16.9048 20.1995C16.977 20.1697 17.0387 20.1192 17.0821 20.0545C17.1255 19.9898 17.1487 19.9136 17.1487 19.8358C17.1486 19.7314 17.1069 19.6313 17.0329 19.5575C16.9588 19.4837 16.8584 19.4422 16.7537 19.4421Z" fill="#277C12"/>
<path d="M14.5256 22.5754C14.5205 21.0215 14.2056 20.088 12.7323 19.7907C12.7194 19.7869 12.7061 19.7844 12.6927 19.7831C12.3004 19.7139 11.9025 19.6816 11.5042 19.6867C8.95018 19.6867 8.48267 20.6715 8.48267 22.6111C8.48267 22.6639 8.50373 22.7146 8.54122 22.7519C8.5787 22.7893 8.62952 22.8103 8.68253 22.8103H14.3283C14.3545 22.8103 14.3805 22.8051 14.4048 22.7951C14.429 22.7851 14.4511 22.7704 14.4696 22.7519C14.4882 22.7334 14.5029 22.7115 14.513 22.6873C14.523 22.6631 14.5282 22.6372 14.5282 22.6111C14.5283 22.5991 14.5275 22.5872 14.5256 22.5754ZM9.92949 21.4631H12.6744C12.7274 21.4631 12.7782 21.4422 12.8157 21.4048C12.8532 21.3674 12.8742 21.3168 12.8742 21.264V20.232C12.9461 20.2524 13.0142 20.2747 13.0784 20.2991V22.4119H9.92949V21.4631ZM12.4745 20.1466V21.0635H9.92949V20.2991C9.9937 20.2745 10.0617 20.2521 10.1336 20.232V20.3594C10.1336 20.4122 10.1547 20.4629 10.1921 20.5002C10.2296 20.5376 10.2805 20.5586 10.3335 20.5586C10.3865 20.5586 10.4373 20.5376 10.4748 20.5002C10.5123 20.4629 10.5334 20.4122 10.5334 20.3594V20.147C11.1778 20.0637 11.8304 20.0637 12.4749 20.147L12.4745 20.1466ZM9.52973 20.514V22.411H8.88412C8.90031 21.4997 9.03753 20.8822 9.53017 20.5135L9.52973 20.514ZM13.4781 22.411V20.5135C13.9707 20.8822 14.108 21.4997 14.1237 22.411H13.4781Z" fill="#277C12"/>
<path d="M11.5046 19.4565C10.9242 19.4565 10.4392 18.9618 10.204 18.1336C10.1944 18.1079 10.1904 18.0804 10.192 18.053C10.1936 18.0256 10.2009 17.9988 10.2134 17.9743C10.2259 17.9499 10.2434 17.9282 10.2647 17.9108C10.286 17.8934 10.3107 17.8805 10.3372 17.8731C10.3637 17.8656 10.3915 17.8637 10.4188 17.8675C10.4461 17.8712 10.4724 17.8806 10.4959 17.8949C10.5194 17.9092 10.5397 17.9283 10.5554 17.9508C10.5712 17.9733 10.5821 17.9988 10.5875 18.0258C10.7286 18.5248 11.0431 19.0582 11.5033 19.0582C11.9636 19.0582 12.2777 18.5248 12.4187 18.0258C12.4361 17.9787 12.4707 17.9399 12.5155 17.9172C12.5603 17.8944 12.6121 17.8893 12.6606 17.9029C12.709 17.9165 12.7505 17.9479 12.7767 17.9906C12.803 18.0334 12.8121 18.0845 12.8023 18.1336C12.5709 18.9618 12.0846 19.4565 11.5046 19.4565Z" fill="#277C12"/>
<path d="M12.68 15.8314C12.7107 15.7189 12.7259 15.6028 12.7252 15.4862C12.7251 15.4517 12.7161 15.4178 12.699 15.3879C12.6819 15.3579 12.6573 15.3329 12.6275 15.3153C12.5978 15.2976 12.564 15.288 12.5294 15.2873C12.4949 15.2866 12.4607 15.2948 12.4303 15.3112C12.1373 15.4318 11.8205 15.484 11.5042 15.4637C11.278 15.4434 11.0499 15.4718 10.8357 15.5471C10.6214 15.6223 10.4259 15.7426 10.2624 15.8998C10.1 16.121 9.98612 16.3737 9.92805 16.6415C9.86998 16.9093 9.86904 17.1863 9.92529 17.4546C9.93006 17.5039 9.95308 17.5496 9.98988 17.5829C10.0267 17.6162 10.0746 17.6347 10.1243 17.6346C10.599 17.6346 10.8207 17.1875 10.8982 16.8277C11.3022 16.8296 11.7012 16.7382 12.0638 16.5606C12.0891 16.8826 12.2129 17.1891 12.4183 17.4389C12.4792 17.5013 12.5521 17.551 12.6326 17.5848C12.7132 17.6185 12.7997 17.6358 12.8871 17.6355C12.9368 17.6355 12.9847 17.6171 13.0215 17.5838C13.0583 17.5505 13.0813 17.5047 13.0861 17.4554C13.1611 16.6859 13.0282 16.1533 12.68 15.8314ZM10.8296 16.4294C10.7751 16.4294 10.7423 16.4294 10.7393 16.4294C10.6876 16.4262 10.6366 16.4432 10.5973 16.4768C10.558 16.5105 10.5334 16.558 10.5287 16.6095C10.5081 16.8107 10.431 17.002 10.3063 17.1616C10.2593 16.8106 10.3498 16.4552 10.559 16.1691C10.6863 16.0549 10.8363 15.9686 10.9992 15.916C11.1621 15.8634 11.3343 15.8456 11.5046 15.8637C11.7623 15.8684 12.0196 15.8439 12.2717 15.7907C12.0412 16.378 11.1347 16.4311 10.8296 16.4311V16.4294ZM12.7047 17.1598C12.5251 16.8989 12.4318 16.5886 12.4379 16.2723C12.4554 16.2523 12.472 16.2323 12.4887 16.2115C12.669 16.4929 12.7457 16.828 12.7056 17.1594L12.7047 17.1598Z" fill="#277C12"/>
<path d="M20.5129 12.293H19.104V22.8091H20.5129V12.293Z" fill="#277C12"/>
<path d="M4.07685 12.293H2.66797V22.8091H4.07685V12.293Z" fill="#277C12"/>
<path d="M14.1104 9.8098V4.79297H9.0749V5.50985V9.8098C9.04538 10.4079 9.18585 11.0022 9.48017 11.5243C9.70914 11.8776 10.0229 12.1685 10.393 12.3707C10.7675 12.5531 11.1754 12.6572 11.5918 12.6768C12.0269 12.6764 12.4545 12.5635 12.8326 12.3491C13.2108 12.1348 13.5267 11.8262 13.7494 11.4537C13.9806 10.9359 14.1034 10.3765 14.1104 9.8098ZM11.5935 11.96C11.1793 11.9594 10.7779 11.8166 10.4571 11.5555C10.1362 11.2944 9.91551 10.931 9.83218 10.5267H13.3548C13.2712 10.9309 13.0503 11.294 12.7294 11.5548C12.4085 11.8157 12.0072 11.9583 11.5931 11.9587L11.5935 11.96ZM13.3915 9.8098H9.79597V5.50985H13.3915V9.8098Z" fill="#277C12"/>
<path d="M6.25292 4.79297H3.43684C3.22567 4.79275 3.01909 4.85439 2.84278 4.97022C2.66647 5.08604 2.52821 5.25094 2.44518 5.44444L0.474606 10.0268C0.455648 10.0711 0.445926 10.1188 0.446046 10.1669C0.446046 10.1776 0.446046 10.1878 0.446046 10.1984C0.452921 10.7441 0.638396 11.2726 0.974246 11.7036C1.3101 12.1347 1.77798 12.4446 2.30678 12.5865C2.83558 12.7283 3.39636 12.6942 3.90394 12.4894C4.41152 12.2845 4.83813 11.9202 5.1189 11.4516C5.31243 10.9191 5.45134 10.3685 5.53354 9.80809L5.89962 7.25233L6.25292 4.79297ZM2.96253 11.9587C2.5483 11.9582 2.14692 11.8153 1.82607 11.5542C1.50523 11.2931 1.28455 10.9297 1.20122 10.5254H4.72427C4.64092 10.9298 4.42016 11.2932 4.09923 11.5543C3.7783 11.8154 3.37684 11.9583 2.96253 11.9587ZM4.80823 9.80851H1.35036L3.10658 5.72559C3.13414 5.66107 3.18016 5.60608 3.2389 5.56748C3.29764 5.52889 3.36648 5.50839 3.43684 5.50856H5.42445L4.80823 9.80851Z" fill="#277C12"/>
<path d="M9.79138 5.50985V4.79297H5.52978L5.30903 6.27937L4.80317 9.8098C4.80317 9.8098 4.67532 10.9093 5.11512 11.4533C5.16012 11.5089 5.19992 11.5685 5.23401 11.6313C5.4766 11.9692 5.79991 12.2415 6.17466 12.4235C6.54942 12.6056 6.9638 12.6917 7.38034 12.6741C7.79688 12.6564 8.20242 12.5355 8.56029 12.3224C8.91817 12.1092 9.21708 11.8105 9.42999 11.4533C9.68481 10.9437 9.80841 10.3789 9.78966 9.8098L9.79138 5.50985ZM7.27448 11.9587C6.86025 11.9582 6.45889 11.8153 6.13804 11.5542C5.8172 11.2931 5.5965 10.9298 5.51316 10.5254H9.03621C8.95286 10.9298 8.73211 11.2932 8.41117 11.5543C8.09024 11.8154 7.68878 11.9583 7.27448 11.9587ZM9.07244 9.80851H5.53191L6.14855 5.50856H9.07286L9.07244 9.80851Z" fill="#277C12"/>
<path d="M17.2819 7.25404L17.648 9.80981C17.7302 10.3702 17.8692 10.9208 18.0627 11.4533C18.3434 11.9219 18.77 12.2862 19.2776 12.4911C19.7852 12.6959 20.346 12.73 20.8748 12.5882C21.4036 12.4464 21.8715 12.1364 22.2073 11.7053C22.5432 11.2743 22.7286 10.7458 22.7355 10.2001C22.7355 10.1895 22.7355 10.1793 22.7355 10.1687C22.7355 10.1205 22.7258 10.0728 22.707 10.0285L20.7364 5.44615C20.6533 5.25265 20.5151 5.08775 20.3388 4.97192C20.1625 4.8561 19.9559 4.79446 19.7447 4.79468H16.9282L17.2819 7.25404ZM18.459 10.5262H21.9821C21.8995 10.9311 21.679 11.2951 21.358 11.5566C21.037 11.818 20.6351 11.9608 20.2205 11.9608C19.8059 11.9608 19.4041 11.818 19.0831 11.5566C18.762 11.2951 18.5416 10.9311 18.459 10.5262ZM17.7588 5.50986H19.7464C19.8168 5.50968 19.8856 5.53017 19.9444 5.56876C20.0031 5.60736 20.0491 5.66235 20.0767 5.72687L21.8329 9.80981H18.375L17.7588 5.50986Z" fill="#277C12"/>
<path d="M13.3915 9.8098C13.3728 10.3789 13.4964 10.9437 13.7512 11.4533C13.9641 11.8105 14.263 12.1092 14.6209 12.3224C14.9787 12.5355 15.3843 12.6564 15.8008 12.6741C16.2174 12.6917 16.6318 12.6056 17.0065 12.4235C17.3813 12.2415 17.7046 11.9692 17.9471 11.6313C17.9813 11.5685 18.0211 11.5089 18.066 11.4533C18.508 10.9093 18.378 9.8098 18.378 9.8098L17.8721 6.27937L17.6514 4.79297H13.3898V9.8098H13.3915ZM14.1471 10.5267H17.6701C17.5871 10.9312 17.3665 11.2947 17.0455 11.5558C16.7246 11.8169 16.3229 11.9595 15.9086 11.9595C15.4943 11.9595 15.0927 11.8169 14.7717 11.5558C14.4507 11.2947 14.2301 10.9312 14.1471 10.5267ZM14.1108 5.51026H17.0352L17.6518 9.81021H14.1108V5.51026Z" fill="#277C12"/>
<path d="M17.2258 0H5.95555C5.06928 0.0146362 4.22514 0.37941 3.60868 1.01413C2.99222 1.64884 2.65391 2.50154 2.66816 3.38475V5.12895H20.5132V3.38475C20.5274 2.50154 20.1891 1.64884 19.5727 1.01413C18.9562 0.37941 18.112 0.0146362 17.2258 0ZM13.1146 2.68529H10.0663C9.99508 2.68529 9.92681 2.65711 9.87646 2.60693C9.82611 2.55676 9.79781 2.48871 9.79781 2.41775C9.79781 2.34679 9.82611 2.27873 9.87646 2.22855C9.92681 2.17838 9.99508 2.1502 10.0663 2.1502H13.115C13.1862 2.1502 13.2545 2.17838 13.3049 2.22855C13.3552 2.27873 13.3835 2.34679 13.3835 2.41775C13.3835 2.48871 13.3552 2.55676 13.3049 2.60693C13.2545 2.65711 13.1858 2.68529 13.1146 2.68529Z" fill="#277C12"/>
<path d="M2.66797 22.7649V24.9023C2.69238 25.7473 3.05227 26.5481 3.66863 27.1289C4.28498 27.7097 5.10742 28.023 5.95536 28H17.226C18.074 28.023 18.8964 27.7097 19.5128 27.1289C20.1291 26.5481 20.489 25.7473 20.5134 24.9023V22.7649H2.66797ZM13.1375 25.9139H10.0431C9.82096 25.9139 9.6079 25.826 9.45082 25.6694C9.29373 25.5129 9.20548 25.3006 9.20548 25.0792C9.20548 24.8578 9.29373 24.6455 9.45082 24.489C9.6079 24.3324 9.82096 24.2445 10.0431 24.2445H13.1375C13.3596 24.2445 13.5727 24.3324 13.7297 24.489C13.8868 24.6455 13.9751 24.8578 13.9751 25.0792C13.9751 25.3006 13.8868 25.5129 13.7297 25.6694C13.5727 25.826 13.3596 25.9139 13.1375 25.9139Z" fill="#277C12"/>
</g>
<defs>
<clipPath id="clip0_696_11124">
<rect width="85.8512" height="28" fill="white" transform="translate(0.446045)"/>
</clipPath>
</defs>
</svg>
