<svg width="149" height="28" viewBox="0 0 149 28" fill="none" xmlns="http://www.w3.org/2000/svg">
<g clip-path="url(#clip0_696_11176)">
<mask id="mask0_696_11176" style="mask-type:luminance" maskUnits="userSpaceOnUse" x="0" y="0" width="149" height="28">
<path d="M148.806 0H0.40625V28H148.806V0Z" fill="white"/>
</mask>
<g mask="url(#mask0_696_11176)">
<path d="M0.406142 10.752C0.406142 6.98833 0.406142 5.10533 1.13881 3.668C1.78281 2.40333 2.81181 1.37667 4.07648 0.730333C5.51148 0 7.39448 0 11.1581 0H17.6541C21.4178 0 23.3008 0 24.7381 0.732667C26.0028 1.37667 27.0295 2.40567 27.6758 3.67033C28.4085 5.10767 28.4085 6.98833 28.4085 10.7543V17.2503C28.4085 21.014 28.4085 22.897 27.6758 24.3343C27.0318 25.599 26.0028 26.6257 24.7381 27.272C23.3008 28.0047 21.4201 28.0047 17.6541 28.0047H11.1581C7.39448 28.0047 5.51148 28.0047 4.07414 27.272C2.80948 26.628 1.78281 25.599 1.13648 24.3343C0.403809 22.897 0.403809 21.014 0.403809 17.2503V10.7543H0.406142V10.752Z" fill="#0331FC"/>
<path d="M20.3165 11.3214L20.0458 11.3867L20.0925 11.578L20.2885 11.5967L20.3165 11.3167V11.3214ZM19.1615 18.1417L19.4415 18.137V18.1324L19.1615 18.1417ZM19.8405 12.5277V12.2477H19.8148L19.8405 12.5277ZM11.8628 11.0554L11.6061 10.9457V10.9504L11.8651 11.0577H11.8628V11.0554ZM6.47746 14.406H6.19746V14.4177L6.47746 14.406ZM9.64846 17.4954L9.67646 17.2177H9.66246L9.64612 17.4954H9.64846ZM10.8805 10.1127L10.8385 10.3904L11.0298 10.4184L11.1255 10.2504L10.8828 10.1127H10.8805ZM20.5871 11.256C20.3375 10.2364 19.7705 9.31469 18.9631 8.61469L18.5968 9.03703C19.3201 9.66469 19.8241 10.4837 20.0435 11.389L20.5871 11.256ZM24.4838 15.0267C24.4628 12.922 22.6218 11.27 20.3421 11.0437L20.2861 11.6014C22.3581 11.8067 23.9075 13.286 23.9238 15.0337L24.4838 15.029V15.0267ZM19.8171 19.04C22.3395 19.04 24.4838 17.2854 24.4838 15.029H23.9238C23.9238 16.8934 22.1201 18.48 19.8171 18.48V19.04ZM19.1638 18.7834C19.3411 18.949 19.5745 19.04 19.8171 19.04V18.48C19.7145 18.48 19.6188 18.4404 19.5488 18.375L19.1638 18.7834ZM18.8791 18.1464C18.8838 18.389 18.9865 18.6177 19.1638 18.7834L19.5488 18.375C19.4788 18.3097 19.4415 18.2234 19.4415 18.137L18.8815 18.1464H18.8791ZM18.9445 17.7917C18.8978 17.906 18.8768 18.0274 18.8791 18.151L19.4391 18.1324C19.4391 18.088 19.4461 18.0437 19.4625 18.004L18.9445 17.7917ZM19.1475 17.4884C19.0588 17.5747 18.9911 17.6774 18.9445 17.7917L19.4625 18.004C19.4788 17.962 19.5045 17.9247 19.5395 17.892L19.1475 17.4907V17.4884ZM19.4531 17.29C19.3388 17.3367 19.2338 17.402 19.1475 17.4884L19.5395 17.8897C19.5721 17.857 19.6141 17.829 19.6608 17.8104L19.4531 17.29ZM19.8125 17.2224C19.6888 17.2224 19.5675 17.2434 19.4531 17.29L19.6608 17.8104C19.7075 17.7917 19.7588 17.7824 19.8078 17.7824L19.8125 17.2224ZM22.6195 15.015C22.6195 16.1747 21.4178 17.2224 19.8101 17.2224V17.7824C21.6091 17.7824 23.1795 16.5877 23.1795 15.015H22.6195ZM19.8405 12.8077C21.4318 12.8077 22.6195 13.8554 22.6195 15.015H23.1795C23.1795 13.4424 21.6278 12.2477 19.8405 12.2477V12.8077ZM19.1965 12.614C19.3878 12.761 19.6281 12.8287 19.8661 12.8054L19.8148 12.2477C19.7121 12.257 19.6141 12.229 19.5371 12.1684L19.1965 12.6117V12.614ZM18.8488 12.0144C18.8791 12.2524 19.0051 12.467 19.1965 12.614L19.5371 12.1707C19.4601 12.1124 19.4158 12.0307 19.4041 11.9444L18.8488 12.0144ZM17.8618 10.08C18.4078 10.605 18.7531 11.2864 18.8488 12.0167L19.4041 11.9444C19.2921 11.0857 18.8838 10.29 18.2491 9.67869L17.8618 10.0824V10.08ZM15.8318 9.11869C16.6018 9.21669 17.3158 9.55736 17.8618 10.08L18.2491 9.67636C17.6145 9.06503 16.7885 8.67536 15.9018 8.56103L15.8318 9.11636V9.11869ZM13.6058 9.54103C14.2778 9.17003 15.0595 9.02069 15.8318 9.11869L15.9018 8.56336C15.0151 8.45136 14.1121 8.62169 13.3351 9.05103L13.6058 9.54103ZM12.1195 11.1674C12.4135 10.486 12.9338 9.91203 13.6058 9.54103L13.3351 9.05103C12.5581 9.48036 11.9491 10.1477 11.6061 10.9457L12.1195 11.1674ZM11.6738 11.634C11.8745 11.536 12.0355 11.3704 12.1218 11.165L11.6038 10.9504C11.5735 11.025 11.5128 11.0904 11.4311 11.13L11.6738 11.634ZM11.0251 11.6994C11.2421 11.7554 11.4708 11.732 11.6738 11.634L11.4311 11.13C11.3495 11.1697 11.2538 11.179 11.1651 11.1557L11.0275 11.697L11.0251 11.6994ZM10.0848 11.578C10.4021 11.578 10.7195 11.62 11.0251 11.6994L11.1628 11.158C10.8128 11.0694 10.4488 11.0227 10.0871 11.0204V11.5804L10.0848 11.578ZM6.75746 14.4107C6.75746 12.8894 8.21346 11.578 10.0871 11.578V11.018C7.98479 11.018 6.19746 12.5044 6.19746 14.4107H6.75746ZM7.63712 16.338C7.10046 15.8154 6.78779 15.1247 6.75512 14.399L6.19512 14.4247C6.23246 15.2974 6.60812 16.121 7.24512 16.7394L7.63712 16.338ZM9.66479 17.22C8.89479 17.1757 8.17379 16.8607 7.63712 16.338L7.24512 16.7394C7.87979 17.3577 8.72912 17.7287 9.62979 17.78L9.66246 17.22H9.66479ZM10.2971 17.5467C10.1408 17.36 9.91679 17.2457 9.67646 17.22L9.61812 17.7777C9.71846 17.787 9.80946 17.836 9.86779 17.9084L10.2971 17.549V17.5467ZM10.5001 18.214C10.5281 17.9714 10.4535 17.7334 10.2971 17.5467L9.86779 17.906C9.92612 17.976 9.95179 18.0647 9.94246 18.1487L10.4978 18.2117L10.5001 18.214ZM10.1548 18.8207C10.3461 18.6737 10.4721 18.4544 10.5001 18.214L9.94479 18.151C9.93546 18.2374 9.88879 18.319 9.81412 18.3774L10.1548 18.8207ZM9.47812 19.0097C9.71846 19.0354 9.96112 18.9677 10.1548 18.8207L9.81412 18.3774C9.73712 18.4357 9.63912 18.4637 9.53879 18.4544L9.48046 19.012H9.47812V19.0097ZM4.88379 14.4084C4.88379 16.786 6.88346 18.739 9.47812 19.0097L9.53646 18.452C7.17046 18.2047 5.44379 16.4454 5.44379 14.4084H4.88379ZM10.0731 9.77436C7.24279 9.77436 4.88379 11.823 4.88379 14.4084H5.44379C5.44379 12.1917 7.48779 10.3344 10.0731 10.3344V9.77436ZM10.9225 9.83736C10.6425 9.79536 10.3578 9.77203 10.0731 9.77436V10.3344C10.3298 10.3344 10.5865 10.353 10.8385 10.3904L10.9225 9.83736ZM12.9268 7.84003C11.9561 8.31136 11.1581 9.05569 10.6378 9.97736L11.1255 10.2527C11.5875 9.43369 12.3015 8.76869 13.1741 8.34403L12.9291 7.84003H12.9268ZM16.0698 7.32669C14.9918 7.18903 13.8951 7.36636 12.9268 7.84003L13.1718 8.34403C14.0421 7.91936 15.0291 7.75836 15.9998 7.88436L16.0698 7.32903V7.32669ZM18.9631 8.61469C18.1558 7.91469 17.1455 7.46436 16.0698 7.32669L15.9998 7.88203C16.9705 8.00569 17.8758 8.40936 18.5991 9.03703L18.9655 8.61469H18.9631Z" fill="white"/>
<path d="M18.7812 8.82463C19.5466 9.48963 20.0809 10.36 20.3166 11.3213C22.4936 11.5383 24.1876 13.104 24.2062 15.029C24.2062 17.087 22.2322 18.76 19.8196 18.76C19.6469 18.76 19.4812 18.6946 19.3576 18.578C19.2339 18.4613 19.1639 18.305 19.1616 18.1393C19.1592 18.0553 19.1732 17.9736 19.2059 17.8966C19.2386 17.8196 19.2852 17.7473 19.3459 17.689C19.4066 17.6283 19.4789 17.5816 19.5606 17.5513C19.6399 17.5186 19.7262 17.5023 19.8149 17.5046C21.5182 17.5046 22.9042 16.3823 22.9042 15.0173C22.9042 13.6523 21.5322 12.53 19.8452 12.53C19.6749 12.5463 19.5046 12.4973 19.3716 12.3946C19.2386 12.292 19.1522 12.1426 19.1312 11.9816C19.0262 11.1883 18.6506 10.4486 18.0602 9.88163C17.4722 9.31463 16.7022 8.9483 15.8716 8.8433C15.0409 8.7383 14.1986 8.8993 13.4752 9.2983C12.7519 9.69963 12.1849 10.318 11.8676 11.0576C11.8092 11.1976 11.6996 11.3143 11.5572 11.382C11.4149 11.4496 11.2539 11.466 11.0999 11.4263C10.7709 11.3423 10.4326 11.298 10.0919 11.2956C8.1039 11.2956 6.48223 12.6956 6.48223 14.4083C6.51723 15.2063 6.86023 15.9646 7.44823 16.5363C8.03623 17.108 8.82023 17.4486 9.65556 17.4976C9.8259 17.5163 9.98223 17.598 10.0896 17.7263C10.1969 17.8546 10.2482 18.018 10.2296 18.1813C10.2109 18.3446 10.1246 18.494 9.99156 18.5966C9.85623 18.6993 9.6859 18.7483 9.51556 18.7296C7.03523 18.4706 5.1709 16.6156 5.1709 14.4083C5.1709 12.0073 7.37123 10.0543 10.0802 10.0543C10.3509 10.0543 10.6192 10.073 10.8876 10.115C11.3799 9.24697 12.1359 8.53997 13.0552 8.09197C13.9746 7.64397 15.0176 7.47363 16.0419 7.60663C17.0662 7.7373 18.0229 8.1643 18.7882 8.8293L18.7812 8.82463Z" fill="white"/>
<path d="M15.6755 16.058C15.8552 15.386 16.5459 14.987 17.2179 15.1667C17.8899 15.3464 18.2889 16.037 18.1092 16.709L17.3112 19.684C17.1315 20.356 16.4409 20.755 15.7689 20.5754C15.0969 20.3957 14.6979 19.705 14.8775 19.033L15.6755 16.058Z" fill="white"/>
<path opacity="0.5" d="M12.0146 16.898C12.1943 16.226 12.8849 15.827 13.5569 16.0067C14.2289 16.1863 14.6279 16.877 14.4483 17.549L14.0866 18.9023C13.9069 19.5743 13.2163 19.9733 12.5443 19.7937C11.8723 19.614 11.4733 18.9233 11.6529 18.2513L12.0146 16.898Z" fill="white"/>
</g>
<mask id="mask1_696_11176" style="mask-type:luminance" maskUnits="userSpaceOnUse" x="0" y="0" width="149" height="28">
<path d="M148.806 0H0.40625V28H148.806V0Z" fill="white"/>
</mask>
<g mask="url(#mask1_696_11176)">
<path d="M35.8729 14.1237C35.8729 12.5277 36.1786 11.1277 36.7899 9.92136C37.4176 8.70102 38.2973 7.76069 39.4313 7.09802C40.5793 6.42136 41.9163 6.08069 43.4376 6.08069C44.6159 6.08069 45.6753 6.30702 46.6156 6.75736C47.5699 7.21002 48.3469 7.85636 48.9443 8.70102C49.5416 9.52936 49.9219 10.493 50.0853 11.592H47.5116C47.2573 10.584 46.7649 9.79302 46.0346 9.21902C45.3043 8.64735 44.4013 8.36036 43.3256 8.36036C42.3549 8.36036 41.5056 8.61002 40.7729 9.10702C40.0426 9.59002 39.4826 10.2667 39.0929 11.1394C38.7056 11.998 38.5119 12.992 38.5119 14.1214C38.5119 15.2507 38.7056 16.2307 39.0929 17.1034C39.4803 17.976 40.0403 18.662 40.7729 19.159C41.5033 19.642 42.3549 19.8824 43.3256 19.8824C44.4013 19.8824 45.2949 19.5954 46.0113 19.0237C46.7416 18.452 47.2339 17.661 47.4883 16.6507H50.0619C49.8986 17.766 49.5183 18.7367 48.9209 19.565C48.3399 20.3934 47.5769 21.0327 46.6366 21.4854C45.6963 21.938 44.6299 22.162 43.4353 22.162C41.9139 22.162 40.5769 21.8307 39.4289 21.168C38.2949 20.5054 37.4153 19.572 36.7876 18.3657C36.1763 17.1454 35.8706 15.729 35.8706 14.119V14.1237H35.8729Z" fill="#0F172A"/>
<path d="M57.006 22.1667C55.858 22.1667 54.8337 21.9264 53.94 21.4434C53.0603 20.9464 52.372 20.2534 51.8797 19.3644C51.4013 18.4614 51.1633 17.4207 51.1633 16.2471C51.1633 15.0734 51.4013 14.0631 51.8797 13.1741C52.372 12.2711 53.058 11.5711 53.94 11.0741C54.836 10.5771 55.858 10.3274 57.006 10.3274C58.154 10.3274 59.169 10.5771 60.051 11.0741C60.947 11.5711 61.633 12.2711 62.1113 13.1741C62.6037 14.0631 62.851 15.0874 62.851 16.2471C62.851 17.4067 62.6037 18.4614 62.1113 19.3644C61.633 20.2534 60.947 20.9464 60.051 21.4434C59.1713 21.9264 58.1563 22.1667 57.006 22.1667ZM57.006 20.0877C58.021 20.0877 58.833 19.7331 59.4467 19.0261C60.0743 18.3027 60.387 17.3764 60.387 16.2471C60.387 15.1177 60.0743 14.1984 59.4467 13.4914C58.8353 12.7681 58.021 12.4064 57.006 12.4064C55.991 12.4064 55.179 12.7681 54.5653 13.4914C53.954 14.1984 53.6483 15.1177 53.6483 16.2471C53.6483 17.3764 53.954 18.3027 54.5653 19.0261C55.1767 19.7331 55.991 20.0877 57.006 20.0877Z" fill="#0F172A"/>
<path d="M70.39 10.3297C71.748 10.3297 72.8517 10.752 73.7033 11.5944C74.569 12.4367 75.0007 13.7924 75.0007 15.6614V22.0314H72.56V15.7967C72.56 14.6977 72.329 13.8624 71.867 13.2884C71.405 12.7167 70.726 12.4297 69.83 12.4297C68.8757 12.4297 68.122 12.768 67.569 13.447C67.0323 14.1097 66.764 15.029 66.764 16.2027V22.0314H64.3467V10.465H66.4513L66.7197 11.9794C67.5853 10.8804 68.808 10.3297 70.39 10.3297Z" fill="#0F172A"/>
<path d="M77.4902 12.6117H75.4976V10.4651H77.4902V7.2334H79.9309V10.4651H82.6842V12.6117H79.9309V18.6434C79.9309 19.0961 80.0196 19.4181 80.1992 19.6141C80.3789 19.7937 80.6846 19.8847 81.1162 19.8847H82.9526V22.0314H80.6239C79.5342 22.0314 78.7362 21.7747 78.2276 21.2637C77.7352 20.7527 77.4879 19.9617 77.4879 18.8907V12.6094H77.4902V12.6117Z" fill="#0F172A"/>
<path d="M83.1347 16.2704C83.1347 15.0804 83.3657 14.0421 83.8277 13.1531C84.306 12.2501 84.9617 11.5571 85.797 11.0741C86.6487 10.5771 87.617 10.3274 88.7067 10.3274C89.7963 10.3274 90.781 10.5537 91.6163 11.0041C92.468 11.4567 93.1307 12.0961 93.609 12.9244C94.1013 13.7527 94.3557 14.7234 94.3697 15.8387C94.3697 16.1397 94.3463 16.4477 94.302 16.7651H85.6617V16.9004C85.7223 17.9084 86.035 18.7087 86.602 19.2944C87.169 19.8824 87.9227 20.1764 88.863 20.1764C89.6097 20.1764 90.235 20.0037 90.7437 19.6561C91.25 19.2944 91.586 18.7904 91.7517 18.1417H94.169C93.959 19.3154 93.392 20.2814 92.468 21.0327C91.558 21.7864 90.417 22.1621 89.0427 22.1621C87.848 22.1621 86.805 21.9217 85.909 21.4387C85.0293 20.9417 84.341 20.2487 83.8487 19.3597C83.3703 18.4707 83.1323 17.4394 83.1323 16.2657V16.2704H83.1347ZM91.9103 14.9824C91.8053 14.1401 91.4693 13.4844 90.9023 13.0177C90.3493 12.5347 89.6493 12.2944 88.7977 12.2944C88.0067 12.2944 87.3207 12.5441 86.7373 13.0411C86.1703 13.5241 85.8413 14.1704 85.7527 14.9847H91.9103V14.9824Z" fill="#0F172A"/>
<path d="M101.925 10.3297C103.283 10.3297 104.387 10.752 105.238 11.5944C106.104 12.4367 106.536 13.7924 106.536 15.6614V22.0314H104.095V15.7967C104.095 14.6977 103.864 13.8624 103.402 13.2884C102.94 12.7167 102.261 12.4297 101.365 12.4297C100.411 12.4297 99.6569 12.768 99.1039 13.447C98.5673 14.1097 98.2989 15.029 98.2989 16.2027V22.0314H95.8816V10.465H97.9863L98.2546 11.9794C99.1203 10.8804 100.343 10.3297 101.925 10.3297Z" fill="#0F172A"/>
<path d="M109.025 12.6117H107.033V10.4651H109.025V7.2334H111.466V10.4651H114.219V12.6117H111.466V18.6434C111.466 19.0961 111.555 19.4181 111.734 19.6141C111.914 19.7937 112.22 19.8847 112.651 19.8847H114.488V22.0314H112.159C111.069 22.0314 110.271 21.7747 109.763 21.2637C109.27 20.7527 109.023 19.9617 109.023 18.8907V12.6094H109.025V12.6117Z" fill="#0F172A"/>
<path d="M121.672 10.4651V12.7471H120.596C119.595 12.7471 118.872 13.0784 118.424 13.7411C117.976 14.3898 117.752 15.2181 117.752 16.2261V22.0314H115.335V10.4651H117.484L117.752 12.2058C118.081 11.6644 118.506 11.2421 119.028 10.9411C119.551 10.6238 120.251 10.4674 121.133 10.4674H121.672V10.4651Z" fill="#0F172A"/>
<path d="M127.249 10.3297C128.786 10.3297 129.972 10.6914 130.807 11.4147C131.642 12.138 132.06 13.1694 132.06 14.5087V22.0314H129.955L129.755 20.3817C129.323 20.9534 128.807 21.399 128.21 21.714C127.629 22.015 126.913 22.1667 126.061 22.1667C124.792 22.1667 123.777 21.8657 123.016 21.2637C122.255 20.6617 121.875 19.8334 121.875 18.7787C121.875 17.5887 122.293 16.6787 123.128 16.044C123.98 15.3954 125.202 15.0734 126.798 15.0734H129.664V14.3734C129.664 13.7247 129.44 13.2207 128.992 12.859C128.544 12.4834 127.925 12.2944 127.134 12.2944C126.432 12.2944 125.851 12.446 125.389 12.747C124.941 13.048 124.673 13.4634 124.584 13.9907H122.211C122.33 12.831 122.839 11.935 123.732 11.3027C124.628 10.654 125.8 10.332 127.246 10.332H127.249V10.3297ZM126.465 20.2697C127.466 20.2697 128.24 19.999 128.793 19.4554C129.36 18.914 129.652 18.1907 129.666 17.2877V16.8817H126.665C125.919 16.8817 125.345 17.0334 124.941 17.3344C124.537 17.6214 124.337 18.0507 124.337 18.6224C124.337 19.1194 124.523 19.5184 124.897 19.8194C125.284 20.1204 125.807 20.272 126.465 20.272V20.2697Z" fill="#0F172A"/>
<path d="M135.018 5.83337C135.436 5.83337 135.786 5.97571 136.071 6.26271C136.355 6.53337 136.495 6.88104 136.495 7.30104C136.495 7.72104 136.353 8.07571 136.071 8.36271C135.786 8.63337 135.436 8.76871 135.018 8.76871C134.601 8.76871 134.251 8.63337 133.966 8.36271C133.682 8.07571 133.542 7.72337 133.542 7.30104C133.542 6.87871 133.684 6.53337 133.966 6.26271C134.251 5.97571 134.601 5.83337 135.018 5.83337ZM133.81 10.465H136.227V22.0314H133.81V10.465Z" fill="#0F172A"/>
<path d="M144.196 10.3297C145.554 10.3297 146.657 10.752 147.509 11.5944C148.375 12.4367 148.806 13.7924 148.806 15.6614V22.0314H146.366V15.7967C146.366 14.6977 146.135 13.8624 145.673 13.2884C145.211 12.7167 144.532 12.4297 143.636 12.4297C142.681 12.4297 141.928 12.768 141.375 13.447C140.838 14.1097 140.57 15.029 140.57 16.2027V22.0314H138.152V10.465H140.257L140.525 11.9794C141.391 10.8804 142.614 10.3297 144.196 10.3297Z" fill="#0F172A"/>
</g>
</g>
<defs>
<clipPath id="clip0_696_11176">
<rect width="148.4" height="28" fill="white" transform="translate(0.40625)"/>
</clipPath>
</defs>
</svg>
