<svg width="192" height="80" viewBox="0 0 192 80" fill="none" xmlns="http://www.w3.org/2000/svg">
<rect width="80" height="80" rx="40" fill="#F8FAFC"/>
<g clip-path="url(#clip0_709_15028)">
<path fill-rule="evenodd" clip-rule="evenodd" d="M47.0945 17.2021C47.4884 17.6886 47.6893 18.345 48.091 19.6579L56.8673 48.3387C53.6225 46.6641 50.0949 45.4563 46.3748 44.8047L40.6605 25.5947C40.567 25.2803 40.2769 25.0647 39.9474 25.0647C39.617 25.0647 39.3263 25.2815 39.2335 25.5969L33.5885 44.795C29.8511 45.4437 26.3075 46.6536 23.0488 48.3343L31.8681 19.6513C32.2711 18.3406 32.4726 17.6853 32.8665 17.1998C33.2143 16.7711 33.6667 16.4382 34.1804 16.2327C34.7624 16 35.4513 16 36.829 16H43.1281C44.5076 16 45.1974 16 45.7799 16.2332C46.2941 16.4403 46.7468 16.7727 47.0945 17.2021Z" fill="black"/>
<path fill-rule="evenodd" clip-rule="evenodd" d="M48.1453 49.7034C46.6985 50.9341 43.8108 51.7735 40.4844 51.7735C36.4019 51.7735 32.9801 50.5091 32.072 48.8086C31.7474 49.7832 31.6747 50.8986 31.6747 51.6111C31.6747 51.6111 31.4608 55.11 33.9069 57.5432C33.9069 56.2796 34.9366 55.2555 36.2067 55.2555C38.3838 55.2555 38.3813 57.1449 38.3793 58.6778C38.3793 58.7238 38.3792 58.7693 38.3792 58.8145C38.3792 61.1413 39.8087 63.1359 41.8416 63.9769C41.538 63.3556 41.3677 62.6577 41.3677 61.9206C41.3677 59.7015 42.6773 58.875 44.1993 57.9146C45.4103 57.1505 46.7558 56.3018 47.6831 54.5987C48.167 53.7101 48.4417 52.6926 48.4417 51.6111C48.4417 50.946 48.3378 50.305 48.1453 49.7034Z" fill="#FF5D01"/>
<path fill-rule="evenodd" clip-rule="evenodd" d="M48.1453 49.7034C46.6985 50.9341 43.8108 51.7735 40.4844 51.7735C36.4019 51.7735 32.9801 50.5091 32.072 48.8086C31.7474 49.7832 31.6747 50.8986 31.6747 51.6111C31.6747 51.6111 31.4608 55.11 33.9069 57.5432C33.9069 56.2796 34.9366 55.2555 36.2067 55.2555C38.3838 55.2555 38.3813 57.1449 38.3793 58.6778C38.3793 58.7238 38.3792 58.7693 38.3792 58.8145C38.3792 61.1413 39.8087 63.1359 41.8416 63.9769C41.538 63.3556 41.3677 62.6577 41.3677 61.9206C41.3677 59.7015 42.6773 58.875 44.1993 57.9146C45.4103 57.1505 46.7558 56.3018 47.6831 54.5987C48.167 53.7101 48.4417 52.6926 48.4417 51.6111C48.4417 50.946 48.3378 50.305 48.1453 49.7034Z" fill="url(#paint0_linear_709_15028)"/>
</g>
<path d="M98.58 48H96.24L101.5 33.46H103.92L109.2 48H106.82L105.58 44.52H99.82L98.58 48ZM102.42 37.2L100.48 42.58H104.92L102.98 37.2C102.927 37.0267 102.867 36.8533 102.8 36.68C102.747 36.4933 102.713 36.34 102.7 36.22C102.673 36.34 102.633 36.4933 102.58 36.68C102.54 36.8533 102.487 37.0267 102.42 37.2ZM109.978 45.08H112.018C112.031 45.5467 112.204 45.9133 112.538 46.18C112.871 46.4467 113.331 46.58 113.918 46.58C114.531 46.58 115.004 46.46 115.338 46.22C115.671 45.98 115.838 45.6667 115.838 45.28C115.838 44.9867 115.751 44.7467 115.578 44.56C115.404 44.36 115.078 44.2 114.598 44.08L112.838 43.68C111.971 43.4667 111.318 43.14 110.878 42.7C110.451 42.26 110.238 41.66 110.238 40.9C110.238 40.2733 110.398 39.74 110.718 39.3C111.051 38.8467 111.504 38.5 112.077 38.26C112.651 38.0067 113.304 37.88 114.038 37.88C114.771 37.88 115.411 38.0133 115.958 38.28C116.504 38.5333 116.931 38.8933 117.238 39.36C117.544 39.8267 117.698 40.38 117.698 41.02H115.658C115.644 40.5533 115.491 40.1867 115.198 39.92C114.904 39.6533 114.491 39.52 113.958 39.52C113.438 39.52 113.031 39.64 112.738 39.88C112.444 40.1067 112.298 40.42 112.298 40.82C112.298 41.42 112.744 41.8333 113.638 42.06L115.398 42.46C116.224 42.6467 116.844 42.9533 117.258 43.38C117.671 43.7933 117.878 44.3733 117.878 45.12C117.878 45.7467 117.704 46.3 117.358 46.78C117.024 47.26 116.558 47.6267 115.958 47.88C115.358 48.1333 114.658 48.26 113.858 48.26C112.671 48.26 111.724 47.9667 111.018 47.38C110.324 46.7933 109.978 46.0267 109.978 45.08ZM118.839 38.18H124.819V39.98H118.839V38.18ZM122.899 48H120.759V35.1H122.899V48ZM132.321 38.12V40.1H131.461C130.568 40.1 129.861 40.3467 129.341 40.84C128.834 41.3333 128.581 42.06 128.581 43.02V48H126.441V38.18H128.461L128.641 40.2H128.441C128.574 39.5467 128.888 39.0133 129.381 38.6C129.874 38.1867 130.514 37.98 131.301 37.98C131.461 37.98 131.621 37.9933 131.781 38.02C131.954 38.0333 132.134 38.0667 132.321 38.12ZM133.087 43.08C133.087 42.0533 133.307 41.1533 133.747 40.38C134.2 39.6067 134.82 39 135.607 38.56C136.393 38.12 137.287 37.9 138.287 37.9C139.287 37.9 140.173 38.12 140.947 38.56C141.72 39 142.333 39.6067 142.787 40.38C143.24 41.1533 143.467 42.0533 143.467 43.08C143.467 44.0933 143.24 44.9867 142.787 45.76C142.333 46.5333 141.72 47.14 140.947 47.58C140.173 48.02 139.287 48.24 138.287 48.24C137.287 48.24 136.393 48.02 135.607 47.58C134.82 47.14 134.2 46.5333 133.747 45.76C133.307 44.9867 133.087 44.0933 133.087 43.08ZM135.247 43.06C135.247 43.7 135.373 44.2667 135.627 44.76C135.893 45.24 136.253 45.62 136.707 45.9C137.16 46.1667 137.687 46.3 138.287 46.3C138.873 46.3 139.393 46.1667 139.847 45.9C140.3 45.62 140.653 45.24 140.907 44.76C141.16 44.2667 141.287 43.7 141.287 43.06C141.287 42.42 141.16 41.86 140.907 41.38C140.653 40.9 140.3 40.5267 139.847 40.26C139.393 39.98 138.873 39.84 138.287 39.84C137.687 39.84 137.16 39.98 136.707 40.26C136.253 40.5267 135.893 40.9 135.627 41.38C135.373 41.86 135.247 42.42 135.247 43.06Z" fill="#0F172A"/>
<defs>
<linearGradient id="paint0_linear_709_15028" x1="2330.62" y1="-573.038" x2="1601.26" y2="961.802" gradientUnits="userSpaceOnUse">
<stop stop-color="#FF1639"/>
<stop offset="1" stop-color="#FF1639" stop-opacity="0"/>
</linearGradient>
<clipPath id="clip0_709_15028">
<rect width="34" height="48" fill="white" transform="translate(23 16)"/>
</clipPath>
</defs>
</svg>
