<svg width="61" height="28" viewBox="0 0 61 28" fill="none" xmlns="http://www.w3.org/2000/svg">
<path d="M47.9565 23.775H47.959V18.9035H49.2754V23.857H49.2736V24.4639H49.2754V27.3926H47.959V25.012H47.9565V23.775ZM54.0594 18.9035H55.3766V23.857H55.3758V24.4639H55.3766V27.3926H54.0594V24.4639H54.062V23.857H54.0594V18.9035ZM52.4957 18.2966C52.326 18.2966 52.1958 18.4315 52.1958 18.5938C52.1958 18.7686 52.3263 18.9036 52.4957 18.9036H53.4737V23.8571H49.8621V18.9036H50.7876C50.9439 18.9036 51.0746 18.7687 51.0746 18.5938C51.0746 18.4316 50.9439 18.2966 50.7876 18.2966H46.3953C46.2258 18.2966 46.0952 18.4315 46.0952 18.5938C46.0952 18.7686 46.2259 18.9036 46.3953 18.9036H47.3725V27.3927H46.3953C46.2258 27.3927 46.0952 27.5276 46.0952 27.6897C46.0952 27.8651 46.2259 28 46.3953 28H50.7876C50.9439 28 51.0746 27.8651 51.0746 27.6897C51.0746 27.5275 50.9439 27.3927 50.7876 27.3927H49.8621V24.464H53.4737V27.3927H52.4957C52.326 27.3927 52.1958 27.5276 52.1958 27.6897C52.1958 27.8651 52.3263 28 52.4957 28H56.9017C57.0582 28 57.1882 27.8651 57.1882 27.6897C57.1882 27.5275 57.0582 27.3927 56.9017 27.3927H55.963V18.9036H56.9017C57.0582 18.9036 57.1882 18.7687 57.1882 18.5938C57.1882 18.4316 57.0582 18.2966 56.9017 18.2966H52.4957ZM6.16849 23.8276H6.16939V18.8504H7.52603V23.8828H7.521V24.4772H7.52603V27.4056H6.16929V24.8061H6.16839L6.16849 23.8276ZM4.64506 18.2564C4.48803 18.2564 4.35819 18.3905 4.35819 18.5529C4.35819 18.7155 4.48823 18.8504 4.64506 18.8504H5.59636V27.4055H4.697C4.54058 27.4055 4.40962 27.5413 4.40962 27.702C4.40962 27.8649 4.54058 27.9997 4.697 27.9997H9.06346C9.21957 27.9997 9.34992 27.8648 9.34992 27.702C9.34992 27.5414 9.21957 27.4055 9.06346 27.4055H8.09877V24.477H9.9758V25.4089C9.9758 25.5707 10.1064 25.7045 10.2629 25.7045C10.4197 25.7045 10.5502 25.5707 10.5502 25.4089V22.9258C10.5502 22.7629 10.4197 22.6285 10.2629 22.6285C10.1064 22.6285 9.9758 22.7632 9.9758 22.9258V23.8826H8.09877V18.8501H12.1265V19.7807C12.1265 19.9426 12.2573 20.0779 12.4139 20.0779C12.5702 20.0779 12.7008 19.9427 12.7008 19.7807V18.5526C12.7008 18.3902 12.5702 18.2561 12.4139 18.2561H4.64506V18.2564ZM28.0289 24.4772V23.8828V18.8503H29.3846V23.8828H29.379V24.4772H29.3846V27.4056H28.0289V24.4772ZM26.504 18.2564C26.3472 18.2564 26.2168 18.3905 26.2168 18.5529C26.2168 18.7155 26.3471 18.8504 26.504 18.8504H27.4548V27.4055H26.504C26.3472 27.4055 26.2168 27.5413 26.2168 27.702C26.2168 27.8649 26.3471 27.9997 26.504 27.9997H34.2726C34.4295 27.9997 34.5603 27.8648 34.5603 27.702V26.4744C34.5603 26.3129 34.4294 26.1781 34.2726 26.1781C34.1171 26.1781 33.9863 26.3129 33.9863 26.4744V27.4054H29.9576V24.477H31.835V25.4088C31.835 25.5707 31.9659 25.7044 32.1224 25.7044C32.2788 25.7044 32.4087 25.5707 32.4087 25.4088V22.9257C32.4087 22.7628 32.2787 22.6284 32.1224 22.6284C31.966 22.6284 31.835 22.7631 31.835 22.9257V23.8826H29.9576V18.8501H33.9863V19.7806C33.9863 19.9425 34.1171 20.0778 34.2726 20.0778C34.4295 20.0778 34.5603 19.9426 34.5603 19.7806V18.5525C34.5603 18.3901 34.4294 18.256 34.2726 18.256H26.504V18.2564ZM21.799 27.1089C21.6809 26.8795 21.6684 26.528 21.6684 26.1783C21.6684 25.504 21.6027 24.9763 21.3026 24.5581C21.2772 24.5185 21.251 24.4911 21.2123 24.4501H21.3947C21.6685 24.4501 22.4759 24.4639 22.8153 24.923C23.0243 25.2058 23.0636 25.6244 23.0636 26.1781C23.0636 26.6639 23.0891 27.0541 23.246 27.3786C23.2584 27.3786 23.2584 27.3924 23.2716 27.4054H22.3982C21.9945 27.4056 21.8636 27.2438 21.799 27.1089ZM16.7928 24.6713V23.7845V18.8229H18.1224V23.857H18.1206V24.4502H18.1224V27.4056H16.7928V24.6713ZM18.6958 18.8229H19.3353C20.3256 18.8229 21.1338 19.6599 21.1338 20.6989V22.0075C21.1338 22.5075 20.9514 22.9667 20.612 23.3166C20.2607 23.6681 19.8166 23.857 19.3353 23.857H18.6958V18.8229ZM21.0039 23.7355C21.4598 23.276 21.7073 22.6688 21.7073 22.0075V20.6989C21.7073 19.9429 21.381 19.2815 20.8729 18.8229H21.2378C21.7204 18.8229 22.1637 19.0114 22.5023 19.3768C22.8413 19.7271 23.0243 20.2 23.0243 20.6989V22.0075C23.0243 22.5075 22.8414 22.9795 22.5023 23.3166C22.1765 23.6681 21.7205 23.857 21.2378 23.857H20.8861L21.0039 23.7355ZM14.7465 18.2291C14.5884 18.2291 14.4601 18.3628 14.4601 18.5258V18.5319C14.4601 18.6921 14.5859 18.8228 14.7407 18.8228H16.2193V27.4055H15.2525C15.1322 27.4055 15.0173 27.4771 14.9751 27.5933C14.8987 27.7996 15.051 27.9998 15.242 27.9998H19.6364C19.7567 27.9998 19.8716 27.9283 19.9144 27.8118C19.9907 27.6073 19.8385 27.4055 19.6474 27.4055H18.6959V24.4501H19.4257C19.6997 24.4501 20.5081 24.4638 20.8475 24.923C21.0555 25.2058 21.0949 25.6244 21.0949 26.1782C21.0949 26.6639 21.1203 27.0541 21.2773 27.3788C21.4853 27.7833 21.8639 27.9997 22.3985 27.9997H24.3663C24.5591 27.9997 24.7114 27.7964 24.6314 27.5894C24.5886 27.4773 24.4775 27.4063 24.3607 27.4054C23.9618 27.4036 23.8317 27.2437 23.7669 27.1087C23.65 26.8794 23.6368 26.5278 23.6368 26.1782C23.6368 25.5038 23.5709 24.9761 23.2716 24.558C23.1019 24.3286 22.8544 24.1528 22.5544 24.0451C22.6849 23.9507 22.8027 23.8568 22.907 23.7353C23.35 23.2758 23.5977 22.6685 23.5977 22.0074V20.6988C23.5977 20.0372 23.3502 19.4167 22.907 18.9577C22.4637 18.4857 21.8771 18.229 21.238 18.229H14.7466L14.7465 18.2291ZM43.019 25.0041C42.6938 24.626 42.2501 24.329 41.7286 24.1671C39.5646 23.4921 39.6039 23.5197 39.3946 23.4519C39.0825 23.3575 38.7178 23.1011 38.4571 22.8035C38.1962 22.5073 38.0521 22.1561 38.0394 21.8329V21.1174C38.131 21.2253 38.2219 21.3331 38.3397 21.4275C38.6521 21.7108 39.0556 21.94 39.448 22.0479L42.0288 22.8721C42.4979 23.0471 42.8896 23.2759 43.1493 23.5326C43.4103 23.7897 43.5536 24.0719 43.5536 24.3696V25.436C43.5666 25.5843 43.5413 25.7187 43.5019 25.8536L43.4626 25.9619C43.41 25.6245 43.2539 25.2863 43.019 25.0041ZM40.6205 18.1208C39.7599 18.1475 38.9649 18.4449 38.3652 18.9452C38.0654 19.2009 37.8313 19.4833 37.6745 19.7951C37.5043 20.1314 37.4271 20.483 37.4404 20.8332V21.8454C37.4404 22.3183 37.6485 22.8034 38.0002 23.2224C38.3396 23.6135 38.7694 23.9102 39.2259 24.0452C39.2259 24.0452 39.3692 24.0995 41.5587 24.7737C41.9633 24.8964 42.3149 25.1253 42.563 25.409C42.7721 25.6653 42.8897 25.9619 42.8759 26.2177C42.8629 26.5688 42.641 26.8529 42.2503 27.0278L42.0805 27.1087L41.7936 27.189V27.2031C41.4287 27.3111 41.025 27.3786 40.6208 27.4054C39.7867 27.4332 39.0043 27.2709 38.4178 26.9203C37.8964 26.6223 37.5708 26.2177 37.5047 25.7856V25.1114C37.5047 24.9367 37.3615 24.8017 37.2059 24.8017C37.0359 24.8017 36.8926 24.9366 36.8926 25.1114V27.6485C36.8926 27.8233 37.0359 27.9721 37.2059 27.9721C37.3615 27.9721 37.5047 27.8233 37.5047 27.6485V27.0007C37.662 27.1491 37.8573 27.2984 38.079 27.4187C38.7181 27.7972 39.5394 27.9996 40.4126 27.9996H40.6466C41.0904 27.972 41.521 27.9051 41.9237 27.7971V27.8103C42.2765 27.7293 42.5632 27.6073 42.8106 27.4331C43.4629 27.0816 43.9324 26.5961 44.127 26.0148C44.1793 25.8265 44.2059 25.6241 44.2059 25.4358V24.3694C44.1927 23.9099 43.997 23.4913 43.6192 23.1276C43.2808 22.8031 42.8238 22.533 42.2641 22.3182L39.6568 21.4942C39.056 21.3188 38.4052 20.8063 38.3531 20.2803C38.3007 19.7666 38.8225 19.3494 39.3175 19.0653C39.7217 18.8759 40.1779 18.768 40.6467 18.7411C41.1945 18.728 41.7291 18.8224 42.1981 19.0377C42.6158 19.2274 42.9412 19.4828 43.1628 19.8082V20.645C43.1628 20.8188 43.3065 20.9681 43.4767 20.9681C43.6323 20.9681 43.7755 20.8188 43.7755 20.645V18.4987C43.7755 18.3231 43.6323 18.1882 43.4767 18.1882C43.3065 18.1882 43.1628 18.3231 43.1628 18.4987V18.903C42.563 18.4087 41.7086 18.1169 40.7961 18.1169C40.7373 18.1174 40.679 18.1187 40.6205 18.1208ZM1.39689 11.7822C1.3686 11.7857 1.34152 11.7887 1.31294 11.7917C1.14031 11.8112 1.03895 11.9931 1.1083 12.158C1.11988 12.185 1.13095 12.2114 1.14303 12.238C1.32794 12.6452 1.57696 13.003 1.87138 13.3047C1.46805 13.4143 1.07801 13.5943 0.719973 13.8533C0.696621 13.8694 0.673067 13.8868 0.65042 13.9041C0.510407 14.0107 0.510407 14.2209 0.65042 14.3278C0.673067 14.3453 0.69652 14.3617 0.719973 14.3787C1.0773 14.6372 1.46805 14.8173 1.87138 14.9259C1.57696 15.2292 1.32723 15.5868 1.14303 15.9936C1.13085 16.0205 1.11998 16.0466 1.1083 16.0732C1.03805 16.238 1.13951 16.4205 1.31294 16.4404C1.34152 16.4435 1.3687 16.4463 1.39689 16.4491C1.49996 16.4586 1.60414 16.4632 1.7064 16.4632C3.08006 16.4632 4.32658 15.6525 4.9439 14.4453H21.2275C21.4037 14.4453 21.5452 14.2969 21.5452 14.116C21.5452 13.9341 21.4038 13.7862 21.2275 13.7862H4.9439C4.32658 12.5803 3.08006 11.7688 1.70691 11.7688C1.60404 11.7691 1.50116 11.7739 1.39689 11.7822ZM56.6024 13.7865H40.318C40.1423 13.7865 40.0009 13.9345 40.0009 14.1163C40.0009 14.2975 40.1423 14.4458 40.318 14.4458H56.6024C57.2204 15.6529 58.4661 16.4635 59.8396 16.4635C59.942 16.4635 60.0452 16.4591 60.1485 16.4494C60.1781 16.4468 60.2049 16.4448 60.233 16.4408C60.4059 16.4208 60.5076 16.2383 60.4376 16.0735C60.426 16.0469 60.4141 16.0209 60.4026 15.9939C60.2183 15.5874 59.9691 15.2296 59.6752 14.9263C60.0777 14.8175 60.4681 14.6375 60.8263 14.379C60.8494 14.362 60.8727 14.3456 60.8951 14.3282C61.0349 14.2213 61.0349 14.0111 60.8951 13.9045C60.8727 13.8872 60.8496 13.8698 60.8263 13.8537C60.4681 13.5947 60.0777 13.4148 59.6746 13.3052C59.9692 13.0032 60.2185 12.6456 60.4028 12.2384C60.4142 12.2118 60.4261 12.1853 60.4378 12.1584C60.5077 11.9935 60.4061 11.8117 60.2332 11.7921C60.2051 11.7889 60.1768 11.7859 60.1487 11.7826C60.0451 11.7743 59.9419 11.7695 59.8398 11.7695C58.4661 11.7691 57.2204 12.5807 56.6024 13.7865ZM35.3043 11.9149H36.1827C37.1171 11.9149 37.728 12.5807 37.728 13.4828V13.4955C37.728 14.3978 37.1172 15.0507 36.1827 15.0507H35.3043V11.9149ZM34.9164 11.1772C34.6938 11.1772 34.5219 11.3555 34.5219 11.5859V15.3801C34.5219 15.611 34.6938 15.7877 34.9164 15.7877H36.1826C37.5817 15.7877 38.5493 14.7804 38.5493 13.4828V13.4698C38.5493 12.1715 37.5816 11.1772 36.1826 11.1772H34.9164ZM31.9689 14.3725L29.7417 11.3877C29.6343 11.2501 29.526 11.1509 29.335 11.1509H29.252C29.0295 11.1509 28.858 11.3353 28.858 11.5586V15.4256C28.858 15.6437 29.0295 15.8211 29.2464 15.8211C29.4561 15.8211 29.6276 15.6437 29.6276 15.4256V12.501L31.9181 15.571C32.0267 15.7159 32.1407 15.8142 32.3256 15.8142H32.3574C32.5734 15.8142 32.7387 15.6366 32.7387 15.4126V11.5391C32.7387 11.3223 32.5674 11.1449 32.3505 11.1449C32.1405 11.1449 31.9687 11.3225 31.9687 11.5391M25.1795 12.0936L25.9622 13.9565H24.3968L25.1795 12.0936ZM25.1728 11.1119C24.9507 11.1119 24.7916 11.2366 24.7021 11.4409L23.0476 15.2608C23.0156 15.3269 22.9964 15.3866 22.9964 15.4462C22.9964 15.6573 23.1559 15.8212 23.3592 15.8212C23.5249 15.8212 23.6593 15.7287 23.7225 15.5642L24.0975 14.6754H26.2612L26.6235 15.5376C26.6934 15.7099 26.8213 15.8213 27.0049 15.8213C27.2159 15.8213 27.3741 15.6503 27.3741 15.4325C27.3741 15.3803 27.3618 15.3215 27.3299 15.2611L25.6763 11.4412C25.5862 11.237 25.4337 11.1122 25.2113 11.1122H25.1728V11.1119ZM17.0248 0.741327H18.3145V9.10197H17.0248V0.741327ZM15.4907 0.158804C15.3366 0.158804 15.2089 0.290183 15.2089 0.449501C15.2089 0.608818 15.3366 0.741532 15.4907 0.741532H16.4611V9.10197H15.4907C15.3366 9.10197 15.2089 9.23417 15.2089 9.39288C15.2089 9.55127 15.3366 9.68398 15.4907 9.68398H22.3909C22.5441 9.68398 22.672 9.55127 22.672 9.39288V8.14905C22.672 7.99014 22.544 7.85804 22.3909 7.85804C22.2375 7.85804 22.11 7.99034 22.11 8.14905V9.10177H18.8765V0.741327H19.7969C19.9504 0.741327 20.0774 0.608613 20.0774 0.449398C20.0774 0.29008 19.9505 0.158599 19.7969 0.158599H15.4907V0.158804ZM46.3485 2.16954V0.726946H47.0902L50.1818 7.06464L49.5303 8.70424L46.3485 2.16954ZM53.403 0.726946H54.7058V9.10197H53.403V0.726946ZM53.1215 0.144937C53.0704 0.144937 53.0188 0.158804 52.9681 0.185101C52.9174 0.224956 52.8654 0.278164 52.8406 0.344213L50.4641 6.35053L47.5119 0.317609C47.4477 0.198762 47.3712 0.144835 47.256 0.144835H44.8795C44.7263 0.144835 44.5981 0.277856 44.5981 0.436866C44.5981 0.595054 44.7262 0.726843 44.8795 0.726843H45.7866V9.10208H44.8795C44.7263 9.10208 44.5981 9.23428 44.5981 9.39298C44.5981 9.55137 44.7262 9.68409 44.8795 9.68409H47.256C47.4091 9.68409 47.537 9.55137 47.537 9.39298C47.537 9.23428 47.4091 9.10208 47.256 9.10208H46.3485V3.46617L49.313 9.53843C49.3644 9.64413 49.4548 9.69713 49.5688 9.69713C49.6839 9.69713 49.786 9.63149 49.8244 9.52508L50.7576 7.17003C50.7576 7.15739 50.7576 7.14394 50.7704 7.13089L52.8403 1.86559V9.10197H51.9587C51.8048 9.10197 51.6773 9.23417 51.6773 9.39288C51.6773 9.55127 51.8048 9.68398 51.9587 9.68398H56.2511C56.4056 9.68398 56.533 9.55127 56.533 9.39288C56.533 9.23417 56.4054 9.10197 56.2511 9.10197H55.2681V0.726946H56.2511C56.4056 0.726946 56.533 0.595157 56.533 0.436969C56.533 0.278062 56.4054 0.144937 56.2511 0.144937H53.1215ZM8.69294 4.80203H10.2776C10.7498 4.80203 11.1976 4.98734 11.5296 5.34439C11.8625 5.6885 12.0532 6.15146 12.0532 6.64082V7.28918C12.0532 8.28104 11.2608 9.10197 10.2776 9.10197H8.69294V4.80203ZM12.616 7.28908V6.64071C12.616 5.99296 12.3735 5.38384 11.9259 4.93403C11.8875 4.88195 11.8364 4.84179 11.7984 4.80173H12.1558C12.6287 4.80173 13.0763 4.98713 13.4079 5.34419C13.7398 5.6883 13.9318 6.15125 13.9318 6.64061V7.28898C13.9318 8.28083 13.1269 9.10177 12.1557 9.10177H11.7983C12.2962 8.66521 12.616 8.00401 12.616 7.28908ZM6.81389 0.687707H8.13068V4.21941H8.12746V4.80193H8.13068V9.10187H6.81389V4.80193H6.8148V4.21941H6.81389V0.687707ZM8.69294 0.687707H9.76614C10.1502 0.687707 10.5325 0.846614 10.8144 1.1371C11.1087 1.42893 11.2608 1.79872 11.2608 2.19594V2.73819C11.2608 3.54506 10.5719 4.21941 9.76614 4.21941H8.69294V0.687707ZM11.2099 4.20636C11.6063 3.81017 11.8236 3.29452 11.8236 2.7383V2.19604C11.8236 1.61311 11.568 1.07188 11.1723 0.687604H11.6831C12.0663 0.687604 12.4244 0.846511 12.7058 1.137C12.9734 1.41527 13.127 1.79862 13.127 2.19583V2.73809C13.127 3.5581 12.4756 4.21931 11.6831 4.21931H11.1848C11.1977 4.21941 11.1977 4.20636 11.2099 4.20636ZM5.29378 0.106109C5.14039 0.106109 5.01326 0.237898 5.01326 0.396805C5.01326 0.554993 5.14018 0.687707 5.29378 0.687707H6.25243V9.10187H5.29378C5.14039 9.10187 5.01326 9.23407 5.01326 9.39277C5.01326 9.55117 5.14018 9.68388 5.29378 9.68388H12.1559C13.4468 9.68388 14.4946 8.6119 14.4946 7.28898V6.64061C14.4946 5.99286 14.2512 5.38373 13.8045 4.93393C13.5487 4.66983 13.2545 4.47056 12.9227 4.35192C13.395 3.9812 13.6891 3.3996 13.6891 2.73799V2.19573C13.6891 1.64053 13.4854 1.12385 13.1013 0.726535C12.7175 0.32973 12.2191 0.105801 11.6829 0.105801H5.29378V0.106109ZM30.875 7.23607V1.44167C31.0283 1.57438 31.195 1.70617 31.335 1.86528C32.1278 2.68581 32.5745 3.78336 32.5745 4.94718C32.5745 6.1113 32.1278 7.19632 31.335 8.0304C31.0668 8.30857 30.7475 8.559 30.4153 8.7443C30.7089 8.30857 30.875 7.79199 30.875 7.23607ZM25.3803 8.0304C24.5881 7.19632 24.1537 6.1115 24.1537 4.94718C24.1537 3.78336 24.5881 2.68581 25.3803 1.86528C25.636 1.60078 25.9174 1.37552 26.2238 1.19114C25.9429 1.613 25.7763 2.14314 25.7763 2.69803V8.38705L25.3803 8.0304ZM26.3391 8.77081V2.69813C26.3391 1.53442 27.2462 0.58242 28.3581 0.58242C29.0479 0.58242 29.7128 0.753653 30.3128 1.07178V7.23587C30.3128 7.79199 30.0961 8.32038 29.7256 8.70414C29.3415 9.0878 28.8437 9.30012 28.3073 9.30012C27.6043 9.28728 26.9398 9.10187 26.3391 8.77081ZM26.5049 0.396805C25.943 0.634293 25.4323 0.991859 24.9848 1.45564C24.55 1.90545 24.2053 2.43435 23.9626 3.01615C23.7201 3.62507 23.5917 4.27303 23.5917 4.94728C23.5917 5.60869 23.7199 6.25716 23.9626 6.86536C24.2053 7.44881 24.55 7.97791 24.9848 8.44036C25.4323 8.88965 25.9431 9.24722 26.5049 9.49878C27.0938 9.74993 27.7191 9.88244 28.3581 9.88244C29.0096 9.88244 29.6361 9.74972 30.2236 9.49878C30.7859 9.24722 31.2966 8.88965 31.7319 8.44036C32.1782 7.97781 32.5235 7.44891 32.7536 6.86536C33.0089 6.25716 33.1369 5.60869 33.1369 4.94728C33.1369 4.27313 33.0088 3.62507 32.7536 3.01615C32.5235 2.43435 32.1781 1.90545 31.7319 1.45564C31.2966 0.991757 30.7859 0.634087 30.2236 0.396805C29.6361 0.131481 29.0095 0 28.3717 0C27.7191 0.000102719 27.0937 0.131481 26.5049 0.396805ZM41.6471 7.23607V1.44167C41.8002 1.57438 41.9668 1.70617 42.1071 1.86528C42.8991 2.68581 43.3467 3.78336 43.3467 4.94718C43.3467 6.1113 42.8991 7.19632 42.1071 8.0304C41.8384 8.30857 41.5196 8.559 41.1865 8.7443C41.4814 8.30857 41.6471 7.79199 41.6471 7.23607ZM36.1525 8.0304C35.3601 7.19632 34.926 6.1115 34.926 4.94718C34.926 3.78336 35.3602 2.68581 36.1525 1.86528C36.408 1.60078 36.6887 1.37552 36.9953 1.19114C36.7148 1.613 36.5482 2.14314 36.5482 2.69803V8.38705L36.1525 8.0304ZM37.1106 8.77081V2.69813C37.1106 1.53442 38.0177 0.58242 39.13 0.58242C39.8201 0.58242 40.4845 0.753653 41.0852 1.07178V7.23587C41.0852 7.79199 40.8677 8.32038 40.4974 8.70414C40.1134 9.0878 39.615 9.30012 39.0787 9.30012C38.3749 9.28728 37.7113 9.10187 37.1106 8.77081ZM37.2768 0.396805C36.7148 0.634293 36.2034 0.991859 35.7557 1.45564C35.3216 1.90545 34.9769 2.43435 34.7339 3.01615C34.4914 3.62507 34.3639 4.27303 34.3639 4.94728C34.3639 5.60869 34.4914 6.25716 34.7339 6.86536C34.9769 7.44881 35.3217 7.97791 35.7557 8.44036C36.2034 8.88965 36.7148 9.24722 37.2768 9.49878C37.8646 9.74993 38.4905 9.88244 39.1299 9.88244C39.7817 9.88244 40.4076 9.74972 40.9954 9.49878C41.5574 9.24722 42.0689 8.88965 42.5027 8.44036C42.9503 7.97781 43.2954 7.44891 43.5259 6.86536C43.7813 6.25716 43.9093 5.60869 43.9093 4.94728C43.9093 4.27313 43.7814 3.62507 43.5259 3.01615C43.2954 2.43435 42.9503 1.90545 42.5027 1.45564C42.0687 0.991757 41.5572 0.634087 40.9954 0.396805C40.4076 0.131481 39.7816 0 39.1428 0C38.4905 0.000102719 37.8646 0.131481 37.2768 0.396805Z" fill="#3B454D"/>
</svg>
