<svg width="192" height="80" viewBox="0 0 192 80" fill="none" xmlns="http://www.w3.org/2000/svg">
<rect width="80" height="80" rx="40" fill="#F8FAFC"/>
<g clip-path="url(#clip0_766_24523)">
<mask id="mask0_766_24523" style="mask-type:luminance" maskUnits="userSpaceOnUse" x="16" y="17" width="48" height="46">
<path d="M63.4514 17H16V63H63.4514V17Z" fill="white"/>
</mask>
<g mask="url(#mask0_766_24523)">
<path d="M55.0485 17H24.4028C19.7621 17 16 20.7405 16 25.3547V54.6453C16 59.2595 19.7621 63 24.4028 63H55.0485C59.6893 63 63.4514 59.2595 63.4514 54.6453V25.3547C63.4514 20.7405 59.6893 17 55.0485 17Z" fill="#330000"/>
<path d="M38.9935 44.6055H31.6403L30.1442 49.2264C30.1239 49.3106 30.0746 49.3852 30.0048 49.4372C29.9351 49.4892 29.8493 49.5154 29.7623 49.5113H26.0379C25.8255 49.5113 25.7513 49.3952 25.8151 49.1631L32.1814 30.933C32.2451 30.7431 32.3088 30.5268 32.3725 30.2841C32.4558 29.8618 32.4984 29.4327 32.4998 29.0023C32.4955 28.9723 32.4983 28.9416 32.5079 28.9127C32.5176 28.8839 32.5339 28.8577 32.5555 28.8362C32.5771 28.8147 32.6035 28.7985 32.6325 28.7889C32.6615 28.7792 32.6923 28.7765 32.7227 28.7808H37.7838C37.9322 28.7808 38.017 28.8335 38.0385 28.939L45.2644 49.1947C45.3281 49.4059 45.2644 49.5114 45.0734 49.5113H40.9352C40.8641 49.5191 40.7926 49.5009 40.734 49.4601C40.6755 49.4194 40.6338 49.3588 40.6169 49.2897L38.9935 44.6055ZM32.7863 40.6177H37.8157C37.6884 40.1959 37.5398 39.7211 37.3701 39.1935C37.2 38.6663 37.0196 38.1019 36.829 37.5002C36.6379 36.8989 36.4469 36.2976 36.2559 35.6962C36.065 35.0949 35.8899 34.5146 35.7307 33.9554C35.5715 33.3967 35.4283 32.885 35.3011 32.4205H35.2692C35.09 33.2753 34.8669 34.1204 34.6007 34.9524C34.3033 35.9019 34.0008 36.8725 33.6935 37.8642C33.3856 38.8562 33.0832 39.7741 32.7863 40.6177Z" fill="#FF9A00"/>
<path d="M49.562 32.1359C49.2373 32.1489 48.9136 32.0935 48.6119 31.9735C48.3102 31.8535 48.0374 31.6716 47.8113 31.4396C47.5858 31.1975 47.4106 30.9135 47.2959 30.6039C47.1812 30.2943 47.1291 29.9652 47.1428 29.6356C47.1312 29.3092 47.189 28.984 47.3124 28.6813C47.4358 28.3786 47.6221 28.1052 47.8589 27.879C48.0936 27.6551 48.3705 27.4797 48.6738 27.3629C48.977 27.2461 49.3006 27.1902 49.6256 27.1986C50.3896 27.1986 50.9892 27.4253 51.4242 27.879C51.6438 28.1148 51.8144 28.3912 51.9264 28.6926C52.0383 28.9941 52.0894 29.3145 52.0767 29.6356C52.09 29.9665 52.0363 30.2968 51.9187 30.6067C51.8011 30.9166 51.6221 31.1998 51.3923 31.4396C51.1521 31.675 50.8655 31.8584 50.5505 31.9783C50.2355 32.0981 49.8989 32.1517 49.562 32.1359ZM47.3655 49.195V34.0665C47.3655 33.8766 47.4501 33.7816 47.6202 33.7816H51.5356C51.7052 33.7816 51.7901 33.8766 51.7903 34.0665V49.195C51.7903 49.4062 51.7054 49.5116 51.5356 49.5115H47.6521C47.4611 49.5115 47.3656 49.406 47.3655 49.195Z" fill="#FF9A00"/>
</g>
</g>
<path d="M99.92 33.46V48H97.66V33.46H99.92ZM105.066 48H102.906V33.2H105.066V48ZM109.91 48H107.75V33.2H109.91V48ZM119.294 38.18H121.454V48H119.474L119.274 46.6C118.994 47.0933 118.554 47.4933 117.954 47.8C117.367 48.1067 116.727 48.26 116.034 48.26C114.901 48.26 114.021 47.9 113.394 47.18C112.767 46.46 112.454 45.5 112.454 44.3V38.16H114.614V43.56C114.614 44.5467 114.807 45.2533 115.194 45.68C115.581 46.1067 116.127 46.32 116.834 46.32C117.647 46.32 118.261 46.0733 118.674 45.58C119.087 45.0867 119.294 44.34 119.294 43.34V38.18ZM123.103 45.08H125.143C125.156 45.5467 125.329 45.9133 125.663 46.18C125.996 46.4467 126.456 46.58 127.043 46.58C127.656 46.58 128.129 46.46 128.463 46.22C128.796 45.98 128.963 45.6667 128.963 45.28C128.963 44.9867 128.876 44.7467 128.703 44.56C128.529 44.36 128.203 44.2 127.723 44.08L125.963 43.68C125.096 43.4667 124.443 43.14 124.003 42.7C123.576 42.26 123.363 41.66 123.363 40.9C123.363 40.2733 123.523 39.74 123.843 39.3C124.176 38.8467 124.629 38.5 125.202 38.26C125.776 38.0067 126.429 37.88 127.163 37.88C127.896 37.88 128.536 38.0133 129.083 38.28C129.629 38.5333 130.056 38.8933 130.363 39.36C130.669 39.8267 130.823 40.38 130.823 41.02H128.783C128.769 40.5533 128.616 40.1867 128.323 39.92C128.029 39.6533 127.616 39.52 127.083 39.52C126.563 39.52 126.156 39.64 125.863 39.88C125.569 40.1067 125.423 40.42 125.423 40.82C125.423 41.42 125.869 41.8333 126.763 42.06L128.523 42.46C129.349 42.6467 129.969 42.9533 130.383 43.38C130.796 43.7933 131.003 44.3733 131.003 45.12C131.003 45.7467 130.829 46.3 130.483 46.78C130.149 47.26 129.683 47.6267 129.083 47.88C128.483 48.1333 127.783 48.26 126.983 48.26C125.796 48.26 124.849 47.9667 124.143 47.38C123.449 46.7933 123.103 46.0267 123.103 45.08ZM131.964 38.18H137.944V39.98H131.964V38.18ZM136.024 48H133.884V35.1H136.024V48ZM145.446 38.12V40.1H144.586C143.693 40.1 142.986 40.3467 142.466 40.84C141.959 41.3333 141.706 42.06 141.706 43.02V48H139.566V38.18H141.586L141.766 40.2H141.566C141.699 39.5467 142.013 39.0133 142.506 38.6C142.999 38.1867 143.639 37.98 144.426 37.98C144.586 37.98 144.746 37.9933 144.906 38.02C145.079 38.0333 145.259 38.0667 145.446 38.12ZM149.653 48.26C148.613 48.26 147.793 47.98 147.193 47.42C146.606 46.86 146.313 46.1333 146.313 45.24C146.313 44.3333 146.626 43.6133 147.253 43.08C147.893 42.5333 148.793 42.2133 149.953 42.12L152.973 41.88V41.64C152.973 41.1333 152.88 40.7333 152.693 40.44C152.506 40.1333 152.253 39.9133 151.933 39.78C151.613 39.6467 151.24 39.58 150.813 39.58C150.053 39.58 149.466 39.7333 149.053 40.04C148.64 40.3467 148.433 40.78 148.433 41.34H146.593C146.593 40.6333 146.766 40.0267 147.113 39.52C147.473 39 147.98 38.6 148.633 38.32C149.286 38.0267 150.046 37.88 150.913 37.88C151.766 37.88 152.5 38.0333 153.113 38.34C153.74 38.6333 154.22 39.08 154.553 39.68C154.9 40.28 155.073 41.0333 155.073 41.94V48H153.213L153.013 46.48C152.786 47.0133 152.366 47.4467 151.753 47.78C151.14 48.1 150.44 48.26 149.653 48.26ZM150.333 46.6C151.146 46.6 151.793 46.36 152.273 45.88C152.753 45.3867 152.993 44.7267 152.993 43.9V43.36L150.713 43.56C149.913 43.6267 149.34 43.8 148.993 44.08C148.66 44.36 148.493 44.7133 148.493 45.14C148.493 45.6333 148.653 46 148.973 46.24C149.293 46.48 149.746 46.6 150.333 46.6ZM156.437 38.18H162.417V39.98H156.437V38.18ZM160.497 48H158.357V35.1H160.497V48ZM163.321 43.08C163.321 42.0533 163.541 41.1533 163.981 40.38C164.434 39.6067 165.054 39 165.841 38.56C166.628 38.12 167.521 37.9 168.521 37.9C169.521 37.9 170.408 38.12 171.181 38.56C171.954 39 172.568 39.6067 173.021 40.38C173.474 41.1533 173.701 42.0533 173.701 43.08C173.701 44.0933 173.474 44.9867 173.021 45.76C172.568 46.5333 171.954 47.14 171.181 47.58C170.408 48.02 169.521 48.24 168.521 48.24C167.521 48.24 166.628 48.02 165.841 47.58C165.054 47.14 164.434 46.5333 163.981 45.76C163.541 44.9867 163.321 44.0933 163.321 43.08ZM165.481 43.06C165.481 43.7 165.608 44.2667 165.861 44.76C166.128 45.24 166.488 45.62 166.941 45.9C167.394 46.1667 167.921 46.3 168.521 46.3C169.108 46.3 169.628 46.1667 170.081 45.9C170.534 45.62 170.888 45.24 171.141 44.76C171.394 44.2667 171.521 43.7 171.521 43.06C171.521 42.42 171.394 41.86 171.141 41.38C170.888 40.9 170.534 40.5267 170.081 40.26C169.628 39.98 169.108 39.84 168.521 39.84C167.921 39.84 167.394 39.98 166.941 40.26C166.488 40.5267 166.128 40.9 165.861 41.38C165.608 41.86 165.481 42.42 165.481 43.06ZM181.579 38.12V40.1H180.719C179.826 40.1 179.119 40.3467 178.599 40.84C178.092 41.3333 177.839 42.06 177.839 43.02V48H175.699V38.18H177.719L177.899 40.2H177.699C177.832 39.5467 178.146 39.0133 178.639 38.6C179.132 38.1867 179.772 37.98 180.559 37.98C180.719 37.98 180.879 37.9933 181.039 38.02C181.212 38.0333 181.392 38.0667 181.579 38.12Z" fill="#0F172A"/>
<defs>
<clipPath id="clip0_766_24523">
<rect width="48" height="46" fill="white" transform="translate(16 17)"/>
</clipPath>
</defs>
</svg>
