<svg width="192" height="80" viewBox="0 0 192 80" fill="none" xmlns="http://www.w3.org/2000/svg">
<rect width="80" height="80" rx="40" fill="#F8FAFC"/>
<g clip-path="url(#clip0_709_15009)">
<path d="M55.4656 32.9229C54.9547 32.7466 54.4396 32.5833 53.9206 32.4331C54.0077 32.0748 54.088 31.7208 54.1593 31.373C55.3289 25.6621 54.5642 21.0613 51.9526 19.5465C49.4485 18.0943 45.3533 19.6086 41.2174 23.2291C40.8098 23.5865 40.4113 23.9543 40.0221 24.332C39.7616 24.0808 39.4965 23.8345 39.2269 23.5932C34.8923 19.7221 30.5476 18.0906 27.9387 19.6097C25.4369 21.0664 24.6961 25.3915 25.7491 30.8038C25.8538 31.3399 25.9721 31.8732 26.1038 32.4031C25.4888 32.5789 24.8954 32.766 24.3274 32.9652C19.2454 34.7474 16 37.5403 16 40.4374C16 43.4294 19.4841 46.4306 24.7773 48.2503C25.2064 48.3973 25.6391 48.5334 26.0749 48.6587C25.9334 49.2295 25.8077 49.8042 25.6981 50.382C24.6942 55.7005 25.4781 59.9233 27.9732 61.3708C30.5502 62.8656 34.8754 61.3293 39.0869 57.6262C39.4284 57.3252 39.7624 57.0156 40.0885 56.6978C40.5099 57.1067 40.9426 57.5038 41.386 57.8886C45.4656 61.4195 49.4946 62.8453 51.9873 61.3938C54.5618 59.8947 55.3986 55.3582 54.3123 49.8389C54.2267 49.4065 54.1307 48.9762 54.0244 48.5485C54.3282 48.458 54.6263 48.3648 54.9169 48.2679C60.4197 46.4342 64 43.4694 64 40.4374C64 37.5298 60.6498 34.718 55.4656 32.9229ZM54.2721 46.3102C54.0096 46.3976 53.7404 46.4819 53.4659 46.5639C52.8584 44.6295 52.0386 42.5726 51.0353 40.4473C51.9927 38.3728 52.7809 36.3422 53.3714 34.4204C53.8624 34.5633 54.3389 34.714 54.7982 34.873C59.2401 36.4112 61.9495 38.6851 61.9495 40.4374C61.9495 42.3037 59.0234 44.7266 54.2721 46.3102ZM52.3008 50.2395C52.7811 52.6799 52.8496 54.8865 52.5314 56.6116C52.2456 58.1617 51.6707 59.195 50.9597 59.6089C49.4472 60.4897 46.2122 59.3449 42.7234 56.3251C42.311 55.9674 41.9085 55.5982 41.5165 55.218C42.8691 53.7302 44.2208 52.0006 45.5401 50.0795C47.8606 49.8725 50.0528 49.5337 52.0409 49.0715C52.1388 49.4689 52.2258 49.8585 52.3008 50.2395ZM32.3643 59.4567C30.8864 59.9816 29.7092 59.9967 28.9977 59.584C27.4836 58.7058 26.8542 55.315 27.7127 50.7668C27.8148 50.2293 27.9317 49.6948 28.0632 49.1639C30.0293 49.6014 32.2056 49.916 34.5316 50.1058C35.8598 51.9855 37.2505 53.7132 38.6521 55.2261C38.3542 55.516 38.0493 55.7985 37.7376 56.0733C35.8752 57.7107 34.009 58.8725 32.3643 59.4567ZM25.4406 46.2987C23.1001 45.494 21.1671 44.4482 19.8423 43.307C18.6516 42.2816 18.0507 41.2634 18.0507 40.4374C18.0507 38.6793 20.6564 36.4368 25.0024 34.9128C25.5299 34.728 26.0819 34.5535 26.6547 34.3898C27.2554 36.355 28.0433 38.4098 28.9941 40.4875C28.0309 42.596 27.2318 44.6836 26.6252 46.672C26.2274 46.5573 25.8324 46.4329 25.4406 46.2987ZM27.7615 30.4076C26.8594 25.7706 27.4585 22.2727 28.9662 21.3948C30.5719 20.4597 34.1228 21.7929 37.8655 25.1356C38.1096 25.354 38.3497 25.5769 38.5857 25.8042C37.1911 27.3105 35.8131 29.0254 34.4967 30.894C32.2392 31.1045 30.0782 31.4424 28.0915 31.8953C27.9691 31.4023 27.8591 30.9061 27.7615 30.4076ZM48.4666 35.5503C47.9973 34.7349 47.5106 33.9299 47.0069 33.1357C48.5384 33.3305 50.0057 33.589 51.3837 33.9051C50.9701 35.2389 50.4544 36.6332 49.8475 38.0627C49.4039 37.2161 48.9435 36.3784 48.4666 35.5503ZM40.0231 27.2782C40.9688 28.3089 41.9161 29.4595 42.8478 30.708C40.9578 30.6183 39.0646 30.6179 37.1746 30.7069C38.1072 29.4699 39.0625 28.3208 40.0231 27.2782ZM31.5254 35.5644C31.0544 36.3859 30.6026 37.2183 30.1703 38.061C29.5733 36.6366 29.0624 35.2359 28.6452 33.8832C30.0147 33.5751 31.4751 33.3231 32.9969 33.1319C32.4875 33.931 31.9969 34.7421 31.5254 35.5644ZM33.0406 47.8896C31.4684 47.713 29.986 47.4741 28.6169 47.1742C29.0406 45.7975 29.5628 44.3669 30.1727 42.9119C30.6068 43.7553 31.0605 44.5882 31.5334 45.4101C32.0198 46.255 32.5234 47.0826 33.0406 47.8896ZM40.0797 53.7417C39.1077 52.6871 38.1383 51.5202 37.1916 50.2653C38.1108 50.3015 39.0477 50.32 40 50.32C40.9784 50.32 41.9455 50.2979 42.8974 50.2553C41.9628 51.5329 41.0191 52.7014 40.0797 53.7417ZM49.8668 42.8376C50.5084 44.3087 51.0492 45.7316 51.4786 47.0848C50.0869 47.4043 48.5843 47.6615 47.0011 47.8526C47.5084 47.0436 47.9997 46.2246 48.4746 45.3959C48.9575 44.5537 49.4217 43.7007 49.8668 42.8376ZM46.6984 44.3654C45.9713 45.6359 45.2034 46.8822 44.3958 48.1025C42.9328 48.2067 41.4666 48.2585 40 48.2577C38.5062 48.2577 37.0532 48.2109 35.6541 48.1196C34.8254 46.9022 34.0428 45.6537 33.3079 44.3768C32.5765 43.1066 31.8935 41.8089 31.2601 40.4866C31.8919 39.1639 32.573 37.8657 33.3019 36.5945L33.3018 36.5947C34.0304 35.3232 34.8067 34.08 35.6292 32.8678C37.0566 32.7592 38.5204 32.7026 39.9998 32.7026C41.4859 32.7026 42.9518 32.7598 44.3789 32.8692C45.193 34.0795 45.9644 35.3185 46.6917 36.5836C47.423 37.8519 48.1131 39.1439 48.7609 40.4573C48.1198 41.7843 47.4318 43.0878 46.6984 44.3654ZM50.9284 21.3333C52.5357 22.2657 53.1608 26.0258 52.1509 30.9566C52.0864 31.2712 52.0141 31.5916 51.9353 31.9166C49.9437 31.4541 47.7813 31.1103 45.5172 30.8966C44.1983 29.0075 42.8316 27.2899 41.4597 25.803C41.8192 25.4544 42.1874 25.1148 42.5637 24.7846C46.1074 21.6828 49.4194 20.458 50.9284 21.3333ZM40 36.126C42.3672 36.126 44.2863 38.0563 44.2863 40.4374C44.2863 42.8184 42.3672 44.7487 40 44.7487C37.6328 44.7487 35.7137 42.8184 35.7137 40.4374C35.7137 38.0563 37.6328 36.126 40 36.126Z" fill="#00D8FF"/>
</g>
<path d="M99.92 48H97.66V33.46H103.16C104.773 33.46 106.027 33.8533 106.92 34.64C107.827 35.4267 108.28 36.5133 108.28 37.9C108.28 38.9 108.047 39.7467 107.58 40.44C107.113 41.12 106.44 41.6267 105.56 41.96L108.4 48H105.92L103.32 42.4H99.92V48ZM99.92 35.48V40.4H103.18C104.033 40.4 104.7 40.18 105.18 39.74C105.66 39.3 105.9 38.6933 105.9 37.92C105.9 37.1333 105.66 36.5333 105.18 36.12C104.7 35.6933 104.027 35.48 103.16 35.48H99.92ZM114.179 48.26C113.206 48.26 112.346 48.04 111.599 47.6C110.866 47.16 110.286 46.5533 109.859 45.78C109.446 44.9933 109.239 44.0933 109.239 43.08C109.239 42.0533 109.439 41.1533 109.839 40.38C110.252 39.6067 110.826 39 111.559 38.56C112.292 38.1067 113.139 37.88 114.099 37.88C115.059 37.88 115.886 38.0867 116.579 38.5C117.286 38.9 117.832 39.4733 118.219 40.22C118.619 40.9533 118.819 41.82 118.819 42.82V43.54L110.379 43.56L110.419 42.16H116.659C116.659 41.4 116.426 40.8 115.959 40.36C115.506 39.9067 114.886 39.68 114.099 39.68C113.499 39.68 112.986 39.8067 112.559 40.06C112.146 40.3133 111.826 40.6933 111.599 41.2C111.386 41.6933 111.279 42.3 111.279 43.02C111.279 44.14 111.526 44.9933 112.019 45.58C112.526 46.1667 113.259 46.46 114.219 46.46C114.912 46.46 115.486 46.3267 115.939 46.06C116.392 45.7933 116.686 45.4 116.819 44.88H118.839C118.612 45.9333 118.086 46.76 117.259 47.36C116.446 47.96 115.419 48.26 114.179 48.26ZM123.638 48.26C122.598 48.26 121.778 47.98 121.178 47.42C120.591 46.86 120.298 46.1333 120.298 45.24C120.298 44.3333 120.611 43.6133 121.238 43.08C121.878 42.5333 122.778 42.2133 123.938 42.12L126.958 41.88V41.64C126.958 41.1333 126.864 40.7333 126.678 40.44C126.491 40.1333 126.238 39.9133 125.918 39.78C125.598 39.6467 125.224 39.58 124.798 39.58C124.038 39.58 123.451 39.7333 123.038 40.04C122.624 40.3467 122.418 40.78 122.418 41.34H120.578C120.578 40.6333 120.751 40.0267 121.098 39.52C121.458 39 121.964 38.6 122.618 38.32C123.271 38.0267 124.031 37.88 124.898 37.88C125.751 37.88 126.484 38.0333 127.098 38.34C127.724 38.6333 128.204 39.08 128.538 39.68C128.884 40.28 129.058 41.0333 129.058 41.94V48H127.198L126.998 46.48C126.771 47.0133 126.351 47.4467 125.738 47.78C125.124 48.1 124.424 48.26 123.638 48.26ZM124.318 46.6C125.131 46.6 125.778 46.36 126.258 45.88C126.738 45.3867 126.978 44.7267 126.978 43.9V43.36L124.698 43.56C123.898 43.6267 123.324 43.8 122.978 44.08C122.644 44.36 122.478 44.7133 122.478 45.14C122.478 45.6333 122.638 46 122.958 46.24C123.278 46.48 123.731 46.6 124.318 46.6ZM130.958 43.08C130.958 42.0533 131.164 41.1533 131.578 40.38C131.991 39.6067 132.558 39 133.278 38.56C134.011 38.1067 134.864 37.88 135.838 37.88C137.118 37.88 138.178 38.22 139.018 38.9C139.858 39.5667 140.351 40.4733 140.498 41.62H138.318C138.171 41.02 137.884 40.5733 137.458 40.28C137.031 39.9733 136.511 39.82 135.898 39.82C135.351 39.82 134.864 39.9533 134.438 40.22C134.024 40.4867 133.698 40.86 133.458 41.34C133.231 41.82 133.118 42.4 133.118 43.08C133.118 43.7333 133.224 44.3067 133.438 44.8C133.664 45.28 133.978 45.6533 134.378 45.92C134.791 46.1867 135.278 46.32 135.838 46.32C136.478 46.32 137.018 46.1667 137.458 45.86C137.898 45.54 138.191 45.1 138.338 44.54H140.498C140.391 45.2733 140.124 45.92 139.698 46.48C139.271 47.0267 138.724 47.46 138.058 47.78C137.391 48.1 136.651 48.26 135.838 48.26C134.851 48.26 133.991 48.0467 133.258 47.62C132.524 47.18 131.958 46.5733 131.558 45.8C131.158 45.0267 130.958 44.12 130.958 43.08ZM141.398 38.18H147.378V39.98H141.398V38.18ZM145.458 48H143.318V35.1H145.458V48ZM149.914 48.24C149.488 48.24 149.121 48.0933 148.814 47.8C148.521 47.5067 148.374 47.16 148.374 46.76C148.374 46.3333 148.521 45.9733 148.814 45.68C149.121 45.3867 149.488 45.24 149.914 45.24C150.328 45.24 150.681 45.3867 150.974 45.68C151.281 45.9733 151.434 46.3333 151.434 46.76C151.434 47.16 151.281 47.5067 150.974 47.8C150.681 48.0933 150.328 48.24 149.914 48.24ZM151.618 52.54L151.998 50.6C152.172 50.6533 152.325 50.6867 152.458 50.7C152.578 50.7267 152.712 50.74 152.858 50.74C153.298 50.74 153.605 50.6133 153.778 50.36C153.965 50.1067 154.058 49.72 154.058 49.2V38.18H156.198V49.42C156.198 50.4333 155.925 51.24 155.378 51.84C154.832 52.44 154.052 52.74 153.038 52.74C152.812 52.74 152.598 52.7267 152.398 52.7C152.185 52.6733 151.925 52.62 151.618 52.54ZM155.138 36.02C154.752 36.02 154.425 35.8867 154.158 35.62C153.892 35.3533 153.758 35.0333 153.758 34.66C153.758 34.2867 153.892 33.9667 154.158 33.7C154.425 33.4333 154.752 33.3 155.138 33.3C155.498 33.3 155.812 33.4333 156.078 33.7C156.345 33.9667 156.478 34.2867 156.478 34.66C156.478 35.0333 156.345 35.3533 156.078 35.62C155.812 35.8867 155.498 36.02 155.138 36.02ZM158.063 45.08H160.103C160.117 45.5467 160.29 45.9133 160.623 46.18C160.957 46.4467 161.417 46.58 162.003 46.58C162.617 46.58 163.09 46.46 163.423 46.22C163.757 45.98 163.923 45.6667 163.923 45.28C163.923 44.9867 163.837 44.7467 163.663 44.56C163.49 44.36 163.163 44.2 162.683 44.08L160.923 43.68C160.057 43.4667 159.403 43.14 158.963 42.7C158.537 42.26 158.323 41.66 158.323 40.9C158.323 40.2733 158.483 39.74 158.803 39.3C159.137 38.8467 159.59 38.5 160.163 38.26C160.737 38.0067 161.39 37.88 162.123 37.88C162.857 37.88 163.497 38.0133 164.043 38.28C164.59 38.5333 165.017 38.8933 165.323 39.36C165.63 39.8267 165.783 40.38 165.783 41.02H163.743C163.73 40.5533 163.577 40.1867 163.283 39.92C162.99 39.6533 162.577 39.52 162.043 39.52C161.523 39.52 161.117 39.64 160.823 39.88C160.53 40.1067 160.383 40.42 160.383 40.82C160.383 41.42 160.83 41.8333 161.723 42.06L163.483 42.46C164.31 42.6467 164.93 42.9533 165.343 43.38C165.757 43.7933 165.963 44.3733 165.963 45.12C165.963 45.7467 165.79 46.3 165.443 46.78C165.11 47.26 164.643 47.6267 164.043 47.88C163.443 48.1333 162.743 48.26 161.943 48.26C160.757 48.26 159.81 47.9667 159.103 47.38C158.41 46.7933 158.063 46.0267 158.063 45.08Z" fill="#0F172A"/>
<defs>
<clipPath id="clip0_709_15009">
<rect width="48" height="43" fill="white" transform="translate(16 19)"/>
</clipPath>
</defs>
</svg>
