<svg width="192" height="80" viewBox="0 0 192 80" fill="none" xmlns="http://www.w3.org/2000/svg">
<rect width="80" height="80" rx="40" fill="#F8FAFC"/>
<g clip-path="url(#clip0_766_24575)">
<path fill-rule="evenodd" clip-rule="evenodd" d="M16.5708 33.9791L26.1888 20.9231C26.2872 20.7899 26.4121 20.6784 26.5556 20.5958C26.6991 20.5132 26.8582 20.4612 27.0228 20.4431L39.8688 19.0151C39.9565 19.0054 40.0451 19.0054 40.1328 19.0151L52.9788 20.4416C53.1434 20.4597 53.3025 20.5117 53.446 20.5943C53.5896 20.6769 53.7144 20.7884 53.8128 20.9216L63.4323 33.9791C63.5932 34.1983 63.6749 34.4656 63.664 34.7373C63.6531 35.009 63.5503 35.269 63.3723 35.4746L40.6833 61.7126C40.5988 61.8104 40.4943 61.8888 40.3768 61.9426C40.2593 61.9963 40.1315 62.0242 40.0023 62.0242C39.8731 62.0242 39.7454 61.9963 39.6279 61.9426C39.5104 61.8888 39.4058 61.8104 39.3213 61.7126L16.6278 35.4746C16.4501 35.2688 16.3475 35.0088 16.3369 34.7371C16.3262 34.4654 16.4097 34.1981 16.5708 33.9791ZM43.3098 22.8746L52.3803 31.4426C52.4682 31.5259 52.5792 31.5806 52.6988 31.5996C52.8184 31.6186 52.9409 31.601 53.0503 31.549C53.1597 31.4971 53.2508 31.4133 53.3116 31.3086C53.3725 31.204 53.4003 31.0833 53.3913 30.9626L52.9563 24.8816C52.9502 24.8072 52.9721 24.7332 53.0176 24.6741C53.0631 24.6149 53.1291 24.5749 53.2026 24.5617C53.2761 24.5486 53.3518 24.5634 53.415 24.6031C53.4782 24.6428 53.5243 24.7047 53.5443 24.7766L55.5333 31.7396C55.6003 31.9741 55.7234 32.1887 55.8919 32.3648C56.0605 32.541 56.2695 32.6734 56.5008 32.7506L60.7458 34.1651C60.8135 34.1874 60.8711 34.233 60.9082 34.2939C60.9454 34.3547 60.9596 34.4268 60.9484 34.4972C60.9372 34.5676 60.9013 34.6317 60.8472 34.6781C60.793 34.7244 60.7241 34.7499 60.6528 34.7501H56.5728C56.3207 34.7502 56.0726 34.814 55.8516 34.9353C55.6306 35.0567 55.4437 35.2319 55.3083 35.4446L44.1873 52.9196C44.1251 53.0149 44.029 53.0831 43.9185 53.1105C43.808 53.1378 43.6912 53.1222 43.5917 53.0668C43.4922 53.0115 43.4174 52.9205 43.3823 52.8121C43.3473 52.7038 43.3546 52.5862 43.4028 52.4831L51.3738 36.0431C51.4404 35.9059 51.4711 35.754 51.4628 35.6016C51.4546 35.4493 51.4078 35.3016 51.3269 35.1723C51.2459 35.043 51.1334 34.9365 50.9999 34.8626C50.8664 34.7888 50.7164 34.75 50.5638 34.7501H29.4378C29.2853 34.75 29.1352 34.7888 29.0017 34.8626C28.8683 34.9365 28.7558 35.043 28.6748 35.1723C28.5938 35.3016 28.547 35.4493 28.5388 35.6016C28.5306 35.754 28.5612 35.9059 28.6278 36.0431L36.5988 52.4831C36.6489 52.5864 36.6576 52.705 36.6231 52.8145C36.5886 52.9241 36.5135 53.0163 36.4132 53.0723C36.313 53.1282 36.1951 53.1438 36.0837 53.1157C35.9724 53.0876 35.876 53.018 35.8143 52.9211L24.6933 35.4461C24.5579 35.2329 24.3709 35.0573 24.1496 34.9356C23.9283 34.814 23.6799 34.7501 23.4273 34.7501H19.2228C19.1515 34.7499 19.0826 34.7244 19.0285 34.6781C18.9743 34.6317 18.9384 34.5676 18.9272 34.4972C18.916 34.4268 18.9303 34.3547 18.9674 34.2939C19.0045 34.233 19.0621 34.1874 19.1298 34.1651L23.4918 32.7476C23.7256 32.6714 23.937 32.539 24.1076 32.3619C24.2781 32.1848 24.4025 31.9685 24.4698 31.7321L26.4573 24.7766C26.4773 24.7047 26.5235 24.6428 26.5866 24.6031C26.6498 24.5634 26.7256 24.5486 26.7991 24.5617C26.8725 24.5749 26.9385 24.6149 26.984 24.6741C27.0296 24.7332 27.0514 24.8072 27.0453 24.8816L26.6103 30.9626C26.6013 31.0833 26.6291 31.204 26.69 31.3086C26.7509 31.4133 26.842 31.4971 26.9513 31.549C27.0607 31.601 27.1832 31.6186 27.3028 31.5996C27.4224 31.5806 27.5334 31.5259 27.6213 31.4426L36.6918 22.8746C36.7466 22.8193 36.8208 22.7874 36.8987 22.7858C36.9765 22.7841 37.052 22.8128 37.1091 22.8658C37.1662 22.9188 37.2004 22.9919 37.2045 23.0697C37.2087 23.1475 37.1824 23.2238 37.1313 23.2826L31.0458 30.7721C30.9744 30.8601 30.9294 30.9665 30.916 31.0789C30.9026 31.1914 30.9213 31.3054 30.9699 31.4077C31.0185 31.51 31.0952 31.5965 31.1909 31.6571C31.2866 31.7177 31.3975 31.7499 31.5108 31.7501H48.4908C48.6041 31.7499 48.715 31.7177 48.8107 31.6571C48.9065 31.5965 48.9831 31.51 49.0317 31.4077C49.0804 31.3054 49.0991 31.1914 49.0856 31.0789C49.0722 30.9665 49.0272 30.8601 48.9558 30.7721L42.8703 23.2826C42.8192 23.2238 42.7929 23.1475 42.7971 23.0697C42.8012 22.9919 42.8355 22.9188 42.8926 22.8658C42.9496 22.8128 43.0251 22.7841 43.103 22.7858C43.1808 22.7874 43.255 22.8193 43.3098 22.8746Z" fill="black"/>
</g>
<path d="M96.8 37.44C96.8 36.6 97.0133 35.8667 97.44 35.24C97.88 34.6 98.48 34.1 99.24 33.74C100.013 33.38 100.9 33.2 101.9 33.2C102.86 33.2 103.693 33.3667 104.4 33.7C105.107 34.0333 105.66 34.5133 106.06 35.14C106.46 35.7667 106.68 36.5067 106.72 37.36H104.44C104.4 36.68 104.153 36.1533 103.7 35.78C103.247 35.4067 102.64 35.22 101.88 35.22C101.027 35.22 100.34 35.4133 99.82 35.8C99.3133 36.1867 99.06 36.7133 99.06 37.38C99.06 37.9267 99.2133 38.3667 99.52 38.7C99.84 39.0333 100.32 39.2733 100.96 39.42L103.32 39.96C104.533 40.2267 105.44 40.6867 106.04 41.34C106.653 41.98 106.96 42.8267 106.96 43.88C106.96 44.76 106.74 45.5333 106.3 46.2C105.873 46.8533 105.267 47.36 104.48 47.72C103.693 48.08 102.773 48.26 101.72 48.26C100.72 48.26 99.84 48.0933 99.08 47.76C98.32 47.4133 97.7267 46.9267 97.3 46.3C96.8733 45.6733 96.6467 44.94 96.62 44.1H98.88C98.9067 44.7533 99.1733 45.2733 99.68 45.66C100.187 46.0333 100.873 46.22 101.74 46.22C102.647 46.22 103.367 46.0267 103.9 45.64C104.433 45.2533 104.7 44.7333 104.7 44.08C104.7 43.5333 104.547 43.1 104.24 42.78C103.947 42.4467 103.48 42.2067 102.84 42.06L100.5 41.54C99.2867 41.2733 98.3667 40.8 97.74 40.12C97.1133 39.4267 96.8 38.5333 96.8 37.44ZM111.18 48H109.02V33.2H111.18V42.54L115.28 38.18H117.98L114.24 42.08L117.92 48H115.44L112.74 43.66L111.18 45.28V48ZM123.359 48.26C122.385 48.26 121.525 48.04 120.779 47.6C120.045 47.16 119.465 46.5533 119.039 45.78C118.625 44.9933 118.419 44.0933 118.419 43.08C118.419 42.0533 118.619 41.1533 119.019 40.38C119.432 39.6067 120.005 39 120.739 38.56C121.472 38.1067 122.319 37.88 123.279 37.88C124.239 37.88 125.065 38.0867 125.759 38.5C126.465 38.9 127.012 39.4733 127.399 40.22C127.799 40.9533 127.999 41.82 127.999 42.82V43.54L119.559 43.56L119.599 42.16H125.839C125.839 41.4 125.605 40.8 125.139 40.36C124.685 39.9067 124.065 39.68 123.279 39.68C122.679 39.68 122.165 39.8067 121.739 40.06C121.325 40.3133 121.005 40.6933 120.779 41.2C120.565 41.6933 120.459 42.3 120.459 43.02C120.459 44.14 120.705 44.9933 121.199 45.58C121.705 46.1667 122.439 46.46 123.399 46.46C124.092 46.46 124.665 46.3267 125.119 46.06C125.572 45.7933 125.865 45.4 125.999 44.88H128.019C127.792 45.9333 127.265 46.76 126.439 47.36C125.625 47.96 124.599 48.26 123.359 48.26ZM128.917 38.18H134.897V39.98H128.917V38.18ZM132.977 48H130.837V35.1H132.977V48ZM135.802 43.08C135.802 42.0533 136.008 41.1533 136.422 40.38C136.835 39.6067 137.402 39 138.122 38.56C138.855 38.1067 139.708 37.88 140.682 37.88C141.962 37.88 143.022 38.22 143.862 38.9C144.702 39.5667 145.195 40.4733 145.342 41.62H143.162C143.015 41.02 142.728 40.5733 142.302 40.28C141.875 39.9733 141.355 39.82 140.742 39.82C140.195 39.82 139.708 39.9533 139.282 40.22C138.868 40.4867 138.542 40.86 138.302 41.34C138.075 41.82 137.962 42.4 137.962 43.08C137.962 43.7333 138.068 44.3067 138.282 44.8C138.508 45.28 138.822 45.6533 139.222 45.92C139.635 46.1867 140.122 46.32 140.682 46.32C141.322 46.32 141.862 46.1667 142.302 45.86C142.742 45.54 143.035 45.1 143.182 44.54H145.342C145.235 45.2733 144.968 45.92 144.542 46.48C144.115 47.0267 143.568 47.46 142.902 47.78C142.235 48.1 141.495 48.26 140.682 48.26C139.695 48.26 138.835 48.0467 138.102 47.62C137.368 47.18 136.802 46.5733 136.402 45.8C136.002 45.0267 135.802 44.12 135.802 43.08ZM149.401 48H147.261V33.2H149.421V39.56C149.728 39.0533 150.161 38.6467 150.721 38.34C151.281 38.0333 151.935 37.88 152.681 37.88C153.908 37.88 154.828 38.2467 155.441 38.98C156.068 39.7133 156.381 40.7067 156.381 41.96V48H154.241V42.46C154.241 41.86 154.148 41.3667 153.961 40.98C153.775 40.5933 153.515 40.3067 153.181 40.12C152.861 39.9333 152.481 39.84 152.041 39.84C151.481 39.84 151.001 39.9667 150.601 40.22C150.215 40.46 149.915 40.7933 149.701 41.22C149.501 41.6333 149.401 42.1067 149.401 42.64V48Z" fill="#0F172A"/>
<defs>
<clipPath id="clip0_766_24575">
<rect width="48" height="48" fill="white" transform="translate(16 16)"/>
</clipPath>
</defs>
</svg>
