<svg width="192" height="80" viewBox="0 0 192 80" fill="none" xmlns="http://www.w3.org/2000/svg">
<rect width="80" height="80" rx="40" fill="#F8FAFC"/>
<g clip-path="url(#clip0_709_15001)">
<path d="M53.7501 20.0498H62.9201L40.0001 60.0498L17.0801 20.0498H34.6101L40.0001 29.3298L45.2701 20.0498H53.7501Z" fill="#41B883"/>
<path d="M17.0801 20.0498L40.0001 60.0498L62.9201 20.0498H53.7501L40.0001 44.0498L26.1401 20.0498H17.0801Z" fill="#41B883"/>
<path d="M26.1406 20.0498L40.0006 44.1698L53.7506 20.0498H45.2706L40.0006 29.3298L34.6106 20.0498H26.1406Z" fill="#35495E"/>
</g>
<path d="M101.7 48L96.2 33.46H98.62L101.96 42.28C102.133 42.7067 102.293 43.1467 102.44 43.6C102.587 44.04 102.733 44.54 102.88 45.1C103.053 44.5 103.22 43.9667 103.38 43.5C103.54 43.0333 103.687 42.6267 103.82 42.28L107.14 33.46H109.48L104.04 48H101.7ZM116.696 38.18H118.856V48H116.876L116.676 46.6C116.396 47.0933 115.956 47.4933 115.356 47.8C114.77 48.1067 114.13 48.26 113.436 48.26C112.303 48.26 111.423 47.9 110.796 47.18C110.17 46.46 109.856 45.5 109.856 44.3V38.16H112.016V43.56C112.016 44.5467 112.21 45.2533 112.596 45.68C112.983 46.1067 113.53 46.32 114.236 46.32C115.05 46.32 115.663 46.0733 116.076 45.58C116.49 45.0867 116.696 44.34 116.696 43.34V38.18ZM125.605 48.26C124.632 48.26 123.772 48.04 123.025 47.6C122.292 47.16 121.712 46.5533 121.285 45.78C120.872 44.9933 120.665 44.0933 120.665 43.08C120.665 42.0533 120.865 41.1533 121.265 40.38C121.678 39.6067 122.252 39 122.985 38.56C123.718 38.1067 124.565 37.88 125.525 37.88C126.485 37.88 127.312 38.0867 128.005 38.5C128.712 38.9 129.258 39.4733 129.645 40.22C130.045 40.9533 130.245 41.82 130.245 42.82V43.54L121.805 43.56L121.845 42.16H128.085C128.085 41.4 127.852 40.8 127.385 40.36C126.932 39.9067 126.312 39.68 125.525 39.68C124.925 39.68 124.412 39.8067 123.985 40.06C123.572 40.3133 123.252 40.6933 123.025 41.2C122.812 41.6933 122.705 42.3 122.705 43.02C122.705 44.14 122.952 44.9933 123.445 45.58C123.952 46.1667 124.685 46.46 125.645 46.46C126.338 46.46 126.912 46.3267 127.365 46.06C127.818 45.7933 128.112 45.4 128.245 44.88H130.265C130.038 45.9333 129.512 46.76 128.685 47.36C127.872 47.96 126.845 48.26 125.605 48.26ZM133.195 48.24C132.769 48.24 132.402 48.0933 132.095 47.8C131.802 47.5067 131.655 47.16 131.655 46.76C131.655 46.3333 131.802 45.9733 132.095 45.68C132.402 45.3867 132.769 45.24 133.195 45.24C133.609 45.24 133.962 45.3867 134.255 45.68C134.562 45.9733 134.715 46.3333 134.715 46.76C134.715 47.16 134.562 47.5067 134.255 47.8C133.962 48.0933 133.609 48.24 133.195 48.24ZM134.9 52.54L135.28 50.6C135.453 50.6533 135.606 50.6867 135.74 50.7C135.86 50.7267 135.993 50.74 136.14 50.74C136.58 50.74 136.886 50.6133 137.06 50.36C137.246 50.1067 137.34 49.72 137.34 49.2V38.18H139.48V49.42C139.48 50.4333 139.206 51.24 138.66 51.84C138.113 52.44 137.333 52.74 136.32 52.74C136.093 52.74 135.88 52.7267 135.68 52.7C135.466 52.6733 135.206 52.62 134.9 52.54ZM138.42 36.02C138.033 36.02 137.706 35.8867 137.44 35.62C137.173 35.3533 137.04 35.0333 137.04 34.66C137.04 34.2867 137.173 33.9667 137.44 33.7C137.706 33.4333 138.033 33.3 138.42 33.3C138.78 33.3 139.093 33.4333 139.36 33.7C139.626 33.9667 139.76 34.2867 139.76 34.66C139.76 35.0333 139.626 35.3533 139.36 35.62C139.093 35.8867 138.78 36.02 138.42 36.02ZM141.345 45.08H143.385C143.398 45.5467 143.571 45.9133 143.905 46.18C144.238 46.4467 144.698 46.58 145.285 46.58C145.898 46.58 146.371 46.46 146.705 46.22C147.038 45.98 147.205 45.6667 147.205 45.28C147.205 44.9867 147.118 44.7467 146.945 44.56C146.771 44.36 146.445 44.2 145.965 44.08L144.205 43.68C143.338 43.4667 142.685 43.14 142.245 42.7C141.818 42.26 141.605 41.66 141.605 40.9C141.605 40.2733 141.765 39.74 142.085 39.3C142.418 38.8467 142.871 38.5 143.445 38.26C144.018 38.0067 144.671 37.88 145.405 37.88C146.138 37.88 146.778 38.0133 147.325 38.28C147.871 38.5333 148.298 38.8933 148.605 39.36C148.911 39.8267 149.065 40.38 149.065 41.02H147.025C147.011 40.5533 146.858 40.1867 146.565 39.92C146.271 39.6533 145.858 39.52 145.325 39.52C144.805 39.52 144.398 39.64 144.105 39.88C143.811 40.1067 143.665 40.42 143.665 40.82C143.665 41.42 144.111 41.8333 145.005 42.06L146.765 42.46C147.591 42.6467 148.211 42.9533 148.625 43.38C149.038 43.7933 149.245 44.3733 149.245 45.12C149.245 45.7467 149.071 46.3 148.725 46.78C148.391 47.26 147.925 47.6267 147.325 47.88C146.725 48.1333 146.025 48.26 145.225 48.26C144.038 48.26 143.091 47.9667 142.385 47.38C141.691 46.7933 141.345 46.0267 141.345 45.08Z" fill="#0F172A"/>
<defs>
<clipPath id="clip0_709_15001">
<rect width="48" height="48" fill="white" transform="translate(16 16)"/>
</clipPath>
</defs>
</svg>
