<svg width="141" height="28" viewBox="0 0 141 28" fill="none" xmlns="http://www.w3.org/2000/svg">
<path fill-rule="evenodd" clip-rule="evenodd" d="M9.71942 9.64787C10.6476 10.3346 11.7133 10.678 12.8479 10.678C14.5668 10.678 16.1827 9.85396 17.1798 8.48051C18.0394 7.31314 18.3488 5.90546 18.1424 4.49775C17.9361 3.09006 17.1798 1.85402 16.0108 1.03002C15.0826 0.343331 14.0169 0 12.8823 0C11.1634 0 9.5475 0.824005 8.55042 2.19736C7.69082 3.36472 7.38142 4.77243 7.58777 6.18012C7.79413 7.5878 8.55042 8.82384 9.71942 9.64787ZM0.830361 22.993C5.32646 26.2747 10.6678 28 16.2459 28C24.6635 28 32.8448 23.6355 37.7804 16.8354L29.2951 10.678C26.8273 14.095 22.9056 16.6325 18.7475 17.309C17.9362 17.4445 17.0909 17.512 16.2459 17.512C12.8991 17.512 9.68763 16.4634 6.98309 14.5011L6.67886 14.2642L0.526123 22.756L0.830361 22.993Z" fill="#0E1519"/>
<path d="M132.513 28C131.164 28 129.969 27.7687 128.928 27.3062C127.907 26.8437 127.049 26.227 126.355 25.4561C125.681 24.6659 125.16 23.789 124.794 22.8254C124.447 21.8425 124.274 20.8403 124.274 19.8189V19.2407C124.274 18.1807 124.447 17.1689 124.794 16.2053C125.16 15.2224 125.681 14.3455 126.355 13.5746C127.03 12.8037 127.868 12.1966 128.87 11.7534C129.892 11.2908 131.048 11.0596 132.339 11.0596C134.035 11.0596 135.462 11.445 136.618 12.2159C137.794 12.9675 138.69 13.9601 139.306 15.1935C139.923 16.4077 140.231 17.7375 140.231 19.1829V20.744H126.211V18.1133H137.427L135.924 19.3274C135.924 18.3831 135.789 17.5736 135.519 16.8991C135.25 16.2246 134.845 15.7139 134.305 15.367C133.785 15.0008 133.13 14.8177 132.339 14.8177C131.53 14.8177 130.846 15.0008 130.287 15.367C129.728 15.7331 129.304 16.2728 129.015 16.9858C128.726 17.6796 128.581 18.5373 128.581 19.5587C128.581 20.5031 128.716 21.3318 128.986 22.0448C129.256 22.7386 129.68 23.2783 130.258 23.6637C130.836 24.0492 131.588 24.2419 132.513 24.2419C133.361 24.2419 134.055 24.0781 134.594 23.7505C135.134 23.4228 135.5 23.0181 135.693 22.5363H139.942C139.711 23.5963 139.258 24.5406 138.584 25.3693C137.909 26.198 137.061 26.8437 136.04 27.3062C135.018 27.7687 133.843 28 132.513 28Z" fill="#0E1519"/>
<path d="M98.1755 27.947V6.84369H104.709L109.537 18.6962H110.086L114.856 6.84369H121.505V27.947H116.822V9.93691L117.486 9.99473L111.907 23.6685H107.397L101.789 9.99473L102.512 9.93691V27.947H98.1755Z" fill="#0E1519"/>
<path d="M82.8306 27.8179V24.3844L90.7012 14.942V15.4325L89.9662 14.5128L90.5174 14.7887H82.8612V11.0179H96.0606V14.4515L88.1899 23.8939V23.434L88.9249 24.3537L88.3737 24.0471H96.3056V27.8179H82.8306Z" fill="#0E1519"/>
<path d="M73.6762 28C72.3271 28 71.1322 27.7687 70.0915 27.3062C69.0701 26.8437 68.2125 26.227 67.5187 25.4561C66.8441 24.6659 66.3238 23.789 65.9576 22.8254C65.6107 21.8425 65.4373 20.8403 65.4373 19.8189V19.2407C65.4373 18.1807 65.6107 17.1689 65.9576 16.2053C66.3238 15.2224 66.8441 14.3455 67.5187 13.5746C68.1932 12.8037 69.0316 12.1966 70.0337 11.7534C71.0552 11.2908 72.2115 11.0596 73.5028 11.0596C75.1987 11.0596 76.6249 11.445 77.7812 12.2159C78.9568 12.9675 79.853 13.9601 80.4697 15.1935C81.0864 16.4077 81.3948 17.7375 81.3948 19.1829V20.744H67.3741V18.1133H78.5907L77.0874 19.3274C77.0874 18.3831 76.9525 17.5736 76.6827 16.8991C76.4129 16.2246 76.0082 15.7139 75.4685 15.367C74.9482 15.0008 74.2929 14.8177 73.5028 14.8177C72.6933 14.8177 72.0091 15.0008 71.4502 15.367C70.8913 15.7331 70.4674 16.2728 70.1783 16.9858C69.8892 17.6796 69.7446 18.5373 69.7446 19.5587C69.7446 20.5031 69.8795 21.3318 70.1494 22.0448C70.4192 22.7386 70.8432 23.2783 71.4213 23.6637C71.9995 24.0492 72.7511 24.2419 73.6762 24.2419C74.5242 24.2419 75.218 24.0781 75.7576 23.7505C76.2973 23.4228 76.6634 23.0181 76.8562 22.5363H81.1057C80.8745 23.5963 80.4215 24.5406 79.747 25.3693C79.0725 26.198 78.2245 26.8437 77.2031 27.3062C76.1816 27.7687 75.006 28 73.6762 28Z" fill="#0E1519"/>
<path d="M46.1804 27.9197V6.64294H50.9214V27.9197H46.1804ZM58.7557 27.9197L54.6506 18.9002H59.8253L64.0459 27.9197H58.7557ZM50.3433 20.1722V16.443H55.8359C56.7802 16.443 57.4837 16.1924 57.9462 15.6913C58.428 15.1903 58.6689 14.4868 58.6689 13.581C58.6689 12.6752 58.428 11.9814 57.9462 11.4996C57.4644 10.9985 56.761 10.748 55.8359 10.748H50.3433V6.64294H55.5757C57.1368 6.64294 58.5051 6.88385 59.6807 7.36566C60.8756 7.84747 61.8007 8.57019 62.456 9.53381C63.1305 10.4974 63.4678 11.7116 63.4678 13.1763V13.6388C63.4678 15.1035 63.1305 16.3273 62.456 17.3102C61.8007 18.2738 60.8853 18.9966 59.7096 19.4784C58.534 19.9409 57.1561 20.1722 55.5757 20.1722H50.3433Z" fill="#0E1519"/>
</svg>
