<svg width="192" height="80" viewBox="0 0 192 80" fill="none" xmlns="http://www.w3.org/2000/svg">
<rect width="80" height="80" rx="40" fill="#F8FAFC"/>
<g clip-path="url(#clip0_709_15038)">
<path d="M57.3428 22.3459C52.9089 15.9595 44.0818 14.0883 37.7361 18.1154L26.5496 25.2747C23.4988 27.1866 21.3835 30.3188 20.7733 33.8578C20.2445 36.8273 20.692 39.8781 22.1157 42.5222C21.1394 43.9866 20.4886 45.6137 20.2039 47.3222C19.553 50.9425 20.4072 54.6849 22.5225 57.6544C26.9971 64.0408 35.7835 65.912 42.1293 61.8849L53.3157 54.7663C56.3666 52.8544 58.4818 49.7222 59.092 46.1832C59.6208 43.2137 59.1733 40.1629 57.7496 37.5188C58.7259 36.0544 59.3767 34.4273 59.6615 32.7188C60.353 29.0578 59.4988 25.3154 57.3428 22.3459Z" fill="#FF3E00"/>
<path d="M36.6366 58.2642C33.0163 59.1998 29.2332 57.7761 27.118 54.7252C25.8163 52.9354 25.3281 50.6981 25.6943 48.5015C25.7756 48.1354 25.857 47.81 25.9383 47.4439L26.1417 46.793L26.7112 47.1998C28.0536 48.1761 29.518 48.9083 31.1044 49.3964L31.5112 49.5185L31.4705 49.9252C31.4298 50.4947 31.5926 51.1049 31.918 51.593C32.5688 52.5286 33.7078 52.9761 34.8061 52.6913C35.0502 52.61 35.2942 52.5286 35.4976 52.4066L46.6434 45.288C47.2129 44.9219 47.579 44.393 47.701 43.7422C47.8231 43.0914 47.6604 42.3998 47.2942 41.871C46.6434 40.9354 45.5044 40.5286 44.4061 40.8134C44.162 40.8947 43.918 40.9761 43.7146 41.0981L39.4434 43.8236C38.7519 44.271 37.979 44.5964 37.1654 44.7998C33.5451 45.7354 29.762 44.3117 27.6468 41.2608C26.3858 39.471 25.857 37.2337 26.2637 35.0371C26.6298 32.9219 27.9315 31.01 29.762 29.871L40.9485 22.7524C41.64 22.3049 42.4129 21.9795 43.2265 21.7354C46.8468 20.7998 50.6298 22.2236 52.7451 25.2744C54.0468 27.0642 54.5349 29.3015 54.1688 31.4981C54.0875 31.8642 54.0061 32.1897 53.8841 32.5558L53.6807 33.2066L53.1112 32.7998C51.7688 31.8236 50.3044 31.0914 48.718 30.6032L48.3112 30.4812L48.3519 30.0744C48.3926 29.5049 48.2298 28.8947 47.9044 28.4066C47.2536 27.471 46.1146 27.0642 45.0163 27.349C44.7722 27.4303 44.5281 27.5117 44.3248 27.6337L33.179 34.7524C32.6095 35.1185 32.2434 35.6473 32.1214 36.2981C31.9993 36.949 32.162 37.6405 32.5281 38.1693C33.179 39.1049 34.318 39.5117 35.4163 39.2269C35.6604 39.1456 35.9044 39.0642 36.1078 38.9422L40.379 36.2168C41.0705 35.7693 41.8434 35.4439 42.657 35.1998C46.2773 34.2642 50.0604 35.688 52.1756 38.7388C53.4773 40.5286 53.9654 42.7659 53.5993 44.9625C53.2332 47.0778 51.9315 48.9897 50.101 50.1286L38.9146 57.2473C38.2231 57.6947 37.4502 58.0202 36.6366 58.2642Z" fill="white"/>
</g>
<path d="M96.8 37.44C96.8 36.6 97.0133 35.8667 97.44 35.24C97.88 34.6 98.48 34.1 99.24 33.74C100.013 33.38 100.9 33.2 101.9 33.2C102.86 33.2 103.693 33.3667 104.4 33.7C105.107 34.0333 105.66 34.5133 106.06 35.14C106.46 35.7667 106.68 36.5067 106.72 37.36H104.44C104.4 36.68 104.153 36.1533 103.7 35.78C103.247 35.4067 102.64 35.22 101.88 35.22C101.027 35.22 100.34 35.4133 99.82 35.8C99.3133 36.1867 99.06 36.7133 99.06 37.38C99.06 37.9267 99.2133 38.3667 99.52 38.7C99.84 39.0333 100.32 39.2733 100.96 39.42L103.32 39.96C104.533 40.2267 105.44 40.6867 106.04 41.34C106.653 41.98 106.96 42.8267 106.96 43.88C106.96 44.76 106.74 45.5333 106.3 46.2C105.873 46.8533 105.267 47.36 104.48 47.72C103.693 48.08 102.773 48.26 101.72 48.26C100.72 48.26 99.84 48.0933 99.08 47.76C98.32 47.4133 97.7267 46.9267 97.3 46.3C96.8733 45.6733 96.6467 44.94 96.62 44.1H98.88C98.9067 44.7533 99.1733 45.2733 99.68 45.66C100.187 46.0333 100.873 46.22 101.74 46.22C102.647 46.22 103.367 46.0267 103.9 45.64C104.433 45.2533 104.7 44.7333 104.7 44.08C104.7 43.5333 104.547 43.1 104.24 42.78C103.947 42.4467 103.48 42.2067 102.84 42.06L100.5 41.54C99.2867 41.2733 98.3667 40.8 97.74 40.12C97.1133 39.4267 96.8 38.5333 96.8 37.44ZM111.76 48L107.82 38.18H110.14L112.06 43.16C112.246 43.6933 112.413 44.18 112.56 44.62C112.706 45.06 112.813 45.42 112.88 45.7C112.973 45.38 113.093 45 113.24 44.56C113.4 44.12 113.573 43.6533 113.76 43.16L115.76 38.18H117.98L113.9 48H111.76ZM123.32 48.26C122.346 48.26 121.486 48.04 120.74 47.6C120.006 47.16 119.426 46.5533 119 45.78C118.586 44.9933 118.38 44.0933 118.38 43.08C118.38 42.0533 118.58 41.1533 118.98 40.38C119.393 39.6067 119.966 39 120.7 38.56C121.433 38.1067 122.28 37.88 123.24 37.88C124.2 37.88 125.026 38.0867 125.72 38.5C126.426 38.9 126.973 39.4733 127.36 40.22C127.76 40.9533 127.96 41.82 127.96 42.82V43.54L119.52 43.56L119.56 42.16H125.8C125.8 41.4 125.566 40.8 125.1 40.36C124.646 39.9067 124.026 39.68 123.24 39.68C122.64 39.68 122.126 39.8067 121.7 40.06C121.286 40.3133 120.966 40.6933 120.74 41.2C120.526 41.6933 120.42 42.3 120.42 43.02C120.42 44.14 120.666 44.9933 121.16 45.58C121.666 46.1667 122.4 46.46 123.36 46.46C124.053 46.46 124.626 46.3267 125.08 46.06C125.533 45.7933 125.826 45.4 125.96 44.88H127.98C127.753 45.9333 127.226 46.76 126.4 47.36C125.586 47.96 124.56 48.26 123.32 48.26ZM132.176 48H130.016V33.2H132.176V48ZM133.82 38.18H139.8V39.98H133.82V38.18ZM137.88 48H135.74V35.1H137.88V48ZM145.644 48.26C144.671 48.26 143.811 48.04 143.064 47.6C142.331 47.16 141.751 46.5533 141.324 45.78C140.911 44.9933 140.704 44.0933 140.704 43.08C140.704 42.0533 140.904 41.1533 141.304 40.38C141.717 39.6067 142.291 39 143.024 38.56C143.757 38.1067 144.604 37.88 145.564 37.88C146.524 37.88 147.351 38.0867 148.044 38.5C148.751 38.9 149.297 39.4733 149.684 40.22C150.084 40.9533 150.284 41.82 150.284 42.82V43.54L141.844 43.56L141.884 42.16H148.124C148.124 41.4 147.891 40.8 147.424 40.36C146.971 39.9067 146.351 39.68 145.564 39.68C144.964 39.68 144.451 39.8067 144.024 40.06C143.611 40.3133 143.291 40.6933 143.064 41.2C142.851 41.6933 142.744 42.3 142.744 43.02C142.744 44.14 142.991 44.9933 143.484 45.58C143.991 46.1667 144.724 46.46 145.684 46.46C146.377 46.46 146.951 46.3267 147.404 46.06C147.857 45.7933 148.151 45.4 148.284 44.88H150.304C150.077 45.9333 149.551 46.76 148.724 47.36C147.911 47.96 146.884 48.26 145.644 48.26Z" fill="#0F172A"/>
<defs>
<clipPath id="clip0_709_15038">
<rect width="39.9051" height="48" fill="white" transform="translate(20 16)"/>
</clipPath>
</defs>
</svg>
