<svg width="192" height="80" viewBox="0 0 192 80" fill="none" xmlns="http://www.w3.org/2000/svg">
<rect width="80" height="80" rx="40" fill="#F8FAFC"/>
<g clip-path="url(#clip0_709_15015)">
<path d="M42.7518 55.6312H60.4785C61.0415 55.6312 61.5947 55.4851 62.0822 55.2074C62.5698 54.9298 62.9747 54.5305 63.2561 54.0495C63.5375 53.5686 63.6855 53.0231 63.6852 52.4679C63.685 51.9126 63.5365 51.3673 63.2547 50.8866L51.35 30.5523C51.0686 30.0715 50.6638 29.6723 50.1763 29.3947C49.6888 29.1171 49.1358 28.9709 48.5729 28.9709C48.0099 28.9709 47.457 29.1171 46.9694 29.3947C46.482 29.6723 46.0772 30.0715 45.7958 30.5523L42.7518 35.7551L36.8004 25.5812C36.5187 25.1004 36.1138 24.7012 35.6262 24.4237C35.1385 24.1461 34.5854 24 34.0224 24C33.4594 24 32.9063 24.1461 32.4187 24.4237C31.931 24.7012 31.5261 25.1004 31.2445 25.5812L16.4306 50.8866C16.1487 51.3673 16.0002 51.9126 16 52.4679C15.9998 53.0231 16.1478 53.5686 16.4292 54.0495C16.7106 54.5305 17.1154 54.9298 17.603 55.2074C18.0906 55.4851 18.6437 55.6312 19.2068 55.6312H30.3341C34.7428 55.6312 37.9942 53.7214 40.2313 49.9956L45.6628 40.7194L48.572 35.7551L57.3032 50.6668H45.6628L42.7518 55.6312ZM30.1527 50.6618L22.3872 50.66L34.0276 30.7789L39.8357 40.7194L35.9469 47.3635C34.4612 49.781 32.7734 50.6618 30.1527 50.6618Z" fill="#00DC82"/>
</g>
<path d="M99.88 48H97.66V33.46H99.9L107.68 45.22H107.04V33.46H109.26V48H107.04L99.24 36.26H99.88V48ZM118.962 38.18H121.122V48H119.142L118.942 46.6C118.662 47.0933 118.222 47.4933 117.622 47.8C117.035 48.1067 116.395 48.26 115.702 48.26C114.569 48.26 113.689 47.9 113.062 47.18C112.435 46.46 112.122 45.5 112.122 44.3V38.16H114.282V43.56C114.282 44.5467 114.475 45.2533 114.862 45.68C115.249 46.1067 115.795 46.32 116.502 46.32C117.315 46.32 117.929 46.0733 118.342 45.58C118.755 45.0867 118.962 44.34 118.962 43.34V38.18ZM125.106 48H122.626L126.046 43.16L122.626 38.18H125.146L127.466 41.68L129.746 38.18H132.166L128.786 43.14L132.106 48H129.606L127.326 44.58L125.106 48ZM133.058 38.18H139.038V39.98H133.058V38.18ZM137.118 48H134.978V35.1H137.118V48ZM141.574 48.24C141.148 48.24 140.781 48.0933 140.474 47.8C140.181 47.5067 140.034 47.16 140.034 46.76C140.034 46.3333 140.181 45.9733 140.474 45.68C140.781 45.3867 141.148 45.24 141.574 45.24C141.988 45.24 142.341 45.3867 142.634 45.68C142.941 45.9733 143.094 46.3333 143.094 46.76C143.094 47.16 142.941 47.5067 142.634 47.8C142.341 48.0933 141.988 48.24 141.574 48.24ZM143.278 52.54L143.658 50.6C143.832 50.6533 143.985 50.6867 144.118 50.7C144.238 50.7267 144.372 50.74 144.518 50.74C144.958 50.74 145.265 50.6133 145.438 50.36C145.625 50.1067 145.718 49.72 145.718 49.2V38.18H147.858V49.42C147.858 50.4333 147.585 51.24 147.038 51.84C146.492 52.44 145.712 52.74 144.698 52.74C144.472 52.74 144.258 52.7267 144.058 52.7C143.845 52.6733 143.585 52.62 143.278 52.54ZM146.798 36.02C146.412 36.02 146.085 35.8867 145.818 35.62C145.552 35.3533 145.418 35.0333 145.418 34.66C145.418 34.2867 145.552 33.9667 145.818 33.7C146.085 33.4333 146.412 33.3 146.798 33.3C147.158 33.3 147.472 33.4333 147.738 33.7C148.005 33.9667 148.138 34.2867 148.138 34.66C148.138 35.0333 148.005 35.3533 147.738 35.62C147.472 35.8867 147.158 36.02 146.798 36.02ZM149.724 45.08H151.764C151.777 45.5467 151.95 45.9133 152.284 46.18C152.617 46.4467 153.077 46.58 153.664 46.58C154.277 46.58 154.75 46.46 155.084 46.22C155.417 45.98 155.584 45.6667 155.584 45.28C155.584 44.9867 155.497 44.7467 155.324 44.56C155.15 44.36 154.824 44.2 154.344 44.08L152.584 43.68C151.717 43.4667 151.064 43.14 150.624 42.7C150.197 42.26 149.984 41.66 149.984 40.9C149.984 40.2733 150.144 39.74 150.464 39.3C150.797 38.8467 151.25 38.5 151.824 38.26C152.397 38.0067 153.05 37.88 153.784 37.88C154.517 37.88 155.157 38.0133 155.704 38.28C156.25 38.5333 156.677 38.8933 156.984 39.36C157.29 39.8267 157.444 40.38 157.444 41.02H155.404C155.39 40.5533 155.237 40.1867 154.944 39.92C154.65 39.6533 154.237 39.52 153.704 39.52C153.184 39.52 152.777 39.64 152.484 39.88C152.19 40.1067 152.044 40.42 152.044 40.82C152.044 41.42 152.49 41.8333 153.384 42.06L155.144 42.46C155.97 42.6467 156.59 42.9533 157.004 43.38C157.417 43.7933 157.624 44.3733 157.624 45.12C157.624 45.7467 157.45 46.3 157.104 46.78C156.77 47.26 156.304 47.6267 155.704 47.88C155.104 48.1333 154.404 48.26 153.604 48.26C152.417 48.26 151.47 47.9667 150.764 47.38C150.07 46.7933 149.724 46.0267 149.724 45.08Z" fill="#0F172A"/>
<defs>
<clipPath id="clip0_709_15015">
<rect width="48" height="32" fill="white" transform="translate(16 24)"/>
</clipPath>
</defs>
</svg>
