<svg width="192" height="80" viewBox="0 0 192 80" fill="none" xmlns="http://www.w3.org/2000/svg">
<rect width="80" height="80" rx="40" fill="#F8FAFC"/>
<g clip-path="url(#clip0_709_15001)">
<path d="M41.1357 16.3012C40.4231 15.8996 39.5769 15.8996 38.8643 16.3012L20.1135 27.1453C19.4008 27.5469 19 28.3056 19 29.1088V50.8416C19 51.6449 19.4454 52.4035 20.1135 52.8052L38.8643 63.6493C39.5769 64.0509 40.4231 64.0509 41.1357 63.6493L59.8865 52.8052C60.5992 52.4035 61 51.6449 61 50.8416V29.1088C61 28.3056 60.5546 27.5469 59.8865 27.1453L41.1357 16.3012Z" fill="url(#paint0_linear_709_15001)"/>
<mask id="mask0_709_15001" style="mask-type:luminance" maskUnits="userSpaceOnUse" x="19" y="16" width="42" height="48">
<path d="M41.1357 16.3012C40.4231 15.8996 39.5769 15.8996 38.8643 16.3012L20.1135 27.1453C19.4008 27.5469 19 28.3056 19 29.1088V50.8416C19 51.6449 19.4454 52.4035 20.1135 52.8052L38.8643 63.6493C39.5769 64.0509 40.4231 64.0509 41.1357 63.6493L59.8865 52.8052C60.5992 52.4035 61 51.6449 61 50.8416V29.1088C61 28.3056 60.5546 27.5469 59.8865 27.1453L41.1357 16.3012Z" fill="white"/>
</mask>
<g mask="url(#mask0_709_15001)">
<path d="M59.9306 27.1453L41.0907 16.3013C40.9126 16.212 40.6899 16.1228 40.5117 16.0781L19.4004 52.3143C19.5785 52.5375 19.8012 52.716 20.0239 52.8498L38.8638 63.6939C39.3983 64.0063 40.0218 64.0956 40.6008 63.9171L60.4205 27.5916C60.2869 27.4131 60.1088 27.2792 59.9306 27.1453Z" fill="url(#paint1_linear_709_15001)"/>
</g>
<mask id="mask1_709_15001" style="mask-type:luminance" maskUnits="userSpaceOnUse" x="19" y="16" width="42" height="48">
<path d="M41.1357 16.3012C40.4231 15.8996 39.5769 15.8996 38.8643 16.3012L20.1135 27.1453C19.4008 27.5469 19 28.3056 19 29.1088V50.8416C19 51.6449 19.4454 52.4035 20.1135 52.8052L38.8643 63.6493C39.5769 64.0509 40.4231 64.0509 41.1357 63.6493L59.8865 52.8052C60.5992 52.4035 61 51.6449 61 50.8416V29.1088C61 28.3056 60.5546 27.5469 59.8865 27.1453L41.1357 16.3012Z" fill="white"/>
</mask>
<g mask="url(#mask1_709_15001)">
<path d="M59.9754 52.805C60.5099 52.4926 60.9107 51.9571 61.0889 51.377L40.4229 16.0333C39.8885 15.944 39.3095 15.9887 38.8195 16.301L20.1133 27.1005L40.2893 63.9615C40.5565 63.9168 40.8683 63.8276 41.1356 63.6937L59.9754 52.805Z" fill="url(#paint2_linear_709_15001)"/>
</g>
</g>
<path d="M99.88 48H97.66V33.46H99.9L107.68 45.22H107.04V33.46H109.26V48H107.04L99.24 36.26H99.88V48ZM111.622 43.08C111.622 42.0533 111.842 41.1533 112.282 40.38C112.735 39.6067 113.355 39 114.142 38.56C114.929 38.12 115.822 37.9 116.822 37.9C117.822 37.9 118.709 38.12 119.482 38.56C120.255 39 120.869 39.6067 121.322 40.38C121.775 41.1533 122.002 42.0533 122.002 43.08C122.002 44.0933 121.775 44.9867 121.322 45.76C120.869 46.5333 120.255 47.14 119.482 47.58C118.709 48.02 117.822 48.24 116.822 48.24C115.822 48.24 114.929 48.02 114.142 47.58C113.355 47.14 112.735 46.5333 112.282 45.76C111.842 44.9867 111.622 44.0933 111.622 43.08ZM113.782 43.06C113.782 43.7 113.909 44.2667 114.162 44.76C114.429 45.24 114.789 45.62 115.242 45.9C115.695 46.1667 116.222 46.3 116.822 46.3C117.409 46.3 117.929 46.1667 118.382 45.9C118.835 45.62 119.189 45.24 119.442 44.76C119.695 44.2667 119.822 43.7 119.822 43.06C119.822 42.42 119.695 41.86 119.442 41.38C119.189 40.9 118.835 40.5267 118.382 40.26C117.929 39.98 117.409 39.84 116.822 39.84C116.222 39.84 115.695 39.98 115.242 40.26C114.789 40.5267 114.429 40.9 114.162 41.38C113.909 41.86 113.782 42.42 113.782 43.06ZM127.98 48.26C127.033 48.26 126.213 48.04 125.52 47.6C124.84 47.16 124.313 46.56 123.94 45.8C123.566 45.0267 123.38 44.1333 123.38 43.12C123.38 42.1067 123.566 41.2067 123.94 40.42C124.313 39.6333 124.853 39.0133 125.56 38.56C126.266 38.1067 127.113 37.88 128.1 37.88C128.82 37.88 129.466 38.0267 130.04 38.32C130.626 38.6133 131.08 39.04 131.4 39.6V33.2H133.56V48H131.58L131.44 46.34C131.133 46.9533 130.666 47.4267 130.04 47.76C129.426 48.0933 128.74 48.26 127.98 48.26ZM128.44 46.28C129.053 46.28 129.573 46.1467 130 45.88C130.44 45.6 130.78 45.22 131.02 44.74C131.26 44.2467 131.38 43.6867 131.38 43.06C131.38 42.42 131.26 41.86 131.02 41.38C130.78 40.8867 130.44 40.5067 130 40.24C129.573 39.96 129.053 39.82 128.44 39.82C127.84 39.82 127.32 39.96 126.88 40.24C126.453 40.52 126.12 40.9 125.88 41.38C125.653 41.86 125.54 42.42 125.54 43.06C125.54 43.6867 125.653 44.2467 125.88 44.74C126.12 45.22 126.453 45.6 126.88 45.88C127.32 46.1467 127.84 46.28 128.44 46.28ZM140.507 48.26C139.534 48.26 138.674 48.04 137.927 47.6C137.194 47.16 136.614 46.5533 136.187 45.78C135.774 44.9933 135.567 44.0933 135.567 43.08C135.567 42.0533 135.767 41.1533 136.167 40.38C136.581 39.6067 137.154 39 137.887 38.56C138.621 38.1067 139.467 37.88 140.427 37.88C141.387 37.88 142.214 38.0867 142.907 38.5C143.614 38.9 144.161 39.4733 144.547 40.22C144.947 40.9533 145.147 41.82 145.147 42.82V43.54L136.707 43.56L136.747 42.16H142.987C142.987 41.4 142.754 40.8 142.287 40.36C141.834 39.9067 141.214 39.68 140.427 39.68C139.827 39.68 139.314 39.8067 138.887 40.06C138.474 40.3133 138.154 40.6933 137.927 41.2C137.714 41.6933 137.607 42.3 137.607 43.02C137.607 44.14 137.854 44.9933 138.347 45.58C138.854 46.1667 139.587 46.46 140.547 46.46C141.241 46.46 141.814 46.3267 142.267 46.06C142.721 45.7933 143.014 45.4 143.147 44.88H145.167C144.941 45.9333 144.414 46.76 143.587 47.36C142.774 47.96 141.747 48.26 140.507 48.26ZM148.098 48.24C147.671 48.24 147.304 48.0933 146.998 47.8C146.704 47.5067 146.558 47.16 146.558 46.76C146.558 46.3333 146.704 45.9733 146.998 45.68C147.304 45.3867 147.671 45.24 148.098 45.24C148.511 45.24 148.864 45.3867 149.158 45.68C149.464 45.9733 149.618 46.3333 149.618 46.76C149.618 47.16 149.464 47.5067 149.158 47.8C148.864 48.0933 148.511 48.24 148.098 48.24ZM149.802 52.54L150.182 50.6C150.355 50.6533 150.509 50.6867 150.642 50.7C150.762 50.7267 150.895 50.74 151.042 50.74C151.482 50.74 151.789 50.6133 151.962 50.36C152.149 50.1067 152.242 49.72 152.242 49.2V38.18H154.382V49.42C154.382 50.4333 154.109 51.24 153.562 51.84C153.015 52.44 152.235 52.74 151.222 52.74C150.995 52.74 150.782 52.7267 150.582 52.7C150.369 52.6733 150.109 52.62 149.802 52.54ZM153.322 36.02C152.935 36.02 152.609 35.8867 152.342 35.62C152.075 35.3533 151.942 35.0333 151.942 34.66C151.942 34.2867 152.075 33.9667 152.342 33.7C152.609 33.4333 152.935 33.3 153.322 33.3C153.682 33.3 153.995 33.4333 154.262 33.7C154.529 33.9667 154.662 34.2867 154.662 34.66C154.662 35.0333 154.529 35.3533 154.262 35.62C153.995 35.8867 153.682 36.02 153.322 36.02ZM156.247 45.08H158.287C158.3 45.5467 158.474 45.9133 158.807 46.18C159.14 46.4467 159.6 46.58 160.187 46.58C160.8 46.58 161.274 46.46 161.607 46.22C161.94 45.98 162.107 45.6667 162.107 45.28C162.107 44.9867 162.02 44.7467 161.847 44.56C161.674 44.36 161.347 44.2 160.867 44.08L159.107 43.68C158.24 43.4667 157.587 43.14 157.147 42.7C156.72 42.26 156.507 41.66 156.507 40.9C156.507 40.2733 156.667 39.74 156.987 39.3C157.32 38.8467 157.774 38.5 158.347 38.26C158.92 38.0067 159.574 37.88 160.307 37.88C161.04 37.88 161.68 38.0133 162.227 38.28C162.774 38.5333 163.2 38.8933 163.507 39.36C163.814 39.8267 163.967 40.38 163.967 41.02H161.927C161.914 40.5533 161.76 40.1867 161.467 39.92C161.174 39.6533 160.76 39.52 160.227 39.52C159.707 39.52 159.3 39.64 159.007 39.88C158.714 40.1067 158.567 40.42 158.567 40.82C158.567 41.42 159.014 41.8333 159.907 42.06L161.667 42.46C162.494 42.6467 163.114 42.9533 163.527 43.38C163.94 43.7933 164.147 44.3733 164.147 45.12C164.147 45.7467 163.974 46.3 163.627 46.78C163.294 47.26 162.827 47.6267 162.227 47.88C161.627 48.1333 160.927 48.26 160.127 48.26C158.94 48.26 157.994 47.9667 157.287 47.38C156.594 46.7933 156.247 46.0267 156.247 45.08Z" fill="#0F172A"/>
<defs>
<linearGradient id="paint0_linear_709_15001" x1="2882.91" y1="854.502" x2="821.845" y2="4086.6" gradientUnits="userSpaceOnUse">
<stop stop-color="#41873F"/>
<stop offset="0.3288" stop-color="#418B3D"/>
<stop offset="0.6352" stop-color="#419637"/>
<stop offset="0.9319" stop-color="#3FA92D"/>
<stop offset="1" stop-color="#3FAE2A"/>
</linearGradient>
<linearGradient id="paint1_linear_709_15001" x1="1794.61" y1="2660.31" x2="6946.48" y2="-133.217" gradientUnits="userSpaceOnUse">
<stop offset="0.1376" stop-color="#41873F"/>
<stop offset="0.4032" stop-color="#54A044"/>
<stop offset="0.7136" stop-color="#66B848"/>
<stop offset="0.9081" stop-color="#6CC04A"/>
</linearGradient>
<linearGradient id="paint2_linear_709_15001" x1="-159.721" y1="2414.3" x2="4179.11" y2="2414.3" gradientUnits="userSpaceOnUse">
<stop offset="0.0919165" stop-color="#6CC04A"/>
<stop offset="0.2864" stop-color="#66B848"/>
<stop offset="0.5968" stop-color="#54A044"/>
<stop offset="0.8624" stop-color="#41873F"/>
</linearGradient>
<clipPath id="clip0_709_15001">
<rect width="42" height="48" fill="white" transform="translate(19 16)"/>
</clipPath>
</defs>
</svg>
