<svg width="192" height="80" viewBox="0 0 192 80" fill="none" xmlns="http://www.w3.org/2000/svg">
<rect width="80" height="80" rx="40" fill="#F8FAFC"/>
<g clip-path="url(#clip0_710_15120)">
<path d="M18.4049 27V44.2544L25.9632 35.6618H26.3068L20.7068 42.037L28.0933 52.9855H25.6884L19.3325 43.5614L18.4049 44.6355V52.9855H16V27H18.4049ZM30.3447 44.4653C30.3447 38.8443 33.9411 35.714 38.6232 35.714C42.9321 35.714 46.6303 37.9355 46.6303 44.0614C46.6303 49.6825 43.0339 52.8127 38.3518 52.8127C34.0429 52.8127 30.3447 50.5913 30.3447 44.4653ZM32.5756 44.4664C32.5756 50.3882 35.1535 52.5878 38.35 52.5878C41.7184 52.5878 44.3994 49.4746 44.3994 44.0604C44.3994 38.1386 41.8215 35.939 38.625 35.939C35.2566 35.939 32.5756 39.0522 32.5756 44.4664ZM62.9678 52.7123C58.9058 52.7123 59.1056 50.3225 59.1056 50.3225V49.8513C58.4397 51.063 57.1745 52.8469 53.8782 52.8469C49.9827 52.8469 49.3168 50.3562 49.117 49.0098C48.7841 46.7547 49.5832 45.0717 55.5097 44.6678C57.008 44.5332 58.7061 44.6005 59.1056 44.6342V39.0468C59.1056 39.0468 59.4718 36.0175 55.6096 36.0175C53.5453 36.0175 50.9816 36.8926 50.1492 37.3639L50.016 37.1283C50.4488 36.9263 52.4798 35.7482 56.0424 35.7482C60.8702 35.7482 61.4363 37.9024 61.4363 39.0468V50.3225C61.4363 52.5104 62.9678 52.443 62.9678 52.443H64V52.7123H62.9678ZM54.4608 52.622C56.9571 52.622 58.9935 50.3304 59.092 48.9624V44.8239C58.6979 44.7897 57.1541 44.6529 55.5119 44.8581C52.0302 45.2686 51.3405 46.4998 51.5376 48.9966C51.6689 50.6725 52.1616 52.622 54.4608 52.622Z" fill="black"/>
</g>
<path d="M108.78 33.46L99.4 45.42V42.04L106.1 33.46H108.78ZM99.92 33.46V48H97.66V33.46H99.92ZM102.34 41.38L103.8 39.44L108.84 48H106.22L102.34 41.38ZM109.141 43.08C109.141 42.0533 109.361 41.1533 109.801 40.38C110.255 39.6067 110.875 39 111.661 38.56C112.448 38.12 113.341 37.9 114.341 37.9C115.341 37.9 116.228 38.12 117.001 38.56C117.775 39 118.388 39.6067 118.841 40.38C119.295 41.1533 119.521 42.0533 119.521 43.08C119.521 44.0933 119.295 44.9867 118.841 45.76C118.388 46.5333 117.775 47.14 117.001 47.58C116.228 48.02 115.341 48.24 114.341 48.24C113.341 48.24 112.448 48.02 111.661 47.58C110.875 47.14 110.255 46.5333 109.801 45.76C109.361 44.9867 109.141 44.0933 109.141 43.08ZM111.301 43.06C111.301 43.7 111.428 44.2667 111.681 44.76C111.948 45.24 112.308 45.62 112.761 45.9C113.215 46.1667 113.741 46.3 114.341 46.3C114.928 46.3 115.448 46.1667 115.901 45.9C116.355 45.62 116.708 45.24 116.961 44.76C117.215 44.2667 117.341 43.7 117.341 43.06C117.341 42.42 117.215 41.86 116.961 41.38C116.708 40.9 116.355 40.5267 115.901 40.26C115.448 39.98 114.928 39.84 114.341 39.84C113.741 39.84 113.215 39.98 112.761 40.26C112.308 40.5267 111.948 40.9 111.681 41.38C111.428 41.86 111.301 42.42 111.301 43.06ZM124.399 48.26C123.359 48.26 122.539 47.98 121.939 47.42C121.353 46.86 121.059 46.1333 121.059 45.24C121.059 44.3333 121.373 43.6133 121.999 43.08C122.639 42.5333 123.539 42.2133 124.699 42.12L127.719 41.88V41.64C127.719 41.1333 127.626 40.7333 127.439 40.44C127.253 40.1333 126.999 39.9133 126.679 39.78C126.359 39.6467 125.986 39.58 125.559 39.58C124.799 39.58 124.213 39.7333 123.799 40.04C123.386 40.3467 123.179 40.78 123.179 41.34H121.339C121.339 40.6333 121.513 40.0267 121.859 39.52C122.219 39 122.726 38.6 123.379 38.32C124.033 38.0267 124.793 37.88 125.659 37.88C126.513 37.88 127.246 38.0333 127.859 38.34C128.486 38.6333 128.966 39.08 129.299 39.68C129.646 40.28 129.819 41.0333 129.819 41.94V48H127.959L127.759 46.48C127.533 47.0133 127.113 47.4467 126.499 47.78C125.886 48.1 125.186 48.26 124.399 48.26ZM125.079 46.6C125.893 46.6 126.539 46.36 127.019 45.88C127.499 45.3867 127.739 44.7267 127.739 43.9V43.36L125.459 43.56C124.659 43.6267 124.086 43.8 123.739 44.08C123.406 44.36 123.239 44.7133 123.239 45.14C123.239 45.6333 123.399 46 123.719 46.24C124.039 46.48 124.493 46.6 125.079 46.6ZM133.86 48.24C133.433 48.24 133.066 48.0933 132.76 47.8C132.466 47.5067 132.32 47.16 132.32 46.76C132.32 46.3333 132.466 45.9733 132.76 45.68C133.066 45.3867 133.433 45.24 133.86 45.24C134.273 45.24 134.626 45.3867 134.92 45.68C135.226 45.9733 135.38 46.3333 135.38 46.76C135.38 47.16 135.226 47.5067 134.92 47.8C134.626 48.0933 134.273 48.24 133.86 48.24ZM135.564 52.54L135.944 50.6C136.117 50.6533 136.27 50.6867 136.404 50.7C136.524 50.7267 136.657 50.74 136.804 50.74C137.244 50.74 137.55 50.6133 137.724 50.36C137.91 50.1067 138.004 49.72 138.004 49.2V38.18H140.144V49.42C140.144 50.4333 139.87 51.24 139.324 51.84C138.777 52.44 137.997 52.74 136.984 52.74C136.757 52.74 136.544 52.7267 136.344 52.7C136.13 52.6733 135.87 52.62 135.564 52.54ZM139.084 36.02C138.697 36.02 138.37 35.8867 138.104 35.62C137.837 35.3533 137.704 35.0333 137.704 34.66C137.704 34.2867 137.837 33.9667 138.104 33.7C138.37 33.4333 138.697 33.3 139.084 33.3C139.444 33.3 139.757 33.4333 140.024 33.7C140.29 33.9667 140.424 34.2867 140.424 34.66C140.424 35.0333 140.29 35.3533 140.024 35.62C139.757 35.8867 139.444 36.02 139.084 36.02ZM142.009 45.08H144.049C144.062 45.5467 144.235 45.9133 144.569 46.18C144.902 46.4467 145.362 46.58 145.949 46.58C146.562 46.58 147.035 46.46 147.369 46.22C147.702 45.98 147.869 45.6667 147.869 45.28C147.869 44.9867 147.782 44.7467 147.609 44.56C147.435 44.36 147.109 44.2 146.629 44.08L144.869 43.68C144.002 43.4667 143.349 43.14 142.909 42.7C142.482 42.26 142.269 41.66 142.269 40.9C142.269 40.2733 142.429 39.74 142.749 39.3C143.082 38.8467 143.535 38.5 144.109 38.26C144.682 38.0067 145.335 37.88 146.069 37.88C146.802 37.88 147.442 38.0133 147.989 38.28C148.535 38.5333 148.962 38.8933 149.269 39.36C149.575 39.8267 149.729 40.38 149.729 41.02H147.689C147.675 40.5533 147.522 40.1867 147.229 39.92C146.935 39.6533 146.522 39.52 145.989 39.52C145.469 39.52 145.062 39.64 144.769 39.88C144.475 40.1067 144.329 40.42 144.329 40.82C144.329 41.42 144.775 41.8333 145.669 42.06L147.429 42.46C148.255 42.6467 148.875 42.9533 149.289 43.38C149.702 43.7933 149.909 44.3733 149.909 45.12C149.909 45.7467 149.735 46.3 149.389 46.78C149.055 47.26 148.589 47.6267 147.989 47.88C147.389 48.1333 146.689 48.26 145.889 48.26C144.702 48.26 143.755 47.9667 143.049 47.38C142.355 46.7933 142.009 46.0267 142.009 45.08Z" fill="#0F172A"/>
<defs>
<clipPath id="clip0_710_15120">
<rect width="48" height="26" fill="white" transform="translate(16 27)"/>
</clipPath>
</defs>
</svg>
