<svg width="192" height="80" viewBox="0 0 192 80" fill="none" xmlns="http://www.w3.org/2000/svg">
<rect width="80" height="80" rx="40" fill="#F8FAFC"/>
<g clip-path="url(#clip0_710_15090)">
<path d="M16.3124 43.8645V38.5105H22.9821V38.1974H16.3124V33.3131H23.4038V33H16V44.1776H23.4663V43.8645H16.3124ZM29.48 36.131L26.7153 39.7786L24.013 36.131H23.6069L26.5278 40.0134L23.3257 44.1776H23.7006L26.7153 40.2482L29.7455 44.1776H30.136L26.9183 40.0134L29.8549 36.131H29.48ZM31.0732 46.9328V41.9233H31.1045C31.2919 42.6538 31.6616 43.2409 32.2135 43.6844C32.7654 44.128 33.4683 44.3498 34.3222 44.3498C34.8741 44.3498 35.3635 44.2376 35.7904 44.0132C36.2174 43.7888 36.574 43.4835 36.8604 43.0974C37.1468 42.7112 37.3654 42.2625 37.5164 41.7511C37.6674 41.2397 37.7429 40.7022 37.7429 40.1386C37.7429 39.5333 37.6648 38.9749 37.5086 38.4635C37.3524 37.9522 37.1259 37.5086 36.8292 37.1329C36.5324 36.7572 36.1731 36.4649 35.7514 36.2562C35.3296 36.0475 34.8532 35.9431 34.3222 35.9431C33.916 35.9431 33.5386 36.0031 33.1897 36.1231C32.8409 36.2432 32.5311 36.4128 32.2603 36.6319C31.9896 36.8511 31.7553 37.1094 31.5574 37.4068C31.3596 37.7043 31.2086 38.0304 31.1045 38.3853H31.0732V36.131H30.7608V46.9328H31.0732ZM34.3222 44.0523C33.3433 44.0523 32.5571 43.7158 31.9636 43.0426C31.37 42.3694 31.0732 41.4014 31.0732 40.1386C31.0732 39.6168 31.1461 39.1211 31.2919 38.6514C31.4377 38.1818 31.6486 37.7695 31.9245 37.4147C32.2005 37.0598 32.5415 36.778 32.9476 36.5693C33.3537 36.3606 33.8119 36.2562 34.3222 36.2562C34.8428 36.2562 35.2984 36.3606 35.6889 36.5693C36.0794 36.778 36.4022 37.0624 36.6573 37.4225C36.9125 37.7826 37.1051 38.1948 37.2353 38.6592C37.3654 39.1237 37.4305 39.6168 37.4305 40.1386C37.4305 40.6083 37.3706 41.0753 37.2509 41.5397C37.1311 42.0042 36.9463 42.4216 36.6964 42.7921C36.4465 43.1626 36.1263 43.4653 35.7358 43.7001C35.3453 43.9349 34.8741 44.0523 34.3222 44.0523ZM39.4611 44.1776V39.622C39.4611 39.1837 39.5236 38.7558 39.6486 38.3383C39.7735 37.9208 39.9662 37.553 40.2265 37.2346C40.4868 36.9163 40.8174 36.6658 41.2184 36.4832C41.6193 36.3006 42.0957 36.2249 42.6476 36.2562V35.9431C42.1686 35.9327 41.7494 35.9849 41.3902 36.0997C41.0309 36.2145 40.7211 36.371 40.4608 36.5693C40.2005 36.7676 39.9922 36.9998 39.836 37.2659C39.6798 37.5321 39.5652 37.8165 39.4924 38.1191H39.4611V36.131H39.1487V44.1776H39.4611ZM43.0381 40.2169H49.7546C49.7755 39.6637 49.7208 39.1315 49.5906 38.6201C49.4605 38.1087 49.2522 37.6547 48.9658 37.2581C48.6795 36.8615 48.3098 36.5432 47.8568 36.3032C47.4038 36.0631 46.865 35.9431 46.2402 35.9431C45.7924 35.9431 45.355 36.037 44.9281 36.2249C44.5011 36.4128 44.1263 36.6867 43.8034 37.0468C43.4806 37.4068 43.2203 37.8478 43.0225 38.3696C42.8246 38.8914 42.7257 39.4863 42.7257 40.1543C42.7257 40.7492 42.7934 41.3049 42.9287 41.8215C43.0641 42.3381 43.2724 42.7869 43.5535 43.1678C43.8347 43.5488 44.1965 43.8436 44.6391 44.0523C45.0817 44.2611 45.6154 44.3602 46.2402 44.3498C47.1565 44.3498 47.9271 44.0915 48.5519 43.5749C49.1767 43.0582 49.5464 42.3303 49.6609 41.391H49.3485C49.2131 42.2781 48.8669 42.9434 48.3098 43.387C47.7527 43.8306 47.0524 44.0523 46.2089 44.0523C45.6362 44.0523 45.152 43.9532 44.7563 43.7549C44.3606 43.5566 44.0377 43.2852 43.7878 42.9408C43.5379 42.5964 43.3531 42.192 43.2333 41.7276C43.1136 41.2632 43.0485 40.7596 43.0381 40.2169ZM49.4422 39.9038H43.0381C43.0693 39.3402 43.1734 38.834 43.3505 38.3853C43.5275 37.9365 43.7592 37.553 44.0456 37.2346C44.3319 36.9163 44.6651 36.6737 45.0452 36.5067C45.4253 36.3397 45.834 36.2562 46.2714 36.2562C46.7921 36.2562 47.2502 36.3527 47.6459 36.5458C48.0417 36.7389 48.3723 37.0024 48.6378 37.3364C48.9034 37.6704 49.1038 38.0591 49.2392 38.5027C49.3746 38.9462 49.4422 39.4133 49.4422 39.9038ZM56.2369 38.5105H56.5493C56.5493 37.613 56.289 36.9607 55.7683 36.5537C55.2476 36.1466 54.5395 35.9431 53.644 35.9431C53.1442 35.9431 52.7224 36.0057 52.3788 36.131C52.0351 36.2562 51.754 36.418 51.5353 36.6163C51.3166 36.8146 51.1604 37.0337 51.0667 37.2738C50.973 37.5138 50.9261 37.7434 50.9261 37.9626C50.9261 38.4009 51.0042 38.7506 51.1604 39.0115C51.3166 39.2724 51.5613 39.4759 51.8946 39.622C52.1237 39.7264 52.384 39.8203 52.6756 39.9038C52.9671 39.9873 53.3056 40.076 53.6909 40.1699C54.0345 40.2534 54.3729 40.3369 54.7062 40.4204C55.0394 40.5039 55.3335 40.6161 55.5887 40.757C55.8438 40.8979 56.0521 41.0779 56.2135 41.2971C56.3749 41.5162 56.4556 41.8032 56.4556 42.1581C56.4556 42.5025 56.3749 42.7947 56.2135 43.0348C56.0521 43.2748 55.8464 43.4705 55.5965 43.6218C55.3466 43.7732 55.068 43.8827 54.7608 43.9506C54.4536 44.0184 54.1542 44.0523 53.8627 44.0523C52.9151 44.0523 52.1887 43.841 51.6837 43.4183C51.1787 42.9956 50.9261 42.3303 50.9261 41.4223H50.6137C50.6137 42.4347 50.8871 43.1757 51.4338 43.6453C51.9805 44.115 52.7901 44.3498 53.8627 44.3498C54.2063 44.3498 54.5526 44.3106 54.9014 44.2324C55.2502 44.1541 55.5626 44.0262 55.8386 43.8488C56.1145 43.6714 56.3384 43.4418 56.5103 43.16C56.6821 42.8782 56.768 42.5338 56.768 42.1268C56.768 41.7406 56.6925 41.4275 56.5415 41.1875C56.3905 40.9474 56.1926 40.7492 55.9479 40.5926C55.7032 40.4361 55.4273 40.3134 55.1201 40.2247C54.8129 40.136 54.5031 40.0499 54.1907 39.9664C53.7533 39.8516 53.3706 39.7525 53.0426 39.669C52.7146 39.5855 52.41 39.4863 52.1289 39.3715C51.8581 39.2567 51.642 39.0924 51.4806 38.8784C51.3192 38.6644 51.2385 38.3592 51.2385 37.9626C51.2385 37.8895 51.2594 37.7591 51.301 37.5712C51.3427 37.3834 51.4416 37.1929 51.5978 36.9998C51.754 36.8067 51.9935 36.6345 52.3163 36.4832C52.6391 36.3319 53.0817 36.2562 53.644 36.2562C54.0293 36.2562 54.3807 36.298 54.6983 36.3814C55.0159 36.4649 55.2893 36.598 55.5184 36.7806C55.7475 36.9633 55.9245 37.1955 56.0495 37.4773C56.1744 37.7591 56.2369 38.1035 56.2369 38.5105ZM63.4689 38.5105H63.7813C63.7813 37.613 63.521 36.9607 63.0003 36.5537C62.4797 36.1466 61.7716 35.9431 60.876 35.9431C60.3762 35.9431 59.9544 36.0057 59.6108 36.131C59.2672 36.2562 58.986 36.418 58.7673 36.6163C58.5486 36.8146 58.3925 37.0337 58.2987 37.2738C58.205 37.5138 58.1582 37.7434 58.1582 37.9626C58.1582 38.4009 58.2362 38.7506 58.3924 39.0115C58.5486 39.2724 58.7934 39.4759 59.1266 39.622C59.3557 39.7264 59.616 39.8203 59.9076 39.9038C60.1992 39.9873 60.5376 40.076 60.9229 40.1699C61.2665 40.2534 61.6049 40.3369 61.9382 40.4204C62.2714 40.5039 62.5656 40.6161 62.8207 40.757C63.0758 40.8979 63.2841 41.0779 63.4455 41.2971C63.6069 41.5162 63.6876 41.8032 63.6876 42.1581C63.6876 42.5025 63.6069 42.7947 63.4455 43.0348C63.2841 43.2748 63.0784 43.4705 62.8285 43.6218C62.5786 43.7732 62.3 43.8827 61.9928 43.9506C61.6856 44.0184 61.3863 44.0523 61.0947 44.0523C60.1471 44.0523 59.4208 43.841 58.9157 43.4183C58.4107 42.9956 58.1582 42.3303 58.1582 41.4223H57.8458C57.8458 42.4347 58.1191 43.1757 58.6658 43.6453C59.2125 44.115 60.0221 44.3498 61.0947 44.3498C61.4383 44.3498 61.7846 44.3106 62.1334 44.2324C62.4823 44.1541 62.7947 44.0262 63.0706 43.8488C63.3466 43.6714 63.5705 43.4418 63.7423 43.16C63.9141 42.8782 64 42.5338 64 42.1268C64 41.7406 63.9245 41.4275 63.7735 41.1875C63.6225 40.9474 63.4247 40.7492 63.18 40.5926C62.9352 40.4361 62.6593 40.3134 62.3521 40.2247C62.0449 40.136 61.7351 40.0499 61.4227 39.9664C60.9854 39.8516 60.6027 39.7525 60.2747 39.669C59.9466 39.5855 59.642 39.4863 59.3609 39.3715C59.0901 39.2567 58.8741 39.0924 58.7127 38.8784C58.5513 38.6644 58.4705 38.3592 58.4705 37.9626C58.4705 37.8895 58.4914 37.7591 58.533 37.5712C58.5747 37.3834 58.6736 37.1929 58.8298 36.9998C58.986 36.8067 59.2255 36.6345 59.5483 36.4832C59.8711 36.3319 60.3137 36.2562 60.876 36.2562C61.2613 36.2562 61.6128 36.298 61.9304 36.3814C62.248 36.4649 62.5213 36.598 62.7504 36.7806C62.9795 36.9633 63.1565 37.1955 63.2815 37.4773C63.4064 37.7591 63.4689 38.1035 63.4689 38.5105Z" fill="#222222"/>
</g>
<path d="M106.6 48H97.66V33.46H106.6V35.54H99.02L99.92 34.74V39.68H105.92V41.68H99.92V46.72L99.02 45.92H106.6V48ZM110.438 48H107.958L111.378 43.16L107.958 38.18H110.478L112.798 41.68L115.078 38.18H117.498L114.118 43.14L117.438 48H114.938L112.658 44.58L110.438 48ZM119.019 52.48V38.18H120.979L121.139 39.8C121.446 39.1733 121.906 38.7 122.519 38.38C123.146 38.0467 123.839 37.88 124.599 37.88C125.533 37.88 126.339 38.0933 127.019 38.52C127.713 38.9467 128.246 39.5467 128.619 40.32C129.006 41.08 129.199 41.9733 129.199 43C129.199 44 129.019 44.9 128.659 45.7C128.299 46.4867 127.779 47.1133 127.099 47.58C126.419 48.0333 125.593 48.26 124.619 48.26C123.846 48.26 123.153 48.1133 122.539 47.82C121.939 47.5133 121.479 47.0867 121.159 46.54V52.48H119.019ZM121.179 43.08C121.179 43.7067 121.299 44.2667 121.539 44.76C121.779 45.2533 122.119 45.64 122.559 45.92C122.999 46.1867 123.519 46.32 124.119 46.32C124.733 46.32 125.253 46.18 125.679 45.9C126.106 45.62 126.433 45.24 126.659 44.76C126.899 44.2667 127.019 43.7067 127.019 43.08C127.019 42.4533 126.899 41.9 126.659 41.42C126.433 40.9267 126.106 40.5467 125.679 40.28C125.253 40 124.733 39.86 124.119 39.86C123.519 39.86 122.999 40 122.559 40.28C122.119 40.5467 121.779 40.92 121.539 41.4C121.299 41.88 121.179 42.44 121.179 43.08ZM137.087 38.12V40.1H136.227C135.333 40.1 134.627 40.3467 134.107 40.84C133.6 41.3333 133.347 42.06 133.347 43.02V48H131.207V38.18H133.227L133.407 40.2H133.207C133.34 39.5467 133.653 39.0133 134.147 38.6C134.64 38.1867 135.28 37.98 136.067 37.98C136.227 37.98 136.387 37.9933 136.547 38.02C136.72 38.0333 136.9 38.0667 137.087 38.12ZM142.792 48.26C141.819 48.26 140.959 48.04 140.212 47.6C139.479 47.16 138.899 46.5533 138.472 45.78C138.059 44.9933 137.852 44.0933 137.852 43.08C137.852 42.0533 138.052 41.1533 138.452 40.38C138.866 39.6067 139.439 39 140.172 38.56C140.906 38.1067 141.752 37.88 142.712 37.88C143.672 37.88 144.499 38.0867 145.192 38.5C145.899 38.9 146.446 39.4733 146.832 40.22C147.232 40.9533 147.432 41.82 147.432 42.82V43.54L138.992 43.56L139.032 42.16H145.272C145.272 41.4 145.039 40.8 144.572 40.36C144.119 39.9067 143.499 39.68 142.712 39.68C142.112 39.68 141.599 39.8067 141.172 40.06C140.759 40.3133 140.439 40.6933 140.212 41.2C139.999 41.6933 139.892 42.3 139.892 43.02C139.892 44.14 140.139 44.9933 140.632 45.58C141.139 46.1667 141.872 46.46 142.832 46.46C143.526 46.46 144.099 46.3267 144.552 46.06C145.006 45.7933 145.299 45.4 145.432 44.88H147.452C147.226 45.9333 146.699 46.76 145.872 47.36C145.059 47.96 144.032 48.26 142.792 48.26ZM148.688 45.08H150.728C150.742 45.5467 150.915 45.9133 151.248 46.18C151.582 46.4467 152.042 46.58 152.628 46.58C153.242 46.58 153.715 46.46 154.048 46.22C154.382 45.98 154.548 45.6667 154.548 45.28C154.548 44.9867 154.462 44.7467 154.288 44.56C154.115 44.36 153.788 44.2 153.308 44.08L151.548 43.68C150.682 43.4667 150.028 43.14 149.588 42.7C149.162 42.26 148.948 41.66 148.948 40.9C148.948 40.2733 149.108 39.74 149.428 39.3C149.762 38.8467 150.215 38.5 150.788 38.26C151.362 38.0067 152.015 37.88 152.748 37.88C153.482 37.88 154.122 38.0133 154.668 38.28C155.215 38.5333 155.642 38.8933 155.948 39.36C156.255 39.8267 156.408 40.38 156.408 41.02H154.368C154.355 40.5533 154.202 40.1867 153.908 39.92C153.615 39.6533 153.202 39.52 152.668 39.52C152.148 39.52 151.742 39.64 151.448 39.88C151.155 40.1067 151.008 40.42 151.008 40.82C151.008 41.42 151.455 41.8333 152.348 42.06L154.108 42.46C154.935 42.6467 155.555 42.9533 155.968 43.38C156.382 43.7933 156.588 44.3733 156.588 45.12C156.588 45.7467 156.415 46.3 156.068 46.78C155.735 47.26 155.268 47.6267 154.668 47.88C154.068 48.1333 153.368 48.26 152.568 48.26C151.382 48.26 150.435 47.9667 149.728 47.38C149.035 46.7933 148.688 46.0267 148.688 45.08ZM157.79 45.08H159.83C159.843 45.5467 160.017 45.9133 160.35 46.18C160.683 46.4467 161.143 46.58 161.73 46.58C162.343 46.58 162.817 46.46 163.15 46.22C163.483 45.98 163.65 45.6667 163.65 45.28C163.65 44.9867 163.563 44.7467 163.39 44.56C163.217 44.36 162.89 44.2 162.41 44.08L160.65 43.68C159.783 43.4667 159.13 43.14 158.69 42.7C158.263 42.26 158.05 41.66 158.05 40.9C158.05 40.2733 158.21 39.74 158.53 39.3C158.863 38.8467 159.317 38.5 159.89 38.26C160.463 38.0067 161.117 37.88 161.85 37.88C162.583 37.88 163.223 38.0133 163.77 38.28C164.317 38.5333 164.743 38.8933 165.05 39.36C165.357 39.8267 165.51 40.38 165.51 41.02H163.47C163.457 40.5533 163.303 40.1867 163.01 39.92C162.717 39.6533 162.303 39.52 161.77 39.52C161.25 39.52 160.843 39.64 160.55 39.88C160.257 40.1067 160.11 40.42 160.11 40.82C160.11 41.42 160.557 41.8333 161.45 42.06L163.21 42.46C164.037 42.6467 164.657 42.9533 165.07 43.38C165.483 43.7933 165.69 44.3733 165.69 45.12C165.69 45.7467 165.517 46.3 165.17 46.78C164.837 47.26 164.37 47.6267 163.77 47.88C163.17 48.1333 162.47 48.26 161.67 48.26C160.483 48.26 159.537 47.9667 158.83 47.38C158.137 46.7933 157.79 46.0267 157.79 45.08ZM169.113 48.24C168.687 48.24 168.32 48.0933 168.013 47.8C167.72 47.5067 167.573 47.16 167.573 46.76C167.573 46.3333 167.72 45.9733 168.013 45.68C168.32 45.3867 168.687 45.24 169.113 45.24C169.527 45.24 169.88 45.3867 170.173 45.68C170.48 45.9733 170.633 46.3333 170.633 46.76C170.633 47.16 170.48 47.5067 170.173 47.8C169.88 48.0933 169.527 48.24 169.113 48.24ZM170.817 52.54L171.197 50.6C171.371 50.6533 171.524 50.6867 171.657 50.7C171.777 50.7267 171.911 50.74 172.058 50.74C172.498 50.74 172.804 50.6133 172.978 50.36C173.164 50.1067 173.257 49.72 173.257 49.2V38.18H175.398V49.42C175.398 50.4333 175.124 51.24 174.577 51.84C174.031 52.44 173.251 52.74 172.238 52.74C172.011 52.74 171.797 52.7267 171.597 52.7C171.384 52.6733 171.124 52.62 170.817 52.54ZM174.338 36.02C173.951 36.02 173.624 35.8867 173.358 35.62C173.091 35.3533 172.958 35.0333 172.958 34.66C172.958 34.2867 173.091 33.9667 173.358 33.7C173.624 33.4333 173.951 33.3 174.338 33.3C174.698 33.3 175.011 33.4333 175.278 33.7C175.544 33.9667 175.678 34.2867 175.678 34.66C175.678 35.0333 175.544 35.3533 175.278 35.62C175.011 35.8867 174.698 36.02 174.338 36.02ZM177.263 45.08H179.303C179.316 45.5467 179.489 45.9133 179.823 46.18C180.156 46.4467 180.616 46.58 181.203 46.58C181.816 46.58 182.289 46.46 182.623 46.22C182.956 45.98 183.123 45.6667 183.123 45.28C183.123 44.9867 183.036 44.7467 182.863 44.56C182.689 44.36 182.363 44.2 181.883 44.08L180.123 43.68C179.256 43.4667 178.603 43.14 178.163 42.7C177.736 42.26 177.523 41.66 177.523 40.9C177.523 40.2733 177.683 39.74 178.003 39.3C178.336 38.8467 178.789 38.5 179.363 38.26C179.936 38.0067 180.589 37.88 181.323 37.88C182.056 37.88 182.696 38.0133 183.243 38.28C183.789 38.5333 184.216 38.8933 184.523 39.36C184.829 39.8267 184.983 40.38 184.983 41.02H182.943C182.929 40.5533 182.776 40.1867 182.483 39.92C182.189 39.6533 181.776 39.52 181.243 39.52C180.723 39.52 180.316 39.64 180.023 39.88C179.729 40.1067 179.583 40.42 179.583 40.82C179.583 41.42 180.029 41.8333 180.923 42.06L182.683 42.46C183.509 42.6467 184.129 42.9533 184.543 43.38C184.956 43.7933 185.163 44.3733 185.163 45.12C185.163 45.7467 184.989 46.3 184.643 46.78C184.309 47.26 183.843 47.6267 183.243 47.88C182.643 48.1333 181.943 48.26 181.143 48.26C179.956 48.26 179.009 47.9667 178.303 47.38C177.609 46.7933 177.263 46.0267 177.263 45.08Z" fill="#0F172A"/>
<defs>
<clipPath id="clip0_710_15090">
<rect width="48" height="14" fill="white" transform="translate(16 33)"/>
</clipPath>
</defs>
</svg>
