<svg width="192" height="80" viewBox="0 0 192 80" fill="none" xmlns="http://www.w3.org/2000/svg">
<rect width="80" height="80" rx="40" fill="#F8FAFC"/>
<g clip-path="url(#clip0_766_24545)">
<path d="M24.5 17H55.5C60.2 17 64 20.8162 64 25.5363V55.4637C64 60.1838 60.2 64 55.5 64H24.5C19.8 64 16 60.1838 16 55.4637V25.5363C16 20.8162 19.8 17 24.5 17Z" fill="#470137"/>
<path d="M41.24 29.3526L35.24 39.2949L41.64 49.8398C41.68 49.9201 41.7 50.0005 41.68 50.0808C41.66 50.1612 41.58 50.1009 41.46 50.121H36.88C36.56 50.121 36.34 50.1009 36.2 49.9001C35.78 49.0565 35.34 48.233 34.92 47.3894C34.5 46.5659 34.04 45.7223 33.56 44.8586C33.08 43.9949 32.6 43.1313 32.12 42.2475H32.08C31.66 43.1112 31.2 43.9748 30.74 44.8385C30.28 45.7022 29.82 46.5659 29.38 47.4095C28.92 48.253 28.46 49.1167 28 49.9402C27.92 50.1411 27.76 50.1612 27.54 50.1612H23.14C23.06 50.1612 23 50.2013 23 50.1009C22.98 50.0206 23 49.9402 23.04 49.88L29.26 39.6364L23.2 29.3325C23.14 29.2522 23.12 29.1719 23.16 29.1317C23.2 29.0714 23.28 29.0513 23.36 29.0513H27.9C28 29.0513 28.1 29.0714 28.18 29.0915C28.26 29.1317 28.32 29.1919 28.38 29.2723C28.76 30.136 29.2 30.9996 29.66 31.8633C30.14 32.727 30.6 33.5706 31.1 34.4142C31.58 35.2577 32.02 36.1013 32.44 36.965H32.48C32.9 36.0813 33.34 35.2176 33.78 34.374C34.22 33.5304 34.68 32.6868 35.14 31.8432C35.6 30.9996 36.04 30.136 36.48 29.3124C36.5 29.2321 36.54 29.1518 36.6 29.1116C36.68 29.0714 36.76 29.0513 36.86 29.0714H41.08C41.18 29.0513 41.28 29.1116 41.3 29.212C41.32 29.2321 41.28 29.3125 41.24 29.3526ZM50.48 50.5428C49 50.5629 47.52 50.2616 46.18 49.6389C44.92 49.0565 43.88 48.0924 43.16 46.9073C42.42 45.6821 42.06 44.1556 42.06 42.3278C42.04 40.8415 42.42 39.3753 43.16 38.0898C43.92 36.7842 45.02 35.6996 46.34 34.9766C47.74 34.1932 49.42 33.8116 51.4 33.8116C51.5 33.8116 51.64 33.8116 51.82 33.8317C52 33.8518 52.2 33.8518 52.44 33.8719V27.5248C52.44 27.3842 52.5 27.3039 52.64 27.3039H56.7C56.8 27.2838 56.88 27.3642 56.9 27.4445V46.606C56.9 46.9676 56.92 47.3693 56.94 47.8112C56.98 48.233 57 48.6347 57.02 48.9761C57.02 49.1167 56.96 49.2372 56.82 49.2975C55.78 49.7394 54.68 50.0607 53.56 50.2616C52.54 50.4424 51.52 50.5428 50.48 50.5428ZM52.44 46.5257V37.6881C52.26 37.6479 52.08 37.6077 51.9 37.5877C51.68 37.5676 51.46 37.5475 51.24 37.5475C50.46 37.5475 49.68 37.7082 48.98 38.0697C48.3 38.4112 47.72 38.9133 47.28 39.556C46.84 40.1988 46.62 41.0625 46.62 42.1069C46.6 42.8099 46.72 43.5129 46.96 44.1757C47.16 44.718 47.46 45.2001 47.86 45.6018C48.24 45.9633 48.7 46.2445 49.22 46.4052C49.76 46.586 50.32 46.6663 50.88 46.6663C51.18 46.6663 51.46 46.6462 51.72 46.6261C51.98 46.6462 52.2 46.606 52.44 46.5257Z" fill="#FF61F6"/>
</g>
<path d="M101.3 40.74L96.4 33.46H99.08L101.1 36.38C101.407 36.8333 101.687 37.2733 101.94 37.7C102.193 38.1267 102.44 38.5667 102.68 39.02L106.3 33.46H108.92L104.12 40.72L108.96 48H106.28L104.36 45.2C104.053 44.76 103.767 44.3133 103.5 43.86C103.233 43.4067 102.967 42.94 102.7 42.46L98.98 48H96.32L101.3 40.74ZM115.922 48H110.922V33.46H115.822C117.262 33.46 118.528 33.7667 119.622 34.38C120.715 34.9933 121.562 35.8467 122.162 36.94C122.775 38.0333 123.082 39.3067 123.082 40.76C123.082 42.1867 122.782 43.4467 122.182 44.54C121.582 45.62 120.742 46.4667 119.662 47.08C118.595 47.6933 117.348 48 115.922 48ZM113.182 34.5V46.98L112.102 45.92H115.742C116.768 45.92 117.648 45.7133 118.382 45.3C119.128 44.8733 119.702 44.2733 120.102 43.5C120.515 42.7267 120.722 41.8133 120.722 40.76C120.722 39.68 120.515 38.7533 120.102 37.98C119.688 37.1933 119.102 36.5933 118.342 36.18C117.595 35.7533 116.695 35.54 115.642 35.54H112.102L113.182 34.5Z" fill="#0F172A"/>
<defs>
<clipPath id="clip0_766_24545">
<rect width="48" height="47" fill="white" transform="translate(16 17)"/>
</clipPath>
</defs>
</svg>
