<svg width="192" height="80" viewBox="0 0 192 80" fill="none" xmlns="http://www.w3.org/2000/svg">
<rect width="80" height="80" rx="40" fill="#F8FAFC"/>
<g clip-path="url(#clip0_710_15110)">
<g clip-path="url(#clip1_710_15110)">
<path d="M44.2629 16C43.9159 16 43.5936 16.0747 43.2961 16.1742C43.9283 16.5973 44.2753 17.1574 44.4489 17.792C44.4613 17.8791 44.4861 17.9414 44.4985 18.0285C44.5109 18.1032 44.5233 18.1778 44.5233 18.2525C44.5729 19.3476 44.2382 19.4845 44.0026 20.1316C43.6431 20.9654 43.7423 21.8614 44.1762 22.5832C44.2134 22.6704 44.263 22.7699 44.3249 22.857C43.8539 19.7085 46.4695 19.2356 46.9529 18.2525C46.9901 17.3938 46.2835 16.8213 45.7257 16.4231C45.1927 16.0996 44.7092 16 44.2629 16ZM48.2049 16.7093C48.1553 16.9956 48.1925 16.9209 48.1801 17.0702C48.1677 17.1698 48.1677 17.2942 48.1554 17.3938C48.1306 17.4934 48.1058 17.5929 48.0686 17.6925C48.0438 17.792 48.0066 17.8916 47.9694 17.9911C47.9198 18.0907 47.8826 18.1778 47.8331 18.2774C47.7959 18.3272 47.7711 18.3769 47.7339 18.4267C47.7091 18.464 47.6843 18.5014 47.6595 18.5387C47.5975 18.6258 47.5356 18.7129 47.4736 18.7876C47.3992 18.8623 47.3372 18.9494 47.2504 19.0116C47.2504 19.0241 47.2504 19.0241 47.2504 19.0241C47.1761 19.0863 47.1017 19.161 47.0149 19.2232C46.7546 19.4223 46.4571 19.5716 46.1844 19.7583C46.0976 19.8205 46.0108 19.8703 45.9365 19.945C45.8497 20.0072 45.7753 20.0694 45.7009 20.1441C45.6142 20.2188 45.5522 20.2934 45.4778 20.3805C45.4158 20.4552 45.3414 20.5423 45.2919 20.6294C45.2299 20.7166 45.1679 20.8037 45.1183 20.8908C45.0687 20.9903 45.0315 21.0774 44.982 21.177C44.9448 21.2766 44.9076 21.3637 44.8828 21.4632C44.8456 21.5752 44.8208 21.6748 44.796 21.7744C44.7836 21.8242 44.7836 21.8864 44.7712 21.9361C44.7588 21.9859 44.7588 22.0357 44.7465 22.0855C44.7465 22.185 44.7341 22.297 44.7341 22.3966C44.7341 22.4713 44.7341 22.5459 44.7465 22.6206C44.7465 22.7201 44.7589 22.8197 44.7837 22.9317C44.7961 23.0313 44.8208 23.1308 44.8456 23.2304C44.8828 23.3299 44.9076 23.4295 44.9448 23.5291C44.9696 23.5913 45.0068 23.6535 45.0316 23.7033L42.1805 22.5957C41.697 22.4588 41.226 22.3344 40.7425 22.2224C40.4822 22.1601 40.2219 22.0979 39.9616 22.0357C39.2178 21.8864 38.4617 21.7744 37.7055 21.6997C37.6807 21.6997 37.6683 21.6872 37.6435 21.6872C36.8998 21.6126 36.1684 21.5752 35.4246 21.5752C34.8792 21.5752 34.3338 21.6001 33.8007 21.6374C33.0446 21.6872 32.2884 21.7868 31.5323 21.9112C31.3463 21.9361 31.1604 21.9735 30.9744 22.0108C30.5902 22.0855 30.2183 22.1726 29.8588 22.2597C29.6728 22.3095 29.4869 22.3592 29.301 22.409C29.115 22.4837 28.9415 22.5708 28.7679 22.6455C28.6316 22.7077 28.4952 22.7699 28.3589 22.8321C28.3341 22.8446 28.3093 22.8446 28.2969 22.857C28.1729 22.9192 28.0614 22.969 27.9498 23.0312C27.9126 23.0437 27.8878 23.0561 27.863 23.0686C27.7267 23.1308 27.5903 23.2055 27.4787 23.2677C27.392 23.305 27.3052 23.3548 27.2308 23.3921C27.1936 23.417 27.144 23.4419 27.1193 23.4544C27.0077 23.5166 26.8961 23.5788 26.797 23.641C26.6854 23.7032 26.5862 23.7655 26.4995 23.8277C26.4127 23.8899 26.3259 23.9397 26.2515 24.0019C26.2391 24.0144 26.2268 24.0144 26.2143 24.0268C26.14 24.0766 26.0532 24.1388 25.9788 24.201C25.9788 24.201 25.9664 24.2135 25.954 24.2259C25.8921 24.2757 25.8301 24.3254 25.7681 24.3752C25.7433 24.3877 25.7185 24.4125 25.6937 24.425C25.6317 24.4748 25.5698 24.537 25.5078 24.5868C25.4954 24.6117 25.4706 24.6241 25.4582 24.6366C25.3838 24.7113 25.3094 24.7735 25.2351 24.8482C25.2226 24.8482 25.2226 24.8606 25.2103 24.873C25.1359 24.9352 25.0615 25.0099 24.9872 25.0846C24.9747 25.097 24.9747 25.1095 24.9624 25.1095C24.9004 25.1717 24.8384 25.2339 24.7764 25.3086C24.7517 25.3334 24.7145 25.3584 24.6897 25.3832C24.6277 25.4579 24.5533 25.5326 24.4789 25.6072C24.4665 25.6321 24.4417 25.6446 24.4293 25.6695C24.3302 25.769 24.2434 25.8686 24.1442 25.9681C24.1318 25.9806 24.1194 25.993 24.107 26.0055C23.9087 26.217 23.698 26.4286 23.4748 26.6153C23.2517 26.8144 23.0162 27.001 22.7807 27.1628C22.5327 27.3371 22.2972 27.4864 22.0369 27.6357C21.789 27.7726 21.5286 27.8971 21.2559 28.0091C20.9956 28.1211 20.7229 28.2206 20.4502 28.3077C19.9296 28.4197 19.3965 28.6313 18.9379 28.6686C18.8387 28.6686 18.7271 28.6935 18.628 28.706C18.5164 28.7308 18.4172 28.7558 18.3181 28.7806C18.2189 28.818 18.1197 28.8553 18.0206 28.8926C17.9214 28.93 17.8222 28.9798 17.7231 29.0295C17.6363 29.0918 17.5371 29.1415 17.4503 29.2038C17.3636 29.266 17.2768 29.3406 17.2024 29.4153C17.1156 29.4775 17.0289 29.5647 16.9545 29.6393C16.8801 29.7264 16.8057 29.8011 16.7438 29.8882C16.6818 29.9878 16.6074 30.0749 16.5578 30.1744C16.4958 30.2616 16.4339 30.3611 16.3843 30.4607C16.3347 30.5727 16.2851 30.6722 16.2479 30.7842C16.2107 30.8838 16.1735 30.9958 16.1364 31.1078C16.1116 31.2073 16.0868 31.3069 16.0744 31.4065C16.0744 31.4189 16.062 31.4313 16.062 31.4438C16.0372 31.5558 16.0372 31.7051 16.0248 31.7798C16.0124 31.8669 16 31.9416 16 32.0287C16 32.0785 16 32.1407 16.0124 32.1905C16.0248 32.2776 16.0372 32.3523 16.062 32.4269C16.0868 32.5016 16.1116 32.5763 16.1488 32.6509C16.1488 32.6634 16.1488 32.6634 16.1488 32.6634C16.186 32.7381 16.2356 32.8127 16.2851 32.8874C16.3347 32.9621 16.3843 33.0367 16.4463 33.1114C16.5083 33.1736 16.5827 33.2483 16.657 33.3105C16.7314 33.3852 16.8058 33.4474 16.8926 33.5096C17.1901 33.771 17.2644 33.8581 17.6487 34.0572C17.7107 34.0945 17.7727 34.1194 17.8471 34.1568C17.8595 34.1568 17.8718 34.1692 17.8842 34.1692C17.8842 34.1941 17.8842 34.2066 17.8967 34.2315C17.9091 34.331 17.9338 34.4306 17.9586 34.5301C17.9834 34.6421 18.0206 34.7417 18.0578 34.8288C18.095 34.9035 18.1198 34.9781 18.157 35.0528C18.1694 35.0777 18.1818 35.1026 18.1942 35.115C18.2438 35.2146 18.2933 35.3017 18.3429 35.3888C18.4049 35.4759 18.4669 35.563 18.5289 35.6501C18.5908 35.7248 18.6652 35.8119 18.7396 35.8866C18.814 35.9613 18.8883 36.0235 18.9751 36.0982C18.9751 36.0982 18.9875 36.1106 18.9999 36.1106C19.0743 36.1729 19.1486 36.2351 19.223 36.2849C19.3098 36.3471 19.3966 36.3969 19.4957 36.4466C19.5825 36.4964 19.6817 36.5462 19.7808 36.5835C19.8552 36.6209 19.942 36.6458 20.0288 36.6706C20.0412 36.6831 20.0535 36.6831 20.0784 36.6955C20.128 36.708 20.1899 36.7204 20.2395 36.7328C20.2023 37.4049 20.1899 38.0395 20.2891 38.2635C20.4007 38.5124 20.9461 37.7533 21.4915 36.8822C21.4172 37.7409 21.3676 38.7489 21.4915 39.0476C21.6279 39.3587 22.3717 38.388 23.0163 37.3177C31.8051 35.2768 39.8253 41.3747 40.6683 49.9864C40.5071 48.6424 38.8584 47.8957 38.1023 48.0824C37.7304 49.0033 37.0982 50.1855 36.0817 50.9198C36.1685 50.0984 36.1313 49.2522 35.9578 48.4308C35.685 49.5758 35.152 50.646 34.4206 51.5669C33.243 51.654 32.0654 51.0816 31.4456 50.2229C31.396 50.1855 31.3836 50.1109 31.3464 50.0611C31.3092 49.974 31.272 49.8869 31.2472 49.7998C31.2101 49.7127 31.1853 49.6255 31.1729 49.5384C31.1605 49.4513 31.1605 49.3642 31.1605 49.2646C31.1605 49.2024 31.1605 49.1402 31.1605 49.078C31.1729 48.9909 31.1976 48.9037 31.2224 48.8166C31.2472 48.7295 31.272 48.6424 31.3092 48.5553C31.3588 48.4682 31.396 48.3811 31.458 48.294C31.6687 47.6966 31.6687 47.2113 31.2844 46.925C31.21 46.8752 31.1357 46.8379 31.0489 46.8006C30.9993 46.7881 30.9373 46.7633 30.8877 46.7508C30.8506 46.7383 30.8258 46.7259 30.7886 46.7135C30.7018 46.6886 30.615 46.6637 30.5283 46.6512C30.4415 46.6264 30.3547 46.6139 30.2679 46.6139C30.1812 46.6014 30.082 46.589 29.9952 46.589C29.9332 46.589 29.8713 46.6015 29.8093 46.6015C29.7101 46.6015 29.6233 46.614 29.5366 46.6388C29.4498 46.6513 29.363 46.6637 29.2762 46.6886C29.1895 46.7135 29.1027 46.7384 29.0159 46.7757C28.9292 46.8131 28.8548 46.8504 28.768 46.8877C28.6936 46.9251 28.6193 46.9749 28.5325 47.0122C25.6442 48.9038 27.3673 53.3341 29.3382 54.6159C28.5945 54.7528 27.8383 54.9146 27.6276 55.0763C27.6152 55.0888 27.6028 55.1012 27.6028 55.1012C28.1358 55.4248 28.6937 55.6986 29.2763 55.935C30.0696 56.1963 30.9125 56.4328 31.2844 56.5324V56.5448C32.3133 56.7564 33.3546 56.831 34.4082 56.7688C39.8997 56.383 44.3995 52.1892 45.2176 46.6637C45.2424 46.7757 45.2672 46.8753 45.292 46.9873C45.3292 47.2113 45.3788 47.4477 45.4036 47.6842C45.4036 47.6842 45.4036 47.6842 45.4036 47.6967C45.4283 47.8087 45.4408 47.9207 45.4532 48.0202C45.4532 48.0451 45.4532 48.0576 45.4532 48.07C45.4656 48.182 45.4779 48.294 45.4779 48.3936C45.4904 48.5305 45.5027 48.6674 45.5027 48.8043C45.5027 48.8665 45.5027 48.9287 45.5027 49.0034C45.5027 49.0656 45.5151 49.1403 45.5151 49.2025C45.5151 49.2772 45.5027 49.3518 45.5027 49.4265C45.5027 49.4887 45.5027 49.551 45.5027 49.6007C45.5027 49.6878 45.4903 49.7625 45.4903 49.8496C45.4903 49.8994 45.4903 49.9492 45.4779 50.0114C45.4779 50.0985 45.4655 50.1856 45.4655 50.2852C45.453 50.3225 45.453 50.3599 45.453 50.3972C45.4406 50.4968 45.4283 50.5839 45.4158 50.6834C45.4158 50.7208 45.4158 50.7581 45.4034 50.7954C45.391 50.9199 45.3662 51.0319 45.3538 51.1563V51.1688V51.1813C45.3291 51.2933 45.3042 51.4177 45.2794 51.5297C45.2794 51.5422 45.2794 51.5546 45.2794 51.567C45.2547 51.679 45.2298 51.791 45.2051 51.903C45.2051 51.9155 45.1927 51.9404 45.1927 51.9528C45.1679 52.0648 45.1431 52.1768 45.1059 52.2889C45.1059 52.3013 45.1059 52.3137 45.1059 52.3262C45.0687 52.4506 45.0315 52.5626 45.0067 52.6746C44.9943 52.6871 44.9943 52.6995 44.9943 52.6995C44.9571 52.824 44.9199 52.9484 44.8827 53.0728C44.8331 53.1973 44.796 53.3093 44.7464 53.4337C44.6968 53.5582 44.6596 53.6826 44.61 53.7946C44.5604 53.9191 44.5109 54.0311 44.4613 54.1555H44.4489C44.3992 54.2675 44.3497 54.392 44.2877 54.504C44.2753 54.5413 44.2629 54.5662 44.2505 54.5911C44.2381 54.6036 44.2381 54.616 44.2257 54.6284C43.42 56.2587 42.23 57.6898 40.7424 58.8098C40.6433 58.8721 40.5441 58.9467 40.4449 59.0214C40.4202 59.0463 40.383 59.0587 40.3582 59.0836C40.2714 59.1458 40.1846 59.2081 40.0855 59.2703L40.1226 59.345H40.1351C40.3086 59.3201 40.4821 59.2952 40.6557 59.2703H40.6681C40.9904 59.2205 41.3127 59.1583 41.635 59.0961C41.7218 59.0836 41.8209 59.0587 41.9077 59.0338C41.9697 59.0214 42.0193 59.009 42.0812 58.9965C42.168 58.984 42.2548 58.9592 42.3416 58.9467C42.4159 58.9218 42.4903 58.9094 42.5647 58.8845C43.8043 58.5858 45.0067 58.1751 46.1596 57.6898C44.1886 60.3903 41.5482 62.5681 38.4616 63.9993C39.8871 63.8997 41.3127 63.6633 42.6887 63.265C47.6843 61.7841 51.8865 58.4116 54.4029 53.8693C53.8947 56.744 52.7543 59.4818 51.0684 61.8712C52.2708 61.0748 53.3741 60.1538 54.3782 59.1085C57.1549 56.1964 58.9771 52.5004 59.5969 48.5305C60.0184 50.4968 60.1423 52.5253 59.9564 54.5289C68.9064 41.9971 60.7002 29.0048 57.2664 25.5825C57.254 25.5576 57.2417 25.5452 57.2417 25.5203C57.2292 25.5328 57.2292 25.5328 57.2292 25.5452C57.2292 25.5327 57.2292 25.5327 57.2168 25.5203C57.2168 25.6696 57.2044 25.819 57.1921 25.9683C57.1549 26.2545 57.1177 26.5283 57.0681 26.8021C57.0061 27.0759 56.9317 27.3497 56.8574 27.6234C56.7706 27.8848 56.6714 28.1586 56.5599 28.4199C56.4483 28.6688 56.3243 28.9301 56.188 29.179C56.0516 29.4155 55.9029 29.6644 55.7417 29.8884C55.5806 30.1248 55.407 30.3488 55.2335 30.5604C55.0475 30.7844 54.8492 30.9835 54.6509 31.1826C54.5269 31.2946 54.4153 31.3942 54.2914 31.4937C54.1922 31.5809 54.1054 31.6555 54.0063 31.7426C53.7831 31.9169 53.56 32.0786 53.3121 32.228C53.0766 32.3773 52.8286 32.5266 52.5807 32.6511C52.3204 32.7755 52.0601 32.8875 51.7998 32.9995C51.5394 33.0991 51.2667 33.1862 50.994 33.2609C50.7213 33.3356 50.4362 33.3978 50.1635 33.4476C49.8784 33.4974 49.5933 33.5222 49.3205 33.5471C49.1222 33.5596 48.9239 33.572 48.7255 33.572C48.4404 33.572 48.1553 33.5471 47.8826 33.5222C47.5975 33.4973 47.3124 33.46 47.0397 33.3977C46.7546 33.3479 46.4818 33.2733 46.2091 33.1862H46.1967C46.4694 33.1613 46.7421 33.1364 47.0149 33.0866C47.3 33.0368 47.5727 32.9746 47.8454 32.8999C48.1181 32.8253 48.3908 32.7382 48.6511 32.6386C48.9239 32.5391 49.1842 32.4146 49.4321 32.2902C49.6924 32.1657 49.9279 32.0288 50.1759 31.8795C50.4114 31.7177 50.6469 31.5559 50.87 31.3817C51.0932 31.2075 51.3039 31.0208 51.5022 30.8217C51.713 30.635 51.8989 30.4235 52.0849 30.2119C52.2708 29.9879 52.4443 29.7639 52.6055 29.5399C52.6303 29.5025 52.6551 29.4528 52.6799 29.4154C52.8038 29.2163 52.9278 29.0172 53.0393 28.8181C53.1757 28.5692 53.2997 28.3203 53.4112 28.059C53.5228 27.7976 53.622 27.5363 53.7087 27.2625C53.7955 27.0012 53.8575 26.7274 53.9195 26.4536C53.9691 26.1674 54.0186 25.8936 54.0434 25.6198C54.0682 25.3336 54.093 25.0474 54.093 24.7736C54.093 24.5745 54.0806 24.3753 54.0683 24.1762C54.0435 23.89 54.0063 23.6162 53.9691 23.3424C53.9195 23.0562 53.8575 22.7824 53.7832 22.5086C53.6964 22.2473 53.6096 21.9735 53.5104 21.7122C53.4113 21.4508 53.2873 21.1895 53.1633 20.9406C53.027 20.6917 52.8906 20.4428 52.7419 20.2064C52.5807 19.9699 52.4196 19.7459 52.246 19.5219C52.0601 19.3104 51.8742 19.0988 51.6758 18.8872C51.5767 18.7877 51.4651 18.6757 51.3535 18.5761C50.7957 18.1406 50.2131 17.7299 49.6305 17.3565C49.5437 17.3067 49.4693 17.2694 49.3826 17.2321C48.9735 16.9708 48.5892 16.8338 48.2049 16.7093Z" fill="#E0234E"/>
</g>
</g>
<path d="M99.88 48H97.66V33.46H99.9L107.68 45.22H107.04V33.46H109.26V48H107.04L99.24 36.26H99.88V48ZM116.562 48.26C115.589 48.26 114.729 48.04 113.982 47.6C113.249 47.16 112.669 46.5533 112.242 45.78C111.829 44.9933 111.622 44.0933 111.622 43.08C111.622 42.0533 111.822 41.1533 112.222 40.38C112.635 39.6067 113.209 39 113.942 38.56C114.675 38.1067 115.522 37.88 116.482 37.88C117.442 37.88 118.269 38.0867 118.962 38.5C119.669 38.9 120.215 39.4733 120.602 40.22C121.002 40.9533 121.202 41.82 121.202 42.82V43.54L112.762 43.56L112.802 42.16H119.042C119.042 41.4 118.809 40.8 118.342 40.36C117.889 39.9067 117.269 39.68 116.482 39.68C115.882 39.68 115.369 39.8067 114.942 40.06C114.529 40.3133 114.209 40.6933 113.982 41.2C113.769 41.6933 113.662 42.3 113.662 43.02C113.662 44.14 113.909 44.9933 114.402 45.58C114.909 46.1667 115.642 46.46 116.602 46.46C117.295 46.46 117.869 46.3267 118.322 46.06C118.775 45.7933 119.069 45.4 119.202 44.88H121.222C120.995 45.9333 120.469 46.76 119.642 47.36C118.829 47.96 117.802 48.26 116.562 48.26ZM122.458 45.08H124.498C124.511 45.5467 124.685 45.9133 125.018 46.18C125.351 46.4467 125.811 46.58 126.398 46.58C127.011 46.58 127.485 46.46 127.818 46.22C128.151 45.98 128.318 45.6667 128.318 45.28C128.318 44.9867 128.231 44.7467 128.058 44.56C127.885 44.36 127.558 44.2 127.078 44.08L125.318 43.68C124.451 43.4667 123.798 43.14 123.358 42.7C122.931 42.26 122.718 41.66 122.718 40.9C122.718 40.2733 122.878 39.74 123.198 39.3C123.531 38.8467 123.985 38.5 124.558 38.26C125.131 38.0067 125.785 37.88 126.518 37.88C127.251 37.88 127.891 38.0133 128.438 38.28C128.985 38.5333 129.411 38.8933 129.718 39.36C130.025 39.8267 130.178 40.38 130.178 41.02H128.138C128.125 40.5533 127.971 40.1867 127.678 39.92C127.385 39.6533 126.971 39.52 126.438 39.52C125.918 39.52 125.511 39.64 125.218 39.88C124.925 40.1067 124.778 40.42 124.778 40.82C124.778 41.42 125.225 41.8333 126.118 42.06L127.878 42.46C128.705 42.6467 129.325 42.9533 129.738 43.38C130.151 43.7933 130.358 44.3733 130.358 45.12C130.358 45.7467 130.185 46.3 129.838 46.78C129.505 47.26 129.038 47.6267 128.438 47.88C127.838 48.1333 127.138 48.26 126.338 48.26C125.151 48.26 124.205 47.9667 123.498 47.38C122.805 46.7933 122.458 46.0267 122.458 45.08ZM131.32 38.18H137.3V39.98H131.32V38.18ZM135.38 48H133.24V35.1H135.38V48ZM139.836 48.24C139.409 48.24 139.043 48.0933 138.736 47.8C138.443 47.5067 138.296 47.16 138.296 46.76C138.296 46.3333 138.443 45.9733 138.736 45.68C139.043 45.3867 139.409 45.24 139.836 45.24C140.249 45.24 140.603 45.3867 140.896 45.68C141.203 45.9733 141.356 46.3333 141.356 46.76C141.356 47.16 141.203 47.5067 140.896 47.8C140.603 48.0933 140.249 48.24 139.836 48.24ZM141.54 52.54L141.92 50.6C142.093 50.6533 142.247 50.6867 142.38 50.7C142.5 50.7267 142.633 50.74 142.78 50.74C143.22 50.74 143.527 50.6133 143.7 50.36C143.887 50.1067 143.98 49.72 143.98 49.2V38.18H146.12V49.42C146.12 50.4333 145.847 51.24 145.3 51.84C144.753 52.44 143.973 52.74 142.96 52.74C142.733 52.74 142.52 52.7267 142.32 52.7C142.107 52.6733 141.847 52.62 141.54 52.54ZM145.06 36.02C144.673 36.02 144.347 35.8867 144.08 35.62C143.813 35.3533 143.68 35.0333 143.68 34.66C143.68 34.2867 143.813 33.9667 144.08 33.7C144.347 33.4333 144.673 33.3 145.06 33.3C145.42 33.3 145.733 33.4333 146 33.7C146.267 33.9667 146.4 34.2867 146.4 34.66C146.4 35.0333 146.267 35.3533 146 35.62C145.733 35.8867 145.42 36.02 145.06 36.02ZM147.985 45.08H150.025C150.039 45.5467 150.212 45.9133 150.545 46.18C150.879 46.4467 151.339 46.58 151.925 46.58C152.539 46.58 153.012 46.46 153.345 46.22C153.679 45.98 153.845 45.6667 153.845 45.28C153.845 44.9867 153.759 44.7467 153.585 44.56C153.412 44.36 153.085 44.2 152.605 44.08L150.845 43.68C149.979 43.4667 149.325 43.14 148.885 42.7C148.459 42.26 148.245 41.66 148.245 40.9C148.245 40.2733 148.405 39.74 148.725 39.3C149.059 38.8467 149.512 38.5 150.085 38.26C150.659 38.0067 151.312 37.88 152.045 37.88C152.779 37.88 153.419 38.0133 153.965 38.28C154.512 38.5333 154.939 38.8933 155.245 39.36C155.552 39.8267 155.705 40.38 155.705 41.02H153.665C153.652 40.5533 153.499 40.1867 153.205 39.92C152.912 39.6533 152.499 39.52 151.965 39.52C151.445 39.52 151.039 39.64 150.745 39.88C150.452 40.1067 150.305 40.42 150.305 40.82C150.305 41.42 150.752 41.8333 151.645 42.06L153.405 42.46C154.232 42.6467 154.852 42.9533 155.265 43.38C155.679 43.7933 155.885 44.3733 155.885 45.12C155.885 45.7467 155.712 46.3 155.365 46.78C155.032 47.26 154.565 47.6267 153.965 47.88C153.365 48.1333 152.665 48.26 151.865 48.26C150.679 48.26 149.732 47.9667 149.025 47.38C148.332 46.7933 147.985 46.0267 147.985 45.08Z" fill="#0F172A"/>
<defs>
<clipPath id="clip0_710_15110">
<rect width="48" height="48" fill="white" transform="translate(16 16)"/>
</clipPath>
<clipPath id="clip1_710_15110">
<rect width="48" height="48" fill="white" transform="translate(16 16)"/>
</clipPath>
</defs>
</svg>
