<svg width="192" height="80" viewBox="0 0 192 80" fill="none" xmlns="http://www.w3.org/2000/svg">
<rect width="80" height="80" rx="40" fill="#F8FAFC"/>
<g clip-path="url(#clip0_766_24560)">
<mask id="mask0_766_24560" style="mask-type:luminance" maskUnits="userSpaceOnUse" x="16" y="17" width="48" height="46">
<path d="M63.4514 17H16V63H63.4514V17Z" fill="white"/>
</mask>
<g mask="url(#mask0_766_24560)">
<path d="M55.0485 17H24.4028C19.7621 17 16 20.7405 16 25.3547V54.6453C16 59.2595 19.7621 63 24.4028 63H55.0485C59.6893 63 63.4514 59.2595 63.4514 54.6453V25.3547C63.4514 20.7405 59.6893 17 55.0485 17Z" fill="#001E36"/>
<path d="M26.6855 49.2579V29.0338C26.6855 28.8865 26.7492 28.8123 26.8766 28.8123C27.2157 28.8123 27.5254 28.8073 27.9925 28.7965C28.4591 28.7861 28.9631 28.7755 29.5045 28.7648C30.0457 28.7544 30.6187 28.7439 31.2235 28.7332C31.8282 28.7227 32.4277 28.7175 33.0219 28.7173C34.6344 28.7173 35.9926 28.9177 37.0963 29.3187C38.0921 29.6536 39.0001 30.2049 39.7544 30.9328C40.3938 31.5637 40.8879 32.325 41.2027 33.1641C41.5005 33.9808 41.6514 34.8432 41.6484 35.7119C41.6484 37.4002 41.2558 38.7928 40.4706 39.8896C39.6802 40.991 38.5692 41.825 37.2874 42.2792C35.9505 42.7752 34.4648 42.9434 32.8309 42.9434C32.3639 42.9434 32.0349 42.9381 31.8441 42.9275C31.6531 42.9171 31.3667 42.9119 30.9847 42.9117V49.2263C30.9903 49.265 30.9867 49.3044 30.9743 49.3415C30.9618 49.3786 30.9409 49.4123 30.9131 49.4399C30.8853 49.4675 30.8514 49.4884 30.8141 49.5007C30.7768 49.5131 30.7371 49.5166 30.6982 49.5111H26.9084C26.7597 49.5111 26.6855 49.427 26.6855 49.2579ZM30.9847 32.6102V39.2065C31.2602 39.2278 31.5149 39.2383 31.7486 39.2381H32.7991C33.572 39.2356 34.3398 39.1137 35.0751 38.8768C35.7057 38.6906 36.2692 38.3281 36.6985 37.8324C37.1123 37.3473 37.3192 36.6721 37.3193 35.8069C37.3361 35.1946 37.1759 34.5905 36.8576 34.0661C36.5231 33.559 36.0396 33.1668 35.473 32.9426C34.7331 32.6566 33.9427 32.5221 33.1492 32.547C32.6399 32.547 32.1889 32.5522 31.7964 32.5627C31.4035 32.5736 31.1329 32.5895 30.9847 32.6102Z" fill="#31A8FF"/>
<path d="M53.9562 38.0071C53.358 37.7015 52.7208 37.478 52.0622 37.3425C51.3364 37.1769 50.5944 37.092 49.8499 37.0893C49.4471 37.0784 49.0449 37.1264 48.6562 37.2317C48.4087 37.2865 48.1888 37.4267 48.0354 37.6273C47.9317 37.7878 47.8764 37.9746 47.8763 38.1654C47.8821 38.3505 47.9492 38.5285 48.0673 38.6718C48.2532 38.888 48.4804 39.0655 48.7357 39.194C49.1895 39.437 49.6572 39.6536 50.1363 39.8428C51.2046 40.1984 52.2255 40.6819 53.1763 41.2829C53.824 41.6893 54.36 42.2494 54.736 42.9128C55.0523 43.541 55.2107 44.2361 55.1976 44.9384C55.2167 45.8658 54.9501 46.7769 54.4337 47.5495C53.8808 48.3337 53.1128 48.9435 52.2213 49.306C51.2554 49.7279 50.0617 49.9389 48.6403 49.939C47.7372 49.9481 46.8357 49.8632 45.9504 49.6858C45.253 49.5587 44.574 49.3461 43.9291 49.0528C43.8595 49.0171 43.8016 48.9624 43.7621 48.8952C43.7226 48.8279 43.7033 48.7508 43.7063 48.673V45.2549C43.7025 45.2214 43.7078 45.1876 43.7218 45.1569C43.7359 45.1262 43.758 45.0999 43.7859 45.0808C43.8133 45.0654 43.8447 45.0587 43.8759 45.0616C43.9072 45.0644 43.9368 45.0766 43.961 45.0967C44.7225 45.5431 45.5495 45.8688 46.412 46.062C47.1722 46.2514 47.952 46.3523 48.7357 46.3626C49.4783 46.3626 50.0248 46.2676 50.375 46.0778C50.5333 46.0058 50.6671 45.8898 50.7603 45.7437C50.8535 45.5977 50.9022 45.4279 50.9003 45.2549C50.9003 44.9809 50.7412 44.7172 50.4229 44.4636C50.1046 44.2105 49.4573 43.9045 48.4811 43.5458C47.4816 43.1999 46.5339 42.7208 45.6639 42.1216C45.0417 41.6913 44.5293 41.1223 44.1678 40.46C43.8548 39.8363 43.6965 39.1472 43.7063 38.4502C43.7045 37.6128 43.9359 36.7912 44.3747 36.0765C44.8751 35.2895 45.5937 34.6629 46.4438 34.2725C47.3774 33.8086 48.5446 33.5765 49.9454 33.5762C50.7657 33.5696 51.5853 33.6278 52.3964 33.7502C52.9838 33.8244 53.558 33.9787 54.1028 34.2092C54.146 34.2215 54.1858 34.2436 54.2189 34.2738C54.252 34.3041 54.2777 34.3415 54.2938 34.3833C54.3153 34.4605 54.326 34.5404 54.3257 34.6206V37.8172C54.3279 37.8544 54.3202 37.8916 54.3035 37.9248C54.2867 37.9582 54.2614 37.9865 54.2302 38.0071C54.1876 38.0282 54.1407 38.0392 54.0932 38.0392C54.0456 38.0392 53.9987 38.0282 53.9562 38.0071Z" fill="#31A8FF"/>
</g>
</g>
<path d="M99.8024 32.8962V47H97.6102V32.8962H99.8024ZM103.139 42.053H99.2786V40.0936H102.674C103.566 40.0936 104.245 39.8608 104.711 39.3952C105.189 38.9167 105.428 38.2635 105.428 37.4358C105.428 36.6081 105.189 35.9743 104.711 35.5346C104.245 35.0819 103.579 34.8556 102.712 34.8556H98.9488V32.8962H103.139C104.07 32.8962 104.879 33.0902 105.564 33.4782C106.25 33.8533 106.78 34.3835 107.155 35.069C107.543 35.7545 107.737 36.5499 107.737 37.4552C107.737 38.3476 107.543 39.143 107.155 39.8414C106.78 40.5269 106.25 41.0701 105.564 41.471C104.879 41.859 104.07 42.053 103.139 42.053ZM111.614 47H109.538V32.644H111.633V38.8132C111.931 38.3217 112.351 37.9273 112.894 37.6298C113.437 37.3323 114.071 37.1836 114.795 37.1836C115.985 37.1836 116.878 37.5393 117.473 38.2506C118.08 38.9619 118.384 39.9255 118.384 41.1412V47H116.309V41.6262C116.309 41.0442 116.218 40.5657 116.037 40.1906C115.856 39.8155 115.604 39.5375 115.28 39.3564C114.97 39.1753 114.601 39.0848 114.175 39.0848C113.631 39.0848 113.166 39.2077 112.778 39.4534C112.403 39.6862 112.112 40.0095 111.905 40.4234C111.711 40.8243 111.614 41.2835 111.614 41.8008V47ZM120.228 42.2276C120.228 41.2317 120.441 40.3587 120.868 39.6086C121.308 38.8585 121.909 38.27 122.672 37.8432C123.435 37.4164 124.302 37.203 125.272 37.203C126.242 37.203 127.102 37.4164 127.852 37.8432C128.602 38.27 129.197 38.8585 129.637 39.6086C130.077 40.3587 130.297 41.2317 130.297 42.2276C130.297 43.2105 130.077 44.0771 129.637 44.8272C129.197 45.5773 128.602 46.1658 127.852 46.5926C127.102 47.0194 126.242 47.2328 125.272 47.2328C124.302 47.2328 123.435 47.0194 122.672 46.5926C121.909 46.1658 121.308 45.5773 120.868 44.8272C120.441 44.0771 120.228 43.2105 120.228 42.2276ZM122.323 42.2082C122.323 42.829 122.446 43.3787 122.692 43.8572C122.95 44.3228 123.3 44.6914 123.739 44.963C124.179 45.2217 124.69 45.351 125.272 45.351C125.841 45.351 126.345 45.2217 126.785 44.963C127.225 44.6914 127.568 44.3228 127.813 43.8572C128.059 43.3787 128.182 42.829 128.182 42.2082C128.182 41.5874 128.059 41.0442 127.813 40.5786C127.568 40.113 127.225 39.7509 126.785 39.4922C126.345 39.2206 125.841 39.0848 125.272 39.0848C124.69 39.0848 124.179 39.2206 123.739 39.4922C123.3 39.7509 122.95 40.113 122.692 40.5786C122.446 41.0442 122.323 41.5874 122.323 42.2082ZM131.15 37.4746H136.951V39.2206H131.15V37.4746ZM135.089 47H133.013V34.487H135.089V47ZM137.828 42.2276C137.828 41.2317 138.042 40.3587 138.468 39.6086C138.908 38.8585 139.51 38.27 140.273 37.8432C141.036 37.4164 141.902 37.203 142.872 37.203C143.842 37.203 144.702 37.4164 145.452 37.8432C146.203 38.27 146.797 38.8585 147.237 39.6086C147.677 40.3587 147.897 41.2317 147.897 42.2276C147.897 43.2105 147.677 44.0771 147.237 44.8272C146.797 45.5773 146.203 46.1658 145.452 46.5926C144.702 47.0194 143.842 47.2328 142.872 47.2328C141.902 47.2328 141.036 47.0194 140.273 46.5926C139.51 46.1658 138.908 45.5773 138.468 44.8272C138.042 44.0771 137.828 43.2105 137.828 42.2276ZM139.923 42.2082C139.923 42.829 140.046 43.3787 140.292 43.8572C140.551 44.3228 140.9 44.6914 141.34 44.963C141.779 45.2217 142.29 45.351 142.872 45.351C143.441 45.351 143.946 45.2217 144.385 44.963C144.825 44.6914 145.168 44.3228 145.414 43.8572C145.659 43.3787 145.782 42.829 145.782 42.2082C145.782 41.5874 145.659 41.0442 145.414 40.5786C145.168 40.113 144.825 39.7509 144.385 39.4922C143.946 39.2206 143.441 39.0848 142.872 39.0848C142.29 39.0848 141.779 39.2206 141.34 39.4922C140.9 39.7509 140.551 40.113 140.292 40.5786C140.046 41.0442 139.923 41.5874 139.923 42.2082ZM149.078 44.1676H151.057C151.07 44.6203 151.238 44.9759 151.561 45.2346C151.885 45.4933 152.331 45.6226 152.9 45.6226C153.495 45.6226 153.954 45.5062 154.277 45.2734C154.601 45.0406 154.762 44.7367 154.762 44.3616C154.762 44.0771 154.678 43.8443 154.51 43.6632C154.342 43.4692 154.025 43.314 153.559 43.1976L151.852 42.8096C151.012 42.6027 150.378 42.2858 149.951 41.859C149.537 41.4322 149.33 40.8502 149.33 40.113C149.33 39.5051 149.485 38.9878 149.796 38.561C150.119 38.1213 150.559 37.785 151.115 37.5522C151.671 37.3065 152.305 37.1836 153.016 37.1836C153.728 37.1836 154.348 37.3129 154.879 37.5716C155.409 37.8173 155.823 38.1665 156.12 38.6192C156.418 39.0719 156.566 39.6086 156.566 40.2294H154.588C154.575 39.7767 154.426 39.4211 154.141 39.1624C153.857 38.9037 153.456 38.7744 152.939 38.7744C152.434 38.7744 152.04 38.8908 151.755 39.1236C151.471 39.3435 151.328 39.6474 151.328 40.0354C151.328 40.6174 151.762 41.0183 152.628 41.2382L154.335 41.6262C155.137 41.8073 155.739 42.1047 156.14 42.5186C156.541 42.9195 156.741 43.4821 156.741 44.2064C156.741 44.8143 156.573 45.351 156.237 45.8166C155.913 46.2822 155.461 46.6379 154.879 46.8836C154.297 47.1293 153.618 47.2522 152.842 47.2522C151.691 47.2522 150.772 46.9677 150.087 46.3986C149.414 45.8295 149.078 45.0859 149.078 44.1676ZM160.739 47H158.663V32.644H160.758V38.8132C161.056 38.3217 161.476 37.9273 162.019 37.6298C162.563 37.3323 163.196 37.1836 163.921 37.1836C165.11 37.1836 166.003 37.5393 166.598 38.2506C167.206 38.9619 167.51 39.9255 167.51 41.1412V47H165.434V41.6262C165.434 41.0442 165.343 40.5657 165.162 40.1906C164.981 39.8155 164.729 39.5375 164.406 39.3564C164.095 39.1753 163.727 39.0848 163.3 39.0848C162.757 39.0848 162.291 39.2077 161.903 39.4534C161.528 39.6862 161.237 40.0095 161.03 40.4234C160.836 40.8243 160.739 41.2835 160.739 41.8008V47ZM169.353 42.2276C169.353 41.2317 169.567 40.3587 169.993 39.6086C170.433 38.8585 171.035 38.27 171.798 37.8432C172.561 37.4164 173.427 37.203 174.397 37.203C175.367 37.203 176.227 37.4164 176.977 37.8432C177.728 38.27 178.322 38.8585 178.762 39.6086C179.202 40.3587 179.422 41.2317 179.422 42.2276C179.422 43.2105 179.202 44.0771 178.762 44.8272C178.322 45.5773 177.728 46.1658 176.977 46.5926C176.227 47.0194 175.367 47.2328 174.397 47.2328C173.427 47.2328 172.561 47.0194 171.798 46.5926C171.035 46.1658 170.433 45.5773 169.993 44.8272C169.567 44.0771 169.353 43.2105 169.353 42.2276ZM171.448 42.2082C171.448 42.829 171.571 43.3787 171.817 43.8572C172.076 44.3228 172.425 44.6914 172.865 44.963C173.304 45.2217 173.815 45.351 174.397 45.351C174.966 45.351 175.471 45.2217 175.91 44.963C176.35 44.6914 176.693 44.3228 176.939 43.8572C177.184 43.3787 177.307 42.829 177.307 42.2082C177.307 41.5874 177.184 41.0442 176.939 40.5786C176.693 40.113 176.35 39.7509 175.91 39.4922C175.471 39.2206 174.966 39.0848 174.397 39.0848C173.815 39.0848 173.304 39.2206 172.865 39.4922C172.425 39.7509 172.076 40.113 171.817 40.5786C171.571 41.0442 171.448 41.5874 171.448 42.2082ZM181.36 51.3456V37.4746H183.261L183.416 39.046C183.714 38.4381 184.16 37.979 184.755 37.6686C185.363 37.3453 186.035 37.1836 186.772 37.1836C187.678 37.1836 188.46 37.3905 189.12 37.8044C189.792 38.2183 190.31 38.8003 190.672 39.5504C191.047 40.2876 191.234 41.1541 191.234 42.15C191.234 43.12 191.06 43.993 190.71 44.769C190.361 45.5321 189.857 46.1399 189.197 46.5926C188.538 47.0323 187.736 47.2522 186.792 47.2522C186.042 47.2522 185.369 47.1099 184.774 46.8254C184.192 46.5279 183.746 46.1141 183.435 45.5838V51.3456H181.36ZM183.455 42.2276C183.455 42.8355 183.571 43.3787 183.804 43.8572C184.037 44.3357 184.367 44.7108 184.793 44.9824C185.22 45.2411 185.725 45.3704 186.307 45.3704C186.902 45.3704 187.406 45.2346 187.82 44.963C188.234 44.6914 188.551 44.3228 188.77 43.8572C189.003 43.3787 189.12 42.8355 189.12 42.2276C189.12 41.6197 189.003 41.083 188.77 40.6174C188.551 40.1389 188.234 39.7703 187.82 39.5116C187.406 39.24 186.902 39.1042 186.307 39.1042C185.725 39.1042 185.22 39.24 184.793 39.5116C184.367 39.7703 184.037 40.1324 183.804 40.598C183.571 41.0636 183.455 41.6068 183.455 42.2276Z" fill="#0F172A"/>
<defs>
<clipPath id="clip0_766_24560">
<rect width="48" height="46" fill="white" transform="translate(16 17)"/>
</clipPath>
</defs>
</svg>
