<svg width="192" height="80" viewBox="0 0 192 80" fill="none" xmlns="http://www.w3.org/2000/svg">
<rect width="80" height="80" rx="40" fill="#F8FAFC"/>
<g clip-path="url(#clip0_766_24337)">
<mask id="mask0_766_24337" style="mask-type:luminance" maskUnits="userSpaceOnUse" x="24" y="16" width="32" height="48">
<path d="M55.6049 16H24V64H55.6049V16Z" fill="white"/>
</mask>
<g mask="url(#mask0_766_24337)">
<path d="M31.9012 64C36.2627 64 39.8025 60.416 39.8025 56V48H31.9012C27.5398 48 24 51.584 24 56C24 60.416 27.5398 64 31.9012 64Z" fill="#0ACF83"/>
<path d="M24 40C24 35.584 27.5398 32 31.9012 32H39.8025V48H31.9012C27.5398 48 24 44.416 24 40Z" fill="#A259FF"/>
<path d="M24 24C24 19.584 27.5398 16 31.9012 16H39.8025V32H31.9012C27.5398 32 24 28.416 24 24Z" fill="#F24E1E"/>
<path d="M39.8027 16H47.704C52.0655 16 55.6052 19.584 55.6052 24C55.6052 28.416 52.0655 32 47.704 32H39.8027V16Z" fill="#FF7262"/>
<path d="M55.6052 40C55.6052 44.416 52.0655 48 47.704 48C43.3425 48 39.8027 44.416 39.8027 40C39.8027 35.584 43.3425 32 47.704 32C52.0655 32 55.6052 35.584 55.6052 40Z" fill="#1ABCFE"/>
</g>
</g>
<path d="M99.92 33.46V48H97.66V33.46H99.92ZM106.54 35.54H97.82V33.46H106.54V35.54ZM105.48 41.94H97.78V39.9H105.48V41.94ZM108.531 48V38.18H110.671V48H108.531ZM109.591 36.02C109.218 36.02 108.898 35.8867 108.631 35.62C108.364 35.3533 108.231 35.0333 108.231 34.66C108.231 34.2867 108.364 33.9667 108.631 33.7C108.898 33.4333 109.218 33.3 109.591 33.3C109.964 33.3 110.284 33.4333 110.551 33.7C110.818 33.9667 110.951 34.2867 110.951 34.66C110.951 35.0333 110.818 35.3533 110.551 35.62C110.284 35.8867 109.964 36.02 109.591 36.02ZM112.716 42.86C112.716 41.9133 112.909 41.0667 113.296 40.32C113.683 39.5733 114.223 38.98 114.916 38.54C115.623 38.1 116.443 37.88 117.376 37.88C118.243 37.88 118.983 38.08 119.596 38.48C120.209 38.8667 120.636 39.4067 120.876 40.1L120.636 40.34L120.836 38.18H122.816V47.54C122.816 48.6067 122.609 49.5267 122.196 50.3C121.783 51.0867 121.196 51.6867 120.436 52.1C119.689 52.5267 118.803 52.74 117.776 52.74C116.403 52.74 115.269 52.3733 114.376 51.64C113.496 50.9067 112.969 49.9067 112.796 48.64H114.976C115.069 49.32 115.363 49.8467 115.856 50.22C116.349 50.6067 116.983 50.8 117.756 50.8C118.649 50.8 119.356 50.5333 119.876 50C120.396 49.48 120.656 48.7867 120.656 47.92V45.3L120.936 45.56C120.683 46.24 120.229 46.78 119.576 47.18C118.923 47.58 118.163 47.78 117.296 47.78C116.376 47.78 115.569 47.5667 114.876 47.14C114.196 46.7 113.663 46.1133 113.276 45.38C112.903 44.6333 112.716 43.7933 112.716 42.86ZM114.896 42.8C114.896 43.3867 115.009 43.9133 115.236 44.38C115.463 44.8333 115.789 45.2 116.216 45.48C116.643 45.7467 117.143 45.88 117.716 45.88C118.303 45.88 118.809 45.7533 119.236 45.5C119.676 45.2333 120.009 44.8667 120.236 44.4C120.476 43.9333 120.596 43.4 120.596 42.8C120.596 42.2 120.483 41.6733 120.256 41.22C120.029 40.7667 119.703 40.4133 119.276 40.16C118.849 39.8933 118.329 39.76 117.716 39.76C117.129 39.76 116.623 39.9 116.196 40.18C115.783 40.4467 115.463 40.8067 115.236 41.26C115.009 41.7133 114.896 42.2267 114.896 42.8ZM127.585 48H125.445V38.18H127.405L127.665 39.96L127.405 39.74C127.605 39.2333 127.972 38.8 128.505 38.44C129.052 38.0667 129.718 37.88 130.505 37.88C131.372 37.88 132.085 38.1133 132.645 38.58C133.205 39.0333 133.585 39.64 133.785 40.4H133.405C133.552 39.64 133.925 39.0333 134.525 38.58C135.138 38.1133 135.878 37.88 136.745 37.88C137.905 37.88 138.805 38.2133 139.445 38.88C140.085 39.5333 140.405 40.4333 140.405 41.58V48H138.265V42.12C138.265 41.3867 138.078 40.8267 137.705 40.44C137.345 40.04 136.852 39.84 136.225 39.84C135.798 39.84 135.418 39.9333 135.085 40.12C134.752 40.3067 134.485 40.5867 134.285 40.96C134.098 41.32 134.005 41.7667 134.005 42.3V48H131.865V42.1C131.865 41.3667 131.678 40.8067 131.305 40.42C130.945 40.0333 130.452 39.84 129.825 39.84C129.398 39.84 129.012 39.94 128.665 40.14C128.332 40.3267 128.065 40.6 127.865 40.96C127.678 41.32 127.585 41.7667 127.585 42.3V48ZM145.805 48.26C144.765 48.26 143.945 47.98 143.345 47.42C142.759 46.86 142.465 46.1333 142.465 45.24C142.465 44.3333 142.779 43.6133 143.405 43.08C144.045 42.5333 144.945 42.2133 146.105 42.12L149.125 41.88V41.64C149.125 41.1333 149.032 40.7333 148.845 40.44C148.659 40.1333 148.405 39.9133 148.085 39.78C147.765 39.6467 147.392 39.58 146.965 39.58C146.205 39.58 145.619 39.7333 145.205 40.04C144.792 40.3467 144.585 40.78 144.585 41.34H142.745C142.745 40.6333 142.919 40.0267 143.265 39.52C143.625 39 144.132 38.6 144.785 38.32C145.439 38.0267 146.199 37.88 147.065 37.88C147.919 37.88 148.652 38.0333 149.265 38.34C149.892 38.6333 150.372 39.08 150.705 39.68C151.052 40.28 151.225 41.0333 151.225 41.94V48H149.365L149.165 46.48C148.939 47.0133 148.519 47.4467 147.905 47.78C147.292 48.1 146.592 48.26 145.805 48.26ZM146.485 46.6C147.299 46.6 147.945 46.36 148.425 45.88C148.905 45.3867 149.145 44.7267 149.145 43.9V43.36L146.865 43.56C146.065 43.6267 145.492 43.8 145.145 44.08C144.812 44.36 144.645 44.7133 144.645 45.14C144.645 45.6333 144.805 46 145.125 46.24C145.445 46.48 145.899 46.6 146.485 46.6Z" fill="#0F172A"/>
<defs>
<clipPath id="clip0_766_24337">
<rect width="32" height="48" fill="white" transform="translate(24 16)"/>
</clipPath>
</defs>
</svg>
