<svg width="440" height="440" viewBox="0 0 440 440" fill="none" xmlns="http://www.w3.org/2000/svg">
<g clip-path="url(#clip0_835_15033)">
<rect width="440" height="440" fill="white"/>
<g filter="url(#filter0_dd_835_15033)">
<rect x="170" y="302" width="100" height="100" rx="50" fill="url(#paint0_linear_835_15033)"/>
<rect x="166" y="298" width="108" height="108" rx="54" stroke="#F6F6F6" stroke-width="8"/>
<g clip-path="url(#clip1_835_15033)">
<mask id="mask0_835_15033" style="mask-type:luminance" maskUnits="userSpaceOnUse" x="201" y="324" width="38" height="56">
<path d="M238.206 324H201.333V380H238.206V324Z" fill="white"/>
</mask>
<g mask="url(#mask0_835_15033)">
<path d="M210.551 380.001C215.64 380.001 219.769 375.819 219.769 370.667V361.334H210.551C205.463 361.334 201.333 365.515 201.333 370.667C201.333 375.819 205.463 380.001 210.551 380.001Z" fill="#0ACF83"/>
<path d="M201.333 351.999C201.333 346.847 205.463 342.666 210.551 342.666H219.769V361.333H210.551C205.463 361.333 201.333 357.151 201.333 351.999Z" fill="#A259FF"/>
<path d="M201.333 333.333C201.333 328.181 205.463 324 210.551 324H219.769V342.667H210.551C205.463 342.667 201.333 338.485 201.333 333.333Z" fill="#F24E1E"/>
<path d="M219.77 324H228.988C234.076 324 238.206 328.181 238.206 333.333C238.206 338.485 234.076 342.667 228.988 342.667H219.77V324Z" fill="#FF7262"/>
<path d="M238.206 351.999C238.206 357.151 234.076 361.333 228.988 361.333C223.899 361.333 219.77 357.151 219.77 351.999C219.77 346.847 223.899 342.666 228.988 342.666C234.076 342.666 238.206 346.847 238.206 351.999Z" fill="#1ABCFE"/>
</g>
</g>
</g>
<circle cx="220" cy="360" r="113.5" stroke="url(#paint1_linear_835_15033)"/>
<circle cx="220" cy="368" r="177.5" stroke="url(#paint2_linear_835_15033)"/>
<circle cx="220" cy="376" r="241.5" stroke="url(#paint3_linear_835_15033)"/>
<circle cx="220" cy="384" r="305.5" stroke="url(#paint4_linear_835_15033)"/>
<circle cx="220" cy="381" r="358.5" stroke="url(#paint5_linear_835_15033)"/>
<g filter="url(#filter1_d_835_15033)">
<rect x="303" y="14" width="48" height="48" rx="24" fill="url(#paint6_linear_835_15033)"/>
<rect x="303.5" y="14.5" width="47" height="47" rx="23.5" stroke="#F1F5F9"/>
<path opacity="0.2" d="M327 45.5L332.595 43.4019C332.718 43.3557 332.827 43.2779 332.911 43.1764C332.994 43.0749 333.05 42.9531 333.071 42.8234L335.25 29.75L322.177 31.9288C322.047 31.9505 321.925 32.0059 321.824 32.0895C321.722 32.1731 321.644 32.2819 321.598 32.405L319.5 38L327 45.5ZM327.375 35.75C327.746 35.75 328.108 35.86 328.417 36.066C328.725 36.272 328.965 36.5649 329.107 36.9075C329.249 37.2501 329.286 37.6271 329.214 37.9908C329.142 38.3545 328.963 38.6886 328.701 38.9508C328.439 39.213 328.105 39.3916 327.741 39.464C327.377 39.5363 327 39.4992 326.657 39.3573C326.315 39.2154 326.022 38.975 325.816 38.6667C325.61 38.3584 325.5 37.9958 325.5 37.625C325.5 37.1277 325.698 36.6508 326.049 36.2992C326.401 35.9475 326.878 35.75 327.375 35.75Z" fill="#94A3B8"/>
<path d="M315.75 41.3105C315.749 41.5076 315.788 41.7028 315.863 41.8848C315.939 42.0669 316.05 42.2321 316.19 42.3709L322.628 48.8105C322.768 48.9499 322.933 49.0604 323.115 49.1358C323.297 49.2112 323.492 49.25 323.689 49.25C323.886 49.25 324.081 49.2112 324.263 49.1358C324.445 49.0604 324.611 48.9499 324.75 48.8105L327.415 46.1452L332.853 44.1043C333.1 44.0121 333.319 43.8567 333.487 43.6535C333.655 43.4503 333.767 43.2065 333.811 42.9465L335.99 29.873C336.008 29.7656 336.002 29.6555 335.973 29.5504C335.944 29.4454 335.893 29.3479 335.822 29.2647C335.752 29.1815 335.664 29.1147 335.565 29.0689C335.467 29.023 335.359 28.9993 335.25 28.9993C335.209 28.9995 335.167 29.0029 335.126 29.0096L322.054 31.1884C321.794 31.2317 321.55 31.3426 321.347 31.51C321.144 31.6773 320.988 31.8952 320.896 32.1418L318.855 37.5793L316.19 40.2493C316.05 40.3882 315.939 40.5536 315.863 40.7358C315.788 40.918 315.749 41.1133 315.75 41.3105ZM322.3 32.6677L333.064 30.8743L328.623 35.3152C328.068 35.0155 327.424 34.9253 326.808 35.0614C326.193 35.1974 325.647 35.5504 325.27 36.056C324.893 36.5615 324.711 37.1858 324.757 37.8146C324.802 38.4435 325.073 39.0349 325.519 39.4807C325.964 39.9265 326.556 40.197 327.185 40.2427C327.814 40.2883 328.438 40.1061 328.943 39.7294C329.449 39.3526 329.802 38.8065 329.938 38.1908C330.074 37.5752 329.984 36.9311 329.684 36.3765L334.125 31.9337L332.332 42.6999L327.188 44.6284L320.372 37.8118L322.3 32.6677ZM328.5 37.6243C328.5 37.8468 328.434 38.0643 328.31 38.2493C328.187 38.4343 328.011 38.5785 327.806 38.6637C327.6 38.7488 327.374 38.7711 327.156 38.7277C326.937 38.6843 326.737 38.5771 326.58 38.4198C326.422 38.2625 326.315 38.062 326.272 37.8438C326.228 37.6255 326.251 37.3993 326.336 37.1938C326.421 36.9882 326.565 36.8125 326.75 36.6889C326.935 36.5653 327.153 36.4993 327.375 36.4993C327.673 36.4993 327.96 36.6178 328.171 36.8288C328.382 37.0398 328.5 37.3259 328.5 37.6243ZM319.5 39.0605L325.94 45.4993L323.69 47.7493L317.25 41.3105L319.5 39.0605Z" fill="#94A3B8"/>
</g>
<g filter="url(#filter2_d_835_15033)">
<rect x="310" y="210" width="48" height="48" rx="24" fill="url(#paint7_linear_835_15033)"/>
<rect x="310.5" y="210.5" width="47" height="47" rx="23.5" stroke="#F1F5F9"/>
<path opacity="0.2" d="M340 227.25V240.75H328V227.25H340Z" fill="#94A3B8"/>
<path d="M338.5 223.5H329.5C328.903 223.5 328.331 223.737 327.909 224.159C327.487 224.581 327.25 225.153 327.25 225.75V242.25C327.25 242.847 327.487 243.419 327.909 243.841C328.331 244.263 328.903 244.5 329.5 244.5H338.5C339.097 244.5 339.669 244.263 340.091 243.841C340.513 243.419 340.75 242.847 340.75 242.25V225.75C340.75 225.153 340.513 224.581 340.091 224.159C339.669 223.737 339.097 223.5 338.5 223.5ZM328.75 228H339.25V240H328.75V228ZM329.5 225H338.5C338.699 225 338.89 225.079 339.03 225.22C339.171 225.36 339.25 225.551 339.25 225.75V226.5H328.75V225.75C328.75 225.551 328.829 225.36 328.97 225.22C329.11 225.079 329.301 225 329.5 225ZM338.5 243H329.5C329.301 243 329.11 242.921 328.97 242.78C328.829 242.64 328.75 242.449 328.75 242.25V241.5H339.25V242.25C339.25 242.449 339.171 242.64 339.03 242.78C338.89 242.921 338.699 243 338.5 243Z" fill="#94A3B8"/>
</g>
<g filter="url(#filter3_d_835_15033)">
<rect x="72" y="222" width="48" height="48" rx="24" fill="url(#paint8_linear_835_15033)"/>
<rect x="72.5" y="222.5" width="47" height="47" rx="23.5" stroke="#F1F5F9"/>
<g clip-path="url(#clip2_835_15033)">
<path d="M99.4344 250.505L103.008 241.66H100.639L98.1947 247.376L96.4564 241.66H94.6355L92.7693 247.376L91.4532 244.771L90.2622 248.434L91.4714 250.505H93.8027L95.4892 245.379L97.0971 250.505L99.4344 250.505Z" fill="#94A3B8"/>
<path d="M86.4728 247.469H87.9281C88.3691 247.469 88.7616 247.419 89.1059 247.321L89.4824 246.161L90.5343 242.918C90.4535 242.79 90.3616 242.669 90.2597 242.557C89.7198 241.959 88.9294 241.66 87.889 241.66H84.2297V250.505H86.4728V247.469ZM88.3992 243.695C88.6103 243.907 88.7157 244.192 88.7157 244.548C88.7157 244.907 88.6229 245.191 88.4374 245.402C88.234 245.636 87.8595 245.752 87.3138 245.752H86.4728V243.376H87.32C87.8286 243.376 88.1883 243.483 88.3993 243.695H88.3992ZM101.556 248.921L102.236 247.205H104.199L103.268 244.601L104.433 241.66L107.77 250.505H105.309L104.739 248.921H101.556Z" fill="#CBD5E1"/>
</g>
</g>
<g filter="url(#filter4_d_835_15033)">
<rect x="196" y="110" width="48" height="48" rx="24" fill="url(#paint9_linear_835_15033)"/>
<rect x="196.5" y="110.5" width="47" height="47" rx="23.5" stroke="#F1F5F9"/>
<path opacity="0.2" d="M229 127.25V131H211V127.25C211 127.051 211.079 126.86 211.22 126.72C211.36 126.579 211.551 126.5 211.75 126.5H228.25C228.449 126.5 228.64 126.579 228.78 126.72C228.921 126.86 229 127.051 229 127.25Z" fill="#94A3B8"/>
<path d="M228.25 125.75H211.75C211.352 125.75 210.971 125.908 210.689 126.189C210.408 126.471 210.25 126.852 210.25 127.25V140.75C210.25 141.148 210.408 141.529 210.689 141.811C210.971 142.092 211.352 142.25 211.75 142.25H228.25C228.648 142.25 229.029 142.092 229.311 141.811C229.592 141.529 229.75 141.148 229.75 140.75V127.25C229.75 126.852 229.592 126.471 229.311 126.189C229.029 125.908 228.648 125.75 228.25 125.75ZM228.25 127.25V130.25H211.75V127.25H228.25ZM228.25 140.75H211.75V131.75H228.25V140.75Z" fill="#94A3B8"/>
</g>
<g filter="url(#filter5_d_835_15033)">
<rect x="79" y="78" width="48" height="48" rx="24" fill="url(#paint10_linear_835_15033)"/>
<rect x="79.5" y="78.5" width="47" height="47" rx="23.5" stroke="#F1F5F9"/>
<path opacity="0.2" d="M110.5 96V108H95.5V96H110.5Z" fill="#94A3B8"/>
<path d="M109 92.25H97C96.4033 92.25 95.831 92.4871 95.409 92.909C94.9871 93.331 94.75 93.9033 94.75 94.5V109.5C94.75 110.097 94.9871 110.669 95.409 111.091C95.831 111.513 96.4033 111.75 97 111.75H109C109.597 111.75 110.169 111.513 110.591 111.091C111.013 110.669 111.25 110.097 111.25 109.5V94.5C111.25 93.9033 111.013 93.331 110.591 92.909C110.169 92.4871 109.597 92.25 109 92.25ZM96.25 96.75H109.75V107.25H96.25V96.75ZM97 93.75H109C109.199 93.75 109.39 93.829 109.53 93.9697C109.671 94.1103 109.75 94.3011 109.75 94.5V95.25H96.25V94.5C96.25 94.3011 96.329 94.1103 96.4697 93.9697C96.6103 93.829 96.8011 93.75 97 93.75ZM109 110.25H97C96.8011 110.25 96.6103 110.171 96.4697 110.03C96.329 109.89 96.25 109.699 96.25 109.5V108.75H109.75V109.5C109.75 109.699 109.671 109.89 109.53 110.03C109.39 110.171 109.199 110.25 109 110.25Z" fill="#94A3B8"/>
</g>
</g>
<defs>
<filter id="filter0_dd_835_15033" x="150" y="292" width="140" height="140" filterUnits="userSpaceOnUse" color-interpolation-filters="sRGB">
<feFlood flood-opacity="0" result="BackgroundImageFix"/>
<feColorMatrix in="SourceAlpha" type="matrix" values="0 0 0 0 0 0 0 0 0 0 0 0 0 0 0 0 0 0 127 0" result="hardAlpha"/>
<feMorphology radius="4" operator="erode" in="SourceAlpha" result="effect1_dropShadow_835_15033"/>
<feOffset dy="4"/>
<feGaussianBlur stdDeviation="3"/>
<feComposite in2="hardAlpha" operator="out"/>
<feColorMatrix type="matrix" values="0 0 0 0 0 0 0 0 0 0 0 0 0 0 0 0 0 0 0.1 0"/>
<feBlend mode="normal" in2="BackgroundImageFix" result="effect1_dropShadow_835_15033"/>
<feColorMatrix in="SourceAlpha" type="matrix" values="0 0 0 0 0 0 0 0 0 0 0 0 0 0 0 0 0 0 127 0" result="hardAlpha"/>
<feMorphology radius="3" operator="erode" in="SourceAlpha" result="effect2_dropShadow_835_15033"/>
<feOffset dy="10"/>
<feGaussianBlur stdDeviation="7.5"/>
<feComposite in2="hardAlpha" operator="out"/>
<feColorMatrix type="matrix" values="0 0 0 0 0 0 0 0 0 0 0 0 0 0 0 0 0 0 0.1 0"/>
<feBlend mode="normal" in2="effect1_dropShadow_835_15033" result="effect2_dropShadow_835_15033"/>
<feBlend mode="normal" in="SourceGraphic" in2="effect2_dropShadow_835_15033" result="shape"/>
</filter>
<filter id="filter1_d_835_15033" x="301" y="13" width="52" height="52" filterUnits="userSpaceOnUse" color-interpolation-filters="sRGB">
<feFlood flood-opacity="0" result="BackgroundImageFix"/>
<feColorMatrix in="SourceAlpha" type="matrix" values="0 0 0 0 0 0 0 0 0 0 0 0 0 0 0 0 0 0 127 0" result="hardAlpha"/>
<feOffset dy="1"/>
<feGaussianBlur stdDeviation="1"/>
<feComposite in2="hardAlpha" operator="out"/>
<feColorMatrix type="matrix" values="0 0 0 0 0 0 0 0 0 0 0 0 0 0 0 0 0 0 0.05 0"/>
<feBlend mode="normal" in2="BackgroundImageFix" result="effect1_dropShadow_835_15033"/>
<feBlend mode="normal" in="SourceGraphic" in2="effect1_dropShadow_835_15033" result="shape"/>
</filter>
<filter id="filter2_d_835_15033" x="308" y="209" width="52" height="52" filterUnits="userSpaceOnUse" color-interpolation-filters="sRGB">
<feFlood flood-opacity="0" result="BackgroundImageFix"/>
<feColorMatrix in="SourceAlpha" type="matrix" values="0 0 0 0 0 0 0 0 0 0 0 0 0 0 0 0 0 0 127 0" result="hardAlpha"/>
<feOffset dy="1"/>
<feGaussianBlur stdDeviation="1"/>
<feComposite in2="hardAlpha" operator="out"/>
<feColorMatrix type="matrix" values="0 0 0 0 0 0 0 0 0 0 0 0 0 0 0 0 0 0 0.05 0"/>
<feBlend mode="normal" in2="BackgroundImageFix" result="effect1_dropShadow_835_15033"/>
<feBlend mode="normal" in="SourceGraphic" in2="effect1_dropShadow_835_15033" result="shape"/>
</filter>
<filter id="filter3_d_835_15033" x="70" y="221" width="52" height="52" filterUnits="userSpaceOnUse" color-interpolation-filters="sRGB">
<feFlood flood-opacity="0" result="BackgroundImageFix"/>
<feColorMatrix in="SourceAlpha" type="matrix" values="0 0 0 0 0 0 0 0 0 0 0 0 0 0 0 0 0 0 127 0" result="hardAlpha"/>
<feOffset dy="1"/>
<feGaussianBlur stdDeviation="1"/>
<feComposite in2="hardAlpha" operator="out"/>
<feColorMatrix type="matrix" values="0 0 0 0 0 0 0 0 0 0 0 0 0 0 0 0 0 0 0.05 0"/>
<feBlend mode="normal" in2="BackgroundImageFix" result="effect1_dropShadow_835_15033"/>
<feBlend mode="normal" in="SourceGraphic" in2="effect1_dropShadow_835_15033" result="shape"/>
</filter>
<filter id="filter4_d_835_15033" x="194" y="109" width="52" height="52" filterUnits="userSpaceOnUse" color-interpolation-filters="sRGB">
<feFlood flood-opacity="0" result="BackgroundImageFix"/>
<feColorMatrix in="SourceAlpha" type="matrix" values="0 0 0 0 0 0 0 0 0 0 0 0 0 0 0 0 0 0 127 0" result="hardAlpha"/>
<feOffset dy="1"/>
<feGaussianBlur stdDeviation="1"/>
<feComposite in2="hardAlpha" operator="out"/>
<feColorMatrix type="matrix" values="0 0 0 0 0 0 0 0 0 0 0 0 0 0 0 0 0 0 0.05 0"/>
<feBlend mode="normal" in2="BackgroundImageFix" result="effect1_dropShadow_835_15033"/>
<feBlend mode="normal" in="SourceGraphic" in2="effect1_dropShadow_835_15033" result="shape"/>
</filter>
<filter id="filter5_d_835_15033" x="77" y="77" width="52" height="52" filterUnits="userSpaceOnUse" color-interpolation-filters="sRGB">
<feFlood flood-opacity="0" result="BackgroundImageFix"/>
<feColorMatrix in="SourceAlpha" type="matrix" values="0 0 0 0 0 0 0 0 0 0 0 0 0 0 0 0 0 0 127 0" result="hardAlpha"/>
<feOffset dy="1"/>
<feGaussianBlur stdDeviation="1"/>
<feComposite in2="hardAlpha" operator="out"/>
<feColorMatrix type="matrix" values="0 0 0 0 0 0 0 0 0 0 0 0 0 0 0 0 0 0 0.05 0"/>
<feBlend mode="normal" in2="BackgroundImageFix" result="effect1_dropShadow_835_15033"/>
<feBlend mode="normal" in="SourceGraphic" in2="effect1_dropShadow_835_15033" result="shape"/>
</filter>
<linearGradient id="paint0_linear_835_15033" x1="220" y1="302" x2="220" y2="402" gradientUnits="userSpaceOnUse">
<stop stop-color="#F8FAFC"/>
<stop offset="1" stop-color="white"/>
</linearGradient>
<linearGradient id="paint1_linear_835_15033" x1="220" y1="246" x2="220" y2="366.786" gradientUnits="userSpaceOnUse">
<stop stop-color="#E5E5E5"/>
<stop offset="0.36" stop-color="#E2E8F0" stop-opacity="0.3"/>
<stop offset="1" stop-color="white"/>
</linearGradient>
<linearGradient id="paint2_linear_835_15033" x1="220" y1="190" x2="220" y2="378.595" gradientUnits="userSpaceOnUse">
<stop stop-color="#E5E5E5"/>
<stop offset="0.22" stop-color="#E2E8F0" stop-opacity="0.3"/>
<stop offset="0.815" stop-color="white"/>
</linearGradient>
<linearGradient id="paint3_linear_835_15033" x1="220" y1="134" x2="220" y2="390.405" gradientUnits="userSpaceOnUse">
<stop stop-color="#E5E5E5"/>
<stop offset="0.27" stop-color="#E2E8F0" stop-opacity="0.3"/>
<stop offset="0.505" stop-color="white"/>
</linearGradient>
<linearGradient id="paint4_linear_835_15033" x1="220" y1="78" x2="220" y2="402.214" gradientUnits="userSpaceOnUse">
<stop stop-color="#E5E5E5"/>
<stop offset="0.10481" stop-color="#E2E8F0" stop-opacity="0.3"/>
<stop offset="0.416342" stop-color="white"/>
</linearGradient>
<linearGradient id="paint5_linear_835_15033" x1="220" y1="22" x2="220" y2="402.369" gradientUnits="userSpaceOnUse">
<stop stop-color="#E5E5E5"/>
<stop offset="0.10481" stop-color="#E2E8F0" stop-opacity="0.3"/>
<stop offset="0.416342" stop-color="white"/>
</linearGradient>
<linearGradient id="paint6_linear_835_15033" x1="327" y1="14" x2="327" y2="62" gradientUnits="userSpaceOnUse">
<stop stop-color="#F8FAFC"/>
<stop offset="1" stop-color="white"/>
</linearGradient>
<linearGradient id="paint7_linear_835_15033" x1="334" y1="210" x2="334" y2="258" gradientUnits="userSpaceOnUse">
<stop stop-color="#F8FAFC"/>
<stop offset="1" stop-color="white"/>
</linearGradient>
<linearGradient id="paint8_linear_835_15033" x1="96" y1="222" x2="96" y2="270" gradientUnits="userSpaceOnUse">
<stop stop-color="#F8FAFC"/>
<stop offset="1" stop-color="white"/>
</linearGradient>
<linearGradient id="paint9_linear_835_15033" x1="220" y1="110" x2="220" y2="158" gradientUnits="userSpaceOnUse">
<stop stop-color="#F8FAFC"/>
<stop offset="1" stop-color="white"/>
</linearGradient>
<linearGradient id="paint10_linear_835_15033" x1="103" y1="78" x2="103" y2="126" gradientUnits="userSpaceOnUse">
<stop stop-color="#F8FAFC"/>
<stop offset="1" stop-color="white"/>
</linearGradient>
<clipPath id="clip0_835_15033">
<rect width="440" height="440" fill="white"/>
</clipPath>
<clipPath id="clip1_835_15033">
<rect width="37.3333" height="56" fill="white" transform="translate(201.333 324)"/>
</clipPath>
<clipPath id="clip2_835_15033">
<rect width="24" height="9.0048" fill="white" transform="translate(84 241.5)"/>
</clipPath>
</defs>
</svg>
