<svg width="440" height="440" viewBox="0 0 440 440" fill="none" xmlns="http://www.w3.org/2000/svg">
<g clip-path="url(#clip0_835_15033)">
<rect width="440" height="440" fill="white"/>
<g filter="url(#filter0_dd_835_15033)">
<rect x="170" y="289" width="100" height="100" rx="50" fill="url(#paint0_linear_835_15033)"/>
<rect x="166" y="285" width="108" height="108" rx="54" stroke="#F6F6F6" stroke-width="8"/>
<g clip-path="url(#clip1_835_15033)">
<mask id="mask0_835_15033" style="mask-type:luminance" maskUnits="userSpaceOnUse" x="201" y="311" width="38" height="56">
<path d="M238.206 311H201.333V367H238.206V311Z" fill="white"/>
</mask>
<g mask="url(#mask0_835_15033)">
<path d="M210.551 367.001C215.64 367.001 219.769 362.819 219.769 357.667V348.334H210.551C205.463 348.334 201.333 352.515 201.333 357.667C201.333 362.819 205.463 367.001 210.551 367.001Z" fill="#0ACF83"/>
<path d="M201.333 338.999C201.333 333.847 205.463 329.666 210.551 329.666H219.769V348.333H210.551C205.463 348.333 201.333 344.151 201.333 338.999Z" fill="#A259FF"/>
<path d="M201.333 320.333C201.333 315.181 205.463 311 210.551 311H219.769V329.667H210.551C205.463 329.667 201.333 325.485 201.333 320.333Z" fill="#F24E1E"/>
<path d="M219.77 311H228.988C234.076 311 238.206 315.181 238.206 320.333C238.206 325.485 234.076 329.667 228.988 329.667H219.77V311Z" fill="#FF7262"/>
<path d="M238.206 338.999C238.206 344.151 234.076 348.333 228.988 348.333C223.899 348.333 219.77 344.151 219.77 338.999C219.77 333.847 223.899 329.666 228.988 329.666C234.076 329.666 238.206 333.847 238.206 338.999Z" fill="#1ABCFE"/>
</g>
</g>
</g>
<circle cx="220" cy="335" r="83.5" stroke="url(#paint1_linear_835_15033)"/>
<circle cx="220" cy="326" r="122.5" stroke="url(#paint2_linear_835_15033)"/>
<circle cx="220" cy="320" r="164.5" stroke="url(#paint3_linear_835_15033)"/>
<circle cx="220" cy="312" r="204.5" stroke="url(#paint4_linear_835_15033)"/>
<circle cx="220" cy="303" r="243.5" stroke="url(#paint5_linear_835_15033)"/>
<g filter="url(#filter1_d_835_15033)">
<rect x="328" y="72" width="40" height="40" rx="20" fill="url(#paint6_linear_835_15033)"/>
<rect x="328.5" y="72.5" width="39" height="39" rx="19.5" stroke="#F1F5F9"/>
<path opacity="0.2" d="M354.625 87.5V96.5H343.375V87.5H354.625Z" fill="#94A3B8"/>
<path d="M353.5 84.6875H344.5C344.052 84.6875 343.623 84.8653 343.307 85.1818C342.99 85.4982 342.812 85.9274 342.812 86.375V97.625C342.812 98.0726 342.99 98.5018 343.307 98.8182C343.623 99.1347 344.052 99.3125 344.5 99.3125H353.5C353.948 99.3125 354.377 99.1347 354.693 98.8182C355.01 98.5018 355.188 98.0726 355.188 97.625V86.375C355.188 85.9274 355.01 85.4982 354.693 85.1818C354.377 84.8653 353.948 84.6875 353.5 84.6875ZM343.938 88.0625H354.062V95.9375H343.938V88.0625ZM344.5 85.8125H353.5C353.649 85.8125 353.792 85.8718 353.898 85.9773C354.003 86.0827 354.062 86.2258 354.062 86.375V86.9375H343.938V86.375C343.938 86.2258 343.997 86.0827 344.102 85.9773C344.208 85.8718 344.351 85.8125 344.5 85.8125ZM353.5 98.1875H344.5C344.351 98.1875 344.208 98.1282 344.102 98.0227C343.997 97.9173 343.938 97.7742 343.938 97.625V97.0625H354.062V97.625C354.062 97.7742 354.003 97.9173 353.898 98.0227C353.792 98.1282 353.649 98.1875 353.5 98.1875Z" fill="#94A3B8"/>
</g>
<g filter="url(#filter2_d_835_15033)">
<rect x="200" y="135" width="40" height="40" rx="20" fill="url(#paint7_linear_835_15033)"/>
<rect x="200.5" y="135.5" width="39" height="39" rx="19.5" stroke="#F1F5F9"/>
<path opacity="0.2" d="M226.188 151.062V158.375H213.812V151.062C213.812 150.764 213.931 150.478 214.142 150.267C214.353 150.056 214.639 149.938 214.938 149.938H225.062C225.361 149.938 225.647 150.056 225.858 150.267C226.069 150.478 226.188 150.764 226.188 151.062Z" fill="#94A3B8"/>
<path d="M227.312 157.812H226.75V151.062C226.75 150.615 226.572 150.186 226.256 149.869C225.939 149.553 225.51 149.375 225.062 149.375H214.938C214.49 149.375 214.061 149.553 213.744 149.869C213.428 150.186 213.25 150.615 213.25 151.062V157.812H212.688C212.538 157.812 212.395 157.872 212.29 157.977C212.184 158.083 212.125 158.226 212.125 158.375V159.5C212.125 159.948 212.303 160.377 212.619 160.693C212.936 161.01 213.365 161.188 213.812 161.188H226.188C226.635 161.188 227.064 161.01 227.381 160.693C227.697 160.377 227.875 159.948 227.875 159.5V158.375C227.875 158.226 227.816 158.083 227.71 157.977C227.605 157.872 227.462 157.812 227.312 157.812ZM214.375 151.062C214.375 150.913 214.434 150.77 214.54 150.665C214.645 150.559 214.788 150.5 214.938 150.5H225.062C225.212 150.5 225.355 150.559 225.46 150.665C225.566 150.77 225.625 150.913 225.625 151.062V157.812H214.375V151.062ZM226.75 159.5C226.75 159.649 226.691 159.792 226.585 159.898C226.48 160.003 226.337 160.062 226.188 160.062H213.812C213.663 160.062 213.52 160.003 213.415 159.898C213.309 159.792 213.25 159.649 213.25 159.5V158.938H226.75V159.5ZM221.688 152.188C221.688 152.337 221.628 152.48 221.523 152.585C221.417 152.691 221.274 152.75 221.125 152.75H218.875C218.726 152.75 218.583 152.691 218.477 152.585C218.372 152.48 218.312 152.337 218.312 152.188C218.312 152.038 218.372 151.895 218.477 151.79C218.583 151.684 218.726 151.625 218.875 151.625H221.125C221.274 151.625 221.417 151.684 221.523 151.79C221.628 151.895 221.688 152.038 221.688 152.188Z" fill="#94A3B8"/>
</g>
<g filter="url(#filter3_d_835_15033)">
<rect x="97" y="243" width="40" height="40" rx="20" fill="url(#paint8_linear_835_15033)"/>
<rect x="97.5" y="243.5" width="39" height="39" rx="19.5" stroke="#F1F5F9"/>
<path opacity="0.2" d="M121.5 257.938V268.062H112.5V257.938H121.5Z" fill="#94A3B8"/>
<path d="M120.375 255.125H113.625C113.177 255.125 112.748 255.303 112.432 255.619C112.115 255.936 111.938 256.365 111.938 256.812V269.188C111.938 269.635 112.115 270.064 112.432 270.381C112.748 270.697 113.177 270.875 113.625 270.875H120.375C120.823 270.875 121.252 270.697 121.568 270.381C121.885 270.064 122.062 269.635 122.062 269.188V256.812C122.062 256.365 121.885 255.936 121.568 255.619C121.252 255.303 120.823 255.125 120.375 255.125ZM113.062 258.5H120.938V267.5H113.062V258.5ZM113.625 256.25H120.375C120.524 256.25 120.667 256.309 120.773 256.415C120.878 256.52 120.938 256.663 120.938 256.812V257.375H113.062V256.812C113.062 256.663 113.122 256.52 113.227 256.415C113.333 256.309 113.476 256.25 113.625 256.25ZM120.375 269.75H113.625C113.476 269.75 113.333 269.691 113.227 269.585C113.122 269.48 113.062 269.337 113.062 269.188V268.625H120.938V269.188C120.938 269.337 120.878 269.48 120.773 269.585C120.667 269.691 120.524 269.75 120.375 269.75Z" fill="#94A3B8"/>
</g>
<g filter="url(#filter4_d_835_15033)">
<rect x="48" y="92" width="40" height="40" rx="20" fill="url(#paint9_linear_835_15033)"/>
<rect x="48.5" y="92.5" width="39" height="39" rx="19.5" stroke="#F1F5F9"/>
<path opacity="0.2" d="M74.75 106.938V109.75H61.25V106.938C61.25 106.788 61.3093 106.645 61.4148 106.54C61.5202 106.434 61.6633 106.375 61.8125 106.375H74.1875C74.3367 106.375 74.4798 106.434 74.5852 106.54C74.6907 106.645 74.75 106.788 74.75 106.938Z" fill="#94A3B8"/>
<path d="M74.1875 105.812H61.8125C61.5141 105.812 61.228 105.931 61.017 106.142C60.806 106.353 60.6875 106.639 60.6875 106.938V117.062C60.6875 117.361 60.806 117.647 61.017 117.858C61.228 118.069 61.5141 118.188 61.8125 118.188H74.1875C74.4859 118.188 74.772 118.069 74.983 117.858C75.194 117.647 75.3125 117.361 75.3125 117.062V106.938C75.3125 106.639 75.194 106.353 74.983 106.142C74.772 105.931 74.4859 105.812 74.1875 105.812ZM74.1875 106.938V109.188H61.8125V106.938H74.1875ZM74.1875 117.062H61.8125V110.312H74.1875V117.062Z" fill="#94A3B8"/>
</g>
<g filter="url(#filter5_d_835_15033)">
<rect x="337" y="211" width="40" height="40" rx="20" fill="url(#paint10_linear_835_15033)"/>
<rect x="337.5" y="211.5" width="39" height="39" rx="19.5" stroke="#F1F5F9"/>
<path opacity="0.2" d="M357 225.375L352.804 226.949C352.711 226.983 352.63 227.042 352.567 227.118C352.504 227.194 352.463 227.285 352.447 227.382L350.812 237.188L360.618 235.553C360.715 235.537 360.806 235.496 360.882 235.433C360.958 235.37 361.017 235.289 361.051 235.196L362.625 231L357 225.375ZM356.719 232.688C356.441 232.688 356.169 232.605 355.937 232.451C355.706 232.296 355.526 232.076 355.42 231.819C355.313 231.562 355.285 231.28 355.34 231.007C355.394 230.734 355.528 230.484 355.724 230.287C355.921 230.09 356.172 229.956 356.444 229.902C356.717 229.848 357 229.876 357.257 229.982C357.514 230.088 357.733 230.269 357.888 230.5C358.043 230.731 358.125 231.003 358.125 231.281C358.125 231.654 357.977 232.012 357.713 232.276C357.449 232.539 357.092 232.688 356.719 232.688Z" fill="#94A3B8"/>
<path d="M365.437 228.517C365.438 228.369 365.409 228.223 365.352 228.086C365.296 227.95 365.213 227.826 365.108 227.722L360.279 222.892C360.174 222.788 360.05 222.705 359.914 222.648C359.777 222.592 359.631 222.562 359.483 222.562C359.335 222.562 359.189 222.592 359.052 222.648C358.916 222.705 358.792 222.788 358.687 222.892L356.688 224.891L352.61 226.422C352.425 226.491 352.261 226.607 352.135 226.76C352.009 226.912 351.925 227.095 351.892 227.29L350.258 237.095C350.244 237.176 350.248 237.258 350.27 237.337C350.292 237.416 350.33 237.489 350.383 237.551C350.436 237.614 350.502 237.664 350.576 237.698C350.65 237.733 350.731 237.751 350.812 237.751C350.844 237.75 350.875 237.748 350.905 237.743L360.71 236.109C360.904 236.076 361.087 235.993 361.24 235.868C361.392 235.742 361.509 235.579 361.578 235.394L363.109 231.316L365.108 229.313C365.213 229.209 365.296 229.085 365.353 228.948C365.409 228.812 365.438 228.665 365.437 228.517ZM360.525 234.999L352.452 236.344L355.783 233.014C356.199 233.238 356.682 233.306 357.144 233.204C357.605 233.102 358.015 232.837 358.298 232.458C358.58 232.079 358.717 231.611 358.682 231.139C358.648 230.667 358.445 230.224 358.111 229.889C357.777 229.555 357.333 229.352 356.861 229.318C356.39 229.284 355.922 229.42 355.542 229.703C355.163 229.986 354.899 230.395 354.797 230.857C354.695 231.319 354.762 231.802 354.987 232.218L351.656 235.55L353.001 227.475L356.859 226.029L361.971 231.141L360.525 234.999ZM355.875 231.282C355.875 231.115 355.924 230.952 356.017 230.813C356.11 230.674 356.242 230.566 356.396 230.502C356.55 230.438 356.72 230.422 356.883 230.454C357.047 230.487 357.197 230.567 357.315 230.685C357.433 230.803 357.514 230.954 357.546 231.117C357.579 231.281 357.562 231.45 357.498 231.605C357.434 231.759 357.326 231.891 357.187 231.983C357.049 232.076 356.886 232.126 356.719 232.126C356.495 232.126 356.28 232.037 356.122 231.878C355.964 231.72 355.875 231.506 355.875 231.282ZM362.625 230.205L357.795 225.376L359.483 223.688L364.312 228.517L362.625 230.205Z" fill="#94A3B8"/>
</g>
</g>
<defs>
<filter id="filter0_dd_835_15033" x="150" y="279" width="140" height="140" filterUnits="userSpaceOnUse" color-interpolation-filters="sRGB">
<feFlood flood-opacity="0" result="BackgroundImageFix"/>
<feColorMatrix in="SourceAlpha" type="matrix" values="0 0 0 0 0 0 0 0 0 0 0 0 0 0 0 0 0 0 127 0" result="hardAlpha"/>
<feMorphology radius="4" operator="erode" in="SourceAlpha" result="effect1_dropShadow_835_15033"/>
<feOffset dy="4"/>
<feGaussianBlur stdDeviation="3"/>
<feComposite in2="hardAlpha" operator="out"/>
<feColorMatrix type="matrix" values="0 0 0 0 0 0 0 0 0 0 0 0 0 0 0 0 0 0 0.1 0"/>
<feBlend mode="normal" in2="BackgroundImageFix" result="effect1_dropShadow_835_15033"/>
<feColorMatrix in="SourceAlpha" type="matrix" values="0 0 0 0 0 0 0 0 0 0 0 0 0 0 0 0 0 0 127 0" result="hardAlpha"/>
<feMorphology radius="3" operator="erode" in="SourceAlpha" result="effect2_dropShadow_835_15033"/>
<feOffset dy="10"/>
<feGaussianBlur stdDeviation="7.5"/>
<feComposite in2="hardAlpha" operator="out"/>
<feColorMatrix type="matrix" values="0 0 0 0 0 0 0 0 0 0 0 0 0 0 0 0 0 0 0.1 0"/>
<feBlend mode="normal" in2="effect1_dropShadow_835_15033" result="effect2_dropShadow_835_15033"/>
<feBlend mode="normal" in="SourceGraphic" in2="effect2_dropShadow_835_15033" result="shape"/>
</filter>
<filter id="filter1_d_835_15033" x="326" y="71" width="44" height="44" filterUnits="userSpaceOnUse" color-interpolation-filters="sRGB">
<feFlood flood-opacity="0" result="BackgroundImageFix"/>
<feColorMatrix in="SourceAlpha" type="matrix" values="0 0 0 0 0 0 0 0 0 0 0 0 0 0 0 0 0 0 127 0" result="hardAlpha"/>
<feOffset dy="1"/>
<feGaussianBlur stdDeviation="1"/>
<feComposite in2="hardAlpha" operator="out"/>
<feColorMatrix type="matrix" values="0 0 0 0 0 0 0 0 0 0 0 0 0 0 0 0 0 0 0.05 0"/>
<feBlend mode="normal" in2="BackgroundImageFix" result="effect1_dropShadow_835_15033"/>
<feBlend mode="normal" in="SourceGraphic" in2="effect1_dropShadow_835_15033" result="shape"/>
</filter>
<filter id="filter2_d_835_15033" x="198" y="134" width="44" height="44" filterUnits="userSpaceOnUse" color-interpolation-filters="sRGB">
<feFlood flood-opacity="0" result="BackgroundImageFix"/>
<feColorMatrix in="SourceAlpha" type="matrix" values="0 0 0 0 0 0 0 0 0 0 0 0 0 0 0 0 0 0 127 0" result="hardAlpha"/>
<feOffset dy="1"/>
<feGaussianBlur stdDeviation="1"/>
<feComposite in2="hardAlpha" operator="out"/>
<feColorMatrix type="matrix" values="0 0 0 0 0 0 0 0 0 0 0 0 0 0 0 0 0 0 0.05 0"/>
<feBlend mode="normal" in2="BackgroundImageFix" result="effect1_dropShadow_835_15033"/>
<feBlend mode="normal" in="SourceGraphic" in2="effect1_dropShadow_835_15033" result="shape"/>
</filter>
<filter id="filter3_d_835_15033" x="95" y="242" width="44" height="44" filterUnits="userSpaceOnUse" color-interpolation-filters="sRGB">
<feFlood flood-opacity="0" result="BackgroundImageFix"/>
<feColorMatrix in="SourceAlpha" type="matrix" values="0 0 0 0 0 0 0 0 0 0 0 0 0 0 0 0 0 0 127 0" result="hardAlpha"/>
<feOffset dy="1"/>
<feGaussianBlur stdDeviation="1"/>
<feComposite in2="hardAlpha" operator="out"/>
<feColorMatrix type="matrix" values="0 0 0 0 0 0 0 0 0 0 0 0 0 0 0 0 0 0 0.05 0"/>
<feBlend mode="normal" in2="BackgroundImageFix" result="effect1_dropShadow_835_15033"/>
<feBlend mode="normal" in="SourceGraphic" in2="effect1_dropShadow_835_15033" result="shape"/>
</filter>
<filter id="filter4_d_835_15033" x="46" y="91" width="44" height="44" filterUnits="userSpaceOnUse" color-interpolation-filters="sRGB">
<feFlood flood-opacity="0" result="BackgroundImageFix"/>
<feColorMatrix in="SourceAlpha" type="matrix" values="0 0 0 0 0 0 0 0 0 0 0 0 0 0 0 0 0 0 127 0" result="hardAlpha"/>
<feOffset dy="1"/>
<feGaussianBlur stdDeviation="1"/>
<feComposite in2="hardAlpha" operator="out"/>
<feColorMatrix type="matrix" values="0 0 0 0 0 0 0 0 0 0 0 0 0 0 0 0 0 0 0.05 0"/>
<feBlend mode="normal" in2="BackgroundImageFix" result="effect1_dropShadow_835_15033"/>
<feBlend mode="normal" in="SourceGraphic" in2="effect1_dropShadow_835_15033" result="shape"/>
</filter>
<filter id="filter5_d_835_15033" x="335" y="210" width="44" height="44" filterUnits="userSpaceOnUse" color-interpolation-filters="sRGB">
<feFlood flood-opacity="0" result="BackgroundImageFix"/>
<feColorMatrix in="SourceAlpha" type="matrix" values="0 0 0 0 0 0 0 0 0 0 0 0 0 0 0 0 0 0 127 0" result="hardAlpha"/>
<feOffset dy="1"/>
<feGaussianBlur stdDeviation="1"/>
<feComposite in2="hardAlpha" operator="out"/>
<feColorMatrix type="matrix" values="0 0 0 0 0 0 0 0 0 0 0 0 0 0 0 0 0 0 0.05 0"/>
<feBlend mode="normal" in2="BackgroundImageFix" result="effect1_dropShadow_835_15033"/>
<feBlend mode="normal" in="SourceGraphic" in2="effect1_dropShadow_835_15033" result="shape"/>
</filter>
<linearGradient id="paint0_linear_835_15033" x1="220" y1="289" x2="220" y2="389" gradientUnits="userSpaceOnUse">
<stop stop-color="#F8FAFC"/>
<stop offset="1" stop-color="white"/>
</linearGradient>
<linearGradient id="paint1_linear_835_15033" x1="220" y1="251" x2="220" y2="340" gradientUnits="userSpaceOnUse">
<stop stop-color="#E5E5E5"/>
<stop offset="0.36" stop-color="#E2E8F0"/>
<stop offset="1" stop-color="white"/>
</linearGradient>
<linearGradient id="paint2_linear_835_15033" x1="220" y1="203" x2="220" y2="333.321" gradientUnits="userSpaceOnUse">
<stop stop-color="#E5E5E5"/>
<stop offset="0.36" stop-color="#E2E8F0"/>
<stop offset="1" stop-color="white"/>
</linearGradient>
<linearGradient id="paint3_linear_835_15033" x1="220" y1="155" x2="220" y2="329.821" gradientUnits="userSpaceOnUse">
<stop stop-color="#E5E5E5"/>
<stop offset="0.36" stop-color="#E2E8F0"/>
<stop offset="1" stop-color="white"/>
</linearGradient>
<linearGradient id="paint4_linear_835_15033" x1="220" y1="107" x2="220" y2="324.202" gradientUnits="userSpaceOnUse">
<stop stop-color="#E5E5E5"/>
<stop offset="0.36" stop-color="#E2E8F0"/>
<stop offset="1" stop-color="white"/>
</linearGradient>
<linearGradient id="paint5_linear_835_15033" x1="220" y1="59" x2="220" y2="317.524" gradientUnits="userSpaceOnUse">
<stop stop-color="#E5E5E5"/>
<stop offset="0.36" stop-color="#E2E8F0"/>
<stop offset="1" stop-color="white"/>
</linearGradient>
<linearGradient id="paint6_linear_835_15033" x1="348" y1="72" x2="348" y2="112" gradientUnits="userSpaceOnUse">
<stop stop-color="#F8FAFC"/>
<stop offset="1" stop-color="white"/>
</linearGradient>
<linearGradient id="paint7_linear_835_15033" x1="220" y1="135" x2="220" y2="175" gradientUnits="userSpaceOnUse">
<stop stop-color="#F8FAFC"/>
<stop offset="1" stop-color="white"/>
</linearGradient>
<linearGradient id="paint8_linear_835_15033" x1="117" y1="243" x2="117" y2="283" gradientUnits="userSpaceOnUse">
<stop stop-color="#F8FAFC"/>
<stop offset="1" stop-color="white"/>
</linearGradient>
<linearGradient id="paint9_linear_835_15033" x1="68" y1="92" x2="68" y2="132" gradientUnits="userSpaceOnUse">
<stop stop-color="#F8FAFC"/>
<stop offset="1" stop-color="white"/>
</linearGradient>
<linearGradient id="paint10_linear_835_15033" x1="357" y1="211" x2="357" y2="251" gradientUnits="userSpaceOnUse">
<stop stop-color="#F8FAFC"/>
<stop offset="1" stop-color="white"/>
</linearGradient>
<clipPath id="clip0_835_15033">
<rect width="440" height="440" fill="white"/>
</clipPath>
<clipPath id="clip1_835_15033">
<rect width="37.3333" height="56" fill="white" transform="translate(201.333 311)"/>
</clipPath>
</defs>
</svg>
