<?xml version="1.0" encoding="UTF-8"?><svg id="katman_1" xmlns="http://www.w3.org/2000/svg" xmlns:xlink="http://www.w3.org/1999/xlink" viewBox="0 0 440 440"><defs><style>.cls-1{fill:url(#Adsız_degrade_4-4);}.cls-1,.cls-2,.cls-3,.cls-4,.cls-5,.cls-6,.cls-7,.cls-8,.cls-9,.cls-10{stroke:#e2e8f0;stroke-miterlimit:10;}.cls-2{fill:url(#Adsız_degrade_4-3);}.cls-3{fill:url(#Adsız_degrade_4-6);}.cls-4{fill:url(#Adsız_degrade_4-8);}.cls-5{fill:url(#Adsız_degrade_4-7);}.cls-6{fill:url(#Adsız_degrade_4-9);}.cls-7{fill:url(#Adsız_degrade_4-2);}.cls-8{fill:url(#Adsız_degrade_4-5);}.cls-9{fill:url(#Adsız_degrade_4-10);}.cls-10{fill:url(#Adsız_degrade_4);}.cls-11{fill:#fff;}.cls-11,.cls-12{stroke-width:0px;}.cls-12{fill:#475569;}</style><linearGradient id="Adsız_degrade_4" x1="78.05" y1="72" x2="78.05" y2="40" gradientUnits="userSpaceOnUse"><stop offset="0" stop-color="#fff"/><stop offset="1" stop-color="#f8fafc"/></linearGradient><linearGradient id="Adsız_degrade_4-2" y1="143" y2="111" xlink:href="#Adsız_degrade_4"/><linearGradient id="Adsız_degrade_4-3" y1="210" y2="178" xlink:href="#Adsız_degrade_4"/><linearGradient id="Adsız_degrade_4-4" y1="295" y2="263" xlink:href="#Adsız_degrade_4"/><linearGradient id="Adsız_degrade_4-5" y1="362" y2="330" xlink:href="#Adsız_degrade_4"/><linearGradient id="Adsız_degrade_4-6" x1="192.16" y1="75" x2="192.16" y2="43" gradientTransform="translate(554.11) rotate(-180) scale(1 -1)" xlink:href="#Adsız_degrade_4"/><linearGradient id="Adsız_degrade_4-7" x1="192.16" y1="146" x2="192.16" y2="114" gradientTransform="translate(554.11) rotate(-180) scale(1 -1)" xlink:href="#Adsız_degrade_4"/><linearGradient id="Adsız_degrade_4-8" x1="192.16" y1="213" x2="192.16" y2="181" gradientTransform="translate(554.11) rotate(-180) scale(1 -1)" xlink:href="#Adsız_degrade_4"/><linearGradient id="Adsız_degrade_4-9" x1="192.16" y1="298" x2="192.16" y2="266" gradientTransform="translate(554.11) rotate(-180) scale(1 -1)" xlink:href="#Adsız_degrade_4"/><linearGradient id="Adsız_degrade_4-10" x1="192.16" y1="365" x2="192.16" y2="333" gradientTransform="translate(554.11) rotate(-180) scale(1 -1)" xlink:href="#Adsız_degrade_4"/></defs><rect class="cls-11" width="440" height="440"/><path class="cls-10" d="M0,40h143.01c7.23,0,13.1,7.16,13.1,16h0c0,8.84-5.86,16-13.1,16H0"/><path class="cls-12" d="M6.67,60.46v-1.15h1.13v-6.1h-1.13v-1.15h3.36c1.12,0,1.98.28,2.57.85s.89,1.42.89,2.57v1.57c0,1.14-.3,2-.89,2.56-.6.56-1.45.85-2.57.85h-3.36ZM9.1,59.28h.94c.73,0,1.27-.18,1.62-.55.35-.37.53-.92.53-1.64v-1.66c0-.74-.18-1.28-.53-1.64-.35-.36-.89-.54-1.62-.54h-.94v6.04Z"/><path class="cls-12" d="M17.71,60.62c-.6,0-1.12-.13-1.57-.38s-.8-.61-1.05-1.07-.38-.99-.38-1.6v-.14c0-.62.12-1.15.37-1.61s.59-.82,1.04-1.07c.44-.25.96-.38,1.54-.38s1.07.13,1.49.38c.43.25.76.6,1,1.05.24.45.36.97.36,1.57v.47h-4.55c.02.52.19.93.52,1.24s.75.46,1.24.46c.46,0,.81-.1,1.05-.31.24-.21.42-.45.55-.72l1.02.53c-.11.22-.27.46-.49.71s-.49.46-.83.62c-.34.17-.78.25-1.32.25ZM15.98,56.89h3.28c-.03-.45-.19-.8-.48-1.05s-.66-.38-1.13-.38-.84.13-1.13.38-.47.6-.53,1.05Z"/><path class="cls-12" d="M23.17,60.46l-1.99-5.92h1.31l1.57,5h.19l1.57-5h1.31l-1.99,5.92h-1.97Z"/><path class="cls-12" d="M30.83,60.62c-.6,0-1.12-.13-1.57-.38s-.8-.61-1.05-1.07-.38-.99-.38-1.6v-.14c0-.62.12-1.15.37-1.61s.59-.82,1.04-1.07c.44-.25.96-.38,1.54-.38s1.07.13,1.49.38c.43.25.76.6,1,1.05.24.45.36.97.36,1.57v.47h-4.55c.02.52.19.93.52,1.24s.75.46,1.24.46c.46,0,.81-.1,1.05-.31.24-.21.42-.45.55-.72l1.02.53c-.11.22-.27.46-.49.71s-.49.46-.83.62c-.34.17-.78.25-1.32.25ZM29.11,56.89h3.28c-.03-.45-.19-.8-.48-1.05s-.66-.38-1.13-.38-.84.13-1.13.38-.47.6-.53,1.05Z"/><path class="cls-12" d="M35.13,60.46v-8.4h1.24v8.4h-1.24Z"/><path class="cls-12" d="M40.97,60.62c-.59,0-1.12-.12-1.58-.37-.46-.24-.82-.59-1.09-1.05-.26-.46-.4-1-.4-1.62v-.18c0-.62.13-1.16.4-1.61.26-.45.63-.8,1.09-1.05.46-.25.99-.37,1.58-.37s1.12.12,1.58.37.83.6,1.09,1.05c.26.45.4.99.4,1.61v.18c0,.62-.13,1.16-.4,1.62-.26.46-.63.81-1.09,1.05s-.99.37-1.58.37ZM40.97,59.52c.54,0,.99-.17,1.33-.52s.51-.83.51-1.45v-.11c0-.62-.17-1.1-.5-1.45s-.78-.52-1.33-.52-.97.17-1.31.52-.51.83-.51,1.45v.11c0,.62.17,1.1.51,1.45s.78.52,1.31.52Z"/><path class="cls-12" d="M45.58,62.86v-8.32h1.21v.85h.19c.15-.26.38-.5.69-.71.31-.21.75-.31,1.33-.31.5,0,.95.12,1.36.36.41.24.74.59,1,1.04.25.45.38,1,.38,1.64v.18c0,.64-.12,1.19-.37,1.64-.25.45-.58.8-1,1.04-.42.24-.87.36-1.37.36-.38,0-.71-.05-.97-.14-.26-.1-.48-.22-.64-.37-.16-.15-.29-.3-.38-.46h-.19v3.2h-1.24ZM48.64,59.54c.54,0,.99-.17,1.33-.52s.52-.84.52-1.48v-.11c0-.63-.17-1.12-.52-1.46-.35-.34-.79-.52-1.33-.52s-.97.17-1.31.52c-.35.34-.52.83-.52,1.46v.11c0,.64.17,1.13.52,1.48.35.34.79.52,1.31.52Z"/><path class="cls-12" d="M53.27,60.46v-5.92h1.21v.7h.19c.11-.21.29-.39.54-.55.25-.16.58-.24,1.01-.24s.79.09,1.06.27c.27.18.47.41.61.69h.19c.14-.27.33-.5.59-.68.26-.18.63-.28,1.11-.28.38,0,.72.08,1.02.23.3.16.53.39.71.7.18.31.26.69.26,1.15v3.94h-1.24v-3.84c0-.36-.1-.64-.29-.83-.2-.2-.47-.29-.83-.29-.38,0-.69.12-.92.37s-.35.6-.35,1.07v3.53h-1.24v-3.84c0-.36-.1-.64-.29-.83s-.47-.29-.83-.29c-.38,0-.69.12-.92.37-.23.25-.35.6-.35,1.07v3.53h-1.24Z"/><path class="cls-12" d="M66.27,60.62c-.6,0-1.12-.13-1.57-.38s-.8-.61-1.05-1.07-.38-.99-.38-1.6v-.14c0-.62.12-1.15.37-1.61s.59-.82,1.04-1.07c.44-.25.96-.38,1.54-.38s1.07.13,1.49.38c.43.25.76.6,1,1.05.24.45.36.97.36,1.57v.47h-4.55c.02.52.19.93.52,1.24s.75.46,1.24.46c.46,0,.81-.1,1.05-.31.24-.21.42-.45.55-.72l1.02.53c-.11.22-.27.46-.49.71s-.49.46-.83.62c-.34.17-.78.25-1.32.25ZM64.54,56.89h3.28c-.03-.45-.19-.8-.48-1.05s-.66-.38-1.13-.38-.84.13-1.13.38-.47.6-.53,1.05Z"/><path class="cls-12" d="M70.57,60.46v-5.92h1.21v.89h.19c.11-.24.31-.46.6-.67s.72-.31,1.28-.31c.45,0,.85.1,1.19.3.35.2.62.48.82.85.2.36.3.8.3,1.31v3.55h-1.24v-3.46c0-.51-.13-.89-.38-1.13-.26-.24-.61-.37-1.06-.37-.51,0-.92.17-1.23.5-.31.34-.46.82-.46,1.46v2.99h-1.24Z"/><path class="cls-12" d="M80,60.46c-.36,0-.65-.11-.86-.32-.21-.22-.32-.5-.32-.86v-3.68h-1.63v-1.04h1.63v-1.96h1.24v1.96h1.76v1.04h-1.76v3.47c0,.24.11.36.34.36h1.24v1.04h-1.63Z"/><path class="cls-12" d="M86.3,60.46v-8.4h3.34c.51,0,.97.1,1.37.31s.72.49.95.86c.23.37.34.82.34,1.34v.16c0,.52-.12.97-.35,1.34-.24.38-.55.66-.95.86-.4.2-.85.3-1.36.3h-2.04v3.23h-1.3ZM87.59,56.05h1.91c.46,0,.82-.12,1.09-.36.27-.24.41-.57.41-.98v-.12c0-.42-.14-.76-.41-1-.27-.24-.64-.36-1.09-.36h-1.91v2.82Z"/><path class="cls-12" d="M93.57,60.46v-8.4h1.24v8.4h-1.24Z"/><path class="cls-12" d="M98.48,60.62c-.42,0-.8-.07-1.13-.22-.33-.14-.6-.36-.79-.64-.2-.28-.29-.62-.29-1.02s.1-.75.29-1.01c.2-.27.46-.47.8-.61.34-.14.73-.2,1.16-.2h1.8v-.38c0-.34-.1-.62-.31-.83-.21-.21-.53-.31-.96-.31s-.75.1-.97.3-.37.46-.44.78l-1.15-.37c.1-.32.25-.61.46-.87s.49-.47.85-.63c.35-.16.78-.24,1.27-.24.77,0,1.37.2,1.81.59.44.39.66.95.66,1.67v2.44c0,.24.11.36.34.36h.5v1.03h-.92c-.28,0-.51-.07-.68-.22-.18-.14-.26-.34-.26-.59v-.04h-.18c-.06.12-.16.26-.29.42s-.32.3-.56.41c-.25.12-.58.17-.98.17ZM98.66,59.6c.5,0,.9-.14,1.2-.43.3-.28.46-.67.46-1.17v-.12h-1.73c-.33,0-.59.07-.79.21-.2.14-.3.35-.3.62s.1.49.31.65.49.24.85.24Z"/><path class="cls-12" d="M105.38,60.46c-.36,0-.65-.11-.86-.32-.21-.22-.32-.5-.32-.86v-3.68h-1.63v-1.04h1.63v-1.96h1.24v1.96h1.76v1.04h-1.76v3.47c0,.24.11.36.34.36h1.24v1.04h-1.63Z"/><path class="cls-12" d="M109.4,60.46v-4.87h-1.66v-1.04h1.66v-1.3c0-.36.11-.65.32-.86s.5-.32.86-.32h1.52v1.04h-1.13c-.23,0-.35.12-.35.36v1.08h1.7v1.04h-1.7v4.87h-1.24Z"/><path class="cls-12" d="M116.13,60.62c-.59,0-1.12-.12-1.58-.37-.46-.24-.82-.59-1.09-1.05-.26-.46-.4-1-.4-1.62v-.18c0-.62.13-1.16.4-1.61.26-.45.63-.8,1.09-1.05.46-.25.99-.37,1.58-.37s1.12.12,1.58.37.83.6,1.09,1.05c.26.45.4.99.4,1.61v.18c0,.62-.13,1.16-.4,1.62-.26.46-.63.81-1.09,1.05s-.99.37-1.58.37ZM116.13,59.52c.54,0,.99-.17,1.33-.52s.51-.83.51-1.45v-.11c0-.62-.17-1.1-.5-1.45s-.78-.52-1.33-.52-.97.17-1.31.52-.51.83-.51,1.45v.11c0,.62.17,1.1.51,1.45s.78.52,1.31.52Z"/><path class="cls-12" d="M120.74,60.46v-5.92h1.21v.7h.19c.1-.25.25-.43.46-.55.21-.12.47-.17.79-.17h.71v1.12h-.76c-.4,0-.73.11-.98.33-.26.22-.38.56-.38,1.01v3.48h-1.24Z"/><path class="cls-12" d="M125.38,60.46v-5.92h1.21v.7h.19c.11-.21.29-.39.54-.55.25-.16.58-.24,1.01-.24s.79.09,1.06.27c.27.18.47.41.61.69h.19c.14-.27.33-.5.59-.68.26-.18.63-.28,1.11-.28.38,0,.72.08,1.02.23.3.16.53.39.71.7.18.31.26.69.26,1.15v3.94h-1.24v-3.84c0-.36-.1-.64-.29-.83-.2-.2-.47-.29-.83-.29-.38,0-.69.12-.92.37s-.35.6-.35,1.07v3.53h-1.24v-3.84c0-.36-.1-.64-.29-.83s-.47-.29-.83-.29c-.38,0-.69.12-.92.37-.23.25-.35.6-.35,1.07v3.53h-1.24Z"/><path class="cls-12" d="M138.09,60.62c-.75,0-1.38-.17-1.87-.5s-.8-.84-.91-1.52l1.15-.28c.06.33.17.59.32.78.15.19.34.33.57.41.23.08.47.12.74.12.39,0,.69-.08.91-.23.21-.15.32-.35.32-.59s-.1-.42-.3-.53-.5-.2-.89-.28l-.41-.07c-.4-.07-.76-.18-1.09-.31s-.59-.32-.78-.56c-.19-.24-.29-.55-.29-.92,0-.56.21-.99.62-1.3.42-.31.97-.46,1.66-.46s1.21.15,1.64.45.71.71.83,1.22l-1.15.32c-.07-.36-.22-.61-.46-.76-.23-.15-.52-.22-.86-.22s-.6.06-.79.19-.29.3-.29.52c0,.24.09.42.28.53.19.11.44.2.76.25l.42.07c.42.07.81.17,1.16.3.35.13.63.31.83.55s.31.56.31.96c0,.59-.22,1.05-.66,1.38-.44.33-1.03.49-1.78.49Z"/><path class="cls-7" d="M0,111h143.01c7.23,0,13.1,7.16,13.1,16h0c0,8.84-5.86,16-13.1,16H0"/><path class="cls-12" d="M6.67,131.46v-1.15h1.13v-6.1h-1.13v-1.15h3.36c1.12,0,1.98.28,2.57.85s.89,1.42.89,2.57v1.57c0,1.14-.3,2-.89,2.56-.6.56-1.45.85-2.57.85h-3.36ZM9.1,130.28h.94c.73,0,1.27-.18,1.62-.55.35-.37.53-.92.53-1.64v-1.66c0-.74-.18-1.28-.53-1.64-.35-.36-.89-.54-1.62-.54h-.94v6.04Z"/><path class="cls-12" d="M17.71,131.62c-.6,0-1.12-.13-1.57-.38s-.8-.61-1.05-1.07-.38-.99-.38-1.6v-.14c0-.62.12-1.15.37-1.61s.59-.82,1.04-1.07c.44-.25.96-.38,1.54-.38s1.07.13,1.49.38c.43.25.76.6,1,1.05.24.45.36.97.36,1.57v.47h-4.55c.02.52.19.93.52,1.24s.75.46,1.24.46c.46,0,.81-.1,1.05-.31.24-.21.42-.45.55-.72l1.02.53c-.11.22-.27.46-.49.71s-.49.46-.83.62c-.34.17-.78.25-1.32.25ZM15.98,127.89h3.28c-.03-.45-.19-.8-.48-1.05s-.66-.38-1.13-.38-.84.13-1.13.38-.47.6-.53,1.05Z"/><path class="cls-12" d="M23.17,131.46l-1.99-5.92h1.31l1.57,5h.19l1.57-5h1.31l-1.99,5.92h-1.97Z"/><path class="cls-12" d="M30.83,131.62c-.6,0-1.12-.13-1.57-.38s-.8-.61-1.05-1.07-.38-.99-.38-1.6v-.14c0-.62.12-1.15.37-1.61s.59-.82,1.04-1.07c.44-.25.96-.38,1.54-.38s1.07.13,1.49.38c.43.25.76.6,1,1.05.24.45.36.97.36,1.57v.47h-4.55c.02.52.19.93.52,1.24s.75.46,1.24.46c.46,0,.81-.1,1.05-.31.24-.21.42-.45.55-.72l1.02.53c-.11.22-.27.46-.49.71s-.49.46-.83.62c-.34.17-.78.25-1.32.25ZM29.11,127.89h3.28c-.03-.45-.19-.8-.48-1.05s-.66-.38-1.13-.38-.84.13-1.13.38-.47.6-.53,1.05Z"/><path class="cls-12" d="M35.13,131.46v-8.4h1.24v8.4h-1.24Z"/><path class="cls-12" d="M40.97,131.62c-.59,0-1.12-.12-1.58-.37-.46-.24-.82-.59-1.09-1.05-.26-.46-.4-1-.4-1.62v-.18c0-.62.13-1.16.4-1.61.26-.45.63-.8,1.09-1.05.46-.25.99-.37,1.58-.37s1.12.12,1.58.37.83.6,1.09,1.05c.26.45.4.99.4,1.61v.18c0,.62-.13,1.16-.4,1.62-.26.46-.63.81-1.09,1.05s-.99.37-1.58.37ZM40.97,130.52c.54,0,.99-.17,1.33-.52s.51-.83.51-1.45v-.11c0-.62-.17-1.1-.5-1.45s-.78-.52-1.33-.52-.97.17-1.31.52-.51.83-.51,1.45v.11c0,.62.17,1.1.51,1.45s.78.52,1.31.52Z"/><path class="cls-12" d="M45.58,133.86v-8.32h1.21v.85h.19c.15-.26.38-.5.69-.71.31-.21.75-.31,1.33-.31.5,0,.95.12,1.36.36.41.24.74.59,1,1.04.25.45.38,1,.38,1.64v.18c0,.64-.12,1.19-.37,1.64-.25.45-.58.8-1,1.04-.42.24-.87.36-1.37.36-.38,0-.71-.05-.97-.14-.26-.1-.48-.22-.64-.37-.16-.15-.29-.3-.38-.46h-.19v3.2h-1.24ZM48.64,130.54c.54,0,.99-.17,1.33-.52s.52-.84.52-1.48v-.11c0-.63-.17-1.12-.52-1.46-.35-.34-.79-.52-1.33-.52s-.97.17-1.31.52c-.35.34-.52.83-.52,1.46v.11c0,.64.17,1.13.52,1.48.35.34.79.52,1.31.52Z"/><path class="cls-12" d="M53.27,131.46v-5.92h1.21v.7h.19c.11-.21.29-.39.54-.55.25-.16.58-.24,1.01-.24s.79.09,1.06.27c.27.18.47.41.61.69h.19c.14-.27.33-.5.59-.68.26-.18.63-.28,1.11-.28.38,0,.72.08,1.02.23.3.16.53.39.71.7.18.31.26.69.26,1.15v3.94h-1.24v-3.84c0-.36-.1-.64-.29-.83-.2-.2-.47-.29-.83-.29-.38,0-.69.12-.92.37s-.35.6-.35,1.07v3.53h-1.24v-3.84c0-.36-.1-.64-.29-.83s-.47-.29-.83-.29c-.38,0-.69.12-.92.37-.23.25-.35.6-.35,1.07v3.53h-1.24Z"/><path class="cls-12" d="M66.27,131.62c-.6,0-1.12-.13-1.57-.38s-.8-.61-1.05-1.07-.38-.99-.38-1.6v-.14c0-.62.12-1.15.37-1.61s.59-.82,1.04-1.07c.44-.25.96-.38,1.54-.38s1.07.13,1.49.38c.43.25.76.6,1,1.05.24.45.36.97.36,1.57v.47h-4.55c.02.52.19.93.52,1.24s.75.46,1.24.46c.46,0,.81-.1,1.05-.31.24-.21.42-.45.55-.72l1.02.53c-.11.22-.27.46-.49.71s-.49.46-.83.62c-.34.17-.78.25-1.32.25ZM64.54,127.89h3.28c-.03-.45-.19-.8-.48-1.05s-.66-.38-1.13-.38-.84.13-1.13.38-.47.6-.53,1.05Z"/><path class="cls-12" d="M70.57,131.46v-5.92h1.21v.89h.19c.11-.24.31-.46.6-.67s.72-.31,1.28-.31c.45,0,.85.1,1.19.3.35.2.62.48.82.85.2.36.3.8.3,1.31v3.55h-1.24v-3.46c0-.51-.13-.89-.38-1.13-.26-.24-.61-.37-1.06-.37-.51,0-.92.17-1.23.5-.31.34-.46.82-.46,1.46v2.99h-1.24Z"/><path class="cls-12" d="M80,131.46c-.36,0-.65-.11-.86-.32-.21-.22-.32-.5-.32-.86v-3.68h-1.63v-1.04h1.63v-1.96h1.24v1.96h1.76v1.04h-1.76v3.47c0,.24.11.36.34.36h1.24v1.04h-1.63Z"/><path class="cls-12" d="M86.3,131.46v-8.4h3.34c.51,0,.97.1,1.37.31s.72.49.95.86c.23.37.34.82.34,1.34v.16c0,.52-.12.97-.35,1.34-.24.38-.55.66-.95.86-.4.2-.85.3-1.36.3h-2.04v3.23h-1.3ZM87.59,127.05h1.91c.46,0,.82-.12,1.09-.36.27-.24.41-.57.41-.98v-.12c0-.42-.14-.76-.41-1-.27-.24-.64-.36-1.09-.36h-1.91v2.82Z"/><path class="cls-12" d="M93.57,131.46v-8.4h1.24v8.4h-1.24Z"/><path class="cls-12" d="M98.48,131.62c-.42,0-.8-.07-1.13-.22-.33-.14-.6-.36-.79-.64-.2-.28-.29-.62-.29-1.02s.1-.75.29-1.01c.2-.27.46-.47.8-.61.34-.14.73-.2,1.16-.2h1.8v-.38c0-.34-.1-.62-.31-.83-.21-.21-.53-.31-.96-.31s-.75.1-.97.3-.37.46-.44.78l-1.15-.37c.1-.32.25-.61.46-.87s.49-.47.85-.63c.35-.16.78-.24,1.27-.24.77,0,1.37.2,1.81.59.44.39.66.95.66,1.67v2.44c0,.24.11.36.34.36h.5v1.03h-.92c-.28,0-.51-.07-.68-.22-.18-.14-.26-.34-.26-.59v-.04h-.18c-.06.12-.16.26-.29.42s-.32.3-.56.41c-.25.12-.58.17-.98.17ZM98.66,130.6c.5,0,.9-.14,1.2-.43.3-.28.46-.67.46-1.17v-.12h-1.73c-.33,0-.59.07-.79.21-.2.14-.3.35-.3.62s.1.49.31.65.49.24.85.24Z"/><path class="cls-12" d="M105.38,131.46c-.36,0-.65-.11-.86-.32-.21-.22-.32-.5-.32-.86v-3.68h-1.63v-1.04h1.63v-1.96h1.24v1.96h1.76v1.04h-1.76v3.47c0,.24.11.36.34.36h1.24v1.04h-1.63Z"/><path class="cls-12" d="M109.4,131.46v-4.87h-1.66v-1.04h1.66v-1.3c0-.36.11-.65.32-.86s.5-.32.86-.32h1.52v1.04h-1.13c-.23,0-.35.12-.35.36v1.08h1.7v1.04h-1.7v4.87h-1.24Z"/><path class="cls-12" d="M116.13,131.62c-.59,0-1.12-.12-1.58-.37-.46-.24-.82-.59-1.09-1.05-.26-.46-.4-1-.4-1.62v-.18c0-.62.13-1.16.4-1.61.26-.45.63-.8,1.09-1.05.46-.25.99-.37,1.58-.37s1.12.12,1.58.37.83.6,1.09,1.05c.26.45.4.99.4,1.61v.18c0,.62-.13,1.16-.4,1.62-.26.46-.63.81-1.09,1.05s-.99.37-1.58.37ZM116.13,130.52c.54,0,.99-.17,1.33-.52s.51-.83.51-1.45v-.11c0-.62-.17-1.1-.5-1.45s-.78-.52-1.33-.52-.97.17-1.31.52-.51.83-.51,1.45v.11c0,.62.17,1.1.51,1.45s.78.52,1.31.52Z"/><path class="cls-12" d="M120.74,131.46v-5.92h1.21v.7h.19c.1-.25.25-.43.46-.55.21-.12.47-.17.79-.17h.71v1.12h-.76c-.4,0-.73.11-.98.33-.26.22-.38.56-.38,1.01v3.48h-1.24Z"/><path class="cls-12" d="M125.38,131.46v-5.92h1.21v.7h.19c.11-.21.29-.39.54-.55.25-.16.58-.24,1.01-.24s.79.09,1.06.27c.27.18.47.41.61.69h.19c.14-.27.33-.5.59-.68.26-.18.63-.28,1.11-.28.38,0,.72.08,1.02.23.3.16.53.39.71.7.18.31.26.69.26,1.15v3.94h-1.24v-3.84c0-.36-.1-.64-.29-.83-.2-.2-.47-.29-.83-.29-.38,0-.69.12-.92.37s-.35.6-.35,1.07v3.53h-1.24v-3.84c0-.36-.1-.64-.29-.83s-.47-.29-.83-.29c-.38,0-.69.12-.92.37-.23.25-.35.6-.35,1.07v3.53h-1.24Z"/><path class="cls-12" d="M138.09,131.62c-.75,0-1.38-.17-1.87-.5s-.8-.84-.91-1.52l1.15-.28c.06.33.17.59.32.78.15.19.34.33.57.41.23.08.47.12.74.12.39,0,.69-.08.91-.23.21-.15.32-.35.32-.59s-.1-.42-.3-.53-.5-.2-.89-.28l-.41-.07c-.4-.07-.76-.18-1.09-.31s-.59-.32-.78-.56c-.19-.24-.29-.55-.29-.92,0-.56.21-.99.62-1.3.42-.31.97-.46,1.66-.46s1.21.15,1.64.45.71.71.83,1.22l-1.15.32c-.07-.36-.22-.61-.46-.76-.23-.15-.52-.22-.86-.22s-.6.06-.79.19-.29.3-.29.52c0,.24.09.42.28.53.19.11.44.2.76.25l.42.07c.42.07.81.17,1.16.3.35.13.63.31.83.55s.31.56.31.96c0,.59-.22,1.05-.66,1.38-.44.33-1.03.49-1.78.49Z"/><path class="cls-2" d="M0,178h143.01c7.23,0,13.1,7.16,13.1,16h0c0,8.84-5.86,16-13.1,16H0"/><path class="cls-12" d="M6.67,198.46v-1.15h1.13v-6.1h-1.13v-1.15h3.36c1.12,0,1.98.28,2.57.85s.89,1.42.89,2.57v1.57c0,1.14-.3,2-.89,2.56-.6.56-1.45.85-2.57.85h-3.36ZM9.1,197.28h.94c.73,0,1.27-.18,1.62-.55.35-.37.53-.92.53-1.64v-1.66c0-.74-.18-1.28-.53-1.64-.35-.36-.89-.54-1.62-.54h-.94v6.04Z"/><path class="cls-12" d="M17.71,198.62c-.6,0-1.12-.13-1.57-.38s-.8-.61-1.05-1.07-.38-.99-.38-1.6v-.14c0-.62.12-1.15.37-1.61s.59-.82,1.04-1.07c.44-.25.96-.38,1.54-.38s1.07.13,1.49.38c.43.25.76.6,1,1.05.24.45.36.97.36,1.57v.47h-4.55c.02.52.19.93.52,1.24s.75.46,1.24.46c.46,0,.81-.1,1.05-.31.24-.21.42-.45.55-.72l1.02.53c-.11.22-.27.46-.49.71s-.49.46-.83.62c-.34.17-.78.25-1.32.25ZM15.98,194.89h3.28c-.03-.45-.19-.8-.48-1.05s-.66-.38-1.13-.38-.84.13-1.13.38-.47.6-.53,1.05Z"/><path class="cls-12" d="M23.17,198.46l-1.99-5.92h1.31l1.57,5h.19l1.57-5h1.31l-1.99,5.92h-1.97Z"/><path class="cls-12" d="M30.83,198.62c-.6,0-1.12-.13-1.57-.38s-.8-.61-1.05-1.07-.38-.99-.38-1.6v-.14c0-.62.12-1.15.37-1.61s.59-.82,1.04-1.07c.44-.25.96-.38,1.54-.38s1.07.13,1.49.38c.43.25.76.6,1,1.05.24.45.36.97.36,1.57v.47h-4.55c.02.52.19.93.52,1.24s.75.46,1.24.46c.46,0,.81-.1,1.05-.31.24-.21.42-.45.55-.72l1.02.53c-.11.22-.27.46-.49.71s-.49.46-.83.62c-.34.17-.78.25-1.32.25ZM29.11,194.89h3.28c-.03-.45-.19-.8-.48-1.05s-.66-.38-1.13-.38-.84.13-1.13.38-.47.6-.53,1.05Z"/><path class="cls-12" d="M35.13,198.46v-8.4h1.24v8.4h-1.24Z"/><path class="cls-12" d="M40.97,198.62c-.59,0-1.12-.12-1.58-.37-.46-.24-.82-.59-1.09-1.05-.26-.46-.4-1-.4-1.62v-.18c0-.62.13-1.16.4-1.61.26-.45.63-.8,1.09-1.05.46-.25.99-.37,1.58-.37s1.12.12,1.58.37.83.6,1.09,1.05c.26.45.4.99.4,1.61v.18c0,.62-.13,1.16-.4,1.62-.26.46-.63.81-1.09,1.05s-.99.37-1.58.37ZM40.97,197.52c.54,0,.99-.17,1.33-.52s.51-.83.51-1.45v-.11c0-.62-.17-1.1-.5-1.45s-.78-.52-1.33-.52-.97.17-1.31.52-.51.83-.51,1.45v.11c0,.62.17,1.1.51,1.45s.78.52,1.31.52Z"/><path class="cls-12" d="M45.58,200.86v-8.32h1.21v.85h.19c.15-.26.38-.5.69-.71.31-.21.75-.31,1.33-.31.5,0,.95.12,1.36.36.41.24.74.59,1,1.04.25.45.38,1,.38,1.64v.18c0,.64-.12,1.19-.37,1.64-.25.45-.58.8-1,1.04-.42.24-.87.36-1.37.36-.38,0-.71-.05-.97-.14-.26-.1-.48-.22-.64-.37-.16-.15-.29-.3-.38-.46h-.19v3.2h-1.24ZM48.64,197.54c.54,0,.99-.17,1.33-.52s.52-.84.52-1.48v-.11c0-.63-.17-1.12-.52-1.46-.35-.34-.79-.52-1.33-.52s-.97.17-1.31.52c-.35.34-.52.83-.52,1.46v.11c0,.64.17,1.13.52,1.48.35.34.79.52,1.31.52Z"/><path class="cls-12" d="M53.27,198.46v-5.92h1.21v.7h.19c.11-.21.29-.39.54-.55.25-.16.58-.24,1.01-.24s.79.09,1.06.27c.27.18.47.41.61.69h.19c.14-.27.33-.5.59-.68.26-.18.63-.28,1.11-.28.38,0,.72.08,1.02.23.3.16.53.39.71.7.18.31.26.69.26,1.15v3.94h-1.24v-3.84c0-.36-.1-.64-.29-.83-.2-.2-.47-.29-.83-.29-.38,0-.69.12-.92.37s-.35.6-.35,1.07v3.53h-1.24v-3.84c0-.36-.1-.64-.29-.83s-.47-.29-.83-.29c-.38,0-.69.12-.92.37-.23.25-.35.6-.35,1.07v3.53h-1.24Z"/><path class="cls-12" d="M66.27,198.62c-.6,0-1.12-.13-1.57-.38s-.8-.61-1.05-1.07-.38-.99-.38-1.6v-.14c0-.62.12-1.15.37-1.61s.59-.82,1.04-1.07c.44-.25.96-.38,1.54-.38s1.07.13,1.49.38c.43.25.76.6,1,1.05.24.45.36.97.36,1.57v.47h-4.55c.02.52.19.93.52,1.24s.75.46,1.24.46c.46,0,.81-.1,1.05-.31.24-.21.42-.45.55-.72l1.02.53c-.11.22-.27.46-.49.71s-.49.46-.83.62c-.34.17-.78.25-1.32.25ZM64.54,194.89h3.28c-.03-.45-.19-.8-.48-1.05s-.66-.38-1.13-.38-.84.13-1.13.38-.47.6-.53,1.05Z"/><path class="cls-12" d="M70.57,198.46v-5.92h1.21v.89h.19c.11-.24.31-.46.6-.67s.72-.31,1.28-.31c.45,0,.85.1,1.19.3.35.2.62.48.82.85.2.36.3.8.3,1.31v3.55h-1.24v-3.46c0-.51-.13-.89-.38-1.13-.26-.24-.61-.37-1.06-.37-.51,0-.92.17-1.23.5-.31.34-.46.82-.46,1.46v2.99h-1.24Z"/><path class="cls-12" d="M80,198.46c-.36,0-.65-.11-.86-.32-.21-.22-.32-.5-.32-.86v-3.68h-1.63v-1.04h1.63v-1.96h1.24v1.96h1.76v1.04h-1.76v3.47c0,.24.11.36.34.36h1.24v1.04h-1.63Z"/><path class="cls-12" d="M86.3,198.46v-8.4h3.34c.51,0,.97.1,1.37.31s.72.49.95.86c.23.37.34.82.34,1.34v.16c0,.52-.12.97-.35,1.34-.24.38-.55.66-.95.86-.4.2-.85.3-1.36.3h-2.04v3.23h-1.3ZM87.59,194.05h1.91c.46,0,.82-.12,1.09-.36.27-.24.41-.57.41-.98v-.12c0-.42-.14-.76-.41-1-.27-.24-.64-.36-1.09-.36h-1.91v2.82Z"/><path class="cls-12" d="M93.57,198.46v-8.4h1.24v8.4h-1.24Z"/><path class="cls-12" d="M98.48,198.62c-.42,0-.8-.07-1.13-.22-.33-.14-.6-.36-.79-.64-.2-.28-.29-.62-.29-1.02s.1-.75.29-1.01c.2-.27.46-.47.8-.61.34-.14.73-.2,1.16-.2h1.8v-.38c0-.34-.1-.62-.31-.83-.21-.21-.53-.31-.96-.31s-.75.1-.97.3-.37.46-.44.78l-1.15-.37c.1-.32.25-.61.46-.87s.49-.47.85-.63c.35-.16.78-.24,1.27-.24.77,0,1.37.2,1.81.59.44.39.66.95.66,1.67v2.44c0,.24.11.36.34.36h.5v1.03h-.92c-.28,0-.51-.07-.68-.22-.18-.14-.26-.34-.26-.59v-.04h-.18c-.06.12-.16.26-.29.42s-.32.3-.56.41c-.25.12-.58.17-.98.17ZM98.66,197.6c.5,0,.9-.14,1.2-.43.3-.28.46-.67.46-1.17v-.12h-1.73c-.33,0-.59.07-.79.21-.2.14-.3.35-.3.62s.1.49.31.65.49.24.85.24Z"/><path class="cls-12" d="M105.38,198.46c-.36,0-.65-.11-.86-.32-.21-.22-.32-.5-.32-.86v-3.68h-1.63v-1.04h1.63v-1.96h1.24v1.96h1.76v1.04h-1.76v3.47c0,.24.11.36.34.36h1.24v1.04h-1.63Z"/><path class="cls-12" d="M109.4,198.46v-4.87h-1.66v-1.04h1.66v-1.3c0-.36.11-.65.32-.86s.5-.32.86-.32h1.52v1.04h-1.13c-.23,0-.35.12-.35.36v1.08h1.7v1.04h-1.7v4.87h-1.24Z"/><path class="cls-12" d="M116.13,198.62c-.59,0-1.12-.12-1.58-.37-.46-.24-.82-.59-1.09-1.05-.26-.46-.4-1-.4-1.62v-.18c0-.62.13-1.16.4-1.61.26-.45.63-.8,1.09-1.05.46-.25.99-.37,1.58-.37s1.12.12,1.58.37.83.6,1.09,1.05c.26.45.4.99.4,1.61v.18c0,.62-.13,1.16-.4,1.62-.26.46-.63.81-1.09,1.05s-.99.37-1.58.37ZM116.13,197.52c.54,0,.99-.17,1.33-.52s.51-.83.51-1.45v-.11c0-.62-.17-1.1-.5-1.45s-.78-.52-1.33-.52-.97.17-1.31.52-.51.83-.51,1.45v.11c0,.62.17,1.1.51,1.45s.78.52,1.31.52Z"/><path class="cls-12" d="M120.74,198.46v-5.92h1.21v.7h.19c.1-.25.25-.43.46-.55.21-.12.47-.17.79-.17h.71v1.12h-.76c-.4,0-.73.11-.98.33-.26.22-.38.56-.38,1.01v3.48h-1.24Z"/><path class="cls-12" d="M125.38,198.46v-5.92h1.21v.7h.19c.11-.21.29-.39.54-.55.25-.16.58-.24,1.01-.24s.79.09,1.06.27c.27.18.47.41.61.69h.19c.14-.27.33-.5.59-.68.26-.18.63-.28,1.11-.28.38,0,.72.08,1.02.23.3.16.53.39.71.7.18.31.26.69.26,1.15v3.94h-1.24v-3.84c0-.36-.1-.64-.29-.83-.2-.2-.47-.29-.83-.29-.38,0-.69.12-.92.37s-.35.6-.35,1.07v3.53h-1.24v-3.84c0-.36-.1-.64-.29-.83s-.47-.29-.83-.29c-.38,0-.69.12-.92.37-.23.25-.35.6-.35,1.07v3.53h-1.24Z"/><path class="cls-12" d="M138.09,198.62c-.75,0-1.38-.17-1.87-.5s-.8-.84-.91-1.52l1.15-.28c.06.33.17.59.32.78.15.19.34.33.57.41.23.08.47.12.74.12.39,0,.69-.08.91-.23.21-.15.32-.35.32-.59s-.1-.42-.3-.53-.5-.2-.89-.28l-.41-.07c-.4-.07-.76-.18-1.09-.31s-.59-.32-.78-.56c-.19-.24-.29-.55-.29-.92,0-.56.21-.99.62-1.3.42-.31.97-.46,1.66-.46s1.21.15,1.64.45.71.71.83,1.22l-1.15.32c-.07-.36-.22-.61-.46-.76-.23-.15-.52-.22-.86-.22s-.6.06-.79.19-.29.3-.29.52c0,.24.09.42.28.53.19.11.44.2.76.25l.42.07c.42.07.81.17,1.16.3.35.13.63.31.83.55s.31.56.31.96c0,.59-.22,1.05-.66,1.38-.44.33-1.03.49-1.78.49Z"/><path class="cls-1" d="M0,263h143.01c7.23,0,13.1,7.16,13.1,16h0c0,8.84-5.86,16-13.1,16H0"/><path class="cls-12" d="M6.67,283.46v-1.15h1.13v-6.1h-1.13v-1.15h3.36c1.12,0,1.98.28,2.57.85s.89,1.42.89,2.57v1.57c0,1.14-.3,2-.89,2.56-.6.56-1.45.85-2.57.85h-3.36ZM9.1,282.28h.94c.73,0,1.27-.18,1.62-.55.35-.37.53-.92.53-1.64v-1.66c0-.74-.18-1.28-.53-1.64-.35-.36-.89-.54-1.62-.54h-.94v6.04Z"/><path class="cls-12" d="M17.71,283.62c-.6,0-1.12-.13-1.57-.38s-.8-.61-1.05-1.07-.38-.99-.38-1.6v-.14c0-.62.12-1.15.37-1.61s.59-.82,1.04-1.07c.44-.25.96-.38,1.54-.38s1.07.13,1.49.38c.43.25.76.6,1,1.05.24.45.36.97.36,1.57v.47h-4.55c.02.52.19.93.52,1.24s.75.46,1.24.46c.46,0,.81-.1,1.05-.31.24-.21.42-.45.55-.72l1.02.53c-.11.22-.27.46-.49.71s-.49.46-.83.62c-.34.17-.78.25-1.32.25ZM15.98,279.89h3.28c-.03-.45-.19-.8-.48-1.05s-.66-.38-1.13-.38-.84.13-1.13.38-.47.6-.53,1.05Z"/><path class="cls-12" d="M23.17,283.46l-1.99-5.92h1.31l1.57,5h.19l1.57-5h1.31l-1.99,5.92h-1.97Z"/><path class="cls-12" d="M30.83,283.62c-.6,0-1.12-.13-1.57-.38s-.8-.61-1.05-1.07-.38-.99-.38-1.6v-.14c0-.62.12-1.15.37-1.61s.59-.82,1.04-1.07c.44-.25.96-.38,1.54-.38s1.07.13,1.49.38c.43.25.76.6,1,1.05.24.45.36.97.36,1.57v.47h-4.55c.02.52.19.93.52,1.24s.75.46,1.24.46c.46,0,.81-.1,1.05-.31.24-.21.42-.45.55-.72l1.02.53c-.11.22-.27.46-.49.71s-.49.46-.83.62c-.34.17-.78.25-1.32.25ZM29.11,279.89h3.28c-.03-.45-.19-.8-.48-1.05s-.66-.38-1.13-.38-.84.13-1.13.38-.47.6-.53,1.05Z"/><path class="cls-12" d="M35.13,283.46v-8.4h1.24v8.4h-1.24Z"/><path class="cls-12" d="M40.97,283.62c-.59,0-1.12-.12-1.58-.37-.46-.24-.82-.59-1.09-1.05-.26-.46-.4-1-.4-1.62v-.18c0-.62.13-1.16.4-1.61.26-.45.63-.8,1.09-1.05.46-.25.99-.37,1.58-.37s1.12.12,1.58.37.83.6,1.09,1.05c.26.45.4.99.4,1.61v.18c0,.62-.13,1.16-.4,1.62-.26.46-.63.81-1.09,1.05s-.99.37-1.58.37ZM40.97,282.52c.54,0,.99-.17,1.33-.52s.51-.83.51-1.45v-.11c0-.62-.17-1.1-.5-1.45s-.78-.52-1.33-.52-.97.17-1.31.52-.51.83-.51,1.45v.11c0,.62.17,1.1.51,1.45s.78.52,1.31.52Z"/><path class="cls-12" d="M45.58,285.86v-8.32h1.21v.85h.19c.15-.26.38-.5.69-.71.31-.21.75-.31,1.33-.31.5,0,.95.12,1.36.36.41.24.74.59,1,1.04.25.45.38,1,.38,1.64v.18c0,.64-.12,1.19-.37,1.64-.25.45-.58.8-1,1.04-.42.24-.87.36-1.37.36-.38,0-.71-.05-.97-.14-.26-.1-.48-.22-.64-.37-.16-.15-.29-.3-.38-.46h-.19v3.2h-1.24ZM48.64,282.54c.54,0,.99-.17,1.33-.52s.52-.84.52-1.48v-.11c0-.63-.17-1.12-.52-1.46-.35-.34-.79-.52-1.33-.52s-.97.17-1.31.52c-.35.34-.52.83-.52,1.46v.11c0,.64.17,1.13.52,1.48.35.34.79.52,1.31.52Z"/><path class="cls-12" d="M53.27,283.46v-5.92h1.21v.7h.19c.11-.21.29-.39.54-.55.25-.16.58-.24,1.01-.24s.79.09,1.06.27c.27.18.47.41.61.69h.19c.14-.27.33-.5.59-.68.26-.18.63-.28,1.11-.28.38,0,.72.08,1.02.23.3.16.53.39.71.7.18.31.26.69.26,1.15v3.94h-1.24v-3.84c0-.36-.1-.64-.29-.83-.2-.2-.47-.29-.83-.29-.38,0-.69.12-.92.37s-.35.6-.35,1.07v3.53h-1.24v-3.84c0-.36-.1-.64-.29-.83s-.47-.29-.83-.29c-.38,0-.69.12-.92.37-.23.25-.35.6-.35,1.07v3.53h-1.24Z"/><path class="cls-12" d="M66.27,283.62c-.6,0-1.12-.13-1.57-.38s-.8-.61-1.05-1.07-.38-.99-.38-1.6v-.14c0-.62.12-1.15.37-1.61s.59-.82,1.04-1.07c.44-.25.96-.38,1.54-.38s1.07.13,1.49.38c.43.25.76.6,1,1.05.24.45.36.97.36,1.57v.47h-4.55c.02.52.19.93.52,1.24s.75.46,1.24.46c.46,0,.81-.1,1.05-.31.24-.21.42-.45.55-.72l1.02.53c-.11.22-.27.46-.49.71s-.49.46-.83.62c-.34.17-.78.25-1.32.25ZM64.54,279.89h3.28c-.03-.45-.19-.8-.48-1.05s-.66-.38-1.13-.38-.84.13-1.13.38-.47.6-.53,1.05Z"/><path class="cls-12" d="M70.57,283.46v-5.92h1.21v.89h.19c.11-.24.31-.46.6-.67s.72-.31,1.28-.31c.45,0,.85.1,1.19.3.35.2.62.48.82.85.2.36.3.8.3,1.31v3.55h-1.24v-3.46c0-.51-.13-.89-.38-1.13-.26-.24-.61-.37-1.06-.37-.51,0-.92.17-1.23.5-.31.34-.46.82-.46,1.46v2.99h-1.24Z"/><path class="cls-12" d="M80,283.46c-.36,0-.65-.11-.86-.32-.21-.22-.32-.5-.32-.86v-3.68h-1.63v-1.04h1.63v-1.96h1.24v1.96h1.76v1.04h-1.76v3.47c0,.24.11.36.34.36h1.24v1.04h-1.63Z"/><path class="cls-12" d="M86.3,283.46v-8.4h3.34c.51,0,.97.1,1.37.31s.72.49.95.86c.23.37.34.82.34,1.34v.16c0,.52-.12.97-.35,1.34-.24.38-.55.66-.95.86-.4.2-.85.3-1.36.3h-2.04v3.23h-1.3ZM87.59,279.05h1.91c.46,0,.82-.12,1.09-.36.27-.24.41-.57.41-.98v-.12c0-.42-.14-.76-.41-1-.27-.24-.64-.36-1.09-.36h-1.91v2.82Z"/><path class="cls-12" d="M93.57,283.46v-8.4h1.24v8.4h-1.24Z"/><path class="cls-12" d="M98.48,283.62c-.42,0-.8-.07-1.13-.22-.33-.14-.6-.36-.79-.64-.2-.28-.29-.62-.29-1.02s.1-.75.29-1.01c.2-.27.46-.47.8-.61.34-.14.73-.2,1.16-.2h1.8v-.38c0-.34-.1-.62-.31-.83-.21-.21-.53-.31-.96-.31s-.75.1-.97.3-.37.46-.44.78l-1.15-.37c.1-.32.25-.61.46-.87s.49-.47.85-.63c.35-.16.78-.24,1.27-.24.77,0,1.37.2,1.81.59.44.39.66.95.66,1.67v2.44c0,.24.11.36.34.36h.5v1.03h-.92c-.28,0-.51-.07-.68-.22-.18-.14-.26-.34-.26-.59v-.04h-.18c-.06.12-.16.26-.29.42s-.32.3-.56.41c-.25.12-.58.17-.98.17ZM98.66,282.6c.5,0,.9-.14,1.2-.43.3-.28.46-.67.46-1.17v-.12h-1.73c-.33,0-.59.07-.79.21-.2.14-.3.35-.3.62s.1.49.31.65.49.24.85.24Z"/><path class="cls-12" d="M105.38,283.46c-.36,0-.65-.11-.86-.32-.21-.22-.32-.5-.32-.86v-3.68h-1.63v-1.04h1.63v-1.96h1.24v1.96h1.76v1.04h-1.76v3.47c0,.24.11.36.34.36h1.24v1.04h-1.63Z"/><path class="cls-12" d="M109.4,283.46v-4.87h-1.66v-1.04h1.66v-1.3c0-.36.11-.65.32-.86s.5-.32.86-.32h1.52v1.04h-1.13c-.23,0-.35.12-.35.36v1.08h1.7v1.04h-1.7v4.87h-1.24Z"/><path class="cls-12" d="M116.13,283.62c-.59,0-1.12-.12-1.58-.37-.46-.24-.82-.59-1.09-1.05-.26-.46-.4-1-.4-1.62v-.18c0-.62.13-1.16.4-1.61.26-.45.63-.8,1.09-1.05.46-.25.99-.37,1.58-.37s1.12.12,1.58.37.83.6,1.09,1.05c.26.45.4.99.4,1.61v.18c0,.62-.13,1.16-.4,1.62-.26.46-.63.81-1.09,1.05s-.99.37-1.58.37ZM116.13,282.52c.54,0,.99-.17,1.33-.52s.51-.83.51-1.45v-.11c0-.62-.17-1.1-.5-1.45s-.78-.52-1.33-.52-.97.17-1.31.52-.51.83-.51,1.45v.11c0,.62.17,1.1.51,1.45s.78.52,1.31.52Z"/><path class="cls-12" d="M120.74,283.46v-5.92h1.21v.7h.19c.1-.25.25-.43.46-.55.21-.12.47-.17.79-.17h.71v1.12h-.76c-.4,0-.73.11-.98.33-.26.22-.38.56-.38,1.01v3.48h-1.24Z"/><path class="cls-12" d="M125.38,283.46v-5.92h1.21v.7h.19c.11-.21.29-.39.54-.55.25-.16.58-.24,1.01-.24s.79.09,1.06.27c.27.18.47.41.61.69h.19c.14-.27.33-.5.59-.68.26-.18.63-.28,1.11-.28.38,0,.72.08,1.02.23.3.16.53.39.71.7.18.31.26.69.26,1.15v3.94h-1.24v-3.84c0-.36-.1-.64-.29-.83-.2-.2-.47-.29-.83-.29-.38,0-.69.12-.92.37s-.35.6-.35,1.07v3.53h-1.24v-3.84c0-.36-.1-.64-.29-.83s-.47-.29-.83-.29c-.38,0-.69.12-.92.37-.23.25-.35.6-.35,1.07v3.53h-1.24Z"/><path class="cls-12" d="M138.09,283.62c-.75,0-1.38-.17-1.87-.5s-.8-.84-.91-1.52l1.15-.28c.06.33.17.59.32.78.15.19.34.33.57.41.23.08.47.12.74.12.39,0,.69-.08.91-.23.21-.15.32-.35.32-.59s-.1-.42-.3-.53-.5-.2-.89-.28l-.41-.07c-.4-.07-.76-.18-1.09-.31s-.59-.32-.78-.56c-.19-.24-.29-.55-.29-.92,0-.56.21-.99.62-1.3.42-.31.97-.46,1.66-.46s1.21.15,1.64.45.71.71.83,1.22l-1.15.32c-.07-.36-.22-.61-.46-.76-.23-.15-.52-.22-.86-.22s-.6.06-.79.19-.29.3-.29.52c0,.24.09.42.28.53.19.11.44.2.76.25l.42.07c.42.07.81.17,1.16.3.35.13.63.31.83.55s.31.56.31.96c0,.59-.22,1.05-.66,1.38-.44.33-1.03.49-1.78.49Z"/><path class="cls-8" d="M0,330h143.01c7.23,0,13.1,7.16,13.1,16h0c0,8.84-5.86,16-13.1,16H0"/><path class="cls-12" d="M6.67,350.46v-1.15h1.13v-6.1h-1.13v-1.15h3.36c1.12,0,1.98.28,2.57.85s.89,1.42.89,2.57v1.57c0,1.14-.3,2-.89,2.56-.6.56-1.45.85-2.57.85h-3.36ZM9.1,349.28h.94c.73,0,1.27-.18,1.62-.55.35-.37.53-.92.53-1.64v-1.66c0-.74-.18-1.28-.53-1.64-.35-.36-.89-.54-1.62-.54h-.94v6.04Z"/><path class="cls-12" d="M17.71,350.62c-.6,0-1.12-.13-1.57-.38s-.8-.61-1.05-1.07-.38-.99-.38-1.6v-.14c0-.62.12-1.15.37-1.61s.59-.82,1.04-1.07c.44-.25.96-.38,1.54-.38s1.07.13,1.49.38c.43.25.76.6,1,1.05.24.45.36.97.36,1.57v.47h-4.55c.02.52.19.93.52,1.24s.75.46,1.24.46c.46,0,.81-.1,1.05-.31.24-.21.42-.45.55-.72l1.02.53c-.11.22-.27.46-.49.71s-.49.46-.83.62c-.34.17-.78.25-1.32.25ZM15.98,346.89h3.28c-.03-.45-.19-.8-.48-1.05s-.66-.38-1.13-.38-.84.13-1.13.38-.47.6-.53,1.05Z"/><path class="cls-12" d="M23.17,350.46l-1.99-5.92h1.31l1.57,5h.19l1.57-5h1.31l-1.99,5.92h-1.97Z"/><path class="cls-12" d="M30.83,350.62c-.6,0-1.12-.13-1.57-.38s-.8-.61-1.05-1.07-.38-.99-.38-1.6v-.14c0-.62.12-1.15.37-1.61s.59-.82,1.04-1.07c.44-.25.96-.38,1.54-.38s1.07.13,1.49.38c.43.25.76.6,1,1.05.24.45.36.97.36,1.57v.47h-4.55c.02.52.19.93.52,1.24s.75.46,1.24.46c.46,0,.81-.1,1.05-.31.24-.21.42-.45.55-.72l1.02.53c-.11.22-.27.46-.49.71s-.49.46-.83.62c-.34.17-.78.25-1.32.25ZM29.11,346.89h3.28c-.03-.45-.19-.8-.48-1.05s-.66-.38-1.13-.38-.84.13-1.13.38-.47.6-.53,1.05Z"/><path class="cls-12" d="M35.13,350.46v-8.4h1.24v8.4h-1.24Z"/><path class="cls-12" d="M40.97,350.62c-.59,0-1.12-.12-1.58-.37-.46-.24-.82-.59-1.09-1.05-.26-.46-.4-1-.4-1.62v-.18c0-.62.13-1.16.4-1.61.26-.45.63-.8,1.09-1.05.46-.25.99-.37,1.58-.37s1.12.12,1.58.37.83.6,1.09,1.05c.26.45.4.99.4,1.61v.18c0,.62-.13,1.16-.4,1.62-.26.46-.63.81-1.09,1.05s-.99.37-1.58.37ZM40.97,349.52c.54,0,.99-.17,1.33-.52s.51-.83.51-1.45v-.11c0-.62-.17-1.1-.5-1.45s-.78-.52-1.33-.52-.97.17-1.31.52-.51.83-.51,1.45v.11c0,.62.17,1.1.51,1.45s.78.52,1.31.52Z"/><path class="cls-12" d="M45.58,352.86v-8.32h1.21v.85h.19c.15-.26.38-.5.69-.71.31-.21.75-.31,1.33-.31.5,0,.95.12,1.36.36.41.24.74.59,1,1.04.25.45.38,1,.38,1.64v.18c0,.64-.12,1.19-.37,1.64-.25.45-.58.8-1,1.04-.42.24-.87.36-1.37.36-.38,0-.71-.05-.97-.14-.26-.1-.48-.22-.64-.37-.16-.15-.29-.3-.38-.46h-.19v3.2h-1.24ZM48.64,349.54c.54,0,.99-.17,1.33-.52s.52-.84.52-1.48v-.11c0-.63-.17-1.12-.52-1.46-.35-.34-.79-.52-1.33-.52s-.97.17-1.31.52c-.35.34-.52.83-.52,1.46v.11c0,.64.17,1.13.52,1.48.35.34.79.52,1.31.52Z"/><path class="cls-12" d="M53.27,350.46v-5.92h1.21v.7h.19c.11-.21.29-.39.54-.55.25-.16.58-.24,1.01-.24s.79.09,1.06.27c.27.18.47.41.61.69h.19c.14-.27.33-.5.59-.68.26-.18.63-.28,1.11-.28.38,0,.72.08,1.02.23.3.16.53.39.71.7.18.31.26.69.26,1.15v3.94h-1.24v-3.84c0-.36-.1-.64-.29-.83-.2-.2-.47-.29-.83-.29-.38,0-.69.12-.92.37s-.35.6-.35,1.07v3.53h-1.24v-3.84c0-.36-.1-.64-.29-.83s-.47-.29-.83-.29c-.38,0-.69.12-.92.37-.23.25-.35.6-.35,1.07v3.53h-1.24Z"/><path class="cls-12" d="M66.27,350.62c-.6,0-1.12-.13-1.57-.38s-.8-.61-1.05-1.07-.38-.99-.38-1.6v-.14c0-.62.12-1.15.37-1.61s.59-.82,1.04-1.07c.44-.25.96-.38,1.54-.38s1.07.13,1.49.38c.43.25.76.6,1,1.05.24.45.36.97.36,1.57v.47h-4.55c.02.52.19.93.52,1.24s.75.46,1.24.46c.46,0,.81-.1,1.05-.31.24-.21.42-.45.55-.72l1.02.53c-.11.22-.27.46-.49.71s-.49.46-.83.62c-.34.17-.78.25-1.32.25ZM64.54,346.89h3.28c-.03-.45-.19-.8-.48-1.05s-.66-.38-1.13-.38-.84.13-1.13.38-.47.6-.53,1.05Z"/><path class="cls-12" d="M70.57,350.46v-5.92h1.21v.89h.19c.11-.24.31-.46.6-.67s.72-.31,1.28-.31c.45,0,.85.1,1.19.3.35.2.62.48.82.85.2.36.3.8.3,1.31v3.55h-1.24v-3.46c0-.51-.13-.89-.38-1.13-.26-.24-.61-.37-1.06-.37-.51,0-.92.17-1.23.5-.31.34-.46.82-.46,1.46v2.99h-1.24Z"/><path class="cls-12" d="M80,350.46c-.36,0-.65-.11-.86-.32-.21-.22-.32-.5-.32-.86v-3.68h-1.63v-1.04h1.63v-1.96h1.24v1.96h1.76v1.04h-1.76v3.47c0,.24.11.36.34.36h1.24v1.04h-1.63Z"/><path class="cls-12" d="M86.3,350.46v-8.4h3.34c.51,0,.97.1,1.37.31s.72.49.95.86c.23.37.34.82.34,1.34v.16c0,.52-.12.97-.35,1.34-.24.38-.55.66-.95.86-.4.2-.85.3-1.36.3h-2.04v3.23h-1.3ZM87.59,346.05h1.91c.46,0,.82-.12,1.09-.36.27-.24.41-.57.41-.98v-.12c0-.42-.14-.76-.41-1-.27-.24-.64-.36-1.09-.36h-1.91v2.82Z"/><path class="cls-12" d="M93.57,350.46v-8.4h1.24v8.4h-1.24Z"/><path class="cls-12" d="M98.48,350.62c-.42,0-.8-.07-1.13-.22-.33-.14-.6-.36-.79-.64-.2-.28-.29-.62-.29-1.02s.1-.75.29-1.01c.2-.27.46-.47.8-.61.34-.14.73-.2,1.16-.2h1.8v-.38c0-.34-.1-.62-.31-.83-.21-.21-.53-.31-.96-.31s-.75.1-.97.3-.37.46-.44.78l-1.15-.37c.1-.32.25-.61.46-.87s.49-.47.85-.63c.35-.16.78-.24,1.27-.24.77,0,1.37.2,1.81.59.44.39.66.95.66,1.67v2.44c0,.24.11.36.34.36h.5v1.03h-.92c-.28,0-.51-.07-.68-.22-.18-.14-.26-.34-.26-.59v-.04h-.18c-.06.12-.16.26-.29.42s-.32.3-.56.41c-.25.12-.58.17-.98.17ZM98.66,349.6c.5,0,.9-.14,1.2-.43.3-.28.46-.67.46-1.17v-.12h-1.73c-.33,0-.59.07-.79.21-.2.14-.3.35-.3.62s.1.49.31.65.49.24.85.24Z"/><path class="cls-12" d="M105.38,350.46c-.36,0-.65-.11-.86-.32-.21-.22-.32-.5-.32-.86v-3.68h-1.63v-1.04h1.63v-1.96h1.24v1.96h1.76v1.04h-1.76v3.47c0,.24.11.36.34.36h1.24v1.04h-1.63Z"/><path class="cls-12" d="M109.4,350.46v-4.87h-1.66v-1.04h1.66v-1.3c0-.36.11-.65.32-.86s.5-.32.86-.32h1.52v1.04h-1.13c-.23,0-.35.12-.35.36v1.08h1.7v1.04h-1.7v4.87h-1.24Z"/><path class="cls-12" d="M116.13,350.62c-.59,0-1.12-.12-1.58-.37-.46-.24-.82-.59-1.09-1.05-.26-.46-.4-1-.4-1.62v-.18c0-.62.13-1.16.4-1.61.26-.45.63-.8,1.09-1.05.46-.25.99-.37,1.58-.37s1.12.12,1.58.37.83.6,1.09,1.05c.26.45.4.99.4,1.61v.18c0,.62-.13,1.16-.4,1.62-.26.46-.63.81-1.09,1.05s-.99.37-1.58.37ZM116.13,349.52c.54,0,.99-.17,1.33-.52s.51-.83.51-1.45v-.11c0-.62-.17-1.1-.5-1.45s-.78-.52-1.33-.52-.97.17-1.31.52-.51.83-.51,1.45v.11c0,.62.17,1.1.51,1.45s.78.52,1.31.52Z"/><path class="cls-12" d="M120.74,350.46v-5.92h1.21v.7h.19c.1-.25.25-.43.46-.55.21-.12.47-.17.79-.17h.71v1.12h-.76c-.4,0-.73.11-.98.33-.26.22-.38.56-.38,1.01v3.48h-1.24Z"/><path class="cls-12" d="M125.38,350.46v-5.92h1.21v.7h.19c.11-.21.29-.39.54-.55.25-.16.58-.24,1.01-.24s.79.09,1.06.27c.27.18.47.41.61.69h.19c.14-.27.33-.5.59-.68.26-.18.63-.28,1.11-.28.38,0,.72.08,1.02.23.3.16.53.39.71.7.18.31.26.69.26,1.15v3.94h-1.24v-3.84c0-.36-.1-.64-.29-.83-.2-.2-.47-.29-.83-.29-.38,0-.69.12-.92.37s-.35.6-.35,1.07v3.53h-1.24v-3.84c0-.36-.1-.64-.29-.83s-.47-.29-.83-.29c-.38,0-.69.12-.92.37-.23.25-.35.6-.35,1.07v3.53h-1.24Z"/><path class="cls-12" d="M138.09,350.62c-.75,0-1.38-.17-1.87-.5s-.8-.84-.91-1.52l1.15-.28c.06.33.17.59.32.78.15.19.34.33.57.41.23.08.47.12.74.12.39,0,.69-.08.91-.23.21-.15.32-.35.32-.59s-.1-.42-.3-.53-.5-.2-.89-.28l-.41-.07c-.4-.07-.76-.18-1.09-.31s-.59-.32-.78-.56c-.19-.24-.29-.55-.29-.92,0-.56.21-.99.62-1.3.42-.31.97-.46,1.66-.46s1.21.15,1.64.45.71.71.83,1.22l-1.15.32c-.07-.36-.22-.61-.46-.76-.23-.15-.52-.22-.86-.22s-.6.06-.79.19-.29.3-.29.52c0,.24.09.42.28.53.19.11.44.2.76.25l.42.07c.42.07.81.17,1.16.3.35.13.63.31.83.55s.31.56.31.96c0,.59-.22,1.05-.66,1.38-.44.33-1.03.49-1.78.49Z"/><path class="cls-3" d="M440,43h-143.01c-7.23,0-13.1,7.16-13.1,16h0c0,8.84,5.86,16,13.1,16h143.01"/><path class="cls-12" d="M429.97,63.46c-1.12,0-1.98-.28-2.57-.85-.6-.56-.89-1.42-.89-2.56v-1.57c0-1.14.3-2,.89-2.57s1.45-.85,2.57-.85h3.36v1.15h-1.13s0,6.1,0,6.1h1.13v1.15h-3.36ZM430.9,56.24h-.94c-.73,0-1.27.18-1.62.54-.35.36-.53.91-.53,1.64v1.66c0,.73.18,1.28.53,1.64.35.37.89.55,1.62.55h.94s0-6.04,0-6.04Z"/><path class="cls-12" d="M420.97,63.37c-.34-.17-.62-.38-.83-.62s-.37-.48-.49-.71l1.02-.53c.13.27.31.51.55.72.24.21.59.31,1.05.31.5,0,.91-.15,1.24-.46s.51-.72.52-1.24h-4.55v-.47c0-.6.12-1.12.36-1.57.24-.45.57-.8,1-1.05.43-.25.93-.38,1.49-.38s1.1.13,1.54.38c.44.25.79.61,1.04,1.07s.37,1,.37,1.61v.14c0,.61-.13,1.14-.38,1.6s-.6.82-1.05,1.07-.97.38-1.57.38c-.54,0-.98-.08-1.32-.25ZM423.49,58.84c-.29-.25-.67-.38-1.13-.38s-.84.13-1.13.38-.45.6-.48,1.05h3.28c-.06-.45-.24-.8-.53-1.05Z"/><path class="cls-12" d="M414.87,63.46l-1.99-5.92h1.31s1.57,5,1.57,5h.19s1.57-5,1.57-5h1.31s-1.99,5.92-1.99,5.92h-1.97Z"/><path class="cls-12" d="M407.85,63.37c-.34-.17-.62-.38-.83-.62s-.37-.48-.49-.71l1.02-.53c.13.27.31.51.55.72.24.21.59.31,1.05.31.5,0,.91-.15,1.24-.46s.51-.72.52-1.24h-4.55v-.47c0-.6.12-1.12.36-1.57.24-.45.57-.8,1-1.05.43-.25.93-.38,1.49-.38s1.1.13,1.54.38c.44.25.79.61,1.04,1.07s.37,1,.37,1.61v.14c0,.61-.13,1.14-.38,1.6s-.6.82-1.05,1.07-.97.38-1.57.38c-.54,0-.98-.08-1.32-.25ZM410.36,58.84c-.29-.25-.67-.38-1.13-.38s-.84.13-1.13.38-.45.6-.48,1.05h3.28c-.06-.45-.24-.8-.53-1.05Z"/><path class="cls-12" d="M403.63,63.46v-8.4h1.24v8.4h-1.24Z"/><path class="cls-12" d="M397.44,63.26c-.46-.24-.83-.59-1.09-1.05-.26-.46-.4-1-.4-1.62v-.18c0-.62.13-1.16.4-1.61.26-.45.63-.8,1.09-1.05s.99-.37,1.58-.37,1.12.12,1.58.37c.46.25.82.6,1.09,1.05.26.45.4.99.4,1.61v.18c0,.62-.13,1.16-.4,1.62-.26.46-.63.81-1.09,1.05-.46.24-.99.37-1.58.37s-1.12-.12-1.58-.37ZM400.34,62c.34-.35.51-.83.51-1.45v-.11c0-.62-.17-1.1-.51-1.45s-.78-.52-1.31-.52-1,.17-1.33.52-.5.83-.5,1.45v.11c0,.62.17,1.1.51,1.45s.78.52,1.33.52.97-.17,1.31-.52Z"/><path class="cls-12" d="M393.18,65.86v-3.2s-.19,0-.19,0c-.1.16-.22.31-.38.46-.16.15-.37.27-.64.37-.26.1-.59.14-.97.14-.5,0-.95-.12-1.37-.36-.42-.24-.75-.59-1-1.04-.25-.45-.37-1-.37-1.64v-.18c0-.64.13-1.19.38-1.64.25-.45.58-.8,1-1.04.41-.24.87-.36,1.36-.36.58,0,1.02.1,1.33.31.31.21.54.44.69.71h.19s0-.85,0-.85h1.21v8.32h-1.24ZM392.67,62.03c.35-.34.52-.84.52-1.48v-.11c0-.63-.17-1.12-.52-1.46-.35-.34-.79-.52-1.31-.52s-.98.17-1.33.52c-.35.34-.52.83-.52,1.46v.11c0,.64.17,1.13.52,1.48s.79.52,1.33.52.97-.17,1.31-.52Z"/><path class="cls-12" d="M385.49,63.46v-3.53c0-.46-.12-.82-.35-1.07-.23-.25-.54-.37-.92-.37-.36,0-.64.1-.83.29s-.29.47-.29.83v3.84h-1.24v-3.53c0-.46-.12-.82-.35-1.07s-.54-.37-.92-.37c-.36,0-.64.1-.83.29-.2.2-.29.47-.29.83v3.84h-1.24v-3.94c0-.46.09-.84.26-1.15.18-.31.41-.54.71-.7.3-.16.64-.23,1.02-.23.48,0,.85.09,1.11.28.26.18.46.41.59.68h.19c.14-.28.34-.51.61-.69.27-.18.62-.27,1.06-.27s.76.08,1.01.24c.25.16.43.34.54.55h.19s0-.7,0-.7h1.21v5.92h-1.24Z"/><path class="cls-12" d="M372.41,63.37c-.34-.17-.62-.38-.83-.62s-.37-.48-.49-.71l1.02-.53c.13.27.31.51.55.72.24.21.59.31,1.05.31.5,0,.91-.15,1.24-.46s.51-.72.52-1.24h-4.55v-.47c0-.6.12-1.12.36-1.57.24-.45.57-.8,1-1.05.43-.25.93-.38,1.49-.38s1.1.13,1.54.38c.44.25.79.61,1.04,1.07s.37,1,.37,1.61v.14c0,.61-.13,1.14-.38,1.6s-.6.82-1.05,1.07-.97.38-1.57.38c-.54,0-.98-.08-1.32-.25ZM374.92,58.84c-.29-.25-.67-.38-1.13-.38s-.84.13-1.13.38-.45.6-.48,1.05h3.28c-.06-.45-.24-.8-.53-1.05Z"/><path class="cls-12" d="M368.2,63.46v-2.99c0-.64-.15-1.13-.46-1.46-.31-.34-.72-.5-1.23-.5-.45,0-.8.12-1.06.37-.26.24-.38.62-.38,1.13v3.46h-1.24v-3.55c0-.51.1-.95.3-1.31.2-.36.47-.65.82-.85.35-.2.75-.3,1.19-.3.57,0,1,.1,1.28.31s.49.43.6.67h.19s0-.89,0-.89h1.21v5.92h-1.24Z"/><path class="cls-12" d="M358.37,63.46v-1.04h1.24c.22,0,.34-.12.34-.36v-3.47s-1.76,0-1.76,0v-1.04h1.76s0-1.96,0-1.96h1.24v1.96s1.63,0,1.63,0v1.04h-1.63s0,3.68,0,3.68c0,.36-.11.65-.32.86-.21.22-.5.32-.86.32h-1.63Z"/><path class="cls-12" d="M352.41,63.46v-3.23s-2.04,0-2.04,0c-.5,0-.96-.1-1.36-.3-.4-.2-.72-.49-.95-.86-.24-.38-.35-.82-.35-1.34v-.16c0-.52.11-.97.34-1.34.23-.37.54-.66.95-.86s.86-.31,1.37-.31h3.34v8.4h-1.3ZM352.41,56.23h-1.91c-.46,0-.82.12-1.09.36-.27.24-.41.57-.41,1v.12c0,.42.14.74.41.98.27.24.64.36,1.09.36h1.91s0-2.82,0-2.82Z"/><path class="cls-12" d="M345.19,63.46v-8.4h1.24v8.4h-1.24Z"/><path class="cls-12" d="M340.54,63.45c-.25-.12-.44-.25-.56-.41s-.22-.3-.29-.42h-.18s0,.04,0,.04c0,.25-.09.44-.26.59-.18.14-.4.22-.68.22h-.92v-1.03h.5c.22,0,.34-.12.34-.36v-2.44c0-.72.22-1.28.66-1.67.44-.39,1.04-.59,1.81-.59.5,0,.92.08,1.27.24.35.16.63.37.85.63s.37.55.46.87l-1.15.37c-.07-.32-.22-.58-.44-.78s-.55-.3-.97-.3-.75.1-.96.31c-.21.21-.31.48-.31.83v.38s1.8,0,1.8,0c.43,0,.82.07,1.16.2.34.14.61.34.8.61.2.27.29.61.29,1.01s-.1.74-.29,1.02c-.2.28-.46.49-.79.64-.33.14-.71.22-1.13.22s-.74-.06-.98-.17ZM342.19,62.36c.21-.16.31-.38.31-.65s-.1-.48-.3-.62c-.2-.14-.46-.21-.79-.21h-1.73s0,.12,0,.12c0,.5.15.89.46,1.17.3.28.7.43,1.2.43.36,0,.64-.08.85-.24Z"/><path class="cls-12" d="M332.99,63.46v-1.04h1.24c.22,0,.34-.12.34-.36v-3.47s-1.76,0-1.76,0v-1.04h1.76s0-1.96,0-1.96h1.24v1.96s1.63,0,1.63,0v1.04h-1.63s0,3.68,0,3.68c0,.36-.11.65-.32.86-.21.22-.5.32-.86.32h-1.63Z"/><path class="cls-12" d="M329.37,63.46v-4.87s-1.7,0-1.7,0v-1.04h1.7s0-1.08,0-1.08c0-.24-.12-.36-.35-.36h-1.13v-1.04h1.52c.36,0,.65.11.86.32s.32.5.32.86v1.3s1.66,0,1.66,0v1.04h-1.66s0,4.87,0,4.87h-1.24Z"/><path class="cls-12" d="M322.29,63.26c-.46-.24-.83-.59-1.09-1.05-.26-.46-.4-1-.4-1.62v-.18c0-.62.13-1.16.4-1.61.26-.45.63-.8,1.09-1.05s.99-.37,1.58-.37,1.12.12,1.58.37c.46.25.82.6,1.09,1.05.26.45.4.99.4,1.61v.18c0,.62-.13,1.16-.4,1.62-.26.46-.63.81-1.09,1.05-.46.24-.99.37-1.58.37s-1.12-.12-1.58-.37ZM325.18,62c.34-.35.51-.83.51-1.45v-.11c0-.62-.17-1.1-.51-1.45s-.78-.52-1.31-.52-1,.17-1.33.52-.5.83-.5,1.45v.11c0,.62.17,1.1.51,1.45s.78.52,1.33.52.97-.17,1.31-.52Z"/><path class="cls-12" d="M318.03,63.46v-3.48c0-.46-.13-.79-.38-1.01-.26-.22-.58-.33-.98-.33h-.76v-1.12h.71c.31,0,.57.06.79.17.21.12.37.3.46.55h.19s0-.7,0-.7h1.21v5.92h-1.24Z"/><path class="cls-12" d="M313.38,63.46v-3.53c0-.46-.12-.82-.35-1.07-.23-.25-.54-.37-.92-.37-.36,0-.64.1-.83.29s-.29.47-.29.83v3.84h-1.24v-3.53c0-.46-.12-.82-.35-1.07s-.54-.37-.92-.37c-.36,0-.64.1-.83.29-.2.2-.29.47-.29.83v3.84h-1.24v-3.94c0-.46.09-.84.26-1.15.18-.31.41-.54.71-.7.3-.16.64-.23,1.02-.23.48,0,.85.09,1.11.28.26.18.46.41.59.68h.19c.14-.28.34-.51.61-.69.27-.18.62-.27,1.06-.27s.76.08,1.01.24c.25.16.43.34.54.55h.19s0-.7,0-.7h1.21v5.92h-1.24Z"/><path class="cls-12" d="M300.13,63.13c-.44-.33-.66-.79-.66-1.38,0-.4.1-.72.31-.96s.48-.42.83-.55c.35-.13.74-.23,1.16-.3l.42-.07c.32-.06.57-.14.76-.25.19-.11.28-.29.28-.53s-.1-.4-.29-.52-.46-.19-.79-.19-.63.07-.86.22c-.23.15-.38.4-.46.76l-1.15-.32c.13-.51.41-.92.83-1.22s.97-.45,1.64-.45,1.24.15,1.66.46c.42.31.62.74.62,1.3,0,.38-.1.68-.29.92-.19.24-.45.43-.78.56s-.69.24-1.09.31l-.41.07c-.39.07-.69.16-.89.28s-.3.29-.3.53.11.44.32.59c.21.15.51.23.91.23.26,0,.51-.04.74-.12.23-.08.42-.22.57-.41.15-.19.26-.45.32-.78l1.15.28c-.11.68-.42,1.19-.91,1.52s-1.12.5-1.87.5-1.34-.16-1.78-.49Z"/><path class="cls-5" d="M440,114h-143.01c-7.23,0-13.1,7.16-13.1,16h0c0,8.84,5.86,16,13.1,16h143.01"/><path class="cls-12" d="M429.97,134.46c-1.12,0-1.98-.28-2.57-.85-.6-.56-.89-1.42-.89-2.56v-1.57c0-1.14.3-2,.89-2.57s1.45-.85,2.57-.85h3.36v1.15h-1.13s0,6.1,0,6.1h1.13v1.15h-3.36ZM430.9,127.24h-.94c-.73,0-1.27.18-1.62.54-.35.36-.53.91-.53,1.64v1.66c0,.73.18,1.28.53,1.64.35.37.89.55,1.62.55h.94s0-6.04,0-6.04Z"/><path class="cls-12" d="M420.97,134.37c-.34-.17-.62-.38-.83-.62s-.37-.48-.49-.71l1.02-.53c.13.27.31.51.55.72.24.21.59.31,1.05.31.5,0,.91-.15,1.24-.46s.51-.72.52-1.24h-4.55v-.47c0-.6.12-1.12.36-1.57.24-.45.57-.8,1-1.05.43-.25.93-.38,1.49-.38s1.1.13,1.54.38c.44.25.79.61,1.04,1.07s.37,1,.37,1.61v.14c0,.61-.13,1.14-.38,1.6s-.6.82-1.05,1.07-.97.38-1.57.38c-.54,0-.98-.08-1.32-.25ZM423.49,129.84c-.29-.25-.67-.38-1.13-.38s-.84.13-1.13.38-.45.6-.48,1.05h3.28c-.06-.45-.24-.8-.53-1.05Z"/><path class="cls-12" d="M414.87,134.46l-1.99-5.92h1.31s1.57,5,1.57,5h.19s1.57-5,1.57-5h1.31s-1.99,5.92-1.99,5.92h-1.97Z"/><path class="cls-12" d="M407.85,134.37c-.34-.17-.62-.38-.83-.62s-.37-.48-.49-.71l1.02-.53c.13.27.31.51.55.72.24.21.59.31,1.05.31.5,0,.91-.15,1.24-.46s.51-.72.52-1.24h-4.55v-.47c0-.6.12-1.12.36-1.57.24-.45.57-.8,1-1.05.43-.25.93-.38,1.49-.38s1.1.13,1.54.38c.44.25.79.61,1.04,1.07s.37,1,.37,1.61v.14c0,.61-.13,1.14-.38,1.6s-.6.82-1.05,1.07-.97.38-1.57.38c-.54,0-.98-.08-1.32-.25ZM410.36,129.84c-.29-.25-.67-.38-1.13-.38s-.84.13-1.13.38-.45.6-.48,1.05h3.28c-.06-.45-.24-.8-.53-1.05Z"/><path class="cls-12" d="M403.63,134.46v-8.4h1.24v8.4h-1.24Z"/><path class="cls-12" d="M397.44,134.26c-.46-.24-.83-.59-1.09-1.05-.26-.46-.4-1-.4-1.62v-.18c0-.62.13-1.16.4-1.61.26-.45.63-.8,1.09-1.05s.99-.37,1.58-.37,1.12.12,1.58.37c.46.25.82.6,1.09,1.05.26.45.4.99.4,1.61v.18c0,.62-.13,1.16-.4,1.62-.26.46-.63.81-1.09,1.05-.46.24-.99.37-1.58.37s-1.12-.12-1.58-.37ZM400.34,133c.34-.35.51-.83.51-1.45v-.11c0-.62-.17-1.1-.51-1.45s-.78-.52-1.31-.52-1,.17-1.33.52-.5.83-.5,1.45v.11c0,.62.17,1.1.51,1.45s.78.52,1.33.52.97-.17,1.31-.52Z"/><path class="cls-12" d="M393.18,136.86v-3.2s-.19,0-.19,0c-.1.16-.22.31-.38.46-.16.15-.37.27-.64.37-.26.1-.59.14-.97.14-.5,0-.95-.12-1.37-.36-.42-.24-.75-.59-1-1.04-.25-.45-.37-1-.37-1.64v-.18c0-.64.13-1.19.38-1.64.25-.45.58-.8,1-1.04.41-.24.87-.36,1.36-.36.58,0,1.02.1,1.33.31.31.21.54.44.69.71h.19s0-.85,0-.85h1.21v8.32h-1.24ZM392.67,133.03c.35-.34.52-.84.52-1.48v-.11c0-.63-.17-1.12-.52-1.46-.35-.34-.79-.52-1.31-.52s-.98.17-1.33.52c-.35.34-.52.83-.52,1.46v.11c0,.64.17,1.13.52,1.48s.79.52,1.33.52.97-.17,1.31-.52Z"/><path class="cls-12" d="M385.49,134.46v-3.53c0-.46-.12-.82-.35-1.07-.23-.25-.54-.37-.92-.37-.36,0-.64.1-.83.29s-.29.47-.29.83v3.84h-1.24v-3.53c0-.46-.12-.82-.35-1.07s-.54-.37-.92-.37c-.36,0-.64.1-.83.29-.2.2-.29.47-.29.83v3.84h-1.24v-3.94c0-.46.09-.84.26-1.15.18-.31.41-.54.71-.7.3-.16.64-.23,1.02-.23.48,0,.85.09,1.11.28.26.18.46.41.59.68h.19c.14-.28.34-.51.61-.69.27-.18.62-.27,1.06-.27s.76.08,1.01.24c.25.16.43.34.54.55h.19s0-.7,0-.7h1.21v5.92h-1.24Z"/><path class="cls-12" d="M372.41,134.37c-.34-.17-.62-.38-.83-.62s-.37-.48-.49-.71l1.02-.53c.13.27.31.51.55.72.24.21.59.31,1.05.31.5,0,.91-.15,1.24-.46s.51-.72.52-1.24h-4.55v-.47c0-.6.12-1.12.36-1.57.24-.45.57-.8,1-1.05.43-.25.93-.38,1.49-.38s1.1.13,1.54.38c.44.25.79.61,1.04,1.07s.37,1,.37,1.61v.14c0,.61-.13,1.14-.38,1.6s-.6.82-1.05,1.07-.97.38-1.57.38c-.54,0-.98-.08-1.32-.25ZM374.92,129.84c-.29-.25-.67-.38-1.13-.38s-.84.13-1.13.38-.45.6-.48,1.05h3.28c-.06-.45-.24-.8-.53-1.05Z"/><path class="cls-12" d="M368.2,134.46v-2.99c0-.64-.15-1.13-.46-1.46-.31-.34-.72-.5-1.23-.5-.45,0-.8.12-1.06.37-.26.24-.38.62-.38,1.13v3.46h-1.24v-3.55c0-.51.1-.95.3-1.31.2-.36.47-.65.82-.85.35-.2.75-.3,1.19-.3.57,0,1,.1,1.28.31s.49.43.6.67h.19s0-.89,0-.89h1.21v5.92h-1.24Z"/><path class="cls-12" d="M358.37,134.46v-1.04h1.24c.22,0,.34-.12.34-.36v-3.47s-1.76,0-1.76,0v-1.04h1.76s0-1.96,0-1.96h1.24v1.96s1.63,0,1.63,0v1.04h-1.63s0,3.68,0,3.68c0,.36-.11.65-.32.86-.21.22-.5.32-.86.32h-1.63Z"/><path class="cls-12" d="M352.41,134.46v-3.23s-2.04,0-2.04,0c-.5,0-.96-.1-1.36-.3-.4-.2-.72-.49-.95-.86-.24-.38-.35-.82-.35-1.34v-.16c0-.52.11-.97.34-1.34.23-.37.54-.66.95-.86s.86-.31,1.37-.31h3.34v8.4h-1.3ZM352.41,127.23h-1.91c-.46,0-.82.12-1.09.36-.27.24-.41.57-.41,1v.12c0,.42.14.74.41.98.27.24.64.36,1.09.36h1.91s0-2.82,0-2.82Z"/><path class="cls-12" d="M345.19,134.46v-8.4h1.24v8.4h-1.24Z"/><path class="cls-12" d="M340.54,134.45c-.25-.12-.44-.25-.56-.41s-.22-.3-.29-.42h-.18s0,.04,0,.04c0,.25-.09.44-.26.59-.18.14-.4.22-.68.22h-.92v-1.03h.5c.22,0,.34-.12.34-.36v-2.44c0-.72.22-1.28.66-1.67.44-.39,1.04-.59,1.81-.59.5,0,.92.08,1.27.24.35.16.63.37.85.63s.37.55.46.87l-1.15.37c-.07-.32-.22-.58-.44-.78s-.55-.3-.97-.3-.75.1-.96.31c-.21.21-.31.48-.31.83v.38s1.8,0,1.8,0c.43,0,.82.07,1.16.2.34.14.61.34.8.61.2.27.29.61.29,1.01s-.1.74-.29,1.02c-.2.28-.46.49-.79.64-.33.14-.71.22-1.13.22s-.74-.06-.98-.17ZM342.19,133.36c.21-.16.31-.38.31-.65,0-.27-.1-.48-.3-.62-.2-.14-.46-.21-.79-.21h-1.73s0,.12,0,.12c0,.5.15.89.46,1.17.3.28.7.43,1.2.43.36,0,.64-.08.85-.24Z"/><path class="cls-12" d="M332.99,134.46v-1.04h1.24c.22,0,.34-.12.34-.36v-3.47s-1.76,0-1.76,0v-1.04h1.76s0-1.96,0-1.96h1.24v1.96s1.63,0,1.63,0v1.04h-1.63s0,3.68,0,3.68c0,.36-.11.65-.32.86-.21.22-.5.32-.86.32h-1.63Z"/><path class="cls-12" d="M329.37,134.46v-4.87s-1.7,0-1.7,0v-1.04h1.7s0-1.08,0-1.08c0-.24-.12-.36-.35-.36h-1.13v-1.04h1.52c.36,0,.65.11.86.32s.32.5.32.86v1.3s1.66,0,1.66,0v1.04h-1.66s0,4.87,0,4.87h-1.24Z"/><path class="cls-12" d="M322.29,134.26c-.46-.24-.83-.59-1.09-1.05-.26-.46-.4-1-.4-1.62v-.18c0-.62.13-1.16.4-1.61.26-.45.63-.8,1.09-1.05s.99-.37,1.58-.37,1.12.12,1.58.37c.46.25.82.6,1.09,1.05.26.45.4.99.4,1.61v.18c0,.62-.13,1.16-.4,1.62-.26.46-.63.81-1.09,1.05-.46.24-.99.37-1.58.37s-1.12-.12-1.58-.37ZM325.18,133c.34-.35.51-.83.51-1.45v-.11c0-.62-.17-1.1-.51-1.45s-.78-.52-1.31-.52-1,.17-1.33.52-.5.83-.5,1.45v.11c0,.62.17,1.1.51,1.45s.78.52,1.33.52.97-.17,1.31-.52Z"/><path class="cls-12" d="M318.03,134.46v-3.48c0-.46-.13-.79-.38-1.01-.26-.22-.58-.33-.98-.33h-.76v-1.12h.71c.31,0,.57.06.79.17.21.12.37.3.46.55h.19s0-.7,0-.7h1.21v5.92h-1.24Z"/><path class="cls-12" d="M313.38,134.46v-3.53c0-.46-.12-.82-.35-1.07-.23-.25-.54-.37-.92-.37-.36,0-.64.1-.83.29s-.29.47-.29.83v3.84h-1.24v-3.53c0-.46-.12-.82-.35-1.07s-.54-.37-.92-.37c-.36,0-.64.1-.83.29-.2.2-.29.47-.29.83v3.84h-1.24v-3.94c0-.46.09-.84.26-1.15.18-.31.41-.54.71-.7.3-.16.64-.23,1.02-.23.48,0,.85.09,1.11.28.26.18.46.41.59.68h.19c.14-.28.34-.51.61-.69.27-.18.62-.27,1.06-.27s.76.08,1.01.24c.25.16.43.34.54.55h.19s0-.7,0-.7h1.21v5.92h-1.24Z"/><path class="cls-12" d="M300.13,134.13c-.44-.33-.66-.79-.66-1.38,0-.4.1-.72.31-.96s.48-.42.83-.55c.35-.13.74-.23,1.16-.3l.42-.07c.32-.06.57-.14.76-.25.19-.11.28-.29.28-.53,0-.22-.1-.4-.29-.52s-.46-.19-.79-.19-.63.07-.86.22c-.23.15-.38.4-.46.76l-1.15-.32c.13-.51.41-.92.83-1.22s.97-.45,1.64-.45,1.24.15,1.66.46c.42.31.62.74.62,1.3,0,.38-.1.68-.29.92-.19.24-.45.43-.78.56s-.69.24-1.09.31l-.41.07c-.39.07-.69.16-.89.28s-.3.29-.3.53.11.44.32.59c.21.15.51.23.91.23.26,0,.51-.04.74-.12.23-.08.42-.22.57-.41.15-.19.26-.45.32-.78l1.15.28c-.11.68-.42,1.19-.91,1.52s-1.12.5-1.87.5-1.34-.16-1.78-.49Z"/><path class="cls-4" d="M440,181h-143.01c-7.23,0-13.1,7.16-13.1,16h0c0,8.84,5.86,16,13.1,16h143.01"/><path class="cls-12" d="M429.97,201.46c-1.12,0-1.98-.28-2.57-.85-.6-.56-.89-1.42-.89-2.56v-1.57c0-1.14.3-2,.89-2.57s1.45-.85,2.57-.85h3.36v1.15h-1.13s0,6.1,0,6.1h1.13v1.15h-3.36ZM430.9,194.24h-.94c-.73,0-1.27.18-1.62.54-.35.36-.53.91-.53,1.64v1.66c0,.73.18,1.28.53,1.64.35.37.89.55,1.62.55h.94s0-6.04,0-6.04Z"/><path class="cls-12" d="M420.97,201.37c-.34-.17-.62-.38-.83-.62s-.37-.48-.49-.71l1.02-.53c.13.27.31.51.55.72.24.21.59.31,1.05.31.5,0,.91-.15,1.24-.46s.51-.72.52-1.24h-4.55v-.47c0-.6.12-1.12.36-1.57.24-.45.57-.8,1-1.05.43-.25.93-.38,1.49-.38s1.1.13,1.54.38c.44.25.79.61,1.04,1.07s.37,1,.37,1.61v.14c0,.61-.13,1.14-.38,1.6s-.6.82-1.05,1.07-.97.38-1.57.38c-.54,0-.98-.08-1.32-.25ZM423.49,196.84c-.29-.25-.67-.38-1.13-.38s-.84.13-1.13.38-.45.6-.48,1.05h3.28c-.06-.45-.24-.8-.53-1.05Z"/><path class="cls-12" d="M414.87,201.46l-1.99-5.92h1.31s1.57,5,1.57,5h.19s1.57-5,1.57-5h1.31s-1.99,5.92-1.99,5.92h-1.97Z"/><path class="cls-12" d="M407.85,201.37c-.34-.17-.62-.38-.83-.62s-.37-.48-.49-.71l1.02-.53c.13.27.31.51.55.72.24.21.59.31,1.05.31.5,0,.91-.15,1.24-.46s.51-.72.52-1.24h-4.55v-.47c0-.6.12-1.12.36-1.57.24-.45.57-.8,1-1.05.43-.25.93-.38,1.49-.38s1.1.13,1.54.38c.44.25.79.61,1.04,1.07s.37,1,.37,1.61v.14c0,.61-.13,1.14-.38,1.6s-.6.82-1.05,1.07-.97.38-1.57.38c-.54,0-.98-.08-1.32-.25ZM410.36,196.84c-.29-.25-.67-.38-1.13-.38s-.84.13-1.13.38-.45.6-.48,1.05h3.28c-.06-.45-.24-.8-.53-1.05Z"/><path class="cls-12" d="M403.63,201.46v-8.4h1.24v8.4h-1.24Z"/><path class="cls-12" d="M397.44,201.26c-.46-.24-.83-.59-1.09-1.05-.26-.46-.4-1-.4-1.62v-.18c0-.62.13-1.16.4-1.61.26-.45.63-.8,1.09-1.05s.99-.37,1.58-.37,1.12.12,1.58.37c.46.25.82.6,1.09,1.05.26.45.4.99.4,1.61v.18c0,.62-.13,1.16-.4,1.62-.26.46-.63.81-1.09,1.05-.46.24-.99.37-1.58.37s-1.12-.12-1.58-.37ZM400.34,200c.34-.35.51-.83.51-1.45v-.11c0-.62-.17-1.1-.51-1.45s-.78-.52-1.31-.52-1,.17-1.33.52-.5.83-.5,1.45v.11c0,.62.17,1.1.51,1.45s.78.52,1.33.52.97-.17,1.31-.52Z"/><path class="cls-12" d="M393.18,203.86v-3.2s-.19,0-.19,0c-.1.16-.22.31-.38.46-.16.15-.37.27-.64.37-.26.1-.59.14-.97.14-.5,0-.95-.12-1.37-.36-.42-.24-.75-.59-1-1.04-.25-.45-.37-1-.37-1.64v-.18c0-.64.13-1.19.38-1.64.25-.45.58-.8,1-1.04.41-.24.87-.36,1.36-.36.58,0,1.02.1,1.33.31.31.21.54.44.69.71h.19s0-.85,0-.85h1.21v8.32h-1.24ZM392.67,200.03c.35-.34.52-.84.52-1.48v-.11c0-.63-.17-1.12-.52-1.46-.35-.34-.79-.52-1.31-.52s-.98.17-1.33.52c-.35.34-.52.83-.52,1.46v.11c0,.64.17,1.13.52,1.48s.79.52,1.33.52.97-.17,1.31-.52Z"/><path class="cls-12" d="M385.49,201.46v-3.53c0-.46-.12-.82-.35-1.07-.23-.25-.54-.37-.92-.37-.36,0-.64.1-.83.29s-.29.47-.29.83v3.84h-1.24v-3.53c0-.46-.12-.82-.35-1.07s-.54-.37-.92-.37c-.36,0-.64.1-.83.29-.2.2-.29.47-.29.83v3.84h-1.24v-3.94c0-.46.09-.84.26-1.15.18-.31.41-.54.71-.7.3-.16.64-.23,1.02-.23.48,0,.85.09,1.11.28.26.18.46.41.59.68h.19c.14-.28.34-.51.61-.69.27-.18.62-.27,1.06-.27s.76.08,1.01.24c.25.16.43.34.54.55h.19s0-.7,0-.7h1.21v5.92h-1.24Z"/><path class="cls-12" d="M372.41,201.37c-.34-.17-.62-.38-.83-.62s-.37-.48-.49-.71l1.02-.53c.13.27.31.51.55.72.24.21.59.31,1.05.31.5,0,.91-.15,1.24-.46s.51-.72.52-1.24h-4.55v-.47c0-.6.12-1.12.36-1.57.24-.45.57-.8,1-1.05.43-.25.93-.38,1.49-.38s1.1.13,1.54.38c.44.25.79.61,1.04,1.07s.37,1,.37,1.61v.14c0,.61-.13,1.14-.38,1.6s-.6.82-1.05,1.07-.97.38-1.57.38c-.54,0-.98-.08-1.32-.25ZM374.92,196.84c-.29-.25-.67-.38-1.13-.38s-.84.13-1.13.38-.45.6-.48,1.05h3.28c-.06-.45-.24-.8-.53-1.05Z"/><path class="cls-12" d="M368.2,201.46v-2.99c0-.64-.15-1.13-.46-1.46-.31-.34-.72-.5-1.23-.5-.45,0-.8.12-1.06.37-.26.24-.38.62-.38,1.13v3.46h-1.24v-3.55c0-.51.1-.95.3-1.31.2-.36.47-.65.82-.85.35-.2.75-.3,1.19-.3.57,0,1,.1,1.28.31s.49.43.6.67h.19s0-.89,0-.89h1.21v5.92h-1.24Z"/><path class="cls-12" d="M358.37,201.46v-1.04h1.24c.22,0,.34-.12.34-.36v-3.47s-1.76,0-1.76,0v-1.04h1.76s0-1.96,0-1.96h1.24v1.96s1.63,0,1.63,0v1.04h-1.63s0,3.68,0,3.68c0,.36-.11.65-.32.86-.21.22-.5.32-.86.32h-1.63Z"/><path class="cls-12" d="M352.41,201.46v-3.23s-2.04,0-2.04,0c-.5,0-.96-.1-1.36-.3-.4-.2-.72-.49-.95-.86-.24-.38-.35-.82-.35-1.34v-.16c0-.52.11-.97.34-1.34.23-.37.54-.66.95-.86s.86-.31,1.37-.31h3.34v8.4h-1.3ZM352.41,194.23h-1.91c-.46,0-.82.12-1.09.36-.27.24-.41.57-.41,1v.12c0,.42.14.74.41.98.27.24.64.36,1.09.36h1.91s0-2.82,0-2.82Z"/><path class="cls-12" d="M345.19,201.46v-8.4h1.24v8.4h-1.24Z"/><path class="cls-12" d="M340.54,201.45c-.25-.12-.44-.25-.56-.41s-.22-.3-.29-.42h-.18s0,.04,0,.04c0,.25-.09.44-.26.59-.18.14-.4.22-.68.22h-.92v-1.03h.5c.22,0,.34-.12.34-.36v-2.44c0-.72.22-1.28.66-1.67.44-.39,1.04-.59,1.81-.59.5,0,.92.08,1.27.24.35.16.63.37.85.63s.37.55.46.87l-1.15.37c-.07-.32-.22-.58-.44-.78s-.55-.3-.97-.3-.75.1-.96.31c-.21.21-.31.48-.31.83v.38s1.8,0,1.8,0c.43,0,.82.07,1.16.2.34.14.61.34.8.61.2.27.29.61.29,1.01s-.1.74-.29,1.02c-.2.28-.46.49-.79.64-.33.14-.71.22-1.13.22s-.74-.06-.98-.17ZM342.19,200.36c.21-.16.31-.38.31-.65s-.1-.48-.3-.62c-.2-.14-.46-.21-.79-.21h-1.73s0,.12,0,.12c0,.5.15.89.46,1.17.3.28.7.43,1.2.43.36,0,.64-.08.85-.24Z"/><path class="cls-12" d="M332.99,201.46v-1.04h1.24c.22,0,.34-.12.34-.36v-3.47s-1.76,0-1.76,0v-1.04h1.76s0-1.96,0-1.96h1.24v1.96s1.63,0,1.63,0v1.04h-1.63s0,3.68,0,3.68c0,.36-.11.65-.32.86-.21.22-.5.32-.86.32h-1.63Z"/><path class="cls-12" d="M329.37,201.46v-4.87s-1.7,0-1.7,0v-1.04h1.7s0-1.08,0-1.08c0-.24-.12-.36-.35-.36h-1.13v-1.04h1.52c.36,0,.65.11.86.32s.32.5.32.86v1.3s1.66,0,1.66,0v1.04h-1.66s0,4.87,0,4.87h-1.24Z"/><path class="cls-12" d="M322.29,201.26c-.46-.24-.83-.59-1.09-1.05-.26-.46-.4-1-.4-1.62v-.18c0-.62.13-1.16.4-1.61.26-.45.63-.8,1.09-1.05s.99-.37,1.58-.37,1.12.12,1.58.37c.46.25.82.6,1.09,1.05.26.45.4.99.4,1.61v.18c0,.62-.13,1.16-.4,1.62-.26.46-.63.81-1.09,1.05-.46.24-.99.37-1.58.37s-1.12-.12-1.58-.37ZM325.18,200c.34-.35.51-.83.51-1.45v-.11c0-.62-.17-1.1-.51-1.45s-.78-.52-1.31-.52-1,.17-1.33.52-.5.83-.5,1.45v.11c0,.62.17,1.1.51,1.45s.78.52,1.33.52.97-.17,1.31-.52Z"/><path class="cls-12" d="M318.03,201.46v-3.48c0-.46-.13-.79-.38-1.01-.26-.22-.58-.33-.98-.33h-.76v-1.12h.71c.31,0,.57.06.79.17.21.12.37.3.46.55h.19s0-.7,0-.7h1.21v5.92h-1.24Z"/><path class="cls-12" d="M313.38,201.46v-3.53c0-.46-.12-.82-.35-1.07-.23-.25-.54-.37-.92-.37-.36,0-.64.1-.83.29s-.29.47-.29.83v3.84h-1.24v-3.53c0-.46-.12-.82-.35-1.07s-.54-.37-.92-.37c-.36,0-.64.1-.83.29-.2.2-.29.47-.29.83v3.84h-1.24v-3.94c0-.46.09-.84.26-1.15.18-.31.41-.54.71-.7.3-.16.64-.23,1.02-.23.48,0,.85.09,1.11.28.26.18.46.41.59.68h.19c.14-.28.34-.51.61-.69.27-.18.62-.27,1.06-.27s.76.08,1.01.24c.25.16.43.34.54.55h.19s0-.7,0-.7h1.21v5.92h-1.24Z"/><path class="cls-12" d="M300.13,201.13c-.44-.33-.66-.79-.66-1.38,0-.4.1-.72.31-.96s.48-.42.83-.55c.35-.13.74-.23,1.16-.3l.42-.07c.32-.06.57-.14.76-.25.19-.11.28-.29.28-.53,0-.22-.1-.4-.29-.52s-.46-.19-.79-.19-.63.07-.86.22c-.23.15-.38.4-.46.76l-1.15-.32c.13-.51.41-.92.83-1.22s.97-.45,1.64-.45,1.24.15,1.66.46c.42.31.62.74.62,1.3,0,.38-.1.68-.29.92-.19.24-.45.43-.78.56s-.69.24-1.09.31l-.41.07c-.39.07-.69.16-.89.28s-.3.29-.3.53.11.44.32.59c.21.15.51.23.91.23.26,0,.51-.04.74-.12.23-.08.42-.22.57-.41.15-.19.26-.45.32-.78l1.15.28c-.11.68-.42,1.19-.91,1.52s-1.12.5-1.87.5-1.34-.16-1.78-.49Z"/><path class="cls-6" d="M440,266h-143.01c-7.23,0-13.1,7.16-13.1,16h0c0,8.84,5.86,16,13.1,16h143.01"/><path class="cls-12" d="M429.97,286.46c-1.12,0-1.98-.28-2.57-.85-.6-.56-.89-1.42-.89-2.56v-1.57c0-1.14.3-2,.89-2.57s1.45-.85,2.57-.85h3.36v1.15h-1.13s0,6.1,0,6.1h1.13v1.15h-3.36ZM430.9,279.24h-.94c-.73,0-1.27.18-1.62.54-.35.36-.53.91-.53,1.64v1.66c0,.73.18,1.28.53,1.64.35.37.89.55,1.62.55h.94s0-6.04,0-6.04Z"/><path class="cls-12" d="M420.97,286.37c-.34-.17-.62-.38-.83-.62s-.37-.48-.49-.71l1.02-.53c.13.27.31.51.55.72.24.21.59.31,1.05.31.5,0,.91-.15,1.24-.46s.51-.72.52-1.24h-4.55v-.47c0-.6.12-1.12.36-1.57.24-.45.57-.8,1-1.05.43-.25.93-.38,1.49-.38s1.1.13,1.54.38c.44.25.79.61,1.04,1.07s.37,1,.37,1.61v.14c0,.61-.13,1.14-.38,1.6s-.6.82-1.05,1.07-.97.38-1.57.38c-.54,0-.98-.08-1.32-.25ZM423.49,281.84c-.29-.25-.67-.38-1.13-.38s-.84.13-1.13.38-.45.6-.48,1.05h3.28c-.06-.45-.24-.8-.53-1.05Z"/><path class="cls-12" d="M414.87,286.46l-1.99-5.92h1.31s1.57,5,1.57,5h.19s1.57-5,1.57-5h1.31s-1.99,5.92-1.99,5.92h-1.97Z"/><path class="cls-12" d="M407.85,286.37c-.34-.17-.62-.38-.83-.62s-.37-.48-.49-.71l1.02-.53c.13.27.31.51.55.72.24.21.59.31,1.05.31.5,0,.91-.15,1.24-.46s.51-.72.52-1.24h-4.55v-.47c0-.6.12-1.12.36-1.57.24-.45.57-.8,1-1.05.43-.25.93-.38,1.49-.38s1.1.13,1.54.38c.44.25.79.61,1.04,1.07s.37,1,.37,1.61v.14c0,.61-.13,1.14-.38,1.6s-.6.82-1.05,1.07-.97.38-1.57.38c-.54,0-.98-.08-1.32-.25ZM410.36,281.84c-.29-.25-.67-.38-1.13-.38s-.84.13-1.13.38-.45.6-.48,1.05h3.28c-.06-.45-.24-.8-.53-1.05Z"/><path class="cls-12" d="M403.63,286.46v-8.4h1.24v8.4h-1.24Z"/><path class="cls-12" d="M397.44,286.26c-.46-.24-.83-.59-1.09-1.05-.26-.46-.4-1-.4-1.62v-.18c0-.62.13-1.16.4-1.61.26-.45.63-.8,1.09-1.05s.99-.37,1.58-.37,1.12.12,1.58.37c.46.25.82.6,1.09,1.05.26.45.4.99.4,1.61v.18c0,.62-.13,1.16-.4,1.62-.26.46-.63.81-1.09,1.05-.46.24-.99.37-1.58.37s-1.12-.12-1.58-.37ZM400.34,285c.34-.35.51-.83.51-1.45v-.11c0-.62-.17-1.1-.51-1.45s-.78-.52-1.31-.52-1,.17-1.33.52-.5.83-.5,1.45v.11c0,.62.17,1.1.51,1.45s.78.52,1.33.52.97-.17,1.31-.52Z"/><path class="cls-12" d="M393.18,288.86v-3.2s-.19,0-.19,0c-.1.16-.22.31-.38.46-.16.15-.37.27-.64.37-.26.1-.59.14-.97.14-.5,0-.95-.12-1.37-.36-.42-.24-.75-.59-1-1.04-.25-.45-.37-1-.37-1.64v-.18c0-.64.13-1.19.38-1.64.25-.45.58-.8,1-1.04.41-.24.87-.36,1.36-.36.58,0,1.02.1,1.33.31.31.21.54.44.69.71h.19s0-.85,0-.85h1.21v8.32h-1.24ZM392.67,285.03c.35-.34.52-.84.52-1.48v-.11c0-.63-.17-1.12-.52-1.46-.35-.34-.79-.52-1.31-.52s-.98.17-1.33.52c-.35.34-.52.83-.52,1.46v.11c0,.64.17,1.13.52,1.48s.79.52,1.33.52.97-.17,1.31-.52Z"/><path class="cls-12" d="M385.49,286.46v-3.53c0-.46-.12-.82-.35-1.07-.23-.25-.54-.37-.92-.37-.36,0-.64.1-.83.29s-.29.47-.29.83v3.84h-1.24v-3.53c0-.46-.12-.82-.35-1.07s-.54-.37-.92-.37c-.36,0-.64.1-.83.29-.2.2-.29.47-.29.83v3.84h-1.24v-3.94c0-.46.09-.84.26-1.15.18-.31.41-.54.71-.7.3-.16.64-.23,1.02-.23.48,0,.85.09,1.11.28.26.18.46.41.59.68h.19c.14-.28.34-.51.61-.69.27-.18.62-.27,1.06-.27s.76.08,1.01.24c.25.16.43.34.54.55h.19s0-.7,0-.7h1.21v5.92h-1.24Z"/><path class="cls-12" d="M372.41,286.37c-.34-.17-.62-.38-.83-.62s-.37-.48-.49-.71l1.02-.53c.13.27.31.51.55.72.24.21.59.31,1.05.31.5,0,.91-.15,1.24-.46s.51-.72.52-1.24h-4.55v-.47c0-.6.12-1.12.36-1.57.24-.45.57-.8,1-1.05.43-.25.93-.38,1.49-.38s1.1.13,1.54.38c.44.25.79.61,1.04,1.07s.37,1,.37,1.61v.14c0,.61-.13,1.14-.38,1.6s-.6.82-1.05,1.07-.97.38-1.57.38c-.54,0-.98-.08-1.32-.25ZM374.92,281.84c-.29-.25-.67-.38-1.13-.38s-.84.13-1.13.38-.45.6-.48,1.05h3.28c-.06-.45-.24-.8-.53-1.05Z"/><path class="cls-12" d="M368.2,286.46v-2.99c0-.64-.15-1.13-.46-1.46-.31-.34-.72-.5-1.23-.5-.45,0-.8.12-1.06.37-.26.24-.38.62-.38,1.13v3.46h-1.24v-3.55c0-.51.1-.95.3-1.31.2-.36.47-.65.82-.85.35-.2.75-.3,1.19-.3.57,0,1,.1,1.28.31s.49.43.6.67h.19s0-.89,0-.89h1.21v5.92h-1.24Z"/><path class="cls-12" d="M358.37,286.46v-1.04h1.24c.22,0,.34-.12.34-.36v-3.47s-1.76,0-1.76,0v-1.04h1.76s0-1.96,0-1.96h1.24v1.96s1.63,0,1.63,0v1.04h-1.63s0,3.68,0,3.68c0,.36-.11.65-.32.86-.21.22-.5.32-.86.32h-1.63Z"/><path class="cls-12" d="M352.41,286.46v-3.23s-2.04,0-2.04,0c-.5,0-.96-.1-1.36-.3-.4-.2-.72-.49-.95-.86-.24-.38-.35-.82-.35-1.34v-.16c0-.52.11-.97.34-1.34.23-.37.54-.66.95-.86s.86-.31,1.37-.31h3.34v8.4h-1.3ZM352.41,279.23h-1.91c-.46,0-.82.12-1.09.36-.27.24-.41.57-.41,1v.12c0,.42.14.74.41.98.27.24.64.36,1.09.36h1.91s0-2.82,0-2.82Z"/><path class="cls-12" d="M345.19,286.46v-8.4h1.24v8.4h-1.24Z"/><path class="cls-12" d="M340.54,286.45c-.25-.12-.44-.25-.56-.41s-.22-.3-.29-.42h-.18s0,.04,0,.04c0,.25-.09.44-.26.59-.18.14-.4.22-.68.22h-.92v-1.03h.5c.22,0,.34-.12.34-.36v-2.44c0-.72.22-1.28.66-1.67.44-.39,1.04-.59,1.81-.59.5,0,.92.08,1.27.24.35.16.63.37.85.63s.37.55.46.87l-1.15.37c-.07-.32-.22-.58-.44-.78s-.55-.3-.97-.3-.75.1-.96.31c-.21.21-.31.48-.31.83v.38s1.8,0,1.8,0c.43,0,.82.07,1.16.2.34.14.61.34.8.61.2.27.29.61.29,1.01s-.1.74-.29,1.02c-.2.28-.46.49-.79.64-.33.14-.71.22-1.13.22s-.74-.06-.98-.17ZM342.19,285.36c.21-.16.31-.38.31-.65s-.1-.48-.3-.62c-.2-.14-.46-.21-.79-.21h-1.73s0,.12,0,.12c0,.5.15.89.46,1.17.3.28.7.43,1.2.43.36,0,.64-.08.85-.24Z"/><path class="cls-12" d="M332.99,286.46v-1.04h1.24c.22,0,.34-.12.34-.36v-3.47s-1.76,0-1.76,0v-1.04h1.76s0-1.96,0-1.96h1.24v1.96s1.63,0,1.63,0v1.04h-1.63s0,3.68,0,3.68c0,.36-.11.65-.32.86-.21.22-.5.32-.86.32h-1.63Z"/><path class="cls-12" d="M329.37,286.46v-4.87s-1.7,0-1.7,0v-1.04h1.7s0-1.08,0-1.08c0-.24-.12-.36-.35-.36h-1.13v-1.04h1.52c.36,0,.65.11.86.32s.32.5.32.86v1.3s1.66,0,1.66,0v1.04h-1.66s0,4.87,0,4.87h-1.24Z"/><path class="cls-12" d="M322.29,286.26c-.46-.24-.83-.59-1.09-1.05-.26-.46-.4-1-.4-1.62v-.18c0-.62.13-1.16.4-1.61.26-.45.63-.8,1.09-1.05s.99-.37,1.58-.37,1.12.12,1.58.37c.46.25.82.6,1.09,1.05.26.45.4.99.4,1.61v.18c0,.62-.13,1.16-.4,1.62-.26.46-.63.81-1.09,1.05-.46.24-.99.37-1.58.37s-1.12-.12-1.58-.37ZM325.18,285c.34-.35.51-.83.51-1.45v-.11c0-.62-.17-1.1-.51-1.45s-.78-.52-1.31-.52-1,.17-1.33.52-.5.83-.5,1.45v.11c0,.62.17,1.1.51,1.45s.78.52,1.33.52.97-.17,1.31-.52Z"/><path class="cls-12" d="M318.03,286.46v-3.48c0-.46-.13-.79-.38-1.01-.26-.22-.58-.33-.98-.33h-.76v-1.12h.71c.31,0,.57.06.79.17.21.12.37.3.46.55h.19s0-.7,0-.7h1.21v5.92h-1.24Z"/><path class="cls-12" d="M313.38,286.46v-3.53c0-.46-.12-.82-.35-1.07-.23-.25-.54-.37-.92-.37-.36,0-.64.1-.83.29s-.29.47-.29.83v3.84h-1.24v-3.53c0-.46-.12-.82-.35-1.07s-.54-.37-.92-.37c-.36,0-.64.1-.83.29-.2.2-.29.47-.29.83v3.84h-1.24v-3.94c0-.46.09-.84.26-1.15.18-.31.41-.54.71-.7.3-.16.64-.23,1.02-.23.48,0,.85.09,1.11.28.26.18.46.41.59.68h.19c.14-.28.34-.51.61-.69.27-.18.62-.27,1.06-.27s.76.08,1.01.24c.25.16.43.34.54.55h.19s0-.7,0-.7h1.21v5.92h-1.24Z"/><path class="cls-12" d="M300.13,286.13c-.44-.33-.66-.79-.66-1.38,0-.4.1-.72.31-.96s.48-.42.83-.55c.35-.13.74-.23,1.16-.3l.42-.07c.32-.06.57-.14.76-.25.19-.11.28-.29.28-.53,0-.22-.1-.4-.29-.52s-.46-.19-.79-.19-.63.07-.86.22c-.23.15-.38.4-.46.76l-1.15-.32c.13-.51.41-.92.83-1.22s.97-.45,1.64-.45,1.24.15,1.66.46c.42.31.62.74.62,1.3,0,.38-.1.68-.29.92-.19.24-.45.43-.78.56s-.69.24-1.09.31l-.41.07c-.39.07-.69.16-.89.28s-.3.29-.3.53.11.44.32.59c.21.15.51.23.91.23.26,0,.51-.04.74-.12.23-.08.42-.22.57-.41.15-.19.26-.45.32-.78l1.15.28c-.11.68-.42,1.19-.91,1.52s-1.12.5-1.87.5-1.34-.16-1.78-.49Z"/><path class="cls-9" d="M440,333h-143.01c-7.23,0-13.1,7.16-13.1,16h0c0,8.84,5.86,16,13.1,16h143.01"/><path class="cls-12" d="M429.97,353.46c-1.12,0-1.98-.28-2.57-.85-.6-.56-.89-1.42-.89-2.56v-1.57c0-1.14.3-2,.89-2.57s1.45-.85,2.57-.85h3.36v1.15h-1.13s0,6.1,0,6.1h1.13v1.15h-3.36ZM430.9,346.24h-.94c-.73,0-1.27.18-1.62.54-.35.36-.53.91-.53,1.64v1.66c0,.73.18,1.28.53,1.64.35.37.89.55,1.62.55h.94s0-6.04,0-6.04Z"/><path class="cls-12" d="M420.97,353.37c-.34-.17-.62-.38-.83-.62s-.37-.48-.49-.71l1.02-.53c.13.27.31.51.55.72.24.21.59.31,1.05.31.5,0,.91-.15,1.24-.46s.51-.72.52-1.24h-4.55v-.47c0-.6.12-1.12.36-1.57.24-.45.57-.8,1-1.05.43-.25.93-.38,1.49-.38s1.1.13,1.54.38c.44.25.79.61,1.04,1.07s.37,1,.37,1.61v.14c0,.61-.13,1.14-.38,1.6s-.6.82-1.05,1.07-.97.38-1.57.38c-.54,0-.98-.08-1.32-.25ZM423.49,348.84c-.29-.25-.67-.38-1.13-.38s-.84.13-1.13.38-.45.6-.48,1.05h3.28c-.06-.45-.24-.8-.53-1.05Z"/><path class="cls-12" d="M414.87,353.46l-1.99-5.92h1.31s1.57,5,1.57,5h.19s1.57-5,1.57-5h1.31s-1.99,5.92-1.99,5.92h-1.97Z"/><path class="cls-12" d="M407.85,353.37c-.34-.17-.62-.38-.83-.62s-.37-.48-.49-.71l1.02-.53c.13.27.31.51.55.72.24.21.59.31,1.05.31.5,0,.91-.15,1.24-.46s.51-.72.52-1.24h-4.55v-.47c0-.6.12-1.12.36-1.57.24-.45.57-.8,1-1.05.43-.25.93-.38,1.49-.38s1.1.13,1.54.38c.44.25.79.61,1.04,1.07s.37,1,.37,1.61v.14c0,.61-.13,1.14-.38,1.6s-.6.82-1.05,1.07-.97.38-1.57.38c-.54,0-.98-.08-1.32-.25ZM410.36,348.84c-.29-.25-.67-.38-1.13-.38s-.84.13-1.13.38-.45.6-.48,1.05h3.28c-.06-.45-.24-.8-.53-1.05Z"/><path class="cls-12" d="M403.63,353.46v-8.4h1.24v8.4h-1.24Z"/><path class="cls-12" d="M397.44,353.26c-.46-.24-.83-.59-1.09-1.05-.26-.46-.4-1-.4-1.62v-.18c0-.62.13-1.16.4-1.61.26-.45.63-.8,1.09-1.05s.99-.37,1.58-.37,1.12.12,1.58.37c.46.25.82.6,1.09,1.05.26.45.4.99.4,1.61v.18c0,.62-.13,1.16-.4,1.62-.26.46-.63.81-1.09,1.05-.46.24-.99.37-1.58.37s-1.12-.12-1.58-.37ZM400.34,352c.34-.35.51-.83.51-1.45v-.11c0-.62-.17-1.1-.51-1.45s-.78-.52-1.31-.52-1,.17-1.33.52-.5.83-.5,1.45v.11c0,.62.17,1.1.51,1.45s.78.52,1.33.52.97-.17,1.31-.52Z"/><path class="cls-12" d="M393.18,355.86v-3.2s-.19,0-.19,0c-.1.16-.22.31-.38.46-.16.15-.37.27-.64.37-.26.1-.59.14-.97.14-.5,0-.95-.12-1.37-.36-.42-.24-.75-.59-1-1.04-.25-.45-.37-1-.37-1.64v-.18c0-.64.13-1.19.38-1.64.25-.45.58-.8,1-1.04.41-.24.87-.36,1.36-.36.58,0,1.02.1,1.33.31.31.21.54.44.69.71h.19s0-.85,0-.85h1.21v8.32h-1.24ZM392.67,352.03c.35-.34.52-.84.52-1.48v-.11c0-.63-.17-1.12-.52-1.46-.35-.34-.79-.52-1.31-.52s-.98.17-1.33.52c-.35.34-.52.83-.52,1.46v.11c0,.64.17,1.13.52,1.48s.79.52,1.33.52.97-.17,1.31-.52Z"/><path class="cls-12" d="M385.49,353.46v-3.53c0-.46-.12-.82-.35-1.07-.23-.25-.54-.37-.92-.37-.36,0-.64.1-.83.29s-.29.47-.29.83v3.84h-1.24v-3.53c0-.46-.12-.82-.35-1.07s-.54-.37-.92-.37c-.36,0-.64.1-.83.29-.2.2-.29.47-.29.83v3.84h-1.24v-3.94c0-.46.09-.84.26-1.15.18-.31.41-.54.71-.7.3-.16.64-.23,1.02-.23.48,0,.85.09,1.11.28.26.18.46.41.59.68h.19c.14-.28.34-.51.61-.69.27-.18.62-.27,1.06-.27s.76.08,1.01.24c.25.16.43.34.54.55h.19s0-.7,0-.7h1.21v5.92h-1.24Z"/><path class="cls-12" d="M372.41,353.37c-.34-.17-.62-.38-.83-.62s-.37-.48-.49-.71l1.02-.53c.13.27.31.51.55.72.24.21.59.31,1.05.31.5,0,.91-.15,1.24-.46s.51-.72.52-1.24h-4.55v-.47c0-.6.12-1.12.36-1.57.24-.45.57-.8,1-1.05.43-.25.93-.38,1.49-.38s1.1.13,1.54.38c.44.25.79.61,1.04,1.07s.37,1,.37,1.61v.14c0,.61-.13,1.14-.38,1.6s-.6.82-1.05,1.07-.97.38-1.57.38c-.54,0-.98-.08-1.32-.25ZM374.92,348.84c-.29-.25-.67-.38-1.13-.38s-.84.13-1.13.38-.45.6-.48,1.05h3.28c-.06-.45-.24-.8-.53-1.05Z"/><path class="cls-12" d="M368.2,353.46v-2.99c0-.64-.15-1.13-.46-1.46-.31-.34-.72-.5-1.23-.5-.45,0-.8.12-1.06.37-.26.24-.38.62-.38,1.13v3.46h-1.24v-3.55c0-.51.1-.95.3-1.31.2-.36.47-.65.82-.85.35-.2.75-.3,1.19-.3.57,0,1,.1,1.28.31s.49.43.6.67h.19s0-.89,0-.89h1.21v5.92h-1.24Z"/><path class="cls-12" d="M358.37,353.46v-1.04h1.24c.22,0,.34-.12.34-.36v-3.47s-1.76,0-1.76,0v-1.04h1.76s0-1.96,0-1.96h1.24v1.96s1.63,0,1.63,0v1.04h-1.63s0,3.68,0,3.68c0,.36-.11.65-.32.86-.21.22-.5.32-.86.32h-1.63Z"/><path class="cls-12" d="M352.41,353.46v-3.23s-2.04,0-2.04,0c-.5,0-.96-.1-1.36-.3-.4-.2-.72-.49-.95-.86-.24-.38-.35-.82-.35-1.34v-.16c0-.52.11-.97.34-1.34.23-.37.54-.66.95-.86s.86-.31,1.37-.31h3.34v8.4h-1.3ZM352.41,346.23h-1.91c-.46,0-.82.12-1.09.36-.27.24-.41.57-.41,1v.12c0,.42.14.74.41.98.27.24.64.36,1.09.36h1.91s0-2.82,0-2.82Z"/><path class="cls-12" d="M345.19,353.46v-8.4h1.24v8.4h-1.24Z"/><path class="cls-12" d="M340.54,353.45c-.25-.12-.44-.25-.56-.41s-.22-.3-.29-.42h-.18s0,.04,0,.04c0,.25-.09.44-.26.59-.18.14-.4.22-.68.22h-.92v-1.03h.5c.22,0,.34-.12.34-.36v-2.44c0-.72.22-1.28.66-1.67.44-.39,1.04-.59,1.81-.59.5,0,.92.08,1.27.24.35.16.63.37.85.63s.37.55.46.87l-1.15.37c-.07-.32-.22-.58-.44-.78s-.55-.3-.97-.3-.75.1-.96.31c-.21.21-.31.48-.31.83v.38s1.8,0,1.8,0c.43,0,.82.07,1.16.2.34.14.61.34.8.61.2.27.29.61.29,1.01,0,.4-.1.74-.29,1.02-.2.28-.46.49-.79.64-.33.14-.71.22-1.13.22s-.74-.06-.98-.17ZM342.19,352.36c.21-.16.31-.38.31-.65,0-.27-.1-.48-.3-.62-.2-.14-.46-.21-.79-.21h-1.73s0,.12,0,.12c0,.5.15.89.46,1.17.3.28.7.43,1.2.43.36,0,.64-.08.85-.24Z"/><path class="cls-12" d="M332.99,353.46v-1.04h1.24c.22,0,.34-.12.34-.36v-3.47s-1.76,0-1.76,0v-1.04h1.76s0-1.96,0-1.96h1.24v1.96s1.63,0,1.63,0v1.04h-1.63s0,3.68,0,3.68c0,.36-.11.65-.32.86-.21.22-.5.32-.86.32h-1.63Z"/><path class="cls-12" d="M329.37,353.46v-4.87s-1.7,0-1.7,0v-1.04h1.7s0-1.08,0-1.08c0-.24-.12-.36-.35-.36h-1.13v-1.04h1.52c.36,0,.65.11.86.32s.32.5.32.86v1.3s1.66,0,1.66,0v1.04h-1.66s0,4.87,0,4.87h-1.24Z"/><path class="cls-12" d="M322.29,353.26c-.46-.24-.83-.59-1.09-1.05-.26-.46-.4-1-.4-1.62v-.18c0-.62.13-1.16.4-1.61.26-.45.63-.8,1.09-1.05s.99-.37,1.58-.37,1.12.12,1.58.37c.46.25.82.6,1.09,1.05.26.45.4.99.4,1.61v.18c0,.62-.13,1.16-.4,1.62-.26.46-.63.81-1.09,1.05-.46.24-.99.37-1.58.37s-1.12-.12-1.58-.37ZM325.18,352c.34-.35.51-.83.51-1.45v-.11c0-.62-.17-1.1-.51-1.45s-.78-.52-1.31-.52-1,.17-1.33.52-.5.83-.5,1.45v.11c0,.62.17,1.1.51,1.45s.78.52,1.33.52.97-.17,1.31-.52Z"/><path class="cls-12" d="M318.03,353.46v-3.48c0-.46-.13-.79-.38-1.01-.26-.22-.58-.33-.98-.33h-.76v-1.12h.71c.31,0,.57.06.79.17.21.12.37.3.46.55h.19s0-.7,0-.7h1.21v5.92h-1.24Z"/><path class="cls-12" d="M313.38,353.46v-3.53c0-.46-.12-.82-.35-1.07-.23-.25-.54-.37-.92-.37-.36,0-.64.1-.83.29s-.29.47-.29.83v3.84h-1.24v-3.53c0-.46-.12-.82-.35-1.07s-.54-.37-.92-.37c-.36,0-.64.1-.83.29-.2.2-.29.47-.29.83v3.84h-1.24v-3.94c0-.46.09-.84.26-1.15.18-.31.41-.54.71-.7.3-.16.64-.23,1.02-.23.48,0,.85.09,1.11.28.26.18.46.41.59.68h.19c.14-.28.34-.51.61-.69.27-.18.62-.27,1.06-.27s.76.08,1.01.24c.25.16.43.34.54.55h.19s0-.7,0-.7h1.21v5.92h-1.24Z"/><path class="cls-12" d="M300.13,353.13c-.44-.33-.66-.79-.66-1.38,0-.4.1-.72.31-.96s.48-.42.83-.55c.35-.13.74-.23,1.16-.3l.42-.07c.32-.06.57-.14.76-.25.19-.11.28-.29.28-.53s-.1-.4-.29-.52-.46-.19-.79-.19-.63.07-.86.22c-.23.15-.38.4-.46.76l-1.15-.32c.13-.51.41-.92.83-1.22s.97-.45,1.64-.45,1.24.15,1.66.46c.42.31.62.74.62,1.3,0,.38-.1.68-.29.92-.19.24-.45.43-.78.56s-.69.24-1.09.31l-.41.07c-.39.07-.69.16-.89.28s-.3.29-.3.53.11.44.32.59c.21.15.51.23.91.23.26,0,.51-.04.74-.12.23-.08.42-.22.57-.41.15-.19.26-.45.32-.78l1.15.28c-.11.68-.42,1.19-.91,1.52s-1.12.5-1.87.5-1.34-.16-1.78-.49Z"/></svg>