<?xml version="1.0" encoding="UTF-8"?><svg id="katman_1" xmlns="http://www.w3.org/2000/svg" xmlns:xlink="http://www.w3.org/1999/xlink" viewBox="0 0 440 440"><defs><style>.cls-1{fill:#f24e1e;}.cls-1,.cls-2,.cls-3,.cls-4,.cls-5,.cls-6,.cls-7,.cls-8,.cls-9,.cls-10,.cls-11,.cls-12,.cls-13,.cls-14,.cls-15,.cls-16,.cls-17,.cls-18,.cls-19,.cls-20,.cls-21,.cls-22,.cls-23,.cls-24,.cls-25,.cls-26,.cls-27,.cls-28,.cls-29,.cls-30,.cls-31,.cls-32,.cls-33{stroke-width:0px;}.cls-2{fill:url(#Adsız_degrade_3);}.cls-3{fill:url(#Adsız_degrade_4);}.cls-4{fill:url(#Adsız_degrade_2);}.cls-5{fill:url(#Adsız_degrade_5);}.cls-6{fill:url(#Adsız_degrade_6);}.cls-7{fill:#41b883;}.cls-8{fill:#e0234e;}.cls-34,.cls-35,.cls-36,.cls-37,.cls-38,.cls-39,.cls-40,.cls-41,.cls-42,.cls-43,.cls-44,.cls-45{fill:#f8fafc;stroke:#ebf2fa;stroke-miterlimit:10;}.cls-46{clip-path:url(#clippath);}.cls-9{fill:none;}.cls-10{fill:#ffc24a;}.cls-11{fill:#eeab37;}.cls-12{fill:#24292f;}.cls-47{mask:url(#mask);}.cls-13{fill:#ff7262;}.cls-14{fill:#01ec64;}.cls-48{clip-path:url(#clippath-1);}.cls-49{clip-path:url(#clippath-4);}.cls-50{clip-path:url(#clippath-3);}.cls-51{clip-path:url(#clippath-2);}.cls-52{clip-path:url(#clippath-7);}.cls-53{clip-path:url(#clippath-8);}.cls-54{clip-path:url(#clippath-6);}.cls-55{clip-path:url(#clippath-5);}.cls-56{clip-path:url(#clippath-9);}.cls-15,.cls-57,.cls-22,.cls-58{fill:#e9f0f9;}.cls-15,.cls-57,.cls-28{fill-rule:evenodd;}.cls-16{fill:#35495e;}.cls-35{filter:url(#drop-shadow-1);}.cls-36{filter:url(#drop-shadow-7);}.cls-37{filter:url(#drop-shadow-4);}.cls-38{filter:url(#drop-shadow-8);}.cls-39{filter:url(#drop-shadow-6);}.cls-40{filter:url(#drop-shadow-2);}.cls-41{filter:url(#drop-shadow-3);}.cls-42{filter:url(#drop-shadow-9);}.cls-43{filter:url(#drop-shadow-5);}.cls-17{fill:#cbd5e1;}.cls-18{fill:#fde068;}.cls-57,.cls-58{stroke:#fff;stroke-linecap:round;stroke-width:3.6px;}.cls-19{fill:#a259ff;}.cls-59{clip-path:url(#clippath-20);}.cls-60{clip-path:url(#clippath-21);}.cls-61{clip-path:url(#clippath-24);}.cls-62{clip-path:url(#clippath-23);}.cls-63{clip-path:url(#clippath-22);}.cls-64{clip-path:url(#clippath-25);}.cls-65{clip-path:url(#clippath-27);}.cls-66{clip-path:url(#clippath-28);}.cls-67{clip-path:url(#clippath-26);}.cls-68{clip-path:url(#clippath-29);}.cls-69{clip-path:url(#clippath-34);}.cls-70{clip-path:url(#clippath-33);}.cls-71{clip-path:url(#clippath-32);}.cls-72{clip-path:url(#clippath-30);}.cls-73{clip-path:url(#clippath-31);}.cls-74{clip-path:url(#clippath-14);}.cls-75{clip-path:url(#clippath-13);}.cls-76{clip-path:url(#clippath-12);}.cls-77{clip-path:url(#clippath-10);}.cls-78{clip-path:url(#clippath-15);}.cls-79{clip-path:url(#clippath-17);}.cls-80{clip-path:url(#clippath-16);}.cls-81{clip-path:url(#clippath-19);}.cls-82{clip-path:url(#clippath-11);}.cls-83{clip-path:url(#clippath-18);}.cls-20{fill:#ff6c37;}.cls-21{fill:#1abcfe;}.cls-23{fill:#85ea2d;}.cls-24{fill:#173647;}.cls-25{fill:#ffa712;}.cls-44{filter:url(#drop-shadow-10);}.cls-45{filter:url(#drop-shadow-11);}.cls-26{fill:#ffa50e;}.cls-27{fill:#0acf83;}.cls-28,.cls-31{fill:#fff;}.cls-29{fill:#f6820c;}.cls-30{fill:#f1f5f9;}.cls-32{fill:#f4bd62;}.cls-84{mask:url(#mask-2);}.cls-85{mask:url(#mask-1);}.cls-33{fill:#fcca3f;}</style><filter id="drop-shadow-1" filterUnits="userSpaceOnUse"><feOffset dx="3" dy="3"/><feGaussianBlur result="blur" stdDeviation="3"/><feFlood flood-color="#5898cc" flood-opacity=".2"/><feComposite in2="blur" operator="in"/><feComposite in="SourceGraphic"/></filter><clipPath id="clippath"><rect class="cls-9" x="375.92" y="370.5" width="29.17" height="40"/></clipPath><clipPath id="clippath-1"><rect class="cls-9" x="287.12" y="370.5" width="35.83" height="40"/></clipPath><filter id="drop-shadow-2" filterUnits="userSpaceOnUse"><feOffset dx="3" dy="3"/><feGaussianBlur result="blur-2" stdDeviation="3"/><feFlood flood-color="#5898cc" flood-opacity=".2"/><feComposite in2="blur-2" operator="in"/><feComposite in="SourceGraphic"/></filter><clipPath id="clippath-2"><rect class="cls-9" x="200" y="370.5" width="40" height="40"/></clipPath><clipPath id="clippath-3"><rect class="cls-9" x="200" y="370.5" width="40" height="40"/></clipPath><clipPath id="clippath-4"><rect class="cls-9" x="114.5" y="372.17" width="40" height="36.67"/></clipPath><clipPath id="clippath-5"><rect class="cls-9" x="29.5" y="370.5" width="40" height="40"/></clipPath><clipPath id="clippath-6"><rect class="cls-9" x="29.5" y="370.5" width="40" height="40"/></clipPath><clipPath id="clippath-7"><rect class="cls-9" x="373.31" y="285.42" width="35" height="40"/></clipPath><filter id="drop-shadow-3" filterUnits="userSpaceOnUse"><feOffset dx="3" dy="3"/><feGaussianBlur result="blur-3" stdDeviation="3"/><feFlood flood-color="#5898cc" flood-opacity=".2"/><feComposite in2="blur-3" operator="in"/><feComposite in="SourceGraphic"/></filter><clipPath id="clippath-8"><rect class="cls-9" x="285.03" y="285.25" width="40" height="40"/></clipPath><clipPath id="clippath-9"><rect class="cls-9" x="285.03" y="285.25" width="40" height="40"/></clipPath><clipPath id="clippath-10"><rect class="cls-9" x="200" y="285.25" width="40" height="40"/></clipPath><clipPath id="clippath-11"><rect class="cls-9" x="200" y="285.25" width="40" height="40"/></clipPath><filter id="drop-shadow-4" filterUnits="userSpaceOnUse"><feOffset dx="3" dy="3"/><feGaussianBlur result="blur-4" stdDeviation="3"/><feFlood flood-color="#5898cc" flood-opacity=".2"/><feComposite in2="blur-4" operator="in"/><feComposite in="SourceGraphic"/></filter><clipPath id="clippath-12"><rect class="cls-9" x="117" y="285.25" width="35" height="40"/></clipPath><linearGradient id="Adsız_degrade_3" x1="511.67" y1="728.23" x2="-1205.89" y2="-1965.17" gradientTransform="translate(0 442) scale(1 -1)" gradientUnits="userSpaceOnUse"><stop offset="0" stop-color="#41873f"/><stop offset=".33" stop-color="#418b3d"/><stop offset=".64" stop-color="#419637"/><stop offset=".93" stop-color="#3fa92d"/><stop offset="1" stop-color="#3fae2a"/></linearGradient><mask id="mask" x="117" y="285.25" width="35" height="40.01" maskUnits="userSpaceOnUse"><g id="mask0_873_22339"><path class="cls-31" d="M135.45,285.5c-.59-.33-1.3-.33-1.89,0l-15.63,9.04c-.59.33-.93.97-.93,1.64v18.11c0,.67.37,1.3.93,1.64l15.63,9.04c.59.33,1.3.33,1.89,0l15.63-9.04c.59-.33.93-.97.93-1.64v-18.11c0-.67-.37-1.3-.93-1.64l-15.63-9.04Z"/></g></mask><linearGradient id="Adsız_degrade_4" x1="349.56" y1="253.12" x2="4642.78" y2="2581.05" gradientTransform="translate(0 442) scale(1 -1)" gradientUnits="userSpaceOnUse"><stop offset=".14" stop-color="#41873f"/><stop offset=".4" stop-color="#54a044"/><stop offset=".71" stop-color="#66b848"/><stop offset=".91" stop-color="#6cc04a"/></linearGradient><mask id="mask-1" x="117" y="285.24" width="35.07" height="39.97" maskUnits="userSpaceOnUse"><g id="mask1_873_22339"><path class="cls-31" d="M135.45,285.5c-.59-.33-1.3-.33-1.89,0l-15.63,9.04c-.59.33-.93.97-.93,1.64v18.11c0,.67.37,1.3.93,1.64l15.63,9.04c.59.33,1.3.33,1.89,0l15.63-9.04c.59-.33.93-.97.93-1.64v-18.11c0-.67-.37-1.3-.93-1.64l-15.63-9.04Z"/></g></mask><linearGradient id="Adsız_degrade_5" x1="-31.93" y1="136.77" x2="3583.76" y2="136.77" gradientTransform="translate(0 442) scale(1 -1)" gradientUnits="userSpaceOnUse"><stop offset=".09" stop-color="#6cc04a"/><stop offset=".29" stop-color="#66b848"/><stop offset=".6" stop-color="#54a044"/><stop offset=".86" stop-color="#41873f"/></linearGradient><clipPath id="clippath-13"><rect class="cls-9" x="29.5" y="285.25" width="40" height="40"/></clipPath><clipPath id="clippath-14"><rect class="cls-9" x="29.5" y="285.25" width="40" height="40"/></clipPath><filter id="drop-shadow-5" filterUnits="userSpaceOnUse"><feOffset dx="3" dy="3"/><feGaussianBlur result="blur-5" stdDeviation="3"/><feFlood flood-color="#5898cc" flood-opacity=".2"/><feComposite in2="blur-5" operator="in"/><feComposite in="SourceGraphic"/></filter><clipPath id="clippath-15"><rect class="cls-9" x="39.92" y="200" width="19.17" height="40"/></clipPath><clipPath id="clippath-16"><rect class="cls-9" x="114.5" y="200" width="40" height="40"/></clipPath><clipPath id="clippath-17"><rect class="cls-9" x="114.5" y="200" width="40" height="40"/></clipPath><filter id="drop-shadow-6" filterUnits="userSpaceOnUse"><feOffset dx="3" dy="3"/><feGaussianBlur result="blur-6" stdDeviation="3"/><feFlood flood-color="#5898cc" flood-opacity=".2"/><feComposite in2="blur-6" operator="in"/><feComposite in="SourceGraphic"/></filter><clipPath id="clippath-18"><rect class="cls-9" x="200" y="200" width="40" height="40"/></clipPath><clipPath id="clippath-19"><rect class="cls-9" x="200" y="200" width="40" height="39.17"/></clipPath><clipPath id="clippath-20"><rect class="cls-9" x="285.25" y="200" width="40" height="40"/></clipPath><clipPath id="clippath-21"><rect class="cls-9" x="285.25" y="200.83" width="40" height="38.33"/></clipPath><filter id="drop-shadow-7" filterUnits="userSpaceOnUse"><feOffset dx="3" dy="3"/><feGaussianBlur result="blur-7" stdDeviation="3"/><feFlood flood-color="#5898cc" flood-opacity=".2"/><feComposite in2="blur-7" operator="in"/><feComposite in="SourceGraphic"/></filter><clipPath id="clippath-22"><rect class="cls-9" x="370.54" y="200" width="40" height="40"/></clipPath><clipPath id="clippath-23"><rect class="cls-9" x="370.54" y="200" width="40" height="40"/></clipPath><clipPath id="clippath-24"><rect class="cls-9" x="29.5" y="118.81" width="40" height="31.88"/></clipPath><filter id="drop-shadow-8" filterUnits="userSpaceOnUse"><feOffset dx="3" dy="3"/><feGaussianBlur result="blur-8" stdDeviation="3"/><feFlood flood-color="#5898cc" flood-opacity=".2"/><feComposite in2="blur-8" operator="in"/><feComposite in="SourceGraphic"/></filter><clipPath id="clippath-25"><rect class="cls-9" x="114.75" y="122.72" width="40" height="24.06"/></clipPath><linearGradient id="Adsız_degrade_2" x1="363.49" y1="175.4" x2="3818.14" y2="-1816.48" gradientTransform="translate(0 442) scale(1 -1)" gradientUnits="userSpaceOnUse"><stop offset="0" stop-color="#2298bd"/><stop offset="1" stop-color="#0ed7b5"/></linearGradient><clipPath id="clippath-26"><rect class="cls-9" x="288.62" y="114.75" width="33.25" height="40"/></clipPath><clipPath id="clippath-27"><rect class="cls-9" x="370.54" y="116.83" width="40" height="35.83"/></clipPath><filter id="drop-shadow-9" filterUnits="userSpaceOnUse"><feOffset dx="3" dy="3"/><feGaussianBlur result="blur-9" stdDeviation="3"/><feFlood flood-color="#5898cc" flood-opacity=".2"/><feComposite in2="blur-9" operator="in"/><feComposite in="SourceGraphic"/></filter><clipPath id="clippath-28"><rect class="cls-9" x="29.5" y="29.5" width="40" height="40"/></clipPath><clipPath id="clippath-29"><rect class="cls-9" x="29.5" y="29.5" width="40" height="40"/></clipPath><linearGradient id="Adsız_degrade_6" x1="49.5" y1="412.5" x2="49.5" y2="-3587.5" gradientTransform="translate(0 442) scale(1 -1)" gradientUnits="userSpaceOnUse"><stop offset="0" stop-color="#0091e6"/><stop offset="1" stop-color="#0079bf"/></linearGradient><clipPath id="clippath-30"><rect class="cls-9" x="114.75" y="29.5" width="40" height="40"/></clipPath><clipPath id="clippath-31"><rect class="cls-9" x="110.75" y="25.5" width="47.94" height="48"/></clipPath><filter id="drop-shadow-10" filterUnits="userSpaceOnUse"><feOffset dx="3" dy="3"/><feGaussianBlur result="blur-10" stdDeviation="3"/><feFlood flood-color="#5898cc" flood-opacity=".2"/><feComposite in2="blur-10" operator="in"/><feComposite in="SourceGraphic"/></filter><clipPath id="clippath-32"><rect class="cls-9" x="206.67" y="29.5" width="26.67" height="40"/></clipPath><mask id="mask-2" x="206.67" y="29.5" width="26.34" height="40" maskUnits="userSpaceOnUse"><g id="mask0_873_22311"><path class="cls-31" d="M233,29.5h-26.34v40h26.34V29.5Z"/></g></mask><clipPath id="clippath-33"><rect class="cls-9" x="287.59" y="29.5" width="35.31" height="40"/></clipPath><filter id="drop-shadow-11" filterUnits="userSpaceOnUse"><feOffset dx="3" dy="3"/><feGaussianBlur result="blur-11" stdDeviation="3"/><feFlood flood-color="#5898cc" flood-opacity=".2"/><feComposite in2="blur-11" operator="in"/><feComposite in="SourceGraphic"/></filter><clipPath id="clippath-34"><rect class="cls-9" x="370.48" y="31.5" width="40" height="40"/></clipPath></defs><rect class="cls-31" width="440" height="440"/><rect class="cls-35" x="355.5" y="355.5" width="70" height="70" rx="12" ry="12"/><g class="cls-46"><path class="cls-10" d="M375.92,402.75l.24-.34,11.44-21.71.02-.23-5.04-9.47c-.42-.79-1.61-.59-1.75.3l-4.91,31.46Z"/><path class="cls-25" d="M376.06,402.49l.18-.36,11.32-21.48-5.03-9.51c-.42-.79-1.48-.59-1.62.29l-4.86,31.06Z"/><path class="cls-33" d="M376.06,402.49l.18-.36,11.32-21.48-5.03-9.51c-.42-.79-1.48-.59-1.62.29l-4.86,31.06Z"/><path class="cls-32" d="M391.3,387.64l3.75-3.85-3.76-7.17c-.36-.68-1.35-.68-1.7,0l-2.01,3.83v.33l3.71,6.86h0Z"/><path class="cls-26" d="M391.23,387.48l3.65-3.74-3.65-6.95c-.35-.66-1.19-.73-1.53-.07l-2.02,3.89-.06.2,3.61,6.67h0Z"/><path class="cls-33" d="M391.23,387.48l3.65-3.74-3.65-6.95c-.35-.66-1.19-.73-1.53-.07l-2.02,3.89-.06.2,3.61,6.67h0Z"/><path class="cls-29" d="M375.92,402.75l.11-.11.4-.16,14.64-14.59.19-.5-3.65-6.96-11.68,22.32Z"/><path class="cls-18" d="M391.77,410.11l13.25-7.39-3.78-23.3c-.12-.73-1.01-1.02-1.53-.49l-23.78,23.83,13.17,7.36c.41.23.87.35,1.34.35.47,0,.93-.12,1.34-.35Z"/><path class="cls-33" d="M404.9,402.65l-3.75-23.13c-.12-.72-.86-1.02-1.38-.5l-23.7,23.68,13.03,7.28c.41.23.86.35,1.33.35.47,0,.92-.12,1.33-.35l13.15-7.33h0Z"/><path class="cls-11" d="M391.77,409.89c-.41.23-.87.35-1.34.35-.47,0-.93-.12-1.34-.35l-13.07-7.25-.11.11,13.17,7.36c.41.23.87.35,1.34.35.47,0,.93-.12,1.34-.35l13.25-7.39-.03-.2-13.21,7.37h0Z"/></g><rect class="cls-34" x="270.03" y="355.5" width="70" height="70" rx="12" ry="12"/><g class="cls-48"><path class="cls-15" d="M308.47,375.08l8.28,4.74c.23-.25.51-.46.81-.64,1.72-.98,3.91-.4,4.9,1.31.99,1.7.4,3.88-1.32,4.87-.31.17-.63.3-.96.38v9.49c.32.08.64.2.95.38,1.73.99,2.31,3.16,1.32,4.87-.99,1.7-3.19,2.29-4.9,1.31-.34-.19-.64-.44-.89-.71l-8.23,4.71c.12.35.18.73.18,1.12,0,1.96-1.6,3.56-3.59,3.56s-3.59-1.59-3.59-3.56c0-.35.05-.69.15-1.01l-8.28-4.74c-.23.24-.5.45-.8.63-1.73.98-3.92.4-4.9-1.31-.99-1.7-.4-3.88,1.32-4.87.3-.17.62-.3.95-.38v-9.49c-.33-.08-.65-.2-.96-.38-1.72-.98-2.3-3.16-1.32-4.87.99-1.7,3.19-2.29,4.9-1.31.31.18.58.39.81.64l8.28-4.74c-.1-.32-.15-.66-.15-1.01,0-1.97,1.6-3.56,3.59-3.56s3.59,1.59,3.59,3.56c0,.35-.05.7-.15,1.02ZM307.61,376.54l8.3,4.75c-.26.89-.16,1.89.34,2.75.51.87,1.33,1.45,2.24,1.68v9.5s-.09.02-.14.04l-10.84-18.63s.06-.06.1-.09ZM302.55,376.64l-10.84,18.63s-.09-.03-.14-.04v-9.5c.91-.23,1.74-.8,2.24-1.68.5-.87.6-1.86.34-2.76l8.3-4.75s.07.07.1.1ZM306.04,377.48l10.84,18.62c-.24.23-.46.5-.63.8-.17.3-.3.62-.38.94h-21.66c-.08-.32-.2-.64-.38-.94-.18-.3-.39-.57-.63-.8l10.84-18.63c.32.09.65.14,1,.14s.68-.05,1-.14ZM307.69,404.49l8.24-4.72c-.02-.08-.05-.15-.07-.23h-21.67s-.02.09-.04.14l8.29,4.75c.65-.67,1.57-1.09,2.59-1.09s2,.45,2.65,1.16Z"/></g><rect class="cls-40" x="185" y="355.5" width="70" height="70" rx="12" ry="12"/><g class="cls-51"><g class="cls-50"><path class="cls-20" d="M239.84,393.04c1.4-10.96-6.34-20.98-17.28-22.38-10.94-1.4-21,6.34-22.4,17.28-1.4,10.94,6.34,20.98,17.28,22.4,10.96,1.4,20.98-6.34,22.4-17.3Z"/><path class="cls-31" d="M227.22,383.34l-8.44,8.44-2.38-2.38c8.3-8.3,9.12-7.58,10.82-6.06Z"/><path class="cls-20" d="M218.78,391.98c-.06,0-.1-.02-.14-.06l-2.4-2.38s-.03-.04-.04-.06c-.01-.02-.02-.05-.02-.08s0-.05.02-.08c.01-.02.03-.05.04-.06,8.44-8.44,9.32-7.64,11.1-6.04.04.04.06.08.06.14s-.02.1-.06.14l-8.44,8.42s-.08.06-.12.06ZM216.68,389.4l2.1,2.1,8.14-8.14c-1.48-1.32-2.48-1.72-10.24,6.04Z"/><path class="cls-31" d="M221.2,394.2l-2.3-2.3,8.44-8.44c2.26,2.28-1.12,5.98-6.14,10.74h0Z"/><path class="cls-20" d="M221.2,394.4c-.06,0-.1-.02-.14-.06l-2.3-2.3s-.04-.08-.04-.14.02-.1.06-.14l8.44-8.44s.04-.03.06-.04c.02-.01.05-.02.08-.02s.05,0,.08.02c.02.01.05.03.06.04.26.24.46.52.59.85.13.32.2.67.19,1.01-.04,2.22-2.56,5.04-6.92,9.16-.06.04-.12.06-.16.06ZM219.18,391.9c1.28,1.3,1.82,1.82,2.02,2.02,3.36-3.2,6.62-6.48,6.64-8.74.02-.52-.18-1.04-.52-1.44l-8.14,8.16Z"/><path class="cls-31" d="M216.44,389.46l1.7,1.7s.04.08,0,.12t-.04.02l-3.52.76c-.18.02-.34-.1-.38-.28-.02-.1.02-.2.08-.26l2.04-2.04s.1-.06.12-.02Z"/><path class="cls-20" d="M214.52,392.26c-.3,0-.52-.24-.52-.54,0-.14.06-.28.16-.38l2.04-2.04c.12-.1.28-.1.4,0l1.7,1.7c.12.1.12.28,0,.4-.04.04-.08.06-.14.08l-3.52.76s-.08.02-.12.02ZM216.38,389.68l-1.96,1.96s-.06.1-.02.16c.02.06.08.08.14.06l3.3-.72-1.46-1.46Z"/><path class="cls-31" d="M231.68,378.66c-1.28-1.24-3.34-1.2-4.58.1-1.24,1.3-1.2,3.34.1,4.58.51.5,1.18.81,1.88.89.71.08,1.42-.08,2.03-.45l-2.28-2.28,2.84-2.84Z"/><path class="cls-20" d="M229.44,384.44c-1.9,0-3.44-1.54-3.44-3.44s1.54-3.44,3.44-3.44c.88,0,1.74.34,2.38.96.04.04.06.08.06.14s-.02.1-.06.14l-2.7,2.7,2.12,2.12c.08.08.08.2,0,.28l-.04.04c-.52.32-1.14.5-1.76.5ZM229.44,377.98c-1.68,0-3.04,1.36-3.02,3.04,0,1.68,1.36,3.04,3.04,3.02.46,0,.92-.1,1.34-.32l-2.1-2.08s-.06-.08-.06-.14.02-.1.06-.14l2.68-2.68c-.54-.46-1.22-.7-1.94-.7Z"/><path class="cls-31" d="M231.74,378.72l-.04-.04-2.86,2.82,2.26,2.26c.22-.14.44-.3.62-.48.3-.3.54-.65.71-1.04.17-.39.25-.81.25-1.23,0-.42-.08-.84-.24-1.24-.16-.39-.4-.75-.7-1.05Z"/><path class="cls-20" d="M231.12,383.98c-.06,0-.1-.02-.14-.06l-2.28-2.28s-.06-.08-.06-.14.02-.1.06-.14l2.84-2.84s.04-.03.06-.04c.02-.01.05-.02.08-.02s.05,0,.08.02c.02.01.05.03.06.04l.06.04c1.34,1.34,1.34,3.5.02,4.86-.2.2-.42.38-.66.52-.06.02-.1.04-.12.04ZM229.12,381.5l2.02,2.02c.16-.1.32-.24.44-.36,1.14-1.14,1.2-3,.1-4.2l-2.56,2.54Z"/><path class="cls-31" d="M227.56,383.7c-.23-.23-.54-.36-.87-.36s-.64.13-.87.36l-7.54,7.54,1.26,1.26,7.98-7c.52-.44.56-1.22.12-1.74-.04-.02-.06-.04-.08-.06Z"/><path class="cls-20" d="M219.52,392.7c-.06,0-.1-.02-.14-.06l-1.26-1.26s-.03-.04-.04-.06c-.01-.02-.02-.05-.02-.08s0-.05.02-.08c.01-.02.03-.05.04-.06l7.54-7.54c.13-.13.29-.24.46-.31.17-.07.36-.11.55-.11s.37.04.55.11c.17.07.33.18.46.31.13.13.24.29.31.46.07.17.11.36.11.55s-.04.37-.11.55c-.07.17-.18.33-.31.46l-.06.06-7.98,7s-.06.06-.12.06ZM218.56,391.24l.98.98,7.84-6.88c.44-.36.48-1.02.12-1.46-.36-.44-1.02-.48-1.46-.12-.02.02-.04.04-.08.06l-7.4,7.42Z"/><path class="cls-31" d="M212.5,399.82c-.08.04-.12.12-.1.2l.34,1.44c.08.2-.04.44-.26.5-.16.06-.34,0-.44-.12l-2.2-2.18,7.18-7.18,2.48.04,1.68,1.68c-.4.34-2.82,2.68-8.68,5.62Z"/><path class="cls-20" d="M212.34,402.16c-.16,0-.32-.06-.42-.18l-2.18-2.18s-.06-.08-.06-.14.02-.1.06-.14l7.18-7.18s.1-.06.14-.06l2.48.04c.06,0,.1.02.14.06l1.68,1.68s.06.1.06.16-.02.1-.08.14l-.14.12c-2.12,1.86-5,3.72-8.58,5.5l.34,1.42c.06.26-.06.54-.3.68-.12.06-.22.08-.32.08ZM210.14,399.66l2.06,2.04c.06.1.18.14.28.08.1-.06.14-.18.08-.28l-.34-1.44c-.04-.18.04-.34.2-.42,3.54-1.78,6.4-3.62,8.5-5.44l-1.48-1.48-2.3-.04-7,6.98Z"/><path class="cls-31" d="M208.14,401.38l1.72-1.72,2.56,2.56-4.08-.28c-.18-.02-.3-.18-.28-.36,0-.08.02-.16.08-.2Z"/><path class="cls-20" d="M212.42,402.4l-4.1-.28c-.3-.02-.5-.28-.48-.58.02-.12.06-.24.16-.32l1.72-1.72s.04-.03.06-.04c.02-.01.05-.02.08-.02s.05,0,.08.02c.02.01.05.03.06.04l2.56,2.56c.06.06.08.14.04.22s-.1.12-.18.12ZM209.86,399.94l-1.58,1.58c-.06.04-.06.14,0,.18.02.02.04.04.08.04l3.54.24-2.04-2.04h0ZM216.32,393.4c-.12,0-.2-.1-.2-.2,0-.06.02-.1.06-.14l1.94-1.94s.04-.03.06-.04c.02-.01.05-.02.08-.02s.05,0,.08.02.05.03.06.04l1.26,1.26c.06.06.08.12.06.2-.02.06-.08.12-.16.14l-3.2.68h-.04ZM218.26,391.54l-1.32,1.32,2.16-.46-.84-.86Z"/><path class="cls-31" d="M219.5,392.52l-2.2.48c-.16.04-.32-.06-.36-.22-.02-.1,0-.2.08-.28l1.22-1.22,1.26,1.24Z"/><path class="cls-20" d="M217.26,393.2c-.07,0-.13-.01-.19-.04-.06-.02-.12-.06-.16-.11-.05-.05-.08-.1-.11-.16-.02-.06-.04-.13-.04-.19,0-.14.06-.26.14-.36l1.22-1.22s.04-.03.06-.04c.02-.01.05-.02.08-.02s.05,0,.08.02c.02.01.05.03.06.04l1.26,1.26c.06.06.08.12.06.2-.02.06-.08.12-.16.14l-2.2.48h-.1ZM218.26,391.54l-1.08,1.08s-.04.08-.02.12c.02.04.06.06.12.06l1.84-.4-.86-.86ZM231.76,380.64c-.04-.12-.18-.18-.3-.14-.12.04-.18.18-.14.3,0,.02.02.04.02.06.12.24.08.54-.08.76-.08.1-.06.24.02.32.1.08.24.06.32-.04.3-.38.36-.86.16-1.26Z"/></g></g><rect class="cls-34" x="99.5" y="355.5" width="70" height="70" rx="12" ry="12"/><g class="cls-49"><path class="cls-22" d="M136.16,377.24c.23,0,.45.09.62.25.17.16.26.38.27.62v10.23c0,.23-.09.46-.25.62-.16.17-.38.26-.61.27h-8.28c-.23,0-.45-.09-.62-.25-.17-.16-.26-.38-.27-.62v-10.23c0-.23.09-.46.25-.62.16-.17.38-.26.61-.27h8.28ZM136.16,377.64h-8.26c-.13,0-.25.05-.34.14-.09.09-.15.21-.15.34v10.22c0,.27.21.49.47.5h8.28c.27,0,.48-.21.49-.48v-10.22c0-.13-.05-.26-.14-.35-.09-.09-.22-.15-.35-.15ZM129.08,386.75v.59h-.59v-.59h.59ZM135.67,386.75v.59h-6.3v-.59h6.3ZM129.08,384.17v.59h-.59v-.59h.59ZM135.67,384.17v.59h-6.3v-.59h6.3ZM129.08,381.7v.59h-.59v-.59h.59ZM135.67,381.7v.59h-6.3v-.59h6.3ZM135.67,379.42v.59h-7.18v-.59h7.18,0ZM136.16,391.31h0c.23,0,.45.1.62.26.16.16.26.38.27.61v10.23c0,.23-.09.46-.25.62-.16.17-.38.26-.61.27h-8.28c-.23,0-.45-.09-.62-.25-.16-.16-.26-.38-.27-.61v-10.23c0-.23.09-.46.25-.62.16-.17.38-.26.61-.27h8.28ZM136.16,391.7h-8.26c-.13,0-.25.05-.34.14-.09.09-.15.21-.15.34v10.22c0,.27.21.49.47.5h8.28c.27,0,.48-.21.49-.48v-10.22c0-.27-.21-.49-.47-.5h-.02ZM129.08,400.82v.59h-.59v-.59h.59ZM135.67,400.82v.59h-6.3v-.59h6.3ZM129.08,398.24v.59h-.59v-.59h.59ZM135.67,398.25v.59h-6.3v-.59h6.3ZM129.08,395.77v.59h-.59v-.59h.59ZM135.67,395.77v.59h-6.3v-.59h6.3ZM135.67,393.49v.59h-7.18v-.59h7.18,0ZM138.54,383.23v.49h2.95v13.46h-2.95v.5h3.44v-14.45h-3.44Z"/><path class="cls-22" d="M117.52,374.5c.58-.96,1.54-1.52,2.51-1.85l.13-.04.13-.04.2-.06.13-.03.07-.02.13-.03h.06s.13-.04.13-.04l.12-.02.12-.02.12-.02.12-.02.12-.02.12-.02h.11s.11-.02.11-.02h.16s.15-.03.15-.03h.14s.16-.01.16-.01h.14s.09,0,.09,0h.08s.17,0,.17,0h.05s.1,0,.1,0h.04v2.38c-2.09-.2-3.02.44-3.43,1.11l-.04.06c-.05.1-.1.19-.13.29l-.02.06s0,.02,0,.03l-.02.06-.02.06-.02.06v.03s-.02.06-.02.06v.03s-.01.06-.01.06v.05s-.01.05-.01.05v.07s-.01.07-.01.07v.05s0,.14,0,.14v.04s0,.04,0,.04v.05s0,.87,0,.87v1.78s-.01,1.29-.01,1.29v1.08s-.02.91-.02.91v.72s-.02.7-.02.7v.6s-.02.63-.02.63v.33s-.02.31-.02.31v.35s-.01.11-.01.11v.41s0,.13,0,.13v.12s0,.07,0,.07v.07s-.01.07-.01.07v.11s-.02.07-.02.07v.08s-.02.07-.02.07v.04s-.02.08-.02.08v.04s-.02.07-.02.07l-.02.08-.02.07-.02.07-.02.07-.03.07-.03.07c-.3.79-.99,1.49-2.54,1.81,1.51.31,2.2.99,2.51,1.75l.03.07c.03.07.05.15.07.22l.02.07.04.15.02.08v.04s.02.08.02.08v.08s.02.07.02.07v.08s.02.08.02.08v.07s.01.08.01.08v.11s.01.08.01.08v.12s0,.08,0,.08v.08s0,.12,0,.12v.2s.01.35.01.35v.37s.02.39.02.39v.42s.02.51.02.51v.85s.02.72.02.72v.4s.01,1.03.01,1.03v1.53s.02,1.66.02,1.66h0s0,1.47,0,1.47v.02s0,.03,0,.03v.08s0,.14,0,.14v.05s0,.07,0,.07v.05s.01.08.01.08v.05s.02.05.02.05v.06s.02.03.02.03v.06s.02.03.02.03l.02.06.02.06v.03s.03.06.03.06l.02.06.03.06c.33.74,1.19,1.54,3.43,1.36h.12s0,2.37,0,2.37h-.06s-.12,0-.12,0h-.1s-.2,0-.2,0h-.09s-.1,0-.1,0h-.13s-.09,0-.09,0h-.09s-.1-.01-.1-.01h-.1s-.1-.02-.1-.02h-.11s-.11-.02-.11-.02h-.11s-.12-.03-.12-.03h-.06s-.12-.03-.12-.03c-.02,0-.04,0-.06,0l-.12-.02h-.06s-.12-.03-.12-.03h-.06s-.12-.04-.12-.04l-.12-.03-.12-.03-.13-.03c-1.17-.32-2.4-.96-3.03-2.2.14-1.53.76-2.83,1.88-3.64.05-.04.11-.07.16-.11l.06-.04c-.08.05-.15.1-.22.15-1.12.81-1.74,2.12-1.88,3.64-.28-.57-.43-1.2-.43-1.84l-.02-.66-.02-.79-.02-.93-.03-1.19-.03-1.03-.04-1.35-.04-1.44-.08-2.27-.02-.53c-.05-1.19-.52-1.77-1.01-2.05l-.06-.03s-.02-.01-.03-.02l-.06-.03-.06-.03-.06-.02s-.04-.02-.06-.02l-.06-.02-.05-.02h-.05s-.04-.02-.04-.02h-.04s-.04-.02-.04-.02h-.06s-.04-.02-.04-.02h-.04s-.06-.01-.06-.01h-.15s-.21,0-.21,0v-2.79c.13,0,.25,0,.36,0h.05s.04-.01.04-.01h.04s.06-.02.06-.02h.04s.04-.02.04-.02h.04s.05-.02.05-.02l.05-.02.06-.02.06-.02c.57-.22,1.22-.77,1.28-2.17l.07-2.01.05-1.65.03-.93.04-1.5.03-1.04.02-.79.03-1.06.02-.66v-.52c.03-.83.23-1.5.55-2.04l.02-.03ZM145.75,374.55v-2.38h.06s.09,0,.09,0h.16s.16,0,.16,0h.13s.17,0,.17,0h.09s.09,0,.09,0h.15s.1.02.1.02h.1s.11.02.11.02h.11s.11.03.11.03l.12.02.12.02.12.02h.06s.12.03.12.03l.12.03.12.03.12.03.12.03.19.05.13.04c1.19.35,2.41,1.04,2.98,2.37.22.52.33,1.08.34,1.64l.02.66.02.79.02.53.02.8.03,1.05.02.77.04,1.35.04,1.44.07,2.27.02.53c.05,1.21.54,1.79,1.04,2.06l.06.03h.03s.06.04.06.04l.06.02h.03s.06.03.06.03h.03s.06.03.06.03h.03s.08.03.08.03h.05s.05.02.05.02h.05s.04.01.04.01h.04s.06.01.06.01c.1,0,.2,0,.3,0h.05s0,2.79,0,2.79c-.12,0-.24,0-.36,0h-.04s-.04,0-.04,0h-.06s-.06.02-.06.02h-.04s-.04.02-.04.02h-.04s-.05.02-.05.02h-.03s-.06.03-.06.03h-.03s-.06.03-.06.03h-.03s-.06.04-.06.04c-.55.24-1.14.81-1.19,2.14l-.07,2.01-.05,1.65-.03.93-.04,1.5-.03,1.04-.02.79-.03,1.06-.02.66v.52c-.01.49-.1.98-.27,1.44l-.02.05h0c-.59,1.54-2.01,2.26-3.33,2.59l-.13.03-.06.02-.13.03h-.06s-.13.04-.13.04h-.06s-.12.03-.12.03h-.06s-.12.03-.12.03l-.12.02-.12.02h-.11s-.11.03-.11.03h-.11s-.16.02-.16.02h-.1s-.14.02-.14.02h-.13s-.16.01-.16.01h-.18s-.21,0-.21,0h-.07s-.06,0-.06,0h-.02v-2.38c2.19.21,3.11-.5,3.49-1.21l.03-.06.03-.06.03-.06.02-.06.02-.06.02-.06v-.03s.03-.06.03-.06l.02-.06v-.06s.02-.06.02-.06v-.06s.02-.05.02-.05v-.05s.01-.07.01-.07v-.05s0-.08,0-.08v-.17s0-.03,0-.03v-.04s0-.02,0-.02v-2.52s0-1.25,0-1.25v-1.06s.02-1.08.02-1.08v-.97s.02-.56.02-.56v-.45s.02-.52.02-.52v-.33s.01-.31.01-.31v-.3s.02-.34.02-.34v-.4s0-.08,0-.08v-.13s0-.08,0-.08v-.07s.01-.08.01-.08v-.08s.01-.08.01-.08v-.08s.02-.08.02-.08v-.04s.02-.08.02-.08v-.08s.03-.08.03-.08l.02-.08c.02-.09.05-.17.07-.26l.03-.07c.04-.1.08-.2.12-.29l.04-.07c.36-.66,1.05-1.23,2.4-1.51-1.7-.35-2.36-1.16-2.62-2.04l-.02-.07-.04-.15-.02-.07v-.04s-.02-.08-.02-.08v-.08s-.02-.08-.02-.08v-.07s-.02-.08-.02-.08v-.08s-.01-.07-.01-.07v-.11s-.01-.07-.01-.07v-.12s0-.08,0-.08v-.08s0-.12,0-.12v-.2s0-.23,0-.23v-.3s-.02-.38-.02-.38v-.41s-.02-.42-.02-.42v-.6s-.02-.86-.02-.86v-.8s-.02-.93-.02-.93v-1.65s-.02-1.79-.02-1.79c.13-.07.27-.16.39-.25.62-.45,1.1-1.06,1.41-1.78l.02-.05c-.3.73-.8,1.36-1.44,1.83-.11.08-.21.14-.33.21l-.07.04v-1.35s0-.03,0-.03v-.08s0-.14,0-.14v-.05s0-.05,0-.05v-.07s-.02-.08-.02-.08v-.05s-.02-.05-.02-.05v-.06s-.02-.03-.02-.03v-.06s-.02-.03-.02-.03l-.02-.06-.02-.06v-.03s-.03-.06-.03-.06l-.02-.06-.03-.06c-.33-.74-1.19-1.54-3.43-1.36h-.12s0,0,0,0Z"/><path class="cls-22" d="M119.37,377.85l.07.05.07.05v-.89s0-.03,0-.03v-.03s0-.05,0-.05v-.19s0-.05,0-.05v-.05s0-.05,0-.05v-.05s.01-.05.01-.05v-.06s.02-.06.02-.06v-.03s.02-.06.02-.06l.02-.06v-.03s.03-.06.03-.06c0-.01,0-.02,0-.03l.02-.06c.03-.09.08-.19.13-.28l.04-.06c.41-.68,1.34-1.31,3.43-1.11v-2.38h-.04s-.08,0-.08,0h-.05s-.12,0-.12,0h-.29s-.12,0-.12,0h-.13s-.14.01-.14.01h-.15s-.11.02-.11.02l-.16.02h-.11s-.12.03-.12.03l-.12.02-.12.02-.12.02-.12.02-.13.02-.13.03h-.06s-.13.04-.13.04l-.07.02-.13.03-.2.06-.13.04-.13.04c-.97.33-1.93.89-2.51,1.85.19,1.4.8,2.6,1.85,3.35ZM123.25,408.68v-2.38c-2.29.22-3.19-.56-3.53-1.3l-.03-.06-.04-.09-.02-.06v-.03s-.03-.06-.03-.06l-.02-.06-.02-.06v-.06s-.03-.06-.03-.06v-.06s-.02-.05-.02-.05v-.05s-.01-.07-.01-.07v-.07s0-.05,0-.05v-.2s0-.04,0-.04v-.02s0-1.47,0-1.47c-.08.05-.16.1-.24.16-1.12.81-1.75,2.12-1.88,3.65.63,1.24,1.86,1.88,3.03,2.2l.13.03.13.03.12.03.12.03.12.02h.06s.12.03.12.03h.06s.12.03.12.03h.06s.12.03.12.03h.06s.11.02.11.02h.11s.11.02.11.02h.1s.1.02.1.02h.1s.09.01.09.01h.13s.08,0,.08,0h.1s.09,0,.09,0h.08s.21,0,.21,0h.08s.1,0,.1,0ZM151.7,374.89c-.61-1.41-1.95-2.1-3.21-2.43l-.12-.03-.12-.03h-.06s-.12-.04-.12-.04h-.06s-.12-.04-.12-.04l-.12-.02-.12-.02-.12-.02-.11-.02-.11-.02h-.11s-.11-.02-.11-.02h-.1s-.15-.02-.15-.02h-.14s-.14-.02-.14-.02h-.13s-.08,0-.08,0h-.1s-.09,0-.09,0h-.08s-.14,0-.14,0h-.08s-.06,0-.06,0h-.05v2.38c2.29-.22,3.19.56,3.53,1.3l.03.06.04.09.02.06v.03s.03.06.03.06l.02.06.02.06v.06s.03.06.03.06v.06s.02.05.02.05v.05s.01.07.01.07v.07s0,.05,0,.05v.22s0,.05,0,.05v1.33c.13-.08.27-.16.39-.25,1.02-.73,1.62-1.87,1.83-3.22h0ZM149.97,402.79c-.16-.11-.32-.21-.49-.3v1.33s0,.03,0,.03v.03s0,.05,0,.05v.21s0,.05,0,.05v.07s-.01.05-.01.05v.05s-.02.06-.02.06v.06s-.02.06-.02.06l-.02.06-.02.06v.03s-.03.06-.03.06l-.02.06-.02.06-.03.06-.03.06-.03.06c-.38.71-1.3,1.42-3.49,1.21v2.38h.03s.1,0,.1,0h.12s.2,0,.2,0h.09s.1,0,.1,0h.13s.14-.01.14-.01h.09s.15-.02.15-.02h.1s.11-.02.11-.02h.11s.11-.03.11-.03l.11-.02.12-.02.12-.02h.06s.12-.03.12-.03l.12-.02h.06s.12-.04.12-.04h.06s.12-.04.12-.04c1.34-.32,2.81-1.04,3.41-2.61-.24-1.25-.84-2.3-1.79-2.99h0Z"/></g><rect class="cls-34" x="14.5" y="355.5" width="70" height="70" rx="12" ry="12"/><g class="cls-55"><g class="cls-54"><path class="cls-30" d="M67.73,370.5h-19.21c0,2.3.91,4.51,2.54,6.13,1.63,1.63,3.83,2.54,6.13,2.54h3.54v3.42c0,4.79,3.88,8.66,8.67,8.67v-19.09c0-.92-.75-1.67-1.67-1.67Z"/><path class="cls-22" d="M58.22,380.07h-19.21c0,4.79,3.88,8.66,8.67,8.67h3.54v3.43c0,4.79,3.89,8.66,8.67,8.66v-19.09c0-.92-.75-1.67-1.67-1.67Z"/><path class="cls-22" d="M48.71,389.64h-19.21c0,4.79,3.88,8.67,8.67,8.67h3.55v3.42c0,4.78,3.87,8.66,8.66,8.67v-19.09c0-.92-.75-1.67-1.67-1.67Z"/></g></g><rect class="cls-34" x="355.5" y="270.25" width="70" height="70" rx="12" ry="12"/><g class="cls-52"><path class="cls-22" d="M390.81,324.95c-.38,0-.72-.09-.97-.22l-15.09-8.78c-.53-.32-.97-1.11-.97-1.71v-17.63c0-.6.47-1.39.97-1.71l15.09-8.78c.25-.16.59-.22.97-.22s.72.09.97.22l15.06,8.82c.53.32.97,1.11.97,1.71v17.6c0,.6-.47,1.39-.97,1.71l-15.06,8.82c-.25.13-.59.19-.97.19Z"/><path class="cls-30" d="M390.81,286.37c.28,0,.56.06.75.16l15.06,8.78c.38.22.75.85.75,1.3v17.6c0,.44-.38,1.07-.75,1.3l-15.06,8.82c-.19.09-.47.16-.75.16s-.56-.06-.75-.16l-15.06-8.78c-.38-.22-.75-.85-.75-1.3v-17.63c0-.44.38-1.07.75-1.3l15.06-8.78c.19-.09.47-.16.75-.16ZM390.81,285.42c-.44,0-.88.09-1.22.28l-15.06,8.78c-.66.41-1.22,1.36-1.22,2.12v17.6c0,.79.53,1.74,1.22,2.12l15.06,8.82c.34.19.78.28,1.22.28s.88-.09,1.22-.28l15.06-8.82c.66-.38,1.22-1.33,1.22-2.12v-17.6c0-.79-.53-1.74-1.22-2.12l-15.06-8.78c-.34-.19-.78-.28-1.22-.28Z"/><path class="cls-31" d="M390.81,304.07h.09c.44.03.84.28,1.09.66.12.22.19.51.19.79-.06.73-.62,1.26-1.34,1.26h-.09c-.44-.03-.84-.28-1.09-.66-.12-.22-.19-.51-.19-.79.03-.7.62-1.26,1.34-1.26ZM390.81,303.97c-.75,0-1.38.6-1.44,1.36-.03.28.03.57.19.82.25.41.66.7,1.16.73h.09c.75,0,1.38-.6,1.44-1.36.03-.28-.06-.57-.19-.82-.25-.41-.66-.7-1.16-.73h-.09Z"/><path class="cls-31" d="M390.84,304.95c.25.03.47.25.44.51-.03.25-.25.47-.5.44-.25-.03-.47-.25-.44-.51,0-.25.25-.47.5-.44Z"/><path class="cls-31" d="M390.81,307.35h-.12c-.62-.03-1.22-.41-1.53-.95-.19-.35-.28-.73-.25-1.11.03-.44.22-.85.5-1.17v-.03l-12.34,9.51,14.19-6.32c-.16.03-.28.06-.44.06Z"/><path class="cls-31" d="M390.34,303.56c.19-.03.38-.06.59-.06.62.03,1.22.41,1.53.95.19.35.28.73.25,1.11-.03.47-.22.88-.53,1.2l12.47-9.29-14.31,6.1Z"/></g><rect class="cls-41" x="270.03" y="270.25" width="70" height="70" rx="12" ry="12"/><g class="cls-53"><g class="cls-56"><path class="cls-23" d="M305.03,324.31c-5.06,0-9.9-2.01-13.48-5.58-3.57-3.57-5.58-8.42-5.58-13.48s2.01-9.9,5.58-13.48,8.42-5.58,13.48-5.58,9.9,2.01,13.48,5.58c3.57,3.57,5.58,8.42,5.58,13.48s-2.01,9.9-5.58,13.48c-3.57,3.57-8.42,5.58-13.48,5.58Z"/><path class="cls-24" d="M305.03,287.12c4.81,0,9.42,1.91,12.82,5.31,3.4,3.4,5.31,8.01,5.31,12.82s-1.91,9.42-5.31,12.82c-3.4,3.4-8.01,5.31-12.82,5.31s-9.42-1.91-12.82-5.31c-3.4-3.4-5.31-8.01-5.31-12.82s1.91-9.42,5.31-12.82c3.4-3.4,8.01-5.31,12.82-5.31ZM305.03,285.25c-5.3,0-10.39,2.11-14.14,5.86-3.75,3.75-5.86,8.84-5.86,14.14s2.11,10.39,5.86,14.14c3.75,3.75,8.84,5.86,14.14,5.86s10.39-2.11,14.14-5.86c3.75-3.75,5.86-8.84,5.86-14.14s-2.11-10.39-5.86-14.14c-3.75-3.75-8.84-5.86-14.14-5.86Z"/><path class="cls-24" d="M297.69,298.84l-.16,2.03-.16,2.03c-.31.94-.78,1.72-1.72,2.34,1.72,1.09,1.88,2.66,2.03,4.38v2.66c.16.78.31.94,1.09.94h.94v2.19c-2.19.31-3.91-.31-4.22-2.03l-.31-2.03v-2.19c-.16-1.88-.47-2.66-2.34-2.66v-2.5h.47c.94-.16,1.41-.47,1.72-1.41l.16-1.72.16-3.44c.31-1.56,1.25-2.34,2.97-2.34h1.41v2.19h-.62c-1.25,0-1.41.47-1.41,1.56ZM300.19,303.84c-.37-.02-.74.11-1.02.36-.28.25-.45.6-.47.97-.02.37.11.74.36,1.02.25.28.6.45.97.47.78,0,1.56-.47,1.56-1.25v-.16c0-.78-.62-1.41-1.41-1.41ZM305.03,303.84c-.37,0-.73.15-.99.41-.26.26-.41.62-.41.99,0,.94.62,1.41,1.41,1.41.94,0,1.41-.62,1.41-1.41s-.62-1.41-1.41-1.41ZM309.88,303.84c-.37,0-.73.15-.99.41-.26.26-.41.62-.41.99s.15.73.41.99c.26.26.62.41.99.41.78.16,1.41-.62,1.56-1.41,0-.78-.78-1.41-1.56-1.41ZM316.75,304c-.94-.16-1.41-.31-1.56-1.25l-.31-1.56-.16-3.12c-.16-2.5-1.88-3.28-4.38-2.97v2.19h.94c.62,0,.94.16,1.09.78v1.72l.47,3.28c.16.94.78,1.72,1.56,2.19-1.41.94-1.72,2.19-1.88,3.75l-.16,2.97c0,.94-.31,1.25-1.25,1.25h-.78v2.19h1.56c1.56,0,2.5-.78,2.81-2.34l.16-2.5.16-2.34c.16-1.09.62-1.56,1.88-1.72h.31v-2.5h-.47Z"/></g></g><rect class="cls-34" x="185" y="270.25" width="70" height="70" rx="12" ry="12"/><g class="cls-77"><g class="cls-82"><path class="cls-22" d="M236.87,316.04c-2.19,0-3.91.16-5.31.79-.47.16-1.09.16-1.09.64l.47.95c.31.48.78,1.27,1.41,1.75l1.72,1.27,3.28,1.59,1.72,1.43.94.63-.47-.95-.78-.79c-.78-1.11-1.72-2.06-2.81-2.86-.94-.48-2.81-1.43-3.12-2.38h-.16l1.88-.48,2.81-.48,1.25-.32v-.32l-1.41-1.59c-1.25-1.27-2.81-2.38-4.38-3.49l-2.81-1.27c-.31-.16-.94-.32-1.09-.63l-1.09-2.06-2.34-4.76-1.25-3.17c-2.81-4.76-5.94-7.62-10.62-10.32-.94-.63-2.19-.79-3.44-1.11l-2.03-.16-1.25-.95c-1.56-.95-5.63-3.17-6.72-.32-.78,1.75,1.09,3.49,1.72,4.44l1.41,2.06.47,1.43c.47,1.27.78,2.7,1.41,3.81l.94,1.59c.31.32.62.48.78.95-.47.63-.47,1.43-.62,2.06-1.09,3.17-.62,6.98.78,9.37.31.63,1.41,2.22,2.81,1.59,1.25-.48.94-2.06,1.25-3.49l.16-.63,1.25,2.22c.78,1.43,2.19,2.86,3.44,3.81.62.48,1.25,1.27,2.03,1.59l-.62-.64-1.41-1.59c-1.25-1.59-2.19-3.33-3.12-5.08l-1.09-2.7-.47-.95c-.47.63-1.09,1.11-1.41,1.9-.47,1.11-.47,2.7-.62,4.13h-.16c-.94-.16-1.25-1.11-1.56-1.9-.78-1.9-.94-5.08-.16-7.3.16-.63.94-2.38.62-3.02-.16-.48-.62-.79-.94-1.11l-1.09-1.9-1.56-4.76-1.41-2.06c-.47-.79-1.09-1.27-1.56-2.22-.16-.32-.31-.79,0-1.11l.31-.32c.31-.32,1.41,0,1.72.16.94.48,1.88.79,2.66,1.43l1.25.95h.62c.94.16,1.88,0,2.66.32,1.41.48,2.81,1.11,3.91,1.9,3.59,2.22,6.56,5.56,8.44,9.37.47.63.47,1.27.78,1.9l1.88,4.13c.62,1.27,1.09,2.54,1.88,3.65.47.63,2.19.95,2.81,1.27l1.88.63,2.81,1.9c.31.32,1.72,1.11,1.88,1.59Z"/><path class="cls-22" d="M209.06,292.08l-1.09.16.94,1.11.62,1.43v-.16c.47-.16.62-.63.62-1.27l-.31-.63-.78-.63Z"/></g></g><rect class="cls-37" x="99.5" y="270.25" width="70" height="70" rx="12" ry="12"/><g class="cls-76"><path class="cls-2" d="M135.45,285.5c-.59-.33-1.3-.33-1.89,0l-15.63,9.04c-.59.33-.93.97-.93,1.64v18.11c0,.67.37,1.3.93,1.64l15.63,9.04c.59.33,1.3.33,1.89,0l15.63-9.04c.59-.33.93-.97.93-1.64v-18.11c0-.67-.37-1.3-.93-1.64l-15.63-9.04Z"/><g class="cls-47"><path class="cls-3" d="M151.11,294.54l-15.7-9.04c-.15-.07-.33-.15-.48-.19l-17.59,30.2c.15.19.33.33.52.45l15.7,9.04c.45.26.97.33,1.45.19l16.52-30.27c-.11-.15-.26-.26-.41-.37Z"/></g><g class="cls-85"><path class="cls-5" d="M151.15,315.92c.45-.26.78-.71.93-1.19l-17.22-29.45c-.45-.07-.93-.04-1.34.22l-15.59,9,16.81,30.72c.22-.04.48-.11.71-.22l15.7-9.07Z"/></g></g><rect class="cls-34" x="14.5" y="270.25" width="70" height="70" rx="12" ry="12"/><g class="cls-75"><g class="cls-74"><path class="cls-22" d="M29.69,302.37c-.1.67-.16,1.34-.19,2.01h30.38c-.11-.21-.25-.39-.39-.58-5.19-6.71-7.99-6.13-11.99-6.3-1.33-.05-2.24-.08-7.54-.08-2.84,0-5.93,0-8.93.02-.39,1.05-.76,2.07-.95,2.9h15.57v2.03h-15.97ZM60.12,306.41h-30.61c.03.54.08,1.07.16,1.6h28.26c1.26,0,1.96-.71,2.19-1.6ZM31.26,313.54s4.68,11.5,18.22,11.71c8.09,0,15.04-4.8,18.2-11.71H31.26Z"/><path class="cls-22" d="M49.48,285.25c-7.48,0-13.99,4.11-17.43,10.18,2.69,0,7.92,0,7.92,0h0c6.18,0,6.41.03,7.62.08l.75.03c2.61.09,5.81.37,8.33,2.27,1.37,1.03,3.34,3.32,4.52,4.94,1.09,1.5,1.4,3.23.66,4.89-.68,1.52-2.15,2.43-3.92,2.43h-27.78s.17.7.41,1.47h37.92c.67-2.02,1.02-4.14,1.02-6.28,0-11.05-8.96-20.01-20.02-20.01Z"/></g></g><rect class="cls-43" x="14.5" y="185" width="70" height="70" rx="12" ry="12"/><g class="cls-78"><path class="cls-14" d="M53.07,204.45c-1.72-1.99-3.21-4.01-3.51-4.43,0,0-.02-.01-.03-.02,0,0-.02,0-.03,0s-.02,0-.03,0c0,0-.02,0-.03.02-.3.42-1.79,2.44-3.51,4.43-14.79,18.35,2.33,30.74,2.33,30.74l.14.09c.13,1.91.45,4.66.45,4.66h1.28s.32-2.74.45-4.66l.14-.11s17.13-12.37,2.34-30.72ZM49.49,234.91s-.77-.64-.97-.96v-.03l.93-19.98c0-.06.1-.06.1,0l.93,19.98v.03c-.21.33-.97.96-.97.96h0Z"/></g><rect class="cls-34" x="99.5" y="185" width="70" height="70" rx="12" ry="12"/><g class="cls-80"><g class="cls-79"><path class="cls-22" d="M134.5,240c11.05,0,20-8.95,20-20s-8.95-20-20-20-20,8.95-20,20,8.95,20,20,20Z"/><path class="cls-31" d="M130.56,212.34c.07.01.15.01.22,0,.07-.02.14-.05.2-.09.06-.04.11-.1.15-.16.04-.06.07-.13.08-.2.01-.07.01-.15,0-.22-.02-.07-.05-.14-.09-.2-.04-.06-.1-.11-.16-.15-.06-.04-.13-.07-.2-.08l-.2,1.11ZM123.54,219.04c.07.13.2.22.34.26.14.04.3.02.43-.05.13-.07.22-.2.26-.34.04-.14.02-.3-.05-.43l-.98.56ZM126.28,220.86c-.1-.11-.24-.18-.39-.18-.15,0-.29.05-.41.15-.11.1-.18.24-.18.39,0,.15.05.29.15.41l.83-.76h0ZM144.79,227.97c.06-.04.11-.09.15-.16s.07-.13.08-.2c.01-.07.01-.15,0-.22-.02-.07-.04-.14-.09-.2-.04-.06-.1-.11-.16-.15-.06-.04-.13-.07-.2-.08-.07-.01-.15-.01-.22,0-.07.02-.14.05-.2.09l.63.93ZM130.76,211.24c-1.74-.32-3.36-.33-4.71,0-1.35.33-2.47,1.01-3.1,2.11l.97.56c.44-.76,1.24-1.3,2.39-1.57,1.15-.28,2.61-.28,4.24.02l.2-1.11ZM122.95,213.34c-.94,1.63-.56,3.71.59,5.71l.98-.56c-1.06-1.86-1.24-3.47-.59-4.59l-.97-.56ZM125.45,221.61c1.44,1.59,3.34,3.12,5.57,4.4l.56-.97c-2.14-1.24-3.94-2.69-5.3-4.19l-.83.76ZM131.01,226.02c2.66,1.54,5.37,2.5,7.78,2.84,2.38.35,4.54.1,6-.89l-.63-.93c-1.11.76-2.94,1.03-5.2.7-2.24-.33-4.83-1.23-7.38-2.7l-.56.97ZM147.42,226.53c0-.52-.21-1.02-.58-1.39-.37-.37-.87-.58-1.39-.58v1.12c.11,0,.22.02.32.06s.19.1.27.18c.08.08.14.17.18.27.04.1.06.21.06.32h1.13ZM145.46,224.57c-.26,0-.51.05-.75.15-.24.1-.46.24-.64.43-.18.18-.33.4-.43.64s-.15.49-.15.75h1.12c0-.11.02-.22.06-.32.04-.1.1-.19.18-.27s.17-.14.27-.18c.1-.04.21-.06.32-.06v-1.12ZM143.49,226.53c0,.26.05.51.15.75s.24.46.43.64c.18.18.4.33.64.43.24.1.49.15.75.15v-1.12c-.11,0-.22-.02-.32-.06-.1-.04-.19-.1-.27-.18-.08-.08-.14-.17-.18-.27-.04-.1-.06-.21-.06-.32h-1.12ZM145.46,228.5c.52,0,1.02-.21,1.39-.58.37-.37.58-.87.58-1.39h-1.13c0,.11-.02.22-.06.32-.04.1-.1.19-.18.27-.08.08-.17.14-.27.18s-.21.06-.32.06v1.12Z"/><path class="cls-31" d="M143.09,220.43c-.05.06-.08.12-.11.19-.02.07-.03.14-.02.22.01.15.08.29.2.38.11.1.26.14.41.13.15-.01.29-.08.38-.2l-.86-.73ZM140.91,211.01c-.07,0-.15.01-.22.04s-.13.07-.18.12c-.05.05-.1.11-.12.18-.03.07-.04.14-.05.21,0,.07.01.15.04.22.03.07.07.13.12.18.05.05.11.1.18.12.07.03.14.04.21.05v-1.12ZM137.92,212.46c.15-.03.27-.12.35-.24.08-.13.11-.28.08-.42-.03-.15-.12-.27-.24-.35-.13-.08-.28-.11-.42-.08l.24,1.1ZM122.48,225.28c.02.15.1.28.22.37.12.09.27.13.42.11.15-.02.28-.1.37-.22.09-.12.13-.27.11-.42l-1.11.16ZM143.95,221.16c1.14-1.35,1.96-2.74,2.35-4.07.39-1.33.36-2.63-.27-3.73l-.97.56c.43.75.5,1.72.17,2.85-.33,1.13-1.06,2.39-2.13,3.66l.86.73ZM146.02,213.36c-.93-1.61-2.86-2.31-5.12-2.34v1.12c2.07.03,3.51.68,4.14,1.78l.97-.56ZM137.68,211.36c-2.11.45-4.41,1.34-6.66,2.64l.56.97c2.16-1.25,4.35-2.09,6.33-2.52l-.24-1.1h0ZM131.03,214.01c-2.73,1.58-4.97,3.52-6.48,5.49-1.49,1.95-2.32,4.01-2.06,5.79l1.11-.16c-.2-1.34.43-3.09,1.84-4.94,1.4-1.83,3.52-3.68,6.15-5.2l-.56-.97Z"/><path class="cls-31" d="M129.84,227.26c-.05-.14-.15-.26-.29-.32-.13-.06-.29-.07-.43-.02-.14.05-.26.15-.32.29-.06.13-.07.29-.02.43l1.06-.38ZM139.05,230.13c.07-.13.1-.28.06-.42-.04-.14-.13-.27-.26-.34-.13-.08-.28-.1-.42-.06-.14.03-.27.12-.35.25l.96.58ZM139.37,226.62c-.02.07-.03.15-.03.22,0,.07.03.15.06.21.03.07.08.12.14.17.06.05.12.08.19.11.07.02.15.03.22.02.07,0,.15-.03.21-.06.07-.03.12-.08.17-.14.05-.06.08-.12.1-.2l-1.07-.34ZM136.11,207.04c-.07-.03-.14-.05-.21-.05-.07,0-.15.01-.22.04-.07.03-.13.07-.19.12-.05.05-.1.11-.13.18-.03.07-.05.14-.05.21,0,.07.01.15.04.22s.07.13.12.19c.05.05.11.1.18.13l.46-1.03ZM128.78,227.64c.6,1.67,1.39,3.08,2.35,4.08.96,1.01,2.1,1.63,3.37,1.63v-1.12c-.87,0-1.74-.43-2.55-1.28-.82-.86-1.54-2.12-2.1-3.69l-1.06.38ZM134.49,233.35c1.84,0,3.41-1.31,4.56-3.22l-.96-.58c-1.06,1.77-2.33,2.67-3.59,2.67v1.12ZM140.44,226.95c.63-2.02.99-4.4.99-6.93h-1.12c0,2.43-.35,4.7-.94,6.6l1.07.34ZM141.43,220.02c0-3.11-.54-5.98-1.46-8.26-.91-2.25-2.24-4-3.86-4.72l-.46,1.03c1.23.55,2.4,1.98,3.27,4.12.86,2.12,1.38,4.85,1.38,7.83h1.12Z"/><path class="cls-57" d="M146.86,226.53c0-.18-.04-.37-.11-.54-.07-.17-.17-.33-.3-.46-.13-.13-.28-.23-.46-.3-.17-.07-.35-.11-.54-.11-.18,0-.37.04-.54.11-.17.07-.32.17-.46.3-.13.13-.23.29-.3.46-.07.17-.11.35-.11.54,0,.18.04.37.11.54.07.17.17.33.3.46.13.13.28.23.46.3.17.07.35.11.54.11.18,0,.37-.04.54-.11.17-.07.32-.17.46-.3.13-.13.23-.29.3-.46.07-.17.11-.35.11-.54ZM123.5,227.94c.37,0,.73-.15.99-.41.26-.26.41-.62.41-.99,0-.37-.15-.73-.41-.99-.26-.26-.62-.41-.99-.41-.18,0-.37.04-.54.11-.17.07-.32.17-.46.3-.13.13-.23.29-.3.46-.07.17-.11.35-.11.54,0,.18.04.37.11.54.07.17.17.33.3.46.13.13.28.23.46.3.17.07.35.11.54.11Z"/><path class="cls-58" d="M134.49,208.66c.77,0,1.4-.63,1.4-1.4s-.63-1.4-1.4-1.4-1.4.63-1.4,1.4.63,1.4,1.4,1.4Z"/><path class="cls-28" d="M134.77,221.28c-.33.06-.67,0-.95-.19-.28-.19-.48-.47-.55-.8-.07-.33-.01-.67.17-.95.18-.28.46-.49.79-.57.16-.04.33-.04.5,0,.17.03.32.09.47.18.14.09.26.21.36.35.1.14.16.29.2.46.07.33,0,.68-.18.97s-.47.49-.81.56Z"/></g></g><rect class="cls-39" x="185" y="185" width="70" height="70" rx="12" ry="12"/><g class="cls-83"><g class="cls-81"><path class="cls-12" d="M220,200c-11.04,0-20,8.98-20,20.05,0,8.86,5.73,16.38,13.68,19.03,1,.19,1.37-.43,1.37-.96,0-.48-.02-2.06-.03-3.73-5.56,1.21-6.74-2.37-6.74-2.37-.91-2.32-2.22-2.93-2.22-2.93-1.81-1.24.14-1.22.14-1.22,2.01.14,3.07,2.07,3.07,2.07,1.78,3.07,4.68,2.18,5.82,1.67.18-1.3.7-2.18,1.27-2.68-4.44-.51-9.11-2.23-9.11-9.91,0-2.19.78-3.98,2.06-5.38-.21-.51-.89-2.54.19-5.31,0,0,1.68-.54,5.5,2.06,1.6-.44,3.31-.67,5.01-.67,1.7,0,3.41.23,5.01.67,3.82-2.59,5.49-2.06,5.49-2.06,1.09,2.76.4,4.8.2,5.31,1.28,1.4,2.06,3.19,2.06,5.38,0,7.7-4.68,9.4-9.13,9.89.72.62,1.36,1.84,1.36,3.71,0,2.68-.02,4.84-.02,5.5,0,.53.36,1.16,1.37.96,7.94-2.65,13.67-10.17,13.67-19.03,0-11.08-8.95-20.05-20-20.05ZM207.49,228.57c-.04.1-.2.13-.34.06-.15-.07-.23-.2-.18-.3.04-.1.2-.13.34-.06.15.07.23.2.18.3ZM208.47,229.45c-.1.09-.28.05-.41-.09-.13-.14-.16-.33-.06-.42.1-.09.28-.05.41.09.13.14.16.33.06.42ZM209.15,230.57c-.12.09-.32,0-.45-.17-.12-.18-.12-.39,0-.48.12-.09.32,0,.45.17.12.18.12.4,0,.48h0ZM210.29,231.88c-.11.12-.34.09-.51-.08-.17-.16-.22-.39-.11-.51.11-.12.35-.09.52.08.17.16.23.39.11.51ZM211.77,232.32c-.05.16-.27.23-.5.16-.23-.07-.37-.25-.33-.41.05-.16.27-.23.5-.16.23.07.37.25.33.41ZM213.44,232.5c0,.17-.19.3-.42.31-.24,0-.43-.13-.44-.29,0-.17.19-.3.43-.31.24,0,.43.13.43.29ZM215.09,232.44c.03.16-.14.33-.37.37-.23.04-.45-.06-.48-.22-.03-.17.14-.33.37-.37.24-.04.45.06.48.22Z"/></g></g><rect class="cls-34" x="270.25" y="185" width="70" height="70" rx="12" ry="12"/><g class="cls-59"><g class="cls-60"><path class="cls-22" d="M312.97,227.5c1.48-.15,2.6-1.43,2.55-2.97-.05-1.54-1.32-2.76-2.85-2.76h-.1c-1.58.05-2.8,1.38-2.75,2.97.05.77.36,1.43.81,1.89-1.73,3.43-4.38,5.94-8.35,8.04-2.7,1.43-5.5,1.94-8.3,1.59-2.29-.31-4.07-1.33-5.19-3.02-1.63-2.51-1.78-5.22-.41-7.93.97-1.94,2.49-3.38,3.46-4.09-.2-.67-.51-1.79-.66-2.61-7.38,5.37-6.62,12.64-4.38,16.07,1.68,2.56,5.09,4.15,8.86,4.15,1.02,0,2.04-.1,3.05-.36,6.52-1.28,11.45-5.17,14.25-10.95ZM321.92,221.15c-3.87-4.56-9.57-7.06-16.08-7.06h-.81c-.46-.92-1.43-1.54-2.49-1.54h-.1c-1.58.05-2.8,1.38-2.75,2.97.05,1.54,1.32,2.76,2.85,2.76h.1c1.12-.05,2.09-.77,2.49-1.74h.92c3.87,0,7.53,1.13,10.84,3.33,2.55,1.69,4.38,3.89,5.4,6.55.87,2.15.81,4.25-.1,6.04-1.43,2.71-3.82,4.2-6.97,4.2-2.04,0-3.97-.61-4.99-1.07-.56.51-1.58,1.33-2.29,1.84,2.19,1.02,4.43,1.59,6.57,1.59,4.89,0,8.5-2.71,9.88-5.43,1.48-2.97,1.37-8.09-2.44-12.44ZM296.07,228.37c.05,1.54,1.32,2.76,2.85,2.76h.1c1.58-.05,2.8-1.38,2.75-2.97-.05-1.54-1.32-2.76-2.85-2.76h-.1c-.1,0-.25,0-.36.05-2.09-3.48-2.95-7.27-2.65-11.36.2-3.07,1.22-5.73,3-7.93,1.48-1.89,4.33-2.81,6.26-2.87,5.4-.1,7.69,6.65,7.84,9.37.66.15,1.78.51,2.55.77-.61-8.29-5.7-12.59-10.59-12.59-4.58,0-8.81,3.33-10.49,8.24-2.34,6.55-.81,12.85,2.04,17.81-.25.36-.41.92-.36,1.48Z"/></g></g><rect class="cls-36" x="355.54" y="185" width="70" height="70" rx="12" ry="12"/><g class="cls-63"><g class="cls-62"><path class="cls-8" d="M394.09,200c-.29,0-.56.06-.81.15.53.35.82.82.96,1.35.01.07.03.12.04.2.01.06.02.12.02.19.04.91-.24,1.03-.43,1.57-.3.69-.22,1.44.14,2.04.03.07.07.16.12.23-.39-2.62,1.79-3.02,2.19-3.84.03-.72-.56-1.19-1.02-1.52-.44-.27-.85-.35-1.22-.35ZM397.37,200.59c-.04.24-.01.18-.02.3-.01.08-.01.19-.02.27-.02.08-.04.17-.07.25-.02.08-.05.17-.08.25-.04.08-.07.16-.11.24-.03.04-.05.08-.08.12-.02.03-.04.06-.06.09-.05.07-.1.15-.15.21-.06.06-.11.13-.19.19h0c-.06.06-.12.12-.2.18-.22.17-.46.29-.69.45-.07.05-.14.09-.21.16-.07.05-.13.1-.2.17-.07.06-.12.12-.19.2-.05.06-.11.13-.15.21-.05.07-.1.15-.14.22-.04.08-.07.16-.11.24-.03.08-.06.16-.08.24-.03.09-.05.18-.07.26-.01.04-.01.09-.02.13-.01.04-.01.08-.02.12,0,.08-.01.18-.01.26,0,.06,0,.12.01.19,0,.08.01.17.03.26.01.08.03.17.05.25.03.08.05.17.08.25.02.05.05.1.07.15l-2.38-.92c-.4-.11-.8-.22-1.2-.31-.22-.05-.43-.1-.65-.16-.62-.12-1.25-.22-1.88-.28-.02,0-.03-.01-.05-.01-.62-.06-1.23-.09-1.85-.09-.45,0-.91.02-1.35.05-.63.04-1.26.12-1.89.23-.15.02-.31.05-.46.08-.32.06-.63.13-.93.21-.15.04-.31.08-.46.12-.15.06-.3.13-.44.2-.11.05-.23.1-.34.16-.02.01-.04.01-.05.02-.1.05-.2.09-.29.15-.03.01-.05.02-.07.03-.11.05-.23.11-.32.17-.07.03-.14.07-.21.1-.03.02-.07.04-.09.05-.09.05-.19.1-.27.16-.09.05-.18.1-.25.16-.07.05-.14.09-.21.15-.01.01-.02.01-.03.02-.06.04-.13.09-.2.15,0,0-.01.01-.02.02-.05.04-.1.08-.15.12-.02.01-.04.03-.06.04-.05.04-.1.09-.15.13-.01.02-.03.03-.04.04-.06.06-.12.11-.19.18-.01,0-.01.01-.02.02-.06.05-.12.11-.19.18-.01.01-.01.02-.02.02-.05.05-.1.1-.15.17-.02.02-.05.04-.07.06-.05.06-.11.12-.18.19-.01.02-.03.03-.04.05-.08.08-.15.17-.24.25-.01.01-.02.02-.03.03-.17.18-.34.35-.53.51-.19.17-.38.32-.58.46-.21.15-.4.27-.62.39-.21.11-.42.22-.65.31-.22.09-.44.18-.67.25-.43.09-.88.27-1.26.3-.08,0-.18.02-.26.03-.09.02-.18.04-.26.06-.08.03-.17.06-.25.09-.08.03-.17.07-.25.11-.07.05-.15.09-.23.15-.07.05-.14.11-.21.18-.07.05-.14.12-.21.19-.06.07-.12.13-.18.21-.05.08-.11.16-.15.24-.05.07-.1.16-.14.24-.04.09-.08.18-.11.27-.03.08-.06.18-.09.27-.02.08-.04.17-.05.25,0,.01-.01.02-.01.03-.02.09-.02.22-.03.28-.01.07-.02.13-.02.21,0,.04,0,.09.01.13.01.07.02.13.04.2.02.06.04.12.07.19h0c.03.07.07.13.11.2.04.06.08.12.13.19.05.05.11.11.18.17.06.06.12.11.2.17.25.22.31.29.63.46.05.03.1.05.17.08.01,0,.02.01.03.01,0,.02,0,.03.01.05.01.08.03.17.05.25.02.09.05.18.08.25.03.06.05.12.08.19.01.02.02.04.03.05.04.08.08.16.12.23.05.07.1.15.15.22.05.06.11.13.18.2.06.06.12.11.2.18,0,0,.01.01.02.01.06.05.12.1.19.15.07.05.14.09.23.13.07.04.15.08.24.11.06.03.13.05.21.07.01.01.02.01.04.02.04.01.09.02.13.03-.03.56-.04,1.09.04,1.28.09.21.55-.43,1-1.15-.06.72-.1,1.56,0,1.8.11.26.73-.55,1.27-1.44,7.32-1.7,14.01,3.38,14.71,10.56-.13-1.12-1.51-1.74-2.14-1.59-.31.77-.84,1.75-1.68,2.36.07-.68.04-1.39-.1-2.07-.23.95-.67,1.85-1.28,2.61-.98.07-1.96-.4-2.48-1.12-.04-.03-.05-.09-.08-.13-.03-.07-.06-.15-.08-.22-.03-.07-.05-.15-.06-.22-.01-.07-.01-.15-.01-.23v-.16c.01-.07.03-.15.05-.22.02-.07.04-.15.07-.22.04-.07.07-.15.12-.22.18-.5.18-.9-.14-1.14-.06-.04-.12-.07-.2-.1-.04-.01-.09-.03-.13-.04-.03-.01-.05-.02-.08-.03-.07-.02-.14-.04-.22-.05-.07-.02-.14-.03-.22-.03-.07-.01-.15-.02-.23-.02-.05,0-.1.01-.15.01-.08,0-.15.01-.23.03-.07.01-.14.02-.22.04-.07.02-.14.04-.22.07-.07.03-.13.06-.21.09-.06.03-.12.07-.2.1-2.41,1.58-.97,5.27.67,6.34-.62.11-1.25.25-1.43.38-.01.01-.02.02-.02.02.44.27.91.5,1.39.69.66.22,1.36.41,1.67.5h0c.86.19,1.73.25,2.6.2,4.58-.32,8.33-3.82,9.01-8.42.02.09.04.18.06.27.03.19.07.38.09.58h0c.02.1.03.2.04.28v.04c.01.09.02.19.02.27.01.11.02.23.02.34v.17c0,.05.01.11.01.17,0,.06-.01.12-.01.19v.15c0,.07-.01.13-.01.21,0,.04,0,.08-.01.13,0,.07-.01.15-.01.23-.01.03-.01.06-.01.09-.01.08-.02.16-.03.24,0,.03,0,.06-.01.09-.01.1-.03.2-.04.3h0v.02c-.02.09-.04.2-.06.29v.03c-.02.09-.04.19-.06.28,0,.01-.01.03-.01.04-.02.09-.04.19-.07.28v.03c-.03.1-.06.2-.08.29-.01.01-.01.02-.01.02-.03.1-.06.21-.09.31-.04.1-.07.2-.11.3-.04.1-.07.21-.11.3-.04.1-.08.2-.12.3h-.01c-.04.09-.08.2-.13.29-.01.03-.02.05-.03.07-.01.01-.01.02-.02.03-.67,1.36-1.66,2.55-2.9,3.48-.08.05-.17.11-.25.18-.02.02-.05.03-.07.05-.07.05-.14.1-.23.16l.03.06h.01c.14-.02.29-.04.43-.06h.01c.27-.04.54-.09.81-.15.07-.01.15-.03.23-.05.05-.01.09-.02.14-.03.07-.01.14-.03.22-.04.06-.02.12-.03.19-.05,1.03-.25,2.04-.59,3-1-1.64,2.25-3.84,4.07-6.41,5.26,1.19-.08,2.38-.28,3.52-.61,4.16-1.23,7.67-4.04,9.76-7.83-.42,2.4-1.37,4.68-2.78,6.67,1-.66,1.92-1.43,2.76-2.3,2.31-2.43,3.83-5.51,4.35-8.81.35,1.64.45,3.33.3,5,7.46-10.44.62-21.27-2.24-24.12-.01-.02-.02-.03-.02-.05t-.01.02s0-.01-.01-.02c0,.12-.01.25-.02.37-.03.24-.06.47-.1.69-.05.23-.11.46-.18.68-.07.22-.15.45-.25.66-.09.21-.2.43-.31.63-.11.2-.24.4-.37.59-.13.2-.28.38-.42.56-.15.19-.32.35-.49.52-.1.09-.2.18-.3.26-.08.07-.16.13-.24.21-.19.15-.37.28-.58.4-.2.12-.4.25-.61.35-.22.1-.43.2-.65.29-.22.08-.44.16-.67.22-.23.06-.46.11-.69.16-.24.04-.48.06-.7.08-.17.01-.33.02-.5.02-.24,0-.48-.02-.7-.04-.24-.02-.48-.05-.7-.1-.24-.04-.46-.1-.69-.18h-.01c.23-.02.45-.04.68-.08.24-.04.46-.09.69-.16.23-.06.45-.13.67-.22.23-.08.44-.19.65-.29.22-.1.41-.22.62-.34.2-.13.39-.27.58-.41.19-.15.36-.3.53-.47.18-.16.33-.33.49-.51.16-.19.3-.37.43-.56.02-.03.04-.07.06-.1.1-.17.21-.33.3-.5.11-.21.22-.41.31-.63.09-.22.18-.44.25-.66.07-.22.12-.45.18-.67.04-.24.08-.47.1-.69.02-.24.04-.48.04-.71,0-.17-.01-.33-.02-.5-.02-.24-.05-.47-.08-.69-.04-.24-.09-.47-.15-.69-.07-.22-.14-.45-.23-.66s-.19-.44-.29-.64c-.11-.21-.23-.41-.35-.61-.13-.2-.27-.38-.41-.57-.15-.18-.31-.35-.48-.53-.08-.08-.18-.18-.27-.26-.46-.36-.95-.71-1.44-1.02-.07-.04-.13-.07-.21-.1-.34-.22-.66-.33-.98-.44Z"/></g></g><rect class="cls-34" x="14.5" y="99.75" width="70" height="70" rx="12" ry="12"/><g class="cls-61"><path class="cls-30" d="M29.5,136.13v-17.32l15,8.66v5.77l-10-5.77v11.55l-5-2.89Z"/><path class="cls-22" d="M44.5,127.47l15-8.66v17.32l-10,5.77-5-2.89,10-5.77v-5.77l-10,5.77v-5.77Z"/><path class="cls-30" d="M44.5,139.02v5.77l10,5.77v-5.77l-10-5.77Z"/><path class="cls-22" d="M54.5,150.57l15-8.66v-11.55l-5,2.89v5.77l-10,5.77v5.77ZM64.5,127.47v-5.77l5-2.89v5.77l-5,2.89Z"/></g><rect class="cls-38" x="99.75" y="99.75" width="70" height="70" rx="12" ry="12"/><g class="cls-64"><path class="cls-4" d="M134.75,122.72c-5.33,0-8.67,2.67-10,8,2-2.67,4.33-3.67,7-3,1.52.38,2.61,1.48,3.81,2.71,1.96,1.99,4.23,4.29,9.19,4.29,5.33,0,8.67-2.67,10-8-2,2.67-4.33,3.67-7,3-1.52-.38-2.61-1.48-3.81-2.71-1.96-1.99-4.23-4.29-9.19-4.29ZM124.75,134.72c-5.33,0-8.67,2.67-10,8,2-2.67,4.33-3.67,7-3,1.52.38,2.61,1.48,3.81,2.71,1.96,1.99,4.23,4.29,9.19,4.29,5.33,0,8.67-2.67,10-8-2,2.67-4.33,3.67-7,3-1.52-.38-2.61-1.48-3.81-2.71-1.96-1.99-4.23-4.29-9.19-4.29Z"/></g><rect class="cls-34" x="185" y="99.75" width="70" height="70" rx="12" ry="12"/><path class="cls-17" d="M213.33,115.9h11.84l-12.29,36.41c-.26.77-.98,1.28-1.79,1.28h-9.21c-.61,0-1.18-.29-1.53-.79-.35-.49-.45-1.13-.25-1.7l11.45-33.92c.26-.77.98-1.28,1.79-1.28h0Z"/><path class="cls-22" d="M230.53,140.32h-18.77c-.36,0-.68.22-.81.55-.13.33-.05.71.22.95l12.06,11.26c.35.33.81.51,1.29.51h10.63l-4.62-13.27Z"/><path class="cls-17" d="M213.33,115.9c-.82,0-1.55.53-1.79,1.31l-11.43,33.86c-.21.58-.12,1.22.23,1.72.35.5.93.8,1.54.8h9.45c.72-.13,1.31-.63,1.55-1.32l2.28-6.72,8.14,7.59c.34.28.77.44,1.21.44h10.59l-4.64-13.27h-13.54s8.29-24.42,8.29-24.42h-11.88Z"/><path class="cls-22" d="M228.45,117.19c-.26-.77-.98-1.28-1.79-1.28h-13.19c.81,0,1.53.52,1.79,1.28l11.45,33.92c.19.58.1,1.21-.25,1.7-.35.49-.92.79-1.53.79h13.19c.61,0,1.18-.29,1.53-.79.35-.49.45-1.13.25-1.7l-11.45-33.92Z"/><rect class="cls-34" x="270.25" y="99.75" width="70" height="70" rx="12" ry="12"/><g class="cls-67"><path class="cls-22" d="M319.74,120.04c-3.69-5.32-11.05-6.88-16.34-3.53l-9.32,5.97c-2.54,1.59-4.31,4.2-4.81,7.15-.44,2.47-.07,5.02,1.12,7.22-.81,1.22-1.36,2.58-1.59,4-.54,3.02.17,6.14,1.93,8.61,3.73,5.32,11.05,6.88,16.34,3.53l9.32-5.93c2.54-1.59,4.31-4.2,4.81-7.15.44-2.47.07-5.02-1.12-7.22.81-1.22,1.36-2.58,1.59-4,.58-3.05-.14-6.17-1.93-8.64Z"/><path class="cls-31" d="M302.49,149.97c-3.02.78-6.17-.41-7.93-2.95-1.08-1.49-1.49-3.36-1.19-5.19.07-.31.14-.58.2-.88l.17-.54.47.34c1.12.81,2.34,1.42,3.66,1.83l.34.1-.03.34c-.03.47.1.98.37,1.39.54.78,1.49,1.15,2.41.92.2-.07.41-.14.58-.24l9.29-5.93c.47-.31.78-.75.88-1.29.1-.54-.03-1.12-.34-1.56-.54-.78-1.49-1.12-2.41-.88-.2.07-.41.14-.58.24l-3.56,2.27c-.58.37-1.22.64-1.9.81-3.02.78-6.17-.41-7.93-2.95-1.05-1.49-1.49-3.36-1.15-5.19.31-1.76,1.39-3.36,2.92-4.31l9.32-5.93c.58-.37,1.22-.64,1.9-.85,3.02-.78,6.17.41,7.93,2.95,1.08,1.49,1.49,3.36,1.19,5.19-.07.31-.14.58-.24.88l-.17.54-.47-.34c-1.12-.81-2.34-1.42-3.66-1.83l-.34-.1.03-.34c.03-.47-.1-.98-.37-1.39-.54-.78-1.49-1.12-2.41-.88-.2.07-.41.14-.58.24l-9.29,5.93c-.47.31-.78.75-.88,1.29-.1.54.03,1.12.34,1.56.54.78,1.49,1.12,2.41.88.2-.07.41-.14.58-.24l3.56-2.27c.58-.37,1.22-.64,1.9-.85,3.02-.78,6.17.41,7.93,2.95,1.08,1.49,1.49,3.36,1.19,5.19-.31,1.76-1.39,3.36-2.92,4.31l-9.32,5.93c-.58.37-1.22.64-1.9.85Z"/></g><rect class="cls-34" x="355.54" y="99.75" width="70" height="70" rx="12" ry="12"/><g class="cls-65"><path class="cls-22" d="M403.42,128.44c-.43-.15-.85-.28-1.29-.41.07-.3.14-.59.2-.88.97-4.76.34-8.59-1.84-9.86-2.09-1.21-5.5.05-8.95,3.07-.34.3-.67.6-1,.92-.22-.21-.44-.41-.66-.62-3.61-3.23-7.23-4.59-9.41-3.32-2.08,1.21-2.7,4.82-1.82,9.33.09.45.19.89.3,1.33-.51.15-1.01.3-1.48.47-4.23,1.49-6.94,3.81-6.94,6.23s2.9,4.99,7.31,6.51c.36.12.72.24,1.08.34-.12.48-.22.95-.31,1.44-.84,4.43-.18,7.95,1.9,9.16,2.15,1.25,5.75-.03,9.26-3.12.28-.25.56-.51.83-.77.35.34.71.67,1.08.99,3.4,2.94,6.76,4.13,8.83,2.92,2.15-1.25,2.84-5.03,1.94-9.63-.07-.36-.15-.72-.24-1.08.25-.08.5-.15.74-.23,4.59-1.53,7.57-4,7.57-6.53s-2.79-4.77-7.11-6.26ZM402.43,139.59c-.22.07-.44.14-.67.21-.51-1.61-1.19-3.33-2.03-5.1.8-1.73,1.45-3.42,1.95-5.02.41.12.81.24,1.19.38,3.7,1.28,5.96,3.18,5.96,4.64,0,1.56-2.44,3.57-6.4,4.89ZM400.79,142.87c.4,2.03.46,3.87.19,5.31-.24,1.29-.72,2.15-1.31,2.5-1.26.73-3.96-.22-6.86-2.74-.34-.3-.68-.61-1.01-.92,1.13-1.24,2.25-2.68,3.35-4.28,1.93-.17,3.76-.45,5.42-.84.08.33.15.66.22.97ZM384.17,150.55c-1.23.44-2.21.45-2.81.11-1.26-.73-1.79-3.56-1.07-7.35.09-.45.18-.89.29-1.34,1.64.36,3.45.63,5.39.78,1.11,1.57,2.27,3.01,3.43,4.27-.25.24-.5.48-.76.71-1.55,1.36-3.11,2.33-4.48,2.82ZM378.4,139.58c-1.95-.67-3.56-1.54-4.67-2.49-.99-.85-1.49-1.7-1.49-2.39,0-1.47,2.17-3.33,5.79-4.6.44-.15.9-.3,1.38-.44.5,1.64,1.16,3.35,1.95,5.08-.8,1.76-1.47,3.5-1.97,5.15-.33-.1-.66-.2-.99-.31ZM380.34,126.34c-.75-3.86-.25-6.78,1-7.51,1.34-.78,4.3.33,7.42,3.12.2.18.4.37.6.56-1.16,1.26-2.31,2.68-3.41,4.24-1.88.18-3.68.46-5.34.83-.1-.41-.19-.82-.27-1.24ZM397.59,130.63c-.39-.68-.8-1.35-1.22-2.01,1.28.16,2.5.38,3.65.64-.34,1.11-.77,2.27-1.28,3.46-.37-.71-.75-1.4-1.15-2.09ZM390.56,123.73c.79.86,1.58,1.82,2.35,2.86-1.58-.07-3.15-.08-4.73,0,.78-1.03,1.57-1.99,2.37-2.86ZM383.47,130.64c-.39.68-.77,1.38-1.13,2.08-.5-1.19-.92-2.35-1.27-3.48,1.14-.26,2.36-.47,3.63-.63-.42.67-.83,1.34-1.23,2.03ZM384.74,140.91c-1.31-.15-2.55-.35-3.69-.6.35-1.15.79-2.34,1.3-3.55.36.7.74,1.4,1.13,2.08.41.7.82,1.39,1.26,2.07ZM390.6,145.78c-.81-.88-1.62-1.85-2.41-2.9.77.03,1.55.05,2.34.05s1.62-.02,2.41-.05c-.78,1.06-1.57,2.04-2.35,2.91ZM398.76,136.7c.53,1.23.99,2.41,1.34,3.54-1.16.27-2.41.48-3.73.64.42-.67.83-1.36,1.23-2.05.4-.7.79-1.41,1.16-2.13ZM396.12,137.97c-.61,1.06-1.25,2.1-1.92,3.11-1.22.09-2.44.13-3.66.13-1.24,0-2.46-.04-3.62-.11-.69-1.01-1.34-2.06-1.96-3.12-.61-1.06-1.18-2.14-1.71-3.24.53-1.1,1.09-2.18,1.7-3.24h0c.61-1.06,1.25-2.1,1.94-3.11,1.19-.09,2.41-.14,3.64-.14s2.46.05,3.65.14c.68,1.01,1.32,2.04,1.93,3.1.61,1.06,1.18,2.13,1.72,3.23-.53,1.11-1.11,2.19-1.72,3.26ZM399.64,118.78c1.34.78,1.86,3.91,1.02,8.02-.05.26-.11.53-.18.8-1.66-.39-3.46-.67-5.35-.85-1.1-1.57-2.24-3.01-3.38-4.24.3-.29.61-.57.92-.85,2.95-2.58,5.71-3.61,6.97-2.88ZM390.54,131.11c1.97,0,3.57,1.61,3.57,3.59s-1.6,3.59-3.57,3.59-3.57-1.61-3.57-3.59,1.6-3.59,3.57-3.59Z"/></g><rect class="cls-42" x="14.5" y="14.5" width="70" height="70" rx="12" ry="12"/><g class="cls-66"><g class="cls-68"><path class="cls-6" d="M65.59,29.5h-32.19c-2.16,0-3.91,1.75-3.91,3.91v32.19c0,2.16,1.75,3.91,3.91,3.91h32.19c2.16,0,3.91-1.75,3.91-3.91v-32.19c0-2.16-1.75-3.91-3.91-3.91Z"/><path class="cls-31" d="M62.42,34.7h-8.45c-1.04,0-1.88.84-1.88,1.88v13.75c0,1.04.84,1.88,1.88,1.88h8.45c1.04,0,1.88-.84,1.88-1.88v-13.75c0-1.04-.84-1.88-1.88-1.88Z"/><path class="cls-31" d="M45.02,34.7h-8.45c-1.04,0-1.88.84-1.88,1.88v23.75c0,1.04.84,1.88,1.88,1.88h8.45c1.04,0,1.88-.84,1.88-1.88v-23.75c0-1.04-.84-1.88-1.88-1.88Z"/></g></g><rect class="cls-34" x="99.75" y="14.5" width="70" height="70" rx="12" ry="12"/><g class="cls-72"><g class="cls-73"><path class="cls-22" d="M158.53,32.6l-22.52,40.27c-.47.83-1.66.84-2.13,0l-22.97-40.27c-.51-.9.26-1.99,1.28-1.81l22.54,4.03c.14.03.29.03.43,0l22.07-4.02c1.02-.19,1.79.9,1.29,1.8Z"/><path class="cls-30" d="M145.48,25.51l-16.67,3.27c-.27.05-.48.29-.49.56l-1.02,17.31c-.02.41.35.72.75.63l4.64-1.07c.43-.1.83.28.74.72l-1.38,6.75c-.09.45.33.84.78.71l2.87-.87c.44-.13.87.25.78.71l-2.19,10.6c-.14.66.74,1.02,1.11.46l.24-.38,13.58-27.1c.23-.45-.17-.97-.66-.88l-4.78.92c-.45.09-.83-.33-.7-.77l3.12-10.81c.12-.44-.26-.86-.71-.77Z"/></g></g><rect class="cls-44" x="185" y="14.5" width="70" height="70" rx="12" ry="12"/><g class="cls-71"><g class="cls-84"><path class="cls-27" d="M213.25,69.5c3.63,0,6.58-2.99,6.58-6.67v-6.67h-6.58c-3.63,0-6.58,2.99-6.58,6.67s2.95,6.67,6.58,6.67Z"/><path class="cls-19" d="M206.67,49.5c0-3.68,2.95-6.67,6.58-6.67h6.58v13.33h-6.58c-3.63,0-6.58-2.99-6.58-6.67Z"/><path class="cls-1" d="M206.67,36.17c0-3.68,2.95-6.67,6.58-6.67h6.58v13.33h-6.58c-3.63,0-6.58-2.99-6.58-6.67Z"/><path class="cls-13" d="M219.84,29.5h6.58c3.63,0,6.58,2.99,6.58,6.67s-2.95,6.67-6.58,6.67h-6.58v-13.33Z"/><path class="cls-21" d="M233,49.5c0,3.68-2.95,6.67-6.58,6.67s-6.58-2.99-6.58-6.67,2.95-6.67,6.58-6.67,6.58,2.99,6.58,6.67Z"/></g></g><rect class="cls-34" x="270.25" y="14.5" width="70" height="70" rx="12" ry="12"/><g class="cls-70"><path class="cls-31" d="M305.25,29.51l17.66,9.99v19.98l-17.66,9.99-17.66-9.99v-19.98l17.66-9.99Z"/><path class="cls-30" d="M319.75,58.78l-13.92,7.88v-6.13l8.67-4.78,5.24,3.02ZM320.71,57.92v-16.47l-5.09,2.94v10.59l5.09,2.94ZM290.69,58.78l13.92,7.87v-6.13l-8.67-4.77-5.24,3.02ZM289.74,57.92v-16.47l5.09,2.94v10.59l-5.09,2.94ZM290.33,40.39l14.28-8.07v5.93l-9.15,5.03-.07.04-5.06-2.92ZM320.11,40.39l-14.27-8.07v5.93l9.14,5.04.07.04,5.06-2.93Z"/><path class="cls-22" d="M304.61,59.13l-8.55-4.71v-9.32l8.55,4.94v9.09ZM305.84,59.13l8.55-4.7v-9.33l-8.55,4.94v9.09ZM296.63,44.02l8.59-4.72,8.59,4.72-8.59,4.96-8.59-4.96Z"/></g><rect class="cls-45" x="355.48" y="14.5" width="70" height="70" rx="12" ry="12"/><g class="cls-69"><path class="cls-7" d="M401.94,34.88h7.64l-19.1,33.33-19.1-33.33h14.61l4.49,7.73,4.39-7.73h7.07Z"/><path class="cls-7" d="M371.38,34.88l19.1,33.33,19.1-33.33h-7.64l-11.46,20-11.55-20h-7.55Z"/><path class="cls-16" d="M378.93,34.88l11.55,20.1,11.46-20.1h-7.07l-4.39,7.73-4.49-7.73h-7.06Z"/></g></svg>