<svg width="115" height="24" viewBox="0 0 115 24" fill="none" xmlns="http://www.w3.org/2000/svg">
<path d="M32.0027 22.7054V1.00537H35.3227V22.7054H32.0027Z" fill="#10273E"/>
<path d="M44.5739 23.0053C43.2638 23.0053 42.0836 22.6753 41.0236 22.0153C39.9635 21.3553 39.1334 20.4553 38.5134 19.3153C37.8933 18.1753 37.5933 16.9053 37.5933 15.5053C37.5933 14.1053 37.9033 12.7953 38.5134 11.6653C39.1234 10.5253 39.9635 9.62531 41.0236 8.95531C42.0836 8.28531 43.2638 7.94531 44.5739 7.94531C45.684 7.94531 46.664 8.18531 47.5241 8.65531C48.3842 9.12531 49.0643 9.77531 49.5643 10.5953C50.0643 11.4153 50.3244 12.3553 50.3244 13.3953V17.5553C50.3244 18.5953 50.0743 19.5353 49.5843 20.3553C49.0943 21.1753 48.4142 21.8253 47.5441 22.2953C46.6741 22.7653 45.694 23.0053 44.5839 23.0053H44.5739ZM45.1139 19.8753C46.344 19.8753 47.3341 19.4653 48.0942 18.6353C48.8542 17.8053 49.2243 16.7553 49.2243 15.4653C49.2243 14.6053 49.0543 13.8353 48.7142 13.1753C48.3742 12.5153 47.8942 11.9953 47.2741 11.6253C46.664 11.2553 45.934 11.0653 45.1139 11.0653C44.2938 11.0653 43.5938 11.2553 42.9837 11.6253C42.3737 11.9953 41.8836 12.5153 41.5336 13.1753C41.1836 13.8353 41.0036 14.6053 41.0036 15.4653C41.0036 16.3253 41.1836 17.0953 41.5336 17.7553C41.8836 18.4153 42.3737 18.9353 42.9837 19.3053C43.5938 19.6753 44.3038 19.8653 45.1139 19.8653V19.8753ZM49.0143 22.7053V18.8153L49.5843 15.2853L49.0143 11.7853V8.22531H52.3345V22.6953H49.0143V22.7053Z" fill="#10273E"/>
<path d="M55.5146 22.7053V8.23531H58.8349V22.7053H55.5146ZM65.4555 22.7053V14.3553C65.4555 13.3953 65.1455 12.5953 64.5354 11.9753C63.9254 11.3553 63.1253 11.0453 62.1652 11.0453C61.5152 11.0453 60.9451 11.1853 60.4451 11.4653C59.945 11.7453 59.545 12.1353 59.265 12.6453C58.985 13.1453 58.8449 13.7153 58.8449 14.3653L57.5448 13.6453C57.5448 12.5353 57.7848 11.5653 58.2649 10.7053C58.7449 9.85531 59.415 9.17531 60.275 8.68531C61.1351 8.19531 62.0952 7.94531 63.1653 7.94531C64.2354 7.94531 65.2155 8.22531 66.0656 8.77531C66.9156 9.32531 67.5757 10.0453 68.0557 10.9153C68.5358 11.7853 68.7858 12.6953 68.7858 13.6453V22.7153H65.4655L65.4555 22.7053Z" fill="#10273E"/>
<path d="M73.3362 5.58547C72.7762 5.58547 72.3062 5.39547 71.9362 5.01547C71.5662 4.63547 71.3762 4.16547 71.3762 3.59547C71.3762 3.02547 71.5662 2.56547 71.9362 2.17547C72.3062 1.79547 72.7762 1.60547 73.3362 1.60547C73.8962 1.60547 74.3962 1.79547 74.7562 2.17547C75.1162 2.55547 75.2962 3.02547 75.2962 3.59547C75.2962 4.16547 75.1162 4.63547 74.7562 5.01547C74.3962 5.39547 73.9162 5.58547 73.3362 5.58547ZM71.6762 22.7055V8.23547H74.9962V22.7055H71.6762Z" fill="#10273E"/>
<path d="M82.9471 23.0053C82.137 23.0053 81.3669 22.9053 80.6168 22.6853C79.8668 22.4753 79.1867 22.1753 78.5667 21.7853C77.9466 21.3953 77.3966 20.9153 76.9365 20.3553L79.0567 18.2453C79.5567 18.8253 80.1368 19.2653 80.7968 19.5553C81.4469 19.8453 82.187 19.9953 83.0171 19.9953C83.7671 19.9953 84.3272 19.8853 84.7072 19.6653C85.0873 19.4453 85.2773 19.1253 85.2773 18.7053C85.2773 18.2853 85.0972 17.9253 84.7372 17.6853C84.3772 17.4453 83.9072 17.2353 83.3371 17.0653C82.7671 16.8953 82.157 16.7153 81.5269 16.5353C80.8969 16.3553 80.2868 16.1053 79.7168 15.7953C79.1467 15.4853 78.6767 15.0553 78.3166 14.5153C77.9566 13.9753 77.7766 13.2653 77.7766 12.4053C77.7766 11.4853 77.9966 10.6853 78.4266 10.0253C78.8567 9.36531 79.4768 8.84531 80.2668 8.48531C81.0569 8.12531 82.017 7.94531 83.1271 7.94531C84.2972 7.94531 85.3272 8.15531 86.2273 8.56531C87.1274 8.97531 87.8775 9.59531 88.4775 10.4153L86.3573 12.5253C85.9373 12.0053 85.4473 11.6153 84.9072 11.3453C84.3672 11.0853 83.7372 10.9553 83.0371 10.9553C82.377 10.9553 81.8569 11.0553 81.4969 11.2553C81.1369 11.4553 80.9569 11.7453 80.9569 12.1253C80.9569 12.5253 81.1369 12.8353 81.4969 13.0653C81.8569 13.2953 82.327 13.4753 82.8971 13.6353C83.4671 13.7953 84.0772 13.9753 84.7072 14.1653C85.3373 14.3553 85.9473 14.6153 86.5174 14.9453C87.0874 15.2753 87.5574 15.7153 87.9175 16.2753C88.2775 16.8353 88.4575 17.5453 88.4575 18.4353C88.4575 19.8453 87.9675 20.9553 86.9774 21.7753C85.9873 22.5953 84.6472 23.0153 82.9571 23.0153L82.9471 23.0053Z" fill="#10273E"/>
<path d="M89.4177 11.2553V8.24533H99.6877V11.2553H89.4177ZM92.8978 22.7053V2.21533H96.2178V22.7053H92.8978Z" fill="#10273E"/>
<path d="M107.239 23.0053C105.929 23.0053 104.749 22.6753 103.689 22.0153C102.629 21.3553 101.799 20.4553 101.179 19.3153C100.559 18.1753 100.259 16.9053 100.259 15.5053C100.259 14.1053 100.569 12.7953 101.179 11.6653C101.789 10.5253 102.629 9.62531 103.689 8.95531C104.749 8.28531 105.929 7.94531 107.239 7.94531C108.349 7.94531 109.329 8.18531 110.189 8.65531C111.049 9.12531 111.73 9.77531 112.23 10.5953C112.73 11.4153 112.99 12.3553 112.99 13.3953V17.5553C112.99 18.5953 112.74 19.5353 112.25 20.3553C111.76 21.1753 111.079 21.8253 110.209 22.2953C109.339 22.7653 108.359 23.0053 107.249 23.0053H107.239ZM107.779 19.8753C109.009 19.8753 109.999 19.4653 110.759 18.6353C111.52 17.8053 111.89 16.7553 111.89 15.4653C111.89 14.6053 111.72 13.8353 111.38 13.1753C111.039 12.5153 110.559 11.9953 109.939 11.6253C109.329 11.2553 108.599 11.0653 107.779 11.0653C106.959 11.0653 106.259 11.2553 105.649 11.6253C105.039 11.9953 104.549 12.5153 104.199 13.1753C103.849 13.8353 103.669 14.6053 103.669 15.4653C103.669 16.3253 103.849 17.0953 104.199 17.7553C104.549 18.4153 105.039 18.9353 105.649 19.3053C106.259 19.6753 106.969 19.8653 107.779 19.8653V19.8753ZM111.68 22.7053V18.8153L112.25 15.2853L111.68 11.7853V8.22531H115V22.6953H111.68V22.7053Z" fill="#10273E"/>
<path d="M21.6567 0.00174832L0.00415039 21.6543L2.34478 23.9949L23.9973 2.34237L21.6567 0.00174832Z" fill="#E9515E"/>
<path d="M3.31029 3.31537H12.001V0.00537109H3.31029H0V3.31537V12.0054H3.31029V3.31537Z" fill="#E9515E"/>
<path d="M20.6917 12.0054V20.6954H12.001V24.0054H24.002V23.5954V20.6954V12.0054H20.6917Z" fill="#E9515E"/>
</svg>
