<?xml version="1.0" encoding="utf-8"?>
<!-- Generator: Adobe Illustrator 24.0.2, SVG Export Plug-In . SVG Version: 6.00 Build 0)  -->
<svg version="1.1" id="katman_1" xmlns="http://www.w3.org/2000/svg" xmlns:xlink="http://www.w3.org/1999/xlink" x="0px" y="0px"
	 viewBox="0 0 500 164" style="enable-background:new 0 0 500 164;" xml:space="preserve">
<style type="text/css">
	.st0{fill-rule:evenodd;clip-rule:evenodd;fill:#3C294A;}
	.st1{fill:#3C294A;}
</style>
<path class="st0" d="M33.4,66.5c3.3,2.5,7.1,3.7,11.2,3.7c6.1,0,11.9-2.9,15.5-7.8c3.1-4.2,4.2-9.2,3.4-14.2
	c-0.7-5-3.4-9.4-7.6-12.4c-3.3-2.5-7.1-3.7-11.2-3.7c-6.1,0-11.9,2.9-15.5,7.8C26.1,44,25,49,25.7,54.1
	C26.5,59.1,29.2,63.5,33.4,66.5z M1.6,114.1C17.7,125.8,36.7,132,56.7,132c30.1,0,59.3-15.6,76.9-39.9l-30.3-22
	c-8.8,12.2-22.8,21.3-37.7,23.7c-2.9,0.5-5.9,0.7-8.9,0.7c-12,0-23.4-3.7-33.1-10.8l-1.1-0.8l-22,30.3L1.6,114.1z"/>
<path class="st1" d="M471.9,132c-4.8,0-9.1-0.8-12.8-2.5c-3.6-1.7-6.7-3.9-9.2-6.6c-2.4-2.8-4.3-6-5.6-9.4
	c-1.2-3.5-1.9-7.1-1.9-10.7v-2.1c0-3.8,0.6-7.4,1.9-10.8c1.3-3.5,3.2-6.6,5.6-9.4c2.4-2.8,5.4-4.9,9-6.5c3.6-1.7,7.8-2.5,12.4-2.5
	c6.1,0,11.1,1.4,15.3,4.1c4.2,2.7,7.4,6.2,9.6,10.6c2.2,4.3,3.3,9.1,3.3,14.2v5.6h-50.1v-9.4h40.1l-5.4,4.3c0-3.4-0.5-6.3-1.4-8.7
	c-1-2.4-2.4-4.2-4.3-5.5c-1.9-1.3-4.2-2-7-2c-2.9,0-5.3,0.7-7.3,2c-2,1.3-3.5,3.2-4.5,5.8c-1,2.5-1.5,5.5-1.5,9.2
	c0,3.4,0.5,6.3,1.4,8.9c1,2.5,2.5,4.4,4.5,5.8c2.1,1.4,4.8,2.1,8.1,2.1c3,0,5.5-0.6,7.4-1.8s3.2-2.6,3.9-4.3h15.2
	c-0.8,3.8-2.4,7.2-4.9,10.1c-2.4,3-5.4,5.3-9.1,6.9C480.9,131.2,476.7,132,471.9,132z"/>
<path class="st1" d="M349.3,131.8V56.4h23.3l17.2,42.3h2l17-42.3h23.7v75.4h-16.7V67.5l2.4,0.2l-19.9,48.8h-16.1l-20-48.8l2.6-0.2
	v64.3H349.3z"/>
<path class="st1" d="M294.5,131.4v-12.3l28.1-33.7v1.8l-2.6-3.3l2,1h-27.3V71.3h47.1v12.3l-28.1,33.7v-1.6l2.6,3.3l-2-1.1h28.3v13.5
	H294.5z"/>
<path class="st1" d="M261.8,132c-4.8,0-9.1-0.8-12.8-2.5c-3.6-1.7-6.7-3.9-9.2-6.6c-2.4-2.8-4.3-6-5.6-9.4
	c-1.2-3.5-1.9-7.1-1.9-10.7v-2.1c0-3.8,0.6-7.4,1.9-10.8c1.3-3.5,3.2-6.6,5.6-9.4c2.4-2.8,5.4-4.9,9-6.5c3.6-1.7,7.8-2.5,12.4-2.5
	c6.1,0,11.2,1.4,15.3,4.1c4.2,2.7,7.4,6.2,9.6,10.6c2.2,4.3,3.3,9.1,3.3,14.2v5.6h-50.1v-9.4h40.1L274,101c0-3.4-0.5-6.3-1.4-8.7
	c-1-2.4-2.4-4.2-4.3-5.5c-1.9-1.3-4.2-2-7-2c-2.9,0-5.3,0.7-7.3,2c-2,1.3-3.5,3.2-4.5,5.8c-1,2.5-1.5,5.5-1.5,9.2
	c0,3.4,0.5,6.3,1.4,8.9c1,2.5,2.5,4.4,4.5,5.8c2.1,1.4,4.7,2.1,8.1,2.1c3,0,5.5-0.6,7.4-1.8c1.9-1.2,3.2-2.6,3.9-4.3h15.2
	c-0.8,3.8-2.4,7.2-4.9,10.1c-2.4,3-5.4,5.3-9.1,6.9C270.7,131.2,266.5,132,261.8,132z"/>
<path class="st1" d="M163.6,131.7v-76h16.9v76H163.6z M208.5,131.7l-14.7-32.2h18.5l15.1,32.2H208.5z M178.4,104V90.7h19.6
	c3.4,0,5.9-0.9,7.5-2.7c1.7-1.8,2.6-4.3,2.6-7.5s-0.9-5.7-2.6-7.4c-1.7-1.8-4.2-2.7-7.5-2.7h-19.6V55.7h18.7
	c5.6,0,10.5,0.9,14.7,2.6c4.3,1.7,7.6,4.3,9.9,7.7c2.4,3.4,3.6,7.8,3.6,13v1.7c0,5.2-1.2,9.6-3.6,13.1c-2.3,3.4-5.6,6-9.8,7.7
	c-4.2,1.7-9.1,2.5-14.8,2.5H178.4z"/>
</svg>
