<svg width="85" height="24" viewBox="0 0 85 24" fill="none" xmlns="http://www.w3.org/2000/svg">
<g clip-path="url(#clip0_479_6608)">
<path d="M53.7812 23.2365C53.7466 23.3214 53.7338 23.4135 53.7439 23.5045C53.754 23.5955 53.7866 23.6826 53.839 23.7581C53.8913 23.8337 53.9618 23.8953 54.044 23.9375C54.1263 23.9797 54.2178 24.0011 54.3104 24H60.35C60.686 24 60.896 23.4772 60.728 23.0539L58.5776 17.5933C58.5543 17.5092 58.5057 17.434 58.4382 17.3777C58.3707 17.3214 58.2875 17.2866 58.1996 17.278H56.9816C56.8889 17.2775 56.7975 17.2993 56.7153 17.3414C56.6331 17.3836 56.5625 17.4449 56.5096 17.52C56.4566 17.5952 56.423 17.6819 56.4116 17.7727C56.4002 17.8636 56.4113 17.9558 56.444 18.0415L57.4604 20.6141C57.536 20.8132 57.4604 21.0539 57.284 21.0539H55.0328C54.9183 21.0531 54.8064 21.0869 54.7118 21.1507C54.6172 21.2144 54.5446 21.3052 54.5036 21.4108L53.7812 23.2365Z" fill="#E9515E"/>
<path d="M55.8476 7.18677H57.9644C58.0148 7.18677 58.04 7.25313 58.0148 7.31122L51.74 23.1619C51.675 23.3823 51.5454 23.5787 51.3675 23.7264C51.1896 23.8741 50.9714 23.9665 50.7404 23.9917H48.7244C48.632 23.9917 48.5816 23.8507 48.6236 23.7345L54.848 8.01664C54.913 7.79622 55.0426 7.59973 55.2205 7.45203C55.3984 7.30433 55.6166 7.21205 55.8476 7.18677Z" fill="#E9515E"/>
<path d="M52.9664 7.73449C52.9913 7.67369 53.0006 7.60777 52.9935 7.54257C52.9864 7.47736 52.9631 7.41486 52.9257 7.36068C52.8883 7.30649 52.838 7.26231 52.7791 7.23197C52.7203 7.20163 52.6548 7.1861 52.5884 7.18679H46.3052C45.9776 7.18679 45.7676 7.70962 45.9356 8.13286L48.086 13.5934C48.1082 13.6781 48.1566 13.754 48.2243 13.8104C48.292 13.8669 48.3757 13.9013 48.464 13.9088H49.9172C49.9826 13.9083 50.0469 13.8926 50.1048 13.8627C50.1628 13.8329 50.2128 13.7898 50.2505 13.7371C50.2883 13.6843 50.3128 13.6235 50.322 13.5595C50.3312 13.4956 50.3249 13.4304 50.3035 13.3694L49.2031 10.5727C49.1275 10.3735 49.2032 10.1328 49.3796 10.1328H51.74C51.8212 10.1298 51.8998 10.104 51.9668 10.0584C52.0337 10.0129 52.0862 9.94947 52.118 9.87558L52.9664 7.73449Z" fill="#E9515E"/>
<path d="M1.67604 22.6971C0.892036 21.823 0.500016 20.426 0.500016 18.5063V0.887975C0.491935 0.774209 0.50768 0.660049 0.546261 0.552561C0.584841 0.445072 0.645447 0.346561 0.724269 0.263239C0.80309 0.179916 0.89846 0.113571 1.00441 0.0682808C1.11035 0.0229909 1.22458 -0.000277288 1.34002 2.49345e-06H3.3728C3.6023 0.0107653 3.81849 0.109608 3.97537 0.275446C4.13225 0.441284 4.21744 0.661033 4.2128 0.887975V17.9751C4.14506 18.7495 4.30246 19.5268 4.66643 20.2158C4.83678 20.4416 5.05519 20.6278 5.30628 20.7611C5.55737 20.8945 5.835 20.9718 6.11962 20.9876L6.7328 21.0706C6.94489 21.1045 7.13738 21.2131 7.27477 21.3763C7.41217 21.5395 7.48521 21.7463 7.48041 21.9585V23.1535C7.48505 23.3805 7.39987 23.6002 7.24299 23.7661C7.08611 23.9319 6.86991 24.0308 6.64041 24.0415H5.29643C4.63059 24.0881 3.96241 23.9921 3.33758 23.7601C2.71275 23.528 2.14598 23.1655 1.67604 22.6971Z" fill="white"/>
<path d="M10.0592 22.8549C9.67111 22.4411 9.37083 21.9548 9.17607 21.4246C8.98131 20.8944 8.89602 20.331 8.92521 19.7677V18.3486C8.89908 17.7544 9.00253 17.1616 9.22862 16.6103C9.45471 16.0591 9.79816 15.5622 10.2356 15.1536C11.3443 14.2815 12.7451 13.8548 14.1584 13.9586H17.93C18.0454 13.9588 18.1597 13.9356 18.2656 13.8903C18.3716 13.845 18.4669 13.7787 18.5457 13.6953C18.6246 13.612 18.6852 13.5135 18.7237 13.4061C18.7623 13.2986 18.7781 13.1844 18.77 13.0706V12.4814C18.7929 11.964 18.6892 11.4487 18.4676 10.9793C18.2107 10.5768 17.8131 10.2815 17.3504 10.1495C16.586 9.92013 15.7882 9.81911 14.99 9.85067H10.9496C10.7201 9.83991 10.5039 9.74112 10.347 9.57528C10.1901 9.40944 10.105 9.18969 10.1096 8.96275V8.29055C10.1147 8.09875 10.1831 7.9138 10.3044 7.76398C10.4257 7.61416 10.5933 7.50767 10.7816 7.46068C12.6455 7.03191 14.5547 6.82569 16.4684 6.84653C18.5292 6.84653 20.058 7.26701 21.0548 8.10795C22.0516 8.94889 22.55 10.3486 22.55 12.3071V22.9959C22.5581 23.1097 22.5423 23.2239 22.5037 23.3314C22.4652 23.4389 22.4046 23.5373 22.3257 23.6207C22.2469 23.704 22.1516 23.7704 22.0456 23.8157C21.9397 23.861 21.8254 23.8842 21.71 23.8839H20.2316C20.0452 23.8918 19.8615 23.8381 19.7094 23.7314C19.5574 23.6247 19.4455 23.4711 19.3916 23.2947L19.3244 23.1121C19.2885 22.9935 19.2262 22.8842 19.142 22.7925C19.0579 22.7007 18.954 22.6287 18.838 22.5817C18.722 22.5348 18.5969 22.5141 18.4717 22.5211C18.3466 22.5282 18.2246 22.5628 18.1148 22.6225L17.72 22.8382C17.0161 23.1799 16.2823 23.4577 15.5276 23.6681C14.7109 23.9148 13.8616 24.0407 13.0076 24.0416C12.4599 24.0548 11.9154 23.9562 11.4081 23.752C10.9008 23.5478 10.4416 23.2424 10.0592 22.8549ZM17.1068 20.8133C17.5688 20.664 17.9468 20.5478 18.2072 20.4399C18.379 20.378 18.527 20.2649 18.6308 20.1162C18.7347 19.9675 18.7892 19.7906 18.7868 19.61V16.7552C18.7956 16.6364 18.7783 16.5172 18.7362 16.4055C18.6942 16.2938 18.6282 16.1924 18.543 16.1082C18.4577 16.0239 18.3551 15.9588 18.2421 15.9172C18.129 15.8756 18.0083 15.8586 17.888 15.8673L15.2756 16.0084C13.5228 16.1578 12.6464 16.9627 12.6464 18.4233V19.1121C12.6129 19.4174 12.6516 19.7262 12.7595 20.0143C12.8673 20.3023 13.0414 20.5616 13.268 20.7719C13.7203 21.1227 14.2806 21.3101 14.8556 21.303C15.6269 21.2544 16.3861 21.0893 17.1068 20.8133Z" fill="white"/>
<path d="M25.4984 7.18677H27.1196C27.3007 7.1762 27.4804 7.22383 27.6318 7.32256C27.7833 7.42129 27.8982 7.56579 27.9596 7.73446L28.0352 7.92537C28.077 8.04137 28.1444 8.14671 28.2326 8.23379C28.3207 8.32086 28.4273 8.38743 28.5447 8.42874C28.6621 8.47006 28.7874 8.48504 28.9114 8.47261C29.0354 8.46018 29.155 8.42064 29.2616 8.35687C29.8123 8.01604 30.3911 7.72178 30.992 7.4772C31.8999 7.10287 32.8726 6.90559 33.8564 6.89628C34.5855 6.83594 35.3183 6.95613 35.9886 7.24593C36.6588 7.53572 37.2454 7.98598 37.6952 8.55603C38.5397 9.82322 38.9544 11.3229 38.8796 12.8382V23.1536C38.8842 23.3805 38.799 23.6003 38.6422 23.7661C38.4853 23.9319 38.2691 24.0308 38.0396 24.0415H36.0068C35.8914 24.0418 35.7771 24.0186 35.6712 23.9733C35.5652 23.928 35.4698 23.8616 35.391 23.7783C35.3122 23.695 35.2516 23.5965 35.2131 23.489C35.1745 23.3815 35.1587 23.2673 35.1668 23.1536V13.2698C35.2129 12.5035 34.9536 11.7499 34.4444 11.1702C34.1879 10.9139 33.8794 10.7141 33.5392 10.584C33.199 10.4538 32.8347 10.3963 32.4704 10.415C31.7687 10.4077 31.0715 10.5258 30.4124 10.7635C29.8827 10.9617 29.3759 11.2148 28.9004 11.5187C28.7711 11.6009 28.6649 11.7139 28.5915 11.8474C28.5181 11.9808 28.4799 12.1304 28.4804 12.2822V23.1536C28.485 23.3805 28.3998 23.6003 28.243 23.7661C28.0861 23.9319 27.8699 24.0308 27.6404 24.0415H25.6076C25.4922 24.0418 25.3779 24.0186 25.2719 23.9733C25.166 23.928 25.0707 23.8616 24.9919 23.7783C24.913 23.695 24.8524 23.5965 24.8139 23.489C24.7753 23.3815 24.7595 23.2673 24.7676 23.1536V8.07474C24.7508 7.86235 24.8173 7.65167 24.9533 7.48637C25.0894 7.32107 25.2845 7.21381 25.4984 7.18677Z" fill="white"/>
<path d="M41.7944 7.18677H43.8272C43.9427 7.18649 44.0569 7.20971 44.1628 7.255C44.2688 7.30029 44.3641 7.36668 44.443 7.45001C44.5218 7.53333 44.5824 7.63179 44.621 7.73928C44.6595 7.84677 44.6753 7.96098 44.6672 8.07474V23.1536C44.6753 23.2673 44.6595 23.3815 44.621 23.489C44.5824 23.5965 44.5218 23.695 44.443 23.7783C44.3641 23.8616 44.2688 23.928 44.1628 23.9733C44.0569 24.0186 43.9427 24.0418 43.8272 24.0415H41.7944C41.679 24.0418 41.5647 24.0186 41.4588 23.9733C41.3528 23.928 41.2574 23.8616 41.1786 23.7783C41.0998 23.695 41.0392 23.5965 41.0006 23.489C40.962 23.3815 40.9463 23.2673 40.9544 23.1536V8.07474C40.9463 7.96098 40.962 7.84677 41.0006 7.73928C41.0392 7.63179 41.0998 7.53333 41.1786 7.45001C41.2574 7.36668 41.3528 7.30029 41.4588 7.255C41.5647 7.20971 41.679 7.18649 41.7944 7.18677Z" fill="white"/>
<path d="M43.256 2.52283H42.374C41.5807 2.52283 40.9376 3.15817 40.9376 3.94191V5.15353C40.9376 5.93727 41.5807 6.57262 42.374 6.57262H43.256C44.0493 6.57262 44.6924 5.93727 44.6924 5.15353V3.94191C44.6924 3.15817 44.0493 2.52283 43.256 2.52283Z" fill="white"/>
<path d="M62.8448 22.6805C62.0636 21.8008 61.7024 20.3154 61.736 18.2241L61.8452 11.2282C61.8557 11.1131 61.8418 10.9971 61.8043 10.8877C61.7669 10.7782 61.7066 10.6777 61.6276 10.5925C61.5485 10.5074 61.4523 10.4394 61.3451 10.3931C61.2379 10.3468 61.1222 10.3232 61.0052 10.3237H60.1652C59.935 10.3108 59.7187 10.2102 59.5621 10.043C59.4054 9.87587 59.3205 9.6552 59.3252 9.42742V8.52284C59.3316 8.33141 59.4006 8.14719 59.5217 7.99763C59.6428 7.84807 59.8096 7.74118 59.9972 7.69296L61.4 7.36099C61.5764 7.31606 61.7345 7.21883 61.8532 7.0823C61.9719 6.94578 62.0453 6.77656 62.0636 6.59752L62.4416 3.27802C62.4524 3.06519 62.5456 2.86463 62.702 2.71786C62.8583 2.57109 63.0659 2.48936 63.2816 2.48962H64.6088C64.839 2.50247 65.0552 2.60306 65.2119 2.77023C65.3686 2.9374 65.4535 3.15813 65.4488 3.3859V6.30708C65.4441 6.53486 65.529 6.75553 65.6856 6.9227C65.8423 7.08987 66.0585 7.19051 66.2888 7.20336H68.6828C68.9123 7.21412 69.1285 7.31292 69.2854 7.47875C69.4423 7.64459 69.5274 7.86434 69.5228 8.09128V9.44399C69.5275 9.67176 69.4426 9.89249 69.2859 10.0597C69.1292 10.2268 68.913 10.3274 68.6828 10.3403H66.2888C66.1733 10.34 66.0591 10.3632 65.9532 10.4085C65.8472 10.4538 65.7519 10.5202 65.673 10.6035C65.5942 10.6868 65.5336 10.7853 65.495 10.8928C65.4564 11.0003 65.4407 11.1145 65.4488 11.2282V18.1743C65.3746 18.8979 65.5621 19.624 65.978 20.2241C66.3316 20.6161 66.8255 20.8572 67.3556 20.8963L68.6072 21.0374C68.8239 21.0659 69.0224 21.1721 69.1649 21.3359C69.3074 21.4996 69.384 21.7094 69.38 21.9253V23.1535C69.3881 23.2673 69.3724 23.3815 69.3338 23.489C69.2952 23.5965 69.2346 23.695 69.1558 23.7783C69.077 23.8616 68.9816 23.928 68.8756 23.9733C68.7697 24.0186 68.6555 24.0418 68.54 24.0415H66.7004C64.9112 23.9834 63.6176 23.5602 62.8448 22.6805Z" fill="white"/>
<path d="M72.0092 22.8549C71.6211 22.4412 71.3208 21.9548 71.126 21.4246C70.9313 20.8944 70.8459 20.331 70.8751 19.7677V18.3486C70.8501 17.7538 70.9549 17.1606 71.1824 16.6093C71.41 16.058 71.755 15.5615 72.194 15.1536C73.3027 14.2815 74.7035 13.8548 76.1167 13.9586H79.8883C80.0037 13.9589 80.1181 13.9356 80.224 13.8903C80.33 13.8451 80.4253 13.7787 80.5042 13.6953C80.583 13.612 80.6436 13.5136 80.6822 13.4061C80.7207 13.2986 80.7364 13.1844 80.7283 13.0706V12.4814C80.7513 11.964 80.6475 11.4487 80.4259 10.9793C80.1673 10.5784 79.7704 10.2836 79.3088 10.1495C78.5444 9.92014 77.7465 9.81912 76.9483 9.85068H72.8996C72.7841 9.85096 72.6699 9.82774 72.5639 9.78245C72.458 9.73716 72.3626 9.67082 72.2838 9.58749C72.205 9.50417 72.1444 9.40566 72.1058 9.29817C72.0672 9.19068 72.0515 9.07652 72.0596 8.96276V8.29056C72.0646 8.09876 72.1331 7.91381 72.2544 7.76399C72.3757 7.61416 72.5433 7.50768 72.7316 7.46068C74.5926 7.03187 76.4991 6.82565 78.41 6.84653C80.4764 6.84653 81.9968 7.26979 82.9964 8.10796C83.996 8.94614 84.5 10.3403 84.5 12.3071V22.9959C84.5046 23.2229 84.4194 23.4426 84.2625 23.6085C84.1056 23.7743 83.8895 23.8731 83.66 23.8839H82.19C82.0036 23.8918 81.8199 23.8381 81.6678 23.7314C81.5157 23.6248 81.4039 23.4711 81.35 23.2947L81.2827 23.1121C81.2469 22.9935 81.1846 22.8842 81.1004 22.7925C81.0163 22.7007 80.9124 22.6287 80.7964 22.5818C80.6804 22.5348 80.5553 22.5141 80.4301 22.5211C80.305 22.5282 80.183 22.5628 80.0732 22.6225L79.6783 22.8383C78.9732 23.1771 78.2397 23.4548 77.4859 23.6681C76.6692 23.9147 75.82 24.0405 74.9659 24.0416C74.4169 24.0554 73.871 23.9572 73.3622 23.753C72.8534 23.5488 72.3929 23.243 72.0092 22.8549ZM79.0651 20.8134C79.5187 20.664 79.9052 20.5478 80.1656 20.4399C80.336 20.3759 80.4827 20.2623 80.5862 20.1141C80.6897 19.9659 80.7451 19.7901 80.7451 19.61V16.7552C80.754 16.6357 80.7366 16.5156 80.6941 16.4033C80.6515 16.291 80.5848 16.1892 80.4986 16.1048C80.4124 16.0204 80.3087 15.9555 80.1947 15.9145C80.0806 15.8735 79.9589 15.8574 79.838 15.8673L77.234 16.0084C75.4812 16.1578 74.602 16.9627 74.5964 18.4233V19.1121C74.5648 19.4173 74.6044 19.7255 74.7121 20.0133C74.8199 20.301 74.9929 20.5605 75.218 20.7719C75.6751 21.1198 76.2369 21.3068 76.814 21.303C77.5853 21.2544 78.3445 21.0893 79.0651 20.8134Z" fill="white"/>
</g>
<defs>
<clipPath id="clip0_479_6608">
<rect width="84" height="24" fill="white" transform="translate(0.5)"/>
</clipPath>
</defs>
</svg>
