<svg width="28" height="32" viewBox="0 0 28 32" fill="none" xmlns="http://www.w3.org/2000/svg">
<g clip-path="url(#clip0_461_1245)">
<path d="M18.7552 0H22.736C22.8192 0 22.8736 0.1344 22.832 0.24L11.0272 30.4C10.64 31.392 9.92319 32 9.14559 32H5.3536C5.1872 32 5.08159 31.7344 5.16479 31.52L16.8768 1.6032C17.264 0.611203 17.9808 0 18.7552 0Z" fill="#EA525F"/>
<path d="M13.3344 1.04C13.3798 0.924413 13.3962 0.799483 13.3823 0.676085C13.3683 0.552688 13.3244 0.434566 13.2544 0.332023C13.1844 0.22948 13.0903 0.145625 12.9804 0.0877554C12.8705 0.0298856 12.7482 -0.000244474 12.624 1.49396e-06H0.812799C0.1728 1.49396e-06 -0.201604 0.9984 0.108796 1.7984L4.1568 12.192C4.2004 12.3516 4.29074 12.4944 4.4162 12.6022C4.54166 12.71 4.69651 12.7778 4.86081 12.7968H7.60639C7.73045 12.7974 7.85278 12.7676 7.96272 12.7101C8.07266 12.6527 8.1669 12.5692 8.23723 12.467C8.30757 12.3648 8.35187 12.247 8.36629 12.1238C8.38072 12.0006 8.36483 11.8757 8.32001 11.76L6.2528 6.43841C6.1088 6.06721 6.2912 5.60001 6.5728 5.60001H11.0112C11.1644 5.59988 11.314 5.55374 11.4407 5.46759C11.5673 5.38144 11.6652 5.25923 11.7216 5.11681L13.3344 1.04Z" fill="#EA525F"/>
<path d="M14.736 30.5439C14.6723 30.7056 14.6492 30.8803 14.6685 31.0529C14.6878 31.2255 14.749 31.3908 14.8468 31.5343C14.9446 31.6779 15.076 31.7954 15.2296 31.8765C15.3832 31.9577 15.5543 32 15.728 32H27.0944C27.7344 32 28.1087 31.0047 27.7983 30.2047L23.7504 19.8016C23.7066 19.6424 23.6161 19.5 23.4906 19.3928C23.3652 19.2855 23.2104 19.2184 23.0463 19.2H20.7488C20.5749 19.199 20.4035 19.2407 20.2494 19.3212C20.0954 19.4017 19.9634 19.5187 19.8649 19.662C19.7664 19.8053 19.7045 19.9705 19.6846 20.1431C19.6646 20.3158 19.6872 20.4908 19.7504 20.6528L21.6704 25.5552C21.8144 25.9296 21.632 26.3936 21.3504 26.3936H17.0944C16.88 26.3937 16.6706 26.4585 16.4936 26.5796C16.3166 26.7006 16.1803 26.8722 16.1024 27.072L14.736 30.5439Z" fill="#EA525F"/>
</g>
<defs>
<clipPath id="clip0_461_1245">
<rect width="27.9072" height="32" fill="white"/>
</clipPath>
</defs>
</svg>
